<svg width="1283" height="704" preserveAspectRatio="none" viewBox="0 0 1283 704" fill="none" xmlns="http://www.w3.org/2000/svg">
<path fill-rule="evenodd" clip-rule="evenodd" d="M1282.76 479.961C1282.97 480.255 1283.06 493.792 1282.96 510.044C1282.76 543.702 1281.99 548.777 1275.2 561.709C1269.94 571.703 1260.03 584.13 1257.3 584.13C1256.79 584.13 1256.04 584.878 1255.63 585.792C1254.73 587.783 1252.28 590.013 1247.92 592.793C1246.14 593.923 1243.39 596.258 1241.81 597.982C1240.22 599.705 1236.83 602.093 1234.27 603.288C1231.72 604.485 1228.79 605.999 1227.76 606.656C1223.34 609.474 1212.55 614.675 1209.71 615.359C1208.02 615.766 1205.91 616.678 1205.04 617.384C1202.64 619.319 1186.59 625.345 1183.83 625.345C1182.5 625.345 1179.98 626.196 1178.23 627.235C1176.48 628.275 1171.76 629.804 1167.74 630.632C1163.72 631.462 1158.24 633.012 1155.57 634.078C1150.38 636.146 1147.81 636.756 1138.92 638.04C1135.84 638.486 1132.47 639.358 1131.44 639.977C1128.94 641.488 1117.76 643.842 1105.72 645.392C1100.32 646.089 1094.43 647.232 1092.63 647.936C1089.75 649.061 1079.7 650.818 1075.8 650.881C1075.03 650.893 1071.24 651.491 1067.38 652.209C1063.53 652.927 1055.74 654.002 1050.08 654.601C1044.43 655.199 1038.13 656.062 1036.1 656.516C1034.06 656.973 1028.8 657.942 1024.41 658.669C1020.01 659.398 1015.13 660.215 1013.56 660.486C1011.99 660.758 1009.04 661.597 1007.02 662.349C1001.69 664.325 993.819 666.365 987.896 667.304C985.067 667.754 981.49 668.659 979.947 669.318C978.404 669.978 975.459 670.809 973.401 671.165C965.768 672.489 956.484 674.716 953.763 675.877C952.22 676.535 947.17 677.762 942.541 678.606C937.912 679.449 933.158 680.674 931.977 681.326C930.796 681.979 928.19 682.514 926.187 682.514C924.184 682.514 922.297 683.087 921.992 683.786C921.688 684.487 920.296 685.04 918.898 685.017C917.501 684.995 913.832 685.319 910.746 685.738C898.998 687.333 891.541 687.776 839.675 689.964C815.558 690.981 794.994 692.481 784.501 693.99C782.444 694.285 777.394 694.761 773.279 695.047C769.165 695.333 763.063 695.941 759.72 696.398C756.376 696.854 750.695 697.465 747.095 697.755C718.766 700.037 709.618 700.861 697.065 702.257C684.119 703.697 689.196 703.543 641.423 703.947C606.669 704.241 573.918 703.291 564.273 701.709C556.138 700.374 539.144 698.432 535.751 698.448C533.694 698.459 527.382 698.162 521.724 697.791C510.357 697.047 478.907 695.843 467.953 695.736C464.096 695.697 458.056 695.094 454.533 694.394C451.008 693.694 444.696 692.812 440.506 692.433C436.314 692.056 430.991 691.182 428.677 690.494C421.44 688.341 414.424 686.524 407.651 685.044C404.058 684.261 399.694 682.772 397.952 681.737C396.208 680.702 393.814 679.855 392.63 679.855C391.505 679.855 387.223 678.801 382.906 677.473L382.224 677.261C377.684 675.834 370.183 673.698 365.554 672.513C360.925 671.329 356.296 669.801 355.268 669.119C353.668 668.058 339.548 665.411 333.759 665.087C332.731 665.029 328.943 664.43 325.343 663.756C318.556 662.485 307.708 661.396 294.015 660.613C273.929 659.463 261.305 658.331 256.142 657.217C253.056 656.552 246.744 655.667 242.115 655.249C237.486 654.833 231.594 654.238 229.022 653.927C226.451 653.616 220.349 653.013 215.463 652.588C210.577 652.162 204.264 651.224 201.436 650.5C198.607 649.779 193.557 648.91 190.214 648.573C186.871 648.235 180.769 647.036 176.654 645.906C172.54 644.777 168.121 643.652 166.835 643.406C161.315 642.349 143.038 635.84 142.568 634.764C142.285 634.116 139.529 632.572 136.443 631.333C123.936 626.311 107.921 616.873 107.921 614.524C107.921 613.894 107.131 613.379 106.164 613.379C105.199 613.379 103.886 612.482 103.245 611.385C102.604 610.288 101.312 609.391 100.371 609.391C99.4314 609.391 98.3261 608.574 97.9147 607.576C97.5032 606.579 95.6936 604.7 93.8935 603.403C92.0933 602.105 90.4101 600.625 90.1529 600.116C89.8958 599.607 87.7917 597.615 85.4772 595.691C80.7667 591.776 45.1638 542.068 41.5252 534.325C40.2393 531.59 38.5561 528.36 37.7846 527.148C35.4289 523.447 30.3034 511.543 30.3034 509.77C30.3034 508.853 29.4617 506.581 28.433 504.722C27.4043 502.862 26.5628 500.513 26.5628 499.501C26.5628 498.489 25.3003 494.297 23.7573 490.187C22.2143 486.076 20.9518 481.72 20.9518 480.506L20.9463 480.259C20.8944 479.084 20.4896 477.644 20.0027 476.951C19.4809 476.209 18.4793 471.454 17.777 466.382C17.0738 461.311 16.0283 455.477 15.4523 453.419C14.8771 451.361 14.4058 448.113 14.4058 446.201C14.4058 444.289 14.0233 440.888 13.5568 438.643C10.626 424.549 9.72536 419.199 9.28676 413.288C9.0165 409.632 8.57509 404.845 8.30776 402.652C6.65065 389.089 3.26723 348.36 3.7123 347.337C3.94325 346.805 3.72743 344.854 3.23085 343C2.73524 341.146 2.09462 331.972 1.80849 322.614C1.52138 313.254 1.05287 298.717 0.767591 290.308C-0.80724 243.905 0.000619818 216.566 3.56739 195.913C4.26222 191.891 4.86536 187.404 4.90931 185.941C5.14027 178.263 7.40162 164.209 9.18775 159.351C9.99378 157.157 10.6625 153.867 10.6727 152.039C10.7241 143.018 24.0294 117.699 32.0624 111.334C37.5591 106.979 38.6664 105.986 40.3496 103.893C42.465 101.266 52.8778 93.5467 54.3114 93.5428C54.9155 93.5414 57.3281 91.4567 59.6744 88.9107C64.4662 83.711 81.1772 70.9384 83.1888 70.9384C83.908 70.9384 85.8745 69.7445 87.5587 68.2847C89.2429 66.8249 91.5836 65.6283 92.762 65.6257C93.9393 65.623 96.553 64.4238 98.5692 62.9613C100.585 61.4989 102.992 60.3023 103.917 60.3023C105.414 60.3023 130.258 43.1529 132.677 40.45C133.205 39.8597 135.182 38.6698 137.069 37.8056C138.957 36.9415 141.007 35.3686 141.625 34.309C142.244 33.2494 143.823 32.3826 145.134 32.3826C146.445 32.3826 148.182 31.5396 148.993 30.5093C149.806 29.4776 152.146 28.2624 154.193 27.8077C156.241 27.353 158.324 26.4011 158.822 25.6938C159.32 24.9852 160.716 24.4055 161.926 24.4055C163.134 24.4055 165.258 23.6038 166.648 22.6226C168.037 21.6428 172.294 20.0753 176.108 19.1393C179.922 18.2033 184.442 16.6066 186.15 15.5922C187.858 14.5777 192.523 13.1086 196.515 12.3282C200.507 11.5491 204.173 10.3565 204.662 9.68114C205.15 9.00442 206.703 8.45134 208.114 8.45134C209.524 8.45134 210.908 7.91954 211.191 7.26808C211.474 6.61795 213.287 5.70723 215.221 5.24323C224.64 2.98572 232.665 1.60037 241.282 0.746821C255.181 -0.630554 319.947 0.0262221 331.889 1.66684C337.547 2.44327 349.269 3.6744 357.937 4.40031C366.606 5.12623 375.023 6.32545 376.64 7.06465C380.373 8.76909 398.012 11.2659 411.377 11.9812C417.034 12.2843 422.715 12.9251 424.001 13.4051C425.287 13.8864 437.07 14.3956 450.185 14.5378C472.815 14.7838 481.408 15.3488 489.929 17.1517C507.038 20.7719 533.991 24.2446 552.584 25.2231C570.045 26.1431 571.911 26.3253 583.444 28.2358C588.587 29.088 597.425 30.0825 603.082 30.4454C608.74 30.8097 614.21 31.3615 615.239 31.6726C618.054 32.5235 671.397 35.2835 681.635 35.108C682.663 35.0894 685.716 35.709 688.417 36.4827C693.208 37.8561 700.883 39.0035 705.379 39.0208C706.61 39.0248 709.288 39.6683 711.331 40.4513C713.375 41.2331 716.787 42.1385 718.914 42.4629C721.041 42.786 726.569 43.7073 731.198 44.5103C735.827 45.3134 751.186 46.1908 765.331 46.4607C795.678 47.0404 814.841 49.6276 826.115 54.6678C829.284 56.0837 835.873 57.8374 846.829 60.1813C849.735 60.8022 852.494 61.6464 852.961 62.0559C854.359 63.2844 875.351 64.8426 887.367 64.6112C893.539 64.4916 907.006 63.6832 917.292 62.815C935.428 61.2835 955.27 60.9551 992.104 61.5799C1001.88 61.7448 1011.56 61.5347 1013.61 61.1119C1015.67 60.6892 1019.25 60.0935 1021.56 59.7877C1023.88 59.482 1029.35 58.203 1033.72 56.9466C1042.59 54.3952 1045.02 54.1307 1068.32 53.1841C1082.95 52.5898 1095.77 51.6498 1107.04 50.3429C1111.72 49.8004 1126.79 48.3141 1133.78 47.7038C1150.37 46.2573 1157 45.3838 1159.5 44.3149C1162.88 42.8657 1209.89 41.7981 1211.59 43.1316C1212.26 43.6488 1215.11 44.4079 1217.94 44.8174C1220.77 45.2269 1224.78 46.7319 1226.84 48.1612C1228.91 49.5904 1232.28 51.1964 1234.32 51.7309C1236.37 52.2654 1238.88 53.5151 1239.89 54.5082C1240.91 55.5014 1242.45 56.3137 1243.32 56.3137C1246.7 56.3137 1264.57 79.0404 1267.1 86.5654C1268.02 89.3042 1269.29 95.7337 1269.91 100.851C1270.94 109.25 1270.88 110.632 1269.3 115.021C1268.34 117.696 1267.03 120.133 1266.4 120.435C1264.36 121.4 1265.31 173.512 1267.5 180.623C1267.95 182.086 1268.57 185.376 1268.88 187.935C1270.64 202.373 1272.41 218.442 1272.7 222.503C1273.67 236.28 1274.28 242.045 1275 244.44C1275.43 245.902 1276.01 252.782 1276.26 259.729C1276.52 266.676 1277.39 280.735 1278.18 290.973C1278.98 301.21 1279.59 312.278 1279.54 315.569C1279.45 321.227 1280.22 366.246 1281.11 408.634C1281.34 419.237 1281.72 439.503 1281.95 453.67C1282.19 467.836 1282.56 479.667 1282.76 479.961ZM67.7243 288.327C66.6087 287.347 64.9038 288.591 64.9038 290.386C64.9038 292.004 67.4353 292.015 68.1367 290.4C68.4331 289.719 68.247 288.787 67.7243 288.327ZM119.142 493.137C119.142 491.997 118.722 491.064 118.207 491.064C117.693 491.064 117.272 491.627 117.272 492.315C117.272 493.004 117.693 493.936 118.207 494.388C118.722 494.84 119.142 494.276 119.142 493.137ZM201.747 49.2235C200.612 47.6081 199.615 48.3048 200.162 50.331C200.458 51.4278 201.077 52.3252 201.536 52.3252C202.516 52.3252 202.641 50.4932 201.747 49.2235ZM254.739 366.09C254.739 365.359 254.318 364.76 253.804 364.76C253.29 364.76 252.869 365.359 252.869 366.09C252.869 366.821 253.29 367.42 253.804 367.42C254.318 367.42 254.739 366.821 254.739 366.09ZM255.674 598.755C255.674 598.023 255.253 597.425 254.739 597.425C254.225 597.425 253.804 598.023 253.804 598.755C253.804 599.486 254.225 600.084 254.739 600.084C255.253 600.084 255.674 599.486 255.674 598.755ZM259.415 37.779C259.415 37.0904 258.994 36.1584 258.48 35.7063C257.965 35.2543 257.545 35.818 257.545 36.9574C257.545 38.0968 257.965 39.0301 258.48 39.0301C258.994 39.0301 259.415 38.4677 259.415 37.779ZM259.415 80.245C259.415 77.7628 259.165 77.4091 258.293 78.6496C257.42 79.89 257.42 80.6 258.293 81.8404C259.165 83.0808 259.415 82.7272 259.415 80.245ZM271.572 86.971C271.572 86.2823 271.151 85.3503 270.637 84.8983C270.122 84.4462 269.701 85.0099 269.701 86.1493C269.701 87.2887 270.122 88.222 270.637 88.222C271.151 88.222 271.572 87.6597 271.572 86.971ZM392.206 250.422C392.206 248.96 391.785 247.763 391.271 247.763C390.757 247.763 390.336 248.96 390.336 250.422C390.336 251.885 390.757 253.081 391.271 253.081C391.785 253.081 392.206 251.885 392.206 250.422ZM396.882 86.1493C396.882 85.0099 396.461 84.4462 395.947 84.8983C395.432 85.3503 395.011 86.2823 395.011 86.971C395.011 87.6597 395.432 88.222 395.947 88.222C396.461 88.222 396.882 87.2887 396.882 86.1493ZM398.752 294.296C398.752 293.565 398.331 292.967 397.817 292.967C397.303 292.967 396.882 293.565 396.882 294.296C396.882 295.028 397.303 295.626 397.817 295.626C398.331 295.626 398.752 295.028 398.752 294.296ZM411.019 251.752C410.505 251.752 409.824 252.35 409.506 253.081C409.188 253.813 409.349 254.411 409.864 254.411C410.378 254.411 411.059 253.813 411.377 253.081C411.695 252.35 411.534 251.752 411.019 251.752ZM411.432 77.5859C410.63 77.5859 409.974 78.1842 409.974 78.9155C409.974 79.6467 410.369 80.245 410.854 80.245C411.338 80.245 411.994 79.6467 412.312 78.9155C412.63 78.1842 412.233 77.5859 411.432 77.5859ZM464.212 264.937C464.212 263.312 463.729 262.395 463.044 262.72C461.274 263.558 461.023 267.706 462.742 267.706C463.608 267.706 464.212 266.569 464.212 264.937ZM476.369 263.718C476.369 262.986 475.949 262.388 475.434 262.388C474.92 262.388 474.499 262.986 474.499 263.718C474.499 264.449 474.92 265.047 475.434 265.047C475.949 265.047 476.369 264.449 476.369 263.718ZM484.786 570.835C484.786 570.104 484.365 569.505 483.851 569.505C483.336 569.505 482.915 570.104 482.915 570.835C482.915 571.566 483.336 572.164 483.851 572.164C484.365 572.164 484.786 571.566 484.786 570.835ZM543.7 591.364C543.7 591.041 543.279 590.777 542.765 590.777C542.251 590.777 541.83 591.412 541.83 592.185C541.83 592.959 542.251 593.224 542.765 592.772C543.279 592.32 543.7 591.687 543.7 591.364ZM572.859 577.482C571.729 577.482 570.412 580.004 571.06 580.927C571.295 581.261 572.02 580.623 572.671 579.509C573.409 578.245 573.48 577.482 572.859 577.482ZM577.699 94.4574C577.344 93.9536 576.283 93.5401 575.339 93.5401C573.474 93.5401 572.997 96.8186 574.65 98.2718C575.848 99.3248 578.654 95.8149 577.699 94.4574ZM589.935 598.755C589.133 598.755 588.742 599.362 589.064 600.105C589.388 600.849 590.043 601.113 590.522 600.692C591.819 599.552 591.578 598.755 589.935 598.755ZM624.123 577.482C624.123 576.751 623.702 576.153 623.188 576.153C622.674 576.153 622.253 576.751 622.253 577.482C622.253 578.214 622.674 578.812 623.188 578.812C623.702 578.812 624.123 578.214 624.123 577.482ZM627.864 310.837C627.864 310.514 627.443 310.25 626.928 310.25C626.414 310.25 625.993 310.885 625.993 311.658C625.993 312.432 626.414 312.697 626.928 312.245C627.443 311.793 627.864 311.16 627.864 310.837ZM662.802 527.884C662.055 526.821 660.594 528.022 660.594 529.698C660.594 530.387 661.225 530.949 661.997 530.949C663.442 530.949 663.855 529.381 662.802 527.884ZM691.391 482.368C690.843 481.885 690.17 481.811 689.895 482.2C689.225 483.153 690.405 485.746 691.509 485.746C692.704 485.746 692.625 483.451 691.391 482.368ZM717.976 499.964C717.228 498.902 715.768 500.102 715.768 501.779C715.768 502.467 716.399 503.03 717.17 503.03C718.616 503.03 719.029 501.461 717.976 499.964ZM775.742 600.859C775.091 600.286 774.305 600.177 773.997 600.616C773.16 601.806 774.39 603.103 775.746 602.46C776.696 602.011 776.696 601.697 775.742 600.859ZM775.617 282.331C775.617 281.6 775.196 281.001 774.682 281.001C774.168 281.001 773.747 281.6 773.747 282.331C773.747 283.062 774.168 283.66 774.682 283.66C775.196 283.66 775.617 283.062 775.617 282.331ZM808.347 451.1C808.347 450.327 807.927 450.062 807.412 450.514C806.898 450.966 806.477 451.599 806.477 451.922C806.477 452.245 806.898 452.508 807.412 452.508C807.927 452.508 808.347 451.874 808.347 451.1ZM815.829 477.847C815.829 477.159 815.437 476.252 814.958 475.832C813.925 474.924 812.808 477.02 813.672 478.249C814.561 479.512 815.829 479.277 815.829 477.847ZM860.716 432.566C860.716 431.834 860.27 431.236 859.725 431.236C859.181 431.236 858.995 431.834 859.313 432.566C859.631 433.297 860.076 433.895 860.303 433.895C860.531 433.895 860.716 433.297 860.716 432.566ZM933.093 328.503C932.718 327.97 931.766 327.534 930.976 327.534C929.924 327.534 929.82 327.928 930.583 329.014C931.155 329.826 932.107 330.264 932.699 329.983C933.291 329.703 933.468 329.036 933.093 328.503ZM977.609 189.224C977.609 187.784 977.45 186.606 977.256 186.606C977.062 186.606 976.42 187.433 975.83 188.445C975.002 189.863 975.083 190.461 976.182 191.062C977.163 191.597 977.609 191.023 977.609 189.224ZM987.896 268.481C987.896 267.325 987.23 266.377 986.416 266.377C984.764 266.377 985.051 269.239 986.785 270.061C987.397 270.351 987.896 269.639 987.896 268.481ZM994.052 195.912C993.238 195.912 992.572 196.86 992.572 198.017C992.572 200.365 994.585 199.957 995.163 197.492C995.367 196.622 994.867 195.912 994.052 195.912ZM1009.25 200.189C1008.56 200.511 1007.86 202.14 1007.69 203.81C1007.48 205.872 1007.78 206.658 1008.62 206.26C1009.31 205.938 1010.01 204.31 1010.18 202.64C1010.4 200.578 1010.1 199.792 1009.25 200.189ZM1036.52 272.47C1036.52 271.313 1035.86 270.365 1035.04 270.365C1033.39 270.365 1033.68 273.228 1035.41 274.049C1036.02 274.339 1036.52 273.628 1036.52 272.47ZM1070.19 176.635C1070.19 175.538 1069.77 174.64 1069.25 174.64C1068.74 174.64 1068.32 175.538 1068.32 176.635C1068.32 177.731 1068.74 178.629 1069.25 178.629C1069.77 178.629 1070.19 177.731 1070.19 176.635ZM1157.16 500.371C1157.16 499.639 1156.74 499.041 1156.22 499.041C1155.71 499.041 1155.29 499.639 1155.29 500.371C1155.29 501.102 1155.71 501.7 1156.22 501.7C1156.74 501.7 1157.16 501.102 1157.16 500.371ZM1158.03 334.792C1157.48 334.309 1156.81 334.235 1156.53 334.624C1155.86 335.578 1157.04 338.17 1158.15 338.17C1159.34 338.17 1159.26 335.875 1158.03 334.792Z" fill="#ECF4F7"/>
</svg>
