<svg width="2" height="141" viewBox="0 0 2 141" fill="none" xmlns="http://www.w3.org/2000/svg">
<path fill-rule="evenodd" clip-rule="evenodd" d="M0.362625 0.0797039C0.352564 -0.0710197 0.0826759 0.00989086 0.0497384 0.17373C0.0327819 0.257869 0.0135407 0.539946 0.00697992 0.800433C-0.00727743 1.36681 0.00147439 5.6476 0.0226533 8.46414C0.0399305 10.7613 0.0459571 11.7879 0.0522507 13.5084C0.0546826 14.1743 0.0613099 15.1254 0.0669621 15.622C0.0775716 16.5532 0.076917 24.476 0.066067 26.6236C0.0626998 27.2895 0.0564862 28.8784 0.0522772 30.1546C0.03965 33.9715 0.0372983 34.5928 0.0263013 37.0149C0.0129392 39.9549 0.0132199 51.2943 0.026769 55.2752C0.0323081 56.9066 0.0352679 62.2149 0.0334725 67.179L0.0333567 67.4824C0.0271433 82.9269 0.03643 108.641 0.0483356 108.947C0.0526516 109.058 0.0572481 110.465 0.0585309 112.074C0.061377 115.618 0.0695277 117.809 0.0893169 120.347C0.110362 123.046 0.108893 132.174 0.0872727 132.957C0.0701158 133.58 0.0525042 135.369 0.0402779 137.732C0.0344921 138.848 0.0379666 139.195 0.0607088 139.777C0.0863908 140.434 0.0937266 140.488 0.177868 140.626C0.502807 141.161 1.59087 141.109 1.73078 140.553C1.7565 140.451 1.80458 140.145 1.83763 139.875C1.8886 139.457 1.89913 139.263 1.90715 138.591C1.91235 138.156 1.91376 137.573 1.91032 137.296C1.88079 134.927 1.86276 128.368 1.88148 126.803C1.9014 125.138 1.92922 120.78 1.92242 120.387C1.91873 120.174 1.926 118.784 1.93859 117.298C1.95116 115.812 1.96334 114.142 1.96562 113.587C1.96792 113.032 1.9762 111.994 1.98406 111.28C2.01091 108.838 2.00187 89.5579 1.97166 84.8074C1.96344 83.5163 1.95736 81.9273 1.95814 81.2764C1.95891 80.6257 1.956 79.1398 1.95167 77.9746C1.94734 76.8094 1.94082 74.7664 1.9372 73.4347C1.93358 72.103 1.92774 70.1055 1.92424 68.9957C1.92074 67.886 1.91501 65.7068 1.9115 64.1532C1.908 62.5996 1.89961 59.5578 1.89286 57.3938C1.88612 55.2298 1.88399 53.3745 1.88815 53.2712C1.90489 52.855 1.91411 21.1473 1.89837 18.1492C1.87809 14.2859 1.89047 7.9815 1.91942 7.4351C1.92588 7.31283 1.9368 6.16918 1.94369 4.89358C1.9562 2.57542 1.94634 1.44893 1.90855 0.878318C1.90098 0.763913 1.85637 0.629734 1.80945 0.580098C1.70149 0.466097 1.14469 0.284099 0.70563 0.21933C0.520284 0.192091 0.365939 0.129138 0.362625 0.0797039ZM1.22302 116.109C1.23037 116.109 1.23639 116.206 1.23639 116.323C1.23639 116.441 1.23037 116.481 1.22302 116.412C1.21567 116.344 1.20966 116.248 1.20966 116.198C1.20966 116.149 1.21567 116.109 1.22302 116.109ZM0.353058 101.582C0.359619 101.582 0.368785 101.731 0.373422 101.913C0.384606 102.354 0.369747 102.558 0.353966 102.181C0.338159 101.804 0.337825 101.582 0.353058 101.582ZM0.814691 92.3004C0.817938 92.3004 0.824299 92.3912 0.828842 92.5022C0.833385 92.6131 0.830726 92.7039 0.822949 92.7039C0.815172 92.7039 0.808799 92.6131 0.808799 92.5022C0.808799 92.3912 0.811444 92.3004 0.814691 92.3004ZM1.67812 62.2364C1.6859 62.2364 1.68856 62.3272 1.68402 62.4381C1.67947 62.5491 1.67311 62.6399 1.66986 62.6399C1.66662 62.6399 1.66397 62.5491 1.66397 62.4381C1.66397 62.3272 1.67035 62.2364 1.67812 62.2364ZM1.65061 23.8997C1.65796 23.8997 1.66397 23.9905 1.66397 24.1015C1.66397 24.2124 1.65796 24.3032 1.65061 24.3032C1.64326 24.3032 1.63725 24.2124 1.63725 24.1015C1.63725 23.9905 1.64326 23.8997 1.65061 23.8997Z" fill="#009EE1"/>
</svg>
