<svg width="30" height="141" viewBox="0 0 30 141" fill="none" xmlns="http://www.w3.org/2000/svg">
<path fill-rule="evenodd" clip-rule="evenodd" d="M5.43938 0.0797039C5.28845 -0.0710197 1.24014 0.00989086 0.746076 0.17373C0.491729 0.257869 0.203112 0.539946 0.1047 0.800433C-0.10916 1.36681 0.022117 5.6476 0.339801 8.46414C0.598958 10.7613 0.689358 11.7879 0.783761 13.5084C0.82024 14.1743 0.91965 15.1254 1.00443 15.622C1.16358 16.5532 1.15376 24.476 0.991007 26.6236C0.940498 27.2895 0.847295 28.8784 0.784159 30.1546C0.594751 33.9715 0.559475 34.5928 0.39452 37.0149C0.194089 39.9549 0.198299 51.2943 0.401536 55.2752C0.484623 56.9066 0.52902 62.2149 0.502088 67.179L0.500351 67.4824C0.407151 82.9269 0.546451 108.641 0.725035 108.947C0.789774 109.058 0.858723 110.465 0.877964 112.074C0.920656 115.618 1.04292 117.809 1.33976 120.347C1.65543 123.046 1.63339 132.174 1.30909 132.957C1.05174 133.58 0.787564 135.369 0.60417 137.732C0.517383 138.848 0.569499 139.195 0.910633 139.777C1.29586 140.434 1.4059 140.488 2.66802 140.626C7.5421 141.161 23.863 141.109 25.9617 140.553C26.3476 140.451 27.0687 140.145 27.5644 139.875C28.329 139.457 28.487 139.263 28.6072 138.591C28.6852 138.156 28.7064 137.573 28.6547 137.296C28.2118 134.927 27.9414 128.368 28.2222 126.803C28.521 125.138 28.9383 120.78 28.8363 120.387C28.781 120.174 28.89 118.784 29.0788 117.298C29.2675 115.812 29.45 114.142 29.4843 113.587C29.5188 113.032 29.6431 111.994 29.7609 111.28C30.1636 108.838 30.0281 89.5579 29.5749 84.8074C29.4516 83.5163 29.3605 81.9273 29.3721 81.2764C29.3837 80.6257 29.34 79.1398 29.2751 77.9746C29.2101 76.8094 29.1123 74.7664 29.058 73.4347C29.0037 72.103 28.9161 70.1055 28.8636 68.9957C28.8111 67.886 28.7251 65.7068 28.6726 64.1532C28.6201 62.5996 28.4942 59.5578 28.393 57.3938C28.2918 55.2298 28.2599 53.3745 28.3222 53.2712C28.5734 52.855 28.7117 21.1473 28.4755 18.1492C28.1713 14.2859 28.3571 7.9815 28.7912 7.4351C28.8882 7.31283 29.052 6.16918 29.1554 4.89358C29.343 2.57542 29.1951 1.44893 28.6283 0.878318C28.5146 0.763913 27.8456 0.629734 27.1417 0.580098C25.5224 0.466097 17.1704 0.284099 10.5845 0.21933C7.80427 0.192091 5.48909 0.129138 5.43938 0.0797039ZM18.3453 116.109C18.4556 116.109 18.5458 116.206 18.5458 116.323C18.5458 116.441 18.4556 116.481 18.3453 116.412C18.2351 116.344 18.1449 116.248 18.1449 116.198C18.1449 116.149 18.2351 116.109 18.3453 116.109ZM5.29587 101.582C5.39428 101.582 5.53177 101.731 5.60132 101.913C5.76909 102.354 5.54621 102.558 5.3095 102.181C5.07239 101.804 5.06738 101.582 5.29587 101.582ZM12.2204 92.3004C12.2691 92.3004 12.3645 92.3912 12.4326 92.5022C12.5008 92.6131 12.4609 92.7039 12.3442 92.7039C12.2276 92.7039 12.132 92.6131 12.132 92.5022C12.132 92.3912 12.1717 92.3004 12.2204 92.3004ZM25.1718 62.2364C25.2885 62.2364 25.3284 62.3272 25.2602 62.4381C25.1921 62.5491 25.0967 62.6399 25.048 62.6399C24.9993 62.6399 24.9596 62.5491 24.9596 62.4381C24.9596 62.3272 25.0552 62.2364 25.1718 62.2364ZM24.7592 23.8997C24.8694 23.8997 24.9596 23.9905 24.9596 24.1015C24.9596 24.2124 24.8694 24.3032 24.7592 24.3032C24.6489 24.3032 24.5587 24.2124 24.5587 24.1015C24.5587 23.9905 24.6489 23.8997 24.7592 23.8997Z" fill="#106198"/>
</svg>
