<svg width="73" height="55" viewBox="0 0 73 55" fill="none" xmlns="http://www.w3.org/2000/svg">
<path fill-rule="evenodd" clip-rule="evenodd" d="M27.9965 0.403486C57.4125 -0.418514 68.4575 -0.0205137 70.4075 1.92949C73.6665 5.18749 73.7475 48.0295 70.5025 51.9395C69.8325 52.7465 68.3195 53.4115 67.1405 53.4175C65.9615 53.4225 51.0145 53.6665 33.9265 53.9575L2.85653 54.4875L1.42654 51.8125C0.369853 49.8347 0.0275187 44.9612 0.00031203 30.6507L0 26.4512C0.021964 10.4552 0.301556 7.39583 1.77454 4.69649C2.74954 2.90849 3.64854 1.36249 3.77254 1.26049C3.89554 1.15749 14.7965 0.771486 27.9965 0.403486ZM11.3215 4.18849L3.64654 4.52749L2.94354 11.1005C2.18854 18.1475 2.79254 49.0755 3.70254 49.9855C4.80554 51.0885 22.5235 51.9445 42.9965 51.8855C61.5595 51.8305 64.3185 51.6125 66.7725 50.0035L69.5485 48.1825L68.8735 26.5645C68.4385 12.6675 67.8045 4.68449 67.0975 4.21149C66.0385 3.50449 27.1435 3.48849 11.3215 4.18849ZM10.8655 12.7795C10.3015 10.5335 11.7795 9.47749 12.9155 11.3145C13.2105 11.7925 15.7535 12.4885 18.5665 12.8615C23.6335 13.5335 25.5055 14.8085 29.6975 20.4455C31.2375 22.5155 31.2565 23.0105 29.8945 25.6435C29.0675 27.2435 27.4295 29.5135 26.2555 30.6875C24.6225 32.3205 24.4455 32.9295 25.5025 33.2815C26.2615 33.5345 27.9505 34.8105 29.2565 36.1155C32.2575 39.1165 31.9005 42.6145 28.4965 43.5555C24.6855 44.6095 10.5955 44.5695 8.59654 43.4995C5.82554 42.0175 7.05454 36.6035 10.6215 34.5745C14.2365 32.5185 14.2175 31.5115 10.4965 27.9465C6.95154 24.5495 6.89454 24.0505 9.47354 18.9915C10.6545 16.6755 11.2145 14.1725 10.8655 12.7795ZM12.4905 15.7155C12.4865 16.3925 11.8135 18.2335 10.9925 19.8055C9.57454 22.5255 9.64854 22.8505 12.4995 26.4495C16.1934 31.1147 16.2593 32.7635 12.6946 35.4565L12.4965 35.6045C7.40054 39.3725 8.46253 41.0865 16.3775 41.8665C28.2965 43.0405 32.4335 40.0515 24.2335 36.1905C22.1775 35.2225 20.4965 34.0225 20.4965 33.5225C20.4965 33.0225 22.2965 30.6835 24.4965 28.3245C28.9215 23.5795 29.1835 22.9245 26.9965 22.0845C26.1715 21.7685 25.4965 20.6105 25.4965 19.5135C25.4965 17.0395 23.3695 15.9025 17.2465 15.1045C13.8185 14.6575 12.4945 14.8275 12.4905 15.7155ZM41.4965 37.8635C41.4965 36.0975 43.6495 36.4045 44.2675 38.2595C44.4855 38.9125 43.9505 39.4465 43.0795 39.4465C42.2085 39.4465 41.4965 38.7345 41.4965 37.8635ZM48.1905 37.0855C49.3165 35.9595 50.4965 36.4005 50.4965 37.9465C50.4965 38.7715 50.0735 39.4465 49.5555 39.4465C48.2945 39.4465 47.3915 37.8845 48.1905 37.0855ZM56.0555 37.4465C56.9125 37.4465 57.3365 37.8965 56.9965 38.4465C56.6565 38.9965 55.9555 39.4465 55.4375 39.4465C54.9195 39.4465 54.4965 38.9965 54.4965 38.4465C54.4965 37.8965 55.1985 37.4465 56.0555 37.4465ZM35.4965 37.9465C35.4965 37.0295 35.9805 36.4415 36.5715 36.6385C37.1625 36.8355 37.6465 37.4235 37.6465 37.9465C37.6465 38.4695 37.1625 39.0575 36.5715 39.2545C35.9805 39.4515 35.4965 38.8635 35.4965 37.9465ZM61.9965 36.4465C62.9135 36.4465 63.5015 36.9305 63.3045 37.5215C63.1075 38.1125 62.5195 38.5965 61.9965 38.5965C61.4735 38.5965 60.8855 38.1125 60.6885 37.5215C60.4915 36.9305 61.0795 36.4465 61.9965 36.4465ZM36.6205 31.7965C37.6205 30.5915 40.0275 30.4245 49.9195 30.8715C56.5615 31.1715 62.8105 31.4235 63.8055 31.4315C64.8005 31.4395 65.3645 31.8505 65.0595 32.3435C64.3765 33.4495 38.1205 34.9495 36.5395 33.9735C35.6955 33.4515 35.7165 32.8865 36.6205 31.7965ZM37.9965 24.4465C42.5985 23.2755 64.4965 23.2755 64.4965 24.4465C64.4965 25.0735 58.9925 25.4025 49.7465 25.3285C40.7745 25.2565 36.1715 24.9105 37.9965 24.4465ZM35.6655 16.7435C36.2985 15.9795 37.4565 15.6005 38.2385 15.9005C39.0205 16.2015 41.8735 16.4465 44.5785 16.4465C48.2835 16.4465 49.4965 16.8165 49.4965 17.9465C49.4965 19.1335 48.0705 19.4465 42.6635 19.4465L42.3167 19.4461C35.2406 19.4288 33.903 18.8672 35.6655 16.7435ZM53.4965 16.4465C54.8965 16.4465 55.6315 18.2455 54.5125 18.9365C53.1805 19.7595 51.2995 18.5745 52.0395 17.3775C52.3555 16.8655 53.0115 16.4465 53.4965 16.4465Z" fill="#106198"/>
</svg>
