<svg width="71" height="71" viewBox="0 0 71 71" fill="none" xmlns="http://www.w3.org/2000/svg">
<path fill-rule="evenodd" clip-rule="evenodd" d="M20.0628 3.14291C26.6978 -0.07809 27.5148 -0.23409 35.7368 0.14691C50.5618 0.83391 61.6528 7.71891 67.4148 19.8089C69.6998 24.6029 70.0378 26.5979 70.0498 35.3479L70.0628 45.3859L64.7348 52.5759C61.8038 56.5299 57.6798 61.1319 55.5708 62.8029C50.0208 67.1989 41.0158 71.0509 36.4388 70.9879C27.4248 70.8629 15.4348 65.7379 8.23083 58.9299C3.16383 54.1429 1.82383 51.3719 0.524826 43.0029C-2.14217 25.8109 5.50483 10.2099 20.0628 3.14291ZM28.9918 3.76591C22.5358 4.75991 20.3228 5.97691 13.8668 12.0829C5.08383 20.3899 2.56183 31.6609 5.95283 47.4589C7.04383 52.5419 8.06183 54.4099 11.8168 58.2179C26.9498 73.5679 48.9068 70.4869 63.5508 50.9589C66.9728 46.3949 67.5628 44.8799 67.5628 40.6559C67.5628 29.0229 62.3878 14.3639 56.5458 9.44791C51.1798 4.93291 38.4558 2.30891 28.9918 3.76591ZM34.2508 49.4549C35.5428 48.1629 37.0628 49.4729 37.0628 51.8789C37.0628 53.3719 36.4008 54.4089 35.3128 54.6189C34.0378 54.8639 33.5628 54.3029 33.5628 52.5489C33.5628 51.2249 33.8718 49.8329 34.2508 49.4549ZM29.8768 13.7589C36.6448 9.63291 44.7008 12.3989 45.9938 19.2939C46.8148 23.6709 43.8498 30.9199 40.2818 33.2569C38.2858 34.5659 37.6848 36.0149 37.1388 40.8419C36.6868 44.8349 36.0188 46.8089 35.1198 46.8089C33.2128 46.8089 32.5768 44.5239 33.2578 40.1169C34.0058 35.2659 35.6968 31.9409 38.9678 28.8849C43.7388 24.4279 41.8348 15.8089 36.0798 15.8089C33.6028 15.8089 28.5628 20.8889 28.5628 23.3859C28.5628 24.1689 27.6628 24.8089 26.5628 24.8089C25.0828 24.8089 24.5628 24.1419 24.5628 22.2429C24.5628 18.6099 26.1948 16.0039 29.8768 13.7589Z" fill="#106198"/>
</svg>
