<svg width="300" height="273" viewBox="0 0 300 273" fill="none" xmlns="http://www.w3.org/2000/svg">
<path d="M198.25 272.01H37.16C16.67 272.01 0 255.34 0 234.85V140.72C0 120.23 16.67 103.56 37.16 103.56H198.25C218.74 103.56 235.41 120.23 235.41 140.72V234.85C235.41 255.34 218.74 272.01 198.25 272.01ZM37.16 113.56C22.19 113.56 10 125.74 10 140.72V234.85C10 249.82 22.18 262.01 37.16 262.01H198.25C213.22 262.01 225.41 249.83 225.41 234.85V140.72C225.41 125.75 213.23 113.56 198.25 113.56H37.16V113.56Z" fill="#009EE1"/>
<path d="M66.23 113.56C39.22 113.56 17.24 91.5801 17.24 64.5701C17.24 37.5601 39.22 15.5801 66.23 15.5801C93.24 15.5801 115.22 37.5601 115.22 64.5701C115.22 91.5801 93.25 113.56 66.23 113.56ZM66.23 25.5801C44.73 25.5801 27.24 43.0701 27.24 64.5701C27.24 86.0701 44.73 103.56 66.23 103.56C87.73 103.56 105.22 86.0701 105.22 64.5701C105.22 43.0701 87.73 25.5801 66.23 25.5801Z" fill="#009EE1"/>
<path d="M167.36 113.56C136.12 113.56 110.71 88.15 110.71 56.91C110.71 25.67 136.12 0.26001 167.36 0.26001C198.6 0.26001 224.01 25.67 224.01 56.91C224.01 88.15 198.6 113.56 167.36 113.56ZM167.36 10.26C141.64 10.26 120.71 31.19 120.71 56.91C120.71 82.63 141.64 103.56 167.36 103.56C193.08 103.56 214.01 82.63 214.01 56.91C214.01 31.19 193.09 10.26 167.36 10.26Z" fill="#009EE1"/>
<path d="M282.42 257.47C277.51 257.47 273.75 255.28 272.5 254.44L225.41 223.65V163.05L274.55 130.29L274.9 130.13C276.61 129.34 282.7 127.01 289.45 130.13C296.88 133.56 298.82 140.8 299.14 142.21L299.26 142.74V242.01L299.21 242.37C298.21 249.23 293.44 254.89 287.06 256.79C285.43 257.27 283.87 257.47 282.42 257.47ZM235.41 218.24L278.01 246.09C278.55 246.45 281.23 248.09 284.21 247.21C286.77 246.45 288.72 244.13 289.25 241.25V143.96C288.93 142.95 287.89 140.43 285.25 139.21C282.69 138.03 280.24 138.76 279.38 139.09L235.41 168.41V218.24Z" fill="#009EE1"/>
</svg>
