<svg width="70" height="66" viewBox="0 0 70 66" fill="none" xmlns="http://www.w3.org/2000/svg">
<path fill-rule="evenodd" clip-rule="evenodd" d="M29.3072 0.0116828C33.4362 -0.0823172 34.9162 0.363683 37.0572 2.34768C38.5122 3.69668 39.7032 5.49668 39.7032 6.34768C39.7032 7.58268 40.9902 7.89568 46.0682 7.89568C54.0692 7.89568 57.2072 10.0027 58.2312 16.0627C59.1832 21.6947 64.4292 34.6667 67.3372 38.5787C68.6382 40.3297 69.7032 42.4057 69.7032 43.1927C69.7032 44.7337 63.0912 47.5717 58.2032 48.1297C55.2562 48.4667 55.2772 48.4967 59.4032 49.8277C65.3542 51.7467 69.0052 55.8637 69.1152 60.7777L69.2032 64.7127L35.5242 65.3707C1.88419 66.0277 1.84319 66.0257 0.707194 63.9037C-1.97681 58.8877 3.24219 50.6837 11.9102 46.2907C14.5982 44.9287 17.0722 43.0987 17.4072 42.2237C17.9952 40.6937 15.0742 34.1297 11.4812 28.9007C10.0872 26.8727 9.93919 25.6337 10.7072 22.3957C11.2292 20.1957 11.6662 16.5507 11.6792 14.2947C11.7272 6.07068 14.4962 2.47068 22.2032 0.610683C23.3032 0.344683 26.5002 0.0756828 29.3072 0.0116828ZM27.2792 2.9253C24.4872 2.94268 21.4152 3.41468 20.4532 3.97568C19.4912 4.53668 18.7032 4.69268 18.7032 4.32268C18.7032 3.95368 18.0282 4.21068 17.2032 4.89568C16.1382 5.77968 15.7032 8.11768 15.7032 12.9587C15.7032 16.7097 15.2532 20.0557 14.7032 20.3957C14.1532 20.7357 13.7032 22.0857 13.7032 23.3957C13.7032 24.7057 14.1532 26.0557 14.7032 26.3957C15.2532 26.7357 15.7032 28.0777 15.7032 29.3777C15.7032 30.6787 16.8282 33.0797 18.2032 34.7137C19.5782 36.3477 20.7032 38.4297 20.7032 39.3397C20.7032 41.9087 18.1122 46.2387 15.5832 47.8957C10.8022 51.0287 4.74919 57.5037 4.13019 60.1457L3.48619 62.8957H50.6532L50.0372 59.6457C48.9842 54.0857 47.7422 52.7837 40.1532 49.2777C33.3542 46.1357 32.7372 45.5957 32.1052 42.2237C31.5402 39.2147 31.9852 37.5427 34.6332 32.7257C38.2032 26.2327 39.8632 21.3887 38.8622 20.3877C38.4992 20.0257 38.1332 18.7547 38.0472 17.5627C37.2482 6.47768 34.6032 2.88268 27.2792 2.9253ZM47.1783 10.8958L46.4742 10.8957C41.2982 10.8957 40.5762 11.1207 41.1292 12.5627C41.4812 13.4797 42.0112 16.7427 42.3072 19.8127C42.7982 24.9137 42.4932 26.0737 38.7742 33.2447C33.8722 42.6967 33.7452 43.8957 37.6442 43.8957C40.7272 43.8957 42.6162 45.4137 40.4592 46.1587C39.7682 46.3967 41.4502 47.6727 44.1952 48.9937C49.5452 51.5677 53.7032 56.6187 53.7032 60.5437C53.7032 62.7717 54.0452 62.8957 60.2032 62.8957C63.7782 62.8957 66.7032 62.4667 66.7032 61.9427C66.7032 58.6787 63.8732 55.7517 58.0062 52.9497C52.1792 50.1657 51.6022 49.6177 51.8882 47.1357C52.1572 44.7917 52.7092 44.3577 55.7032 44.1357C57.6282 43.9927 60.6452 43.6387 62.4072 43.3497L65.6102 42.8227L62.6722 38.6087C61.0332 36.2587 59.0912 31.5207 58.2812 27.8957C54.5729 11.2941 54.5369 10.9043 47.1783 10.8958Z" fill="#106198"/>
</svg>
