<svg width="300" height="301" viewBox="0 0 300 301" fill="none" xmlns="http://www.w3.org/2000/svg">
<path d="M287.45 135H270V103.66C270 96.13 263.87 90 256.34 90H240V77.93L237.53 75.46C237.52 75.46 237.52 75.45 237.52 75.45L201.04 38.97L162.07 0H40V55H13.66C6.13 55 0 61.13 0 68.66V287.11H0.03C0 289.93 0.88 292.68 2.64 294.99C5.09 298.19 8.8 300.02 12.83 300.02H236.62C242.4 300.02 247.49 296.13 248.87 290.95L300 150.75V149.87C300 141.25 294.72 135 287.45 135ZM256.34 100C258.36 100 260 101.64 260 103.66V135H240V100H256.34V100ZM165 17.08L222.93 75H165V17.08ZM50 10H155V85H230V90V135H63.65C62.94 135 62.23 135.06 61.54 135.18C56.67 135.99 52.61 139.54 51.4 144.07L50 147.93V55V10ZM10 68.66C10 66.64 11.65 65 13.66 65H40V175.18L10 257V68.66ZM239.35 287.93C239.02 289.15 237.9 290.01 236.63 290.01H12.83C11.61 290.01 10.9 289.31 10.59 288.9C10.27 288.49 9.79 287.62 9.97 286.86L40 204.5V204.53L60.8 147.51L60.93 147.1C61.26 145.88 62.39 145.02 63.65 145.02H230H240H270H287.45C289.35 145.02 289.84 147.75 289.96 149.12L239.35 287.93Z" fill="#009EE1"/>
<path d="M80 85H130C132.76 85 135 82.76 135 80C135 77.24 132.76 75 130 75H80C77.24 75 75 77.24 75 80C75 82.77 77.24 85 80 85Z" fill="#009EE1"/>
<path d="M80 50H130C132.76 50 135 47.77 135 45C135 42.23 132.76 40 130 40H80C77.24 40 75 42.23 75 45C75 47.77 77.24 50 80 50Z" fill="#009EE1"/>
<path d="M80 120H200C202.76 120 205 117.76 205 115C205 112.24 202.76 110 200 110H80C77.24 110 75 112.24 75 115C75 117.76 77.24 120 80 120Z" fill="#009EE1"/>
</svg>
