<svg width="298" height="273" viewBox="0 0 298 273" fill="none" xmlns="http://www.w3.org/2000/svg">
<path d="M274.94 218.14L226.54 197.18C225.4 196.61 224.14 195.22 223.05 193.36L255.36 193.34C255.92 193.39 269.25 194.61 279.93 190.02C283.98 188.28 286.99 184.83 288.2 180.58C289.42 176.28 288.65 171.73 286.09 168.09C276.85 154.95 255.3 120.6 254.62 85.77C254.61 85.17 252.65 25.93 194.15 25.45C185.54 25.52 177.57 26.98 170.33 29.67C168.75 25.64 166.42 21.44 162.96 17.49C152.79 5.88 136.29 0 113.9 0C91.51 0 75 5.88 64.83 17.48C53.11 30.85 54.2 47.07 54.48 49.79V76.13C51.31 79.74 49.53 84.36 49.53 89.13V108.94C49.53 114.97 52.27 120.59 56.94 124.34C61.48 142.3 70.97 155.84 74.29 160.18V176.57C74.29 181.36 71.68 185.76 67.47 188.06L23.29 212.16C8.92 220 0 235.03 0 251.39V272.37H217.9H227.8H297.13V254.06C297.14 238.75 288.63 224.99 274.94 218.14ZM217.9 262.47H9.9V251.39C9.9 238.66 16.84 226.96 28.02 220.86L72.2 196.76C79.59 192.72 84.18 184.98 84.18 176.57V156.67L83.03 155.29C82.91 155.15 70.77 140.46 66.14 120.3L65.69 118.34L64 117.25C61.13 115.4 59.42 112.29 59.42 108.95V89.14C59.42 86.36 60.6 83.77 62.74 81.84L64.37 80.37V49.52L64.33 48.87C64.32 48.74 62.63 35.01 72.28 24C80.49 14.64 94.49 9.9 113.9 9.9C133.24 9.9 147.21 14.61 155.43 23.91C159.52 28.53 161.57 33.68 162.6 38.11C162.68 38.46 162.75 38.8 162.82 39.14C162.89 39.49 162.96 39.84 163.02 40.18C163.08 40.57 163.14 40.93 163.19 41.3C163.23 41.56 163.27 41.83 163.3 42.08C163.37 42.69 163.43 43.29 163.47 43.84C163.47 43.88 163.47 43.92 163.47 43.97C163.5 44.5 163.53 45.01 163.54 45.47C163.54 45.56 163.54 45.63 163.54 45.72C163.55 46.13 163.55 46.52 163.54 46.86C163.54 46.91 163.54 46.96 163.54 47.01C163.52 48.17 163.44 48.87 163.44 48.88L163.4 80.36L165.03 81.84C167.17 83.77 168.35 86.36 168.35 89.14V108.95C168.35 113.27 165.52 117.06 161.31 118.35L158.84 119.11L158.05 121.56C154.74 131.87 150.02 141.38 144.02 149.85C142.55 151.93 141.12 153.78 139.87 155.19L138.64 156.6V177.03C138.64 178.28 138.76 179.51 138.96 180.72C139 180.98 139.07 181.23 139.12 181.48C139.31 182.48 139.57 183.45 139.89 184.4C139.96 184.62 140.04 184.84 140.13 185.06C140.52 186.1 140.97 187.1 141.49 188.06C141.55 188.17 141.6 188.28 141.66 188.39C142.38 189.66 143.21 190.86 144.16 191.97L145.29 193.36H145.48C147.18 195.03 149.13 196.49 151.35 197.6L198.66 221.25C210.52 227.17 217.88 239.09 217.88 252.35V262.47H217.9ZM287.23 262.47H227.8V252.35C227.8 235.32 218.34 220.01 203.11 212.4L169.15 195.41C169.99 193.5 170.1 191.31 169.36 189.2C168.15 185.71 164.98 183.46 161.29 183.46H150.31C150.08 183.06 149.93 182.62 149.75 182.19C149.5 181.62 149.21 181.06 149.05 180.46C148.75 179.36 148.57 178.21 148.57 177.03V160.29C149.7 158.9 150.9 157.32 152.13 155.58C158.27 146.91 163.18 137.27 166.76 126.86C173.75 123.66 178.28 116.75 178.28 108.95V89.14C178.28 84.37 176.5 79.75 173.33 76.14V49.8C173.46 48.56 173.74 44.51 172.91 39.21C179.29 36.7 186.43 35.41 194.16 35.35C242.9 35.75 244.67 83.94 244.72 85.97C245.45 123.52 268.22 159.89 277.98 173.78C278.82 174.97 279.07 176.46 278.67 177.88C278.44 178.69 277.79 180.17 276.02 180.93C267.7 184.51 256.41 183.5 255.83 183.47H221.74C218.56 183.47 215.65 185.09 213.97 187.8C212.3 190.5 212.14 193.8 213.54 196.63C215.09 199.75 217.83 203.93 222.33 206.17L270.6 227.08C280.85 232.26 287.21 242.59 287.21 254.08V262.47H287.23Z" fill="#009EE1"/>
</svg>
