<svg width="301" height="222" viewBox="0 0 301 222" fill="none" xmlns="http://www.w3.org/2000/svg">
<path fill-rule="evenodd" clip-rule="evenodd" d="M113.29 142.17L95.0801 132.87V130.93C103.23 126.48 108.96 119.15 112.16 109.09C117.01 106.52 120.11 101.51 120.11 95.8896V90.8896C120.11 86.2598 117.95 81.96 114.35 79.1299C111.23 60.21 98.03 50.6196 75.0701 50.6196C74.5262 50.6196 73.9899 50.6294 73.4609 50.6494C73.1869 50.6597 72.9148 50.6729 72.6447 50.6885C72.3914 50.7031 72.1398 50.7202 71.89 50.7397C67.5701 51.0996 61.24 50.7197 55.76 47.04C53.71 45.6597 52.17 44.3198 51.1801 43.0698C49.5 40.9199 46.67 40.1699 44.16 41.1997C41.65 42.23 40.17 44.7397 40.49 47.4399C40.7001 49.3101 41.02 51.4897 41.49 53.8799C42.0699 56.7979 42.3031 57.9707 42.1062 59.0669C41.9738 59.8037 41.6469 60.5059 41.1 61.6797L40.9215 62.0669C40.4454 63.1006 39.8759 64.3364 39.22 65.9497C37.5601 70.0098 36.39 74.4497 35.71 79.1997C32.16 82.0298 30.03 86.2998 30.03 90.8896V95.8896C30.03 101.5 33.13 106.51 37.98 109.09C41.1801 119.16 46.91 126.49 55.05 130.93V132.81L36.1901 142.11C29.3 145.86 25.02 153.07 25.02 160.92V167.55C25.02 171.57 25.02 180.97 75.0701 180.97C125.11 180.97 125.11 171.57 125.11 167.55V161.32C125.11 153.16 120.58 145.83 113.29 142.17ZM115.1 166.42C111.98 168.32 99.28 170.96 75.0601 170.96C50.85 170.96 38.15 168.32 35.02 166.42V160.92C35.02 156.74 37.3 152.9 40.78 151L60.0801 141.49C63.09 140.02 65.03 136.9 65.03 133.54V124.52L62.01 123.22C54.42 119.95 49.48 113.71 46.92 104.13L46.21 101.46L43.5801 100.64C41.49 99.98 40.02 98.04 40.02 95.8999V90.8999C40.02 89.0898 41.0601 87.4097 42.73 86.52L45.0801 85.27L45.36 82.6196C45.86 77.9297 46.9 73.5996 48.47 69.7598C49.14 68.1299 49.7001 66.9199 50.16 65.9199C51.86 62.2798 52.47 60.3999 52.05 56.54C57.9401 59.8999 65.01 61.3301 72.6801 60.75C73.4501 60.6797 74.25 60.6499 75.0701 60.6499C93.8101 60.6499 102.95 67.4399 104.74 82.6597L105.05 85.27L107.38 86.5C109.05 87.3896 110.1 89.0796 110.1 90.8999V95.8999C110.1 98.04 108.63 99.9897 106.54 100.64L103.91 101.46L103.19 104.13C100.63 113.7 95.6901 119.94 88.1 123.22L85.0801 124.53V133.59C85.0801 136.94 86.9301 139.96 89.9 141.47L108.79 151.12C112.68 153.06 115.1 156.98 115.1 161.32V166.42Z" fill="#009EE1"/>
<path d="M200.17 75.8799H150.13C147.36 75.8799 145.13 73.6396 145.13 70.8799C145.13 68.1201 147.36 65.8799 150.13 65.8799H200.17C202.93 65.8799 205.17 68.1099 205.17 70.8799C205.17 73.6396 202.94 75.8799 200.17 75.8799Z" fill="#009EE1"/>
<path d="M220.19 75.8799H225.19C227.96 75.8799 230.19 73.6396 230.19 70.8799C230.19 68.1099 227.95 65.8799 225.19 65.8799H220.19C217.42 65.8799 215.18 68.1201 215.18 70.8799C215.19 73.6396 217.43 75.8799 220.19 75.8799Z" fill="#009EE1"/>
<path d="M150.13 150.95H155.13C157.9 150.95 160.13 153.19 160.13 155.95C160.13 158.71 157.9 160.95 155.13 160.95H150.13C147.37 160.95 145.13 158.71 145.13 155.95C145.13 153.19 147.36 150.95 150.13 150.95Z" fill="#009EE1"/>
<path d="M185.16 150.95H175.15C172.38 150.95 170.14 153.19 170.14 155.95C170.14 158.71 172.38 160.95 175.15 160.95H185.16C187.93 160.95 190.16 158.71 190.16 155.95C190.16 153.19 187.93 150.95 185.16 150.95Z" fill="#009EE1"/>
<path d="M205.18 150.95H210.18C212.95 150.95 215.18 153.19 215.18 155.95C215.18 158.71 212.95 160.95 210.18 160.95H205.18C202.42 160.95 200.18 158.71 200.18 155.95C200.18 153.19 202.41 150.95 205.18 150.95Z" fill="#009EE1"/>
<path d="M240.21 150.95H230.2C227.43 150.95 225.19 153.19 225.19 155.95C225.19 158.71 227.43 160.95 230.2 160.95H240.21C242.98 160.95 245.21 158.71 245.21 155.95C245.21 153.19 242.98 150.95 240.21 150.95Z" fill="#009EE1"/>
<path d="M255.23 155.95C255.23 154.65 255.77 153.35 256.68 152.4C258.53 150.55 261.88 150.55 263.78 152.4C264.68 153.34 265.23 154.65 265.23 155.95C265.23 157.25 264.68 158.55 263.78 159.5C262.83 160.4 261.53 160.95 260.23 160.95C258.93 160.95 257.62 160.4 256.68 159.5C255.78 158.55 255.23 157.25 255.23 155.95Z" fill="#009EE1"/>
<path d="M260.23 95.8999H150.13C147.36 95.8999 145.13 98.1401 145.13 100.9C145.13 103.67 147.37 105.91 150.13 105.91H260.23C263 105.91 265.24 103.67 265.24 100.9C265.24 98.1299 263 95.8999 260.23 95.8999Z" fill="#009EE1"/>
<path d="M150.13 125.92H260.23C263 125.92 265.24 128.16 265.24 130.92C265.24 133.68 263 135.92 260.23 135.92H150.13C147.37 135.92 145.13 133.69 145.13 130.92C145.13 128.16 147.36 125.92 150.13 125.92Z" fill="#009EE1"/>
<path fill-rule="evenodd" clip-rule="evenodd" d="M279.16 0.810059H21.1C9.45996 0.810059 0 10.2803 0 21.9102V199.91C0 211.55 9.46997 221.01 21.1 221.01H279.17C290.8 221.01 300.27 211.54 300.27 199.91V21.9199C300.27 10.2803 290.8 0.810059 279.16 0.810059ZM290.26 199.91C290.26 206.03 285.29 211.01 279.17 211.01H21.1C14.98 211.01 10.01 206.03 10.01 199.91V21.9199C10.01 15.8003 14.98 10.8198 21.1 10.8198H279.17C285.29 10.8198 290.26 15.79 290.26 21.9199V199.91Z" fill="#009EE1"/>
</svg>
