<svg width="254" height="300" viewBox="0 0 254 300" fill="none" xmlns="http://www.w3.org/2000/svg">
<path d="M213.72 179.73H39.76C37.01 179.73 34.79 181.95 34.79 184.7C34.79 187.45 37.01 189.67 39.76 189.67H213.72C216.47 189.67 218.69 187.45 218.69 184.7C218.69 181.95 216.47 179.73 213.72 179.73Z" fill="#009EE1"/>
<path d="M149.11 154.88H213.72C216.47 154.88 218.69 152.66 218.69 149.91C218.69 147.16 216.47 144.94 213.72 144.94H149.11C146.36 144.94 144.14 147.16 144.14 149.91C144.14 152.66 146.36 154.88 149.11 154.88Z" fill="#009EE1"/>
<path d="M149.11 120.08H213.72C216.47 120.08 218.69 117.86 218.69 115.11C218.69 112.36 216.47 110.14 213.72 110.14H149.11C146.36 110.14 144.14 112.36 144.14 115.11C144.14 117.86 146.36 120.08 149.11 120.08Z" fill="#009EE1"/>
<path d="M149.11 85.2901H213.72C216.47 85.2901 218.69 83.0701 218.69 80.3201C218.69 77.5701 216.47 75.3501 213.72 75.3501H149.11C146.36 75.3501 144.14 77.5701 144.14 80.3201C144.14 83.0701 146.36 85.2901 149.11 85.2901Z" fill="#009EE1"/>
<path d="M213.72 239.37H39.76C37.01 239.37 34.79 241.59 34.79 244.34C34.79 247.09 37.01 249.31 39.76 249.31H213.72C216.47 249.31 218.69 247.09 218.69 244.34C218.69 241.59 216.47 239.37 213.72 239.37Z" fill="#009EE1"/>
<path d="M39.76 219.49H109.34C112.09 219.49 114.31 217.27 114.31 214.52C114.31 211.77 112.09 209.55 109.34 209.55H39.76C37.01 209.55 34.79 211.77 34.79 214.52C34.79 217.27 37.01 219.49 39.76 219.49Z" fill="#009EE1"/>
<path d="M213.72 209.55H149.11C146.36 209.55 144.14 211.77 144.14 214.52C144.14 217.27 146.36 219.49 149.11 219.49H213.72C216.47 219.49 218.69 217.27 218.69 214.52C218.69 211.77 216.47 209.55 213.72 209.55Z" fill="#009EE1"/>
<path d="M132.75 218.05C133.64 217.11 134.19 215.81 134.19 214.52C134.19 213.22 133.64 211.93 132.75 211.04C130.91 209.15 127.48 209.15 125.69 210.99C124.79 211.93 124.25 213.22 124.25 214.52C124.25 215.81 124.79 217.1 125.69 218.05C126.63 218.94 127.87 219.49 129.22 219.49C130.52 219.49 131.81 218.94 132.75 218.05Z" fill="#009EE1"/>
<path d="M248.51 20.68H124.25V5.77005C124.25 3.02005 122.03 0.800049 119.28 0.800049H39.76C37.01 0.800049 34.79 3.02005 34.79 5.77005V20.68H4.97C2.22 20.68 0 22.9 0 25.65V294.04C0 296.79 2.22 299.01 4.97 299.01H248.51C251.26 299.01 253.48 296.79 253.48 294.04V25.65C253.48 22.9 251.26 20.68 248.51 20.68ZM44.73 25.65V10.74H114.31V25.65V134.99L82.5 111.13C80.74 109.8 78.31 109.8 76.54 111.13L44.73 134.99V25.65ZM243.54 289.07H9.94V30.62H34.79V144.93C34.79 146.81 35.85 148.53 37.54 149.38C39.22 150.22 41.24 150.05 42.74 148.91L79.52 121.33L116.3 148.91C116.71 149.22 117.16 149.44 117.63 149.61C117.8 149.67 117.97 149.69 118.15 149.73C118.46 149.8 118.76 149.86 119.07 149.88C119.14 149.88 119.21 149.91 119.29 149.91C119.37 149.91 119.45 149.86 119.53 149.85C120.21 149.82 120.88 149.7 121.51 149.38C123.18 148.54 124.25 146.82 124.25 144.93V30.62H243.54V289.07Z" fill="#009EE1"/>
</svg>
