<svg width="296" height="297" viewBox="0 0 296 297" fill="none" xmlns="http://www.w3.org/2000/svg">
<path d="M148 0.0100098C66.39 0.0100098 0 66.4 0 148.01C0 229.62 66.39 296.01 148 296.01C229.61 296.01 296 229.62 296 148.01C296 66.4 229.61 0.0100098 148 0.0100098ZM148 284.63C72.67 284.63 11.38 223.34 11.38 148.01C11.38 72.68 72.67 11.39 148 11.39C223.33 11.39 284.62 72.68 284.62 148.01C284.62 223.34 223.33 284.63 148 284.63Z" fill="#009EE1"/>
<path d="M148 210.63C144.85 210.63 142.31 213.17 142.31 216.32V227.7C142.31 230.85 144.85 233.39 148 233.39C151.15 233.39 153.69 230.85 153.69 227.7V216.32C153.69 213.17 151.15 210.63 148 210.63Z" fill="#009EE1"/>
<path d="M148.64 51.2502C148.42 51.2502 148.21 51.2402 147.99 51.2402C135.95 51.2402 124.62 55.8802 116.03 64.3602C107.29 72.9802 102.47 84.5002 102.47 96.7802C102.47 99.9302 105.01 102.47 108.16 102.47C111.31 102.47 113.85 99.9302 113.85 96.7802C113.85 87.5702 117.46 78.9302 124.02 72.4602C130.58 65.9902 139.32 62.4102 148.49 62.6302C166.48 62.8802 181.9 78.3002 182.15 96.2902C182.32 108.15 176.46 119.07 166.49 125.5C151.35 135.27 142.31 152.53 142.31 171.68V187.86C142.31 191.01 144.85 193.55 148 193.55C151.15 193.55 153.69 191.01 153.69 187.86V171.68C153.69 156.64 160.95 142.62 172.66 135.07C185.95 126.5 193.76 111.94 193.53 96.1302C193.19 71.7302 173.05 51.5902 148.64 51.2502Z" fill="#009EE1"/>
</svg>
