<svg width="72" height="73" viewBox="0 0 72 73" fill="none" xmlns="http://www.w3.org/2000/svg">
<path fill-rule="evenodd" clip-rule="evenodd" d="M9.83616 0.595504C9.83616 -0.0574961 14.9692 -0.176496 24.5862 0.253504L39.3362 0.912504L47.4182 9.0635C55.8132 17.5305 60.6082 21.7145 61.9172 21.7145C63.1062 21.7145 65.0942 28.6195 64.5282 30.7835C64.1072 32.3925 64.6922 32.8275 67.9832 33.3545C70.5432 33.7635 71.7772 34.4245 71.4712 35.2235C71.2102 35.9035 70.0412 39.7795 68.8732 43.8365C66.0352 53.6935 60.7272 68.9335 59.6332 70.3675C58.1442 72.3165 45.4692 72.9815 24.2282 72.2225C10.9262 71.7475 3.34716 71.0775 2.25716 70.2805C0.803163 69.2175 0.540163 65.9195 0.168163 44.1395C-0.326837 15.1185 -0.134836 14.2145 6.55116 14.2145H10.6862L11.0112 8.3665C11.1902 5.1505 10.9992 2.3115 10.5862 2.0575C10.1732 1.8045 9.83616 1.1455 9.83616 0.595504ZM15.0492 34.4435L12.8762 39.3295C11.6812 42.0165 10.0552 46.6895 9.26316 49.7145C8.47116 52.7395 6.88016 58.0555 5.72716 61.5285C4.57416 65.0015 3.78916 67.9765 3.98316 68.1405C4.78416 68.8175 54.4502 69.5695 55.4722 68.9205C56.0842 68.5325 57.9372 64.3895 59.5902 59.7145C61.2432 55.0395 64.0832 47.9605 65.9012 43.9825C67.7182 40.0045 69.0102 36.5595 68.7712 36.3255C68.5322 36.0925 56.3472 35.5735 41.6932 35.1725L15.0492 34.4435ZM9.54116 15.8645C8.87816 15.9465 7.21116 16.1905 5.83616 16.4065L3.33616 16.7995V59.2655L6.57916 50.7395C9.49116 43.0835 9.86916 40.8645 10.2842 28.9645C10.6322 18.9885 10.4492 15.7515 9.54116 15.8645ZM20.5862 2.4395L12.8362 2.7985L12.9152 19.0065C12.9582 27.9205 13.2212 34.6525 13.4982 33.9645C13.8706 33.0427 18.7934 32.7286 33.3966 32.715L54.8362 32.7145V20.7895L48.5102 21.3805C38.7945 22.2879 37.8552 21.4975 37.8365 11.5017L37.8362 2.7145L35.0862 2.7005C33.5732 2.6935 31.4362 2.5505 30.3362 2.3835C29.2362 2.2175 24.8492 2.2425 20.5862 2.4395ZM60.2362 24.7145C59.2692 24.7145 58.8362 25.9525 58.8362 28.7145C58.8362 34.1325 61.2822 34.1275 61.4862 28.7085C61.5922 25.8805 61.2282 24.7145 60.2362 24.7145ZM37.7842 26.0995C38.0602 25.8245 39.1972 25.8435 40.3112 26.1425C41.4252 26.4425 44.0242 26.6935 46.0862 26.7005C48.1492 26.7085 49.8362 27.1645 49.8362 27.7145C49.8362 28.3385 44.0032 28.7145 34.3362 28.7145L33.8409 28.7141C17.6129 28.6849 12.9003 27.2256 28.0602 26.8365C33.1332 26.7065 37.5092 26.3755 37.7842 26.0995ZM23.0632 18.4255C29.8132 17.7845 33.1492 18.1145 33.5922 19.4645C33.8942 20.3845 32.1502 20.7145 26.9782 20.7145C19.1872 20.7145 16.3612 19.0625 23.0632 18.4255ZM39.8362 4.6935L39.8502 8.9535C39.8752 16.7105 40.5172 17.7145 45.4532 17.7145C47.8632 17.7145 49.8362 17.2695 49.8362 16.7255C49.8362 16.1805 47.5862 13.2515 44.8362 10.2145L39.8362 4.6935ZM25.0862 9.8325C29.6652 9.7625 32.8362 10.1235 32.8362 10.7145C32.8362 11.8565 24.8222 11.8565 20.3362 10.7145C18.1322 10.1535 19.3932 9.9195 25.0862 9.8325Z" fill="#106198"/>
</svg>
