<svg height="154" viewBox="0 0 480 154" width="480" xmlns="http://www.w3.org/2000/svg"><path d="m108.5 1.617c-2.2.681-9.175 2.665-15.5 4.408s-16.836 4.926-23.358 7.072c-6.522 2.147-13.765 3.903-16.095 3.903-2.949 0-4.78.6-6.024 1.974-.983 1.086-2.74 2.247-3.905 2.579-2.867.818-43.051 14.629-43.377 14.909-.142.122 1.955 9.406 4.66 20.63s6.529 28.733 8.497 38.908c3.435 17.759 5.464 25.228 10.999 40.5 1.396 3.85 3.02 8.912 3.609 11.25.589 2.337 1.504 4.25 2.033 4.25 1.984 0 .802-5.553-4.533-21.292-3.022-8.914-7.313-24.295-9.536-34.178-2.223-9.884-4.764-20.452-5.645-23.485-1.734-5.964-8.245-33.447-7.984-33.698 1.156-1.115 44.76-14.818 46.355-14.567 1.794.282 2.251 1.109 2.5 4.532.261 3.592.619 4.177 2.517 4.113 1.564-.054 2.502.753 3.198 2.75.946 2.713 2.096 3.484 3.341 2.24.321-.322.097-1.984-.499-3.695-.806-2.312-.785-3.209.081-3.498 1.982-.661 1.288-3.981-1.25-5.977-1.455-1.145-2.117-2.383-1.665-3.115 1.319-2.133 19.416-8.352 49.831-17.124 6.555-1.89 8.594-3.226 6.5-4.257-.412-.203-2.55.187-4.75.868m7.246.99c-.852 1.372 1.681 10.332 8.236 29.132 2.779 7.968 6.422 19.724 8.098 26.124 1.675 6.4 4.097 15.012 5.382 19.137s3.064 10.65 3.954 14.5c.889 3.85 2.903 11.275 4.475 16.5l2.858 9.5-4.625 1.206c-4.71 1.229-14.807 3.975-48.624 13.226-10.45 2.859-25.75 7.368-34 10.02s-18.375 5.846-22.5 7.099c-4.125 1.252-6.9 2.478-6.167 2.724 1.465.491 7.078-1.035 23.567-6.409 5.995-1.954 20.845-6.001 33-8.993 12.155-2.991 25.925-6.599 30.6-8.017 8.022-2.433 9.822-2.586 32-2.717 22.384-.132 71.116.888 73.98 1.549 2.244.518 2.794-4.992 3.555-35.594.398-16.002 1.067-29.319 1.487-29.594.669-.438 12.506-41.289 15.285-52.75.76-3.137 1.525-4.25 2.92-4.25 5.023 0 17.36 2.5 27.273 5.526 6.05 1.847 13.25 3.973 16 4.725 5.184 1.416 5.388 1.777 3.994 7.06-.611 2.316-.389 2.904 1.258 3.334 1.742.456 1.894.992 1.179 4.161-.451 2.001-.65 3.808-.442 4.016.958.959 2.493-1.21 3.084-4.357.357-1.906.993-3.465 1.413-3.465s1.045-1.403 1.387-3.117c.742-3.707-.661-3.88 20.627 2.551 17.501 5.287 22.591 6.66 25.574 6.9 1.893.151 2.003.546 1.261 4.517-1.573 8.42-8.591 31.601-11.51 38.02-2.909 6.394-7.452 20.675-11.494 36.129-5.3 20.263-5.248 20-3.961 20 1.716 0 3.786-5.918 6.144-17.57 2.267-11.197 10.996-38.179 13.516-41.777.809-1.154 1.499-3.01 1.533-4.126.135-4.295 2.031 2.928 4.547 17.317 1.929 11.027 3.478 16.589 6.559 23.547 3.841 8.675 10.151 27.112 11.844 34.609.435 1.925 1.384 4.963 2.108 6.75 1.654 4.08 4.086 4.208 14.12.743 7.736-2.671 22.689-6.825 50.363-13.991 9.407-2.436 19.982-5.512 23.5-6.835 12.627-4.749 19.881-8.189 19.88803-9.43.00597-.959-.89703-.879-3.74203.331-16.908 7.188-22.777 9.226-37.25 12.935-19.753 5.062-40.487 10.703-51.646 14.052-11.24 3.373-11.975 3.28-14.222-1.805-1.83-4.142-7.17-21.405-7.145-23.098.007-.467-2.207-6.355-4.921-13.084-4.686-11.622-8.733-26.936-11.054-41.831-.926-5.938-.792-7.666 1.096-14.163 2.067-7.114 2.31-7.46 6.271-8.924 6.439-2.379 27.771-8.852 27.956-8.482.091.183.728 1.338 1.415 2.568.688 1.23 1.25 3.268 1.25 4.528s.9 3.062 2 4.004 2 2.617 2 3.722c0 1.106.506 2.01 1.125 2.01.72 0 .906-1.095.517-3.041-.339-1.693-.089-3.872.565-4.918.922-1.477.869-2.244-.245-3.586-.779-.939-1.513-3.204-1.629-5.032-.202-3.154.057-3.425 5.074-5.302 2.908-1.088 11.094-3.576 18.19-5.528 15.56-4.279 22.36-6.436 20.578-6.526-3.374-.17-34.045 8.737-56.425 16.386-13.613 4.653-24.75 8.309-24.75 8.125 0-.183.699-2.006 1.552-4.049 1.727-4.132 1.32-7.486-.428-3.529-1.073 2.431-1.098 2.409-.873-.769.193-2.718-.264-3.525-2.714-4.796-1.621-.841-4.833-1.677-7.138-1.859-2.306-.182-4.577-.563-5.046-.848s-7.216-2.323-14.993-4.529c-15.391-4.366-18.36-5.59-18.36-7.574 0-2.116-4.761-3.823-7.13-2.556-1.555.833-4.332.468-12.172-1.6-5.586-1.474-12.35-3.544-15.031-4.6-2.681-1.057-9.143-2.507-14.361-3.223-9.228-1.265-9.522-1.244-10.814.777-.729 1.142-3.183 8.827-5.451 17.077-4.734 17.219-11.186 37.441-10.529 33 .244-1.65.702-13.309 1.018-25.909l.574-22.909-30.415.596c-22.036.431-30.728.283-31.549-.538-.843-.843-1.452-.715-2.386.503-1.067 1.391-4.866 1.755-25.496 2.446l-24.242.811-.791-4c-.436-2.2-1.101-3.502-1.479-2.893m76.254 5.443c-7.975.384-15.235.755-16.133.824-2.004.154-2.939 4.389-1.826 8.269.583 2.032.407 3.266-.611 4.284-.787.787-1.43 1.912-1.43 2.502 0 .589-.45 1.071-1 1.071s-1-.675-1-1.5-.675-1.5-1.5-1.5c-1.73 0-1.909-1.795-.538-5.399.616-1.62.616-2.744 0-3.125-.529-.327-.962-1.355-.961-2.285 0-1.523-1.466-1.666-14.75-1.441-19.002.321-33.251 1.244-33.251 2.153 0 .394 2.936 9.015 6.524 19.157s7.884 23.39 9.547 29.44 4.072 13.7 5.353 17 2.644 7.575 3.027 9.5c1.432 7.181 2.018 7.642 2.54 2l.509-5.5 11-.5 11-.5 1.037-16c.57-8.8 1.296-14.875 1.614-13.5.515 2.233.591 2.153.713-.75.134-3.205-1.923-4.581-3.364-2.25-.34.551-4.802 1-9.934 1h-9.316l-.625-3.125c-.933-4.666-.755-8.875.375-8.875.55 0 1 .685 1 1.523 0 1.325.293 1.342 2.25.133 3.014-1.863 42.794-4.238 45.622-2.725 1.811.97 1.849 1.345.572 5.589-.753 2.503-1.638 4.985-1.966 5.515-.328.531-3.913.965-7.966.965h-7.37l-1.105 5.75c-.608 3.163-1.54 7.637-2.071 9.943-1.528 6.634-1.224 15.848.572 17.339.918.761 5.588 1.471 11.584 1.76 11.292.544 11.674.823 10.239 7.517-.819 3.821-1.161 4.182-3.879 4.084-1.64-.059-12.101-.66-23.246-1.336-11.145-.675-21.996-.935-24.114-.578l-3.851.651 2.299 7.91c1.265 4.35 2.593 9.867 2.952 12.26l.653 4.35-6.838 2.039-6.837 2.039 37 .663c20.35.364 40.15.917 44 1.228l7 .565.273-11.842c.151-6.513.944-28.042 1.763-47.842s1.596-41.288 1.727-47.752l.237-11.752-11.5.177c-6.325.098-18.025.492-26 .877m245.679 10.604c-.329.33.03 1.817.8 3.305.769 1.487 3.034 8.518 5.033 15.623 5.742 20.406 7.4 25.167 13.06 37.487 5.453 11.873 13.603 34.502 14.83 41.181.759 4.135 3.608 5.328 3.583164 1.5-.026164-4.048-7.819164-25.554-14.329164-39.547-6.797-14.609-8.386-19.007-14.529-40.203-5.31-18.323-6.575-21.219-8.448-19.346m-169.024 20.096c-.264.962-.774 3.55-1.134 5.75-.359 2.2-1.474 6.475-2.478 9.5-1.003 3.025-2.521 8.425-3.372 12s-2.97 11-4.708 16.5-3.213 10.787-3.276 11.75c-.064.963-.469 1.75-.901 1.75s-.786.623-.786 1.383c0 1.588 3.006 2.584 7.857 2.6032602 2.626.0107398 3.227-.3242602 2.762-1.5382602-.328-.853.682-4.115 2.243-7.25 1.561-3.134 3.631-8.398 4.6-11.698l1.761-6 7.916.327c10.309.426 16.877-1.062 24.583-5.57 5.178-3.029 6.554-4.412 7.903-7.944 2.032-5.323.892-8.71-4.606-13.677-4.575-4.133-10.434-6.156-23.519-8.122-12.788-1.921-14.26-1.898-14.845.236m-173.31 2c.255.413-.731.8-2.19.86-1.46.061-6.255 1.475-10.655 3.143-4.4 1.667-16.1 5.914-26 9.436-9.9 3.523-18.788 6.707-19.752 7.077-1.636.628-1.609.967.422 5.146 1.195 2.461 2.433 4.446 2.751 4.412.319-.033 1.254.024 2.079.128 1.071.135.928.434-.5 1.048-1.598.687-1.236.874 1.801.93 3.751.069 20.979-6.003 18.95-6.68-.576-.192-3.869.798-7.318 2.199-7.957 3.233-8.865 2.685-1.204-.728 6.528-2.907 12.785-4.316 13.566-3.053.288.466.784 2.644 1.103 4.84.554 3.82.536 3.854-.425.791-.553-1.76-1.524-3.522-2.159-3.914-.749-.463-.947-.175-.566.819.324.843 2.012 6.654 3.752 12.914 1.741 6.26 3.886 13.632 4.769 16.382.882 2.75 1.641 6.125 1.686 7.5.068 2.041.539 2.456 2.564 2.263 4.882-.467 10.862-2.512 11.393-3.895.535-1.392-1.662-7.834-6.918-20.285-2.157-5.11-2.737-8.141-2.851-14.887l-.143-8.471 5.051-1.734c8.057-2.766 11.454-4.813 10.803-6.51-.412-1.074-.116-1.327 1.035-.885 1.294.496 1.611-.076 1.611-2.907 0-4.13-.829-6.689-2.166-6.689-.524 0-.743.337-.489.75m55.405 7.912c.688.278 1.813.278 2.5 0 .688-.277.125-.504-1.25-.504s-1.937.227-1.25.504m128.429 9.253c-1.234 3.54-.78 4.085 3.406 4.085 4.73 0 6.415-.919 6.415-3.5 0-2.513-1.687-3.5-5.984-3.5-2.216 0-3.038.624-3.837 2.915m110.313.704c-10.944 5.742-14.492 9.997-14.492 17.381 0 2.255.705 5.462 1.566 7.128 2.482 4.798 6.372 5.842 19.249 5.162l11.167-.589 3.572 3.787 3.571 3.787-3.194 3.296c-4.197 4.331-12.093 7.673-18.931 8.012l-5.5.274-.1 4.821c-.138 6.685 1.665 9.322 6.373 9.321 7.641-.001 24.316-10.553 29.222-18.49 2.866-4.638 2.921-10.81.144-16.244-3.57-6.985-5.52-7.717-21.592-8.099-7.726-.184-14.467-.74-14.981-1.234-.568-.548.734-2.439 3.326-4.832 3.303-3.05 5.366-4.085 9.185-4.611 2.709-.372 4.673-1.085 4.365-1.583s-.083-.906.499-.906c1.572 0 1.283-5.919-.37-7.571-2.193-2.194-7.561-1.705-13.079 1.19m-114.825 2.048c-1.187 1.186-.707 3.333.745 3.333.776 0 1.314-.662 1.195-1.471-.28-1.912-1.102-2.7-1.94-1.862m-202.581 24.833c.104 1.894 1.77 5.084 1.828 3.5.031-.825-.381-2.175-.914-3s-.945-1.05-.914-.5m123.414 2.5c2.731 1.174 3.5 1.174 3.5 0 0-.55-1.238-.968-2.75-.93-2.437.063-2.522.168-.75.93m59.5 8.139c0 .473 1.125.861 2.5.861s2.5-.173 2.5-.383c0-.211-1.125-.599-2.5-.862s-2.5-.09-2.5.384m-4.5 22.677c9.35 3.171 17.977 6.307 19.172 6.968 3.673 2.034 16.367 6.381 25.828 8.846 4.95 1.29 13.05 3.447 18 4.794 4.95 1.346 9.314 2.139 9.699 1.762.384-.377 1.011-2.644 1.394-5.037.626-3.917.506-4.315-1.199-3.992-1.318.25-1.991 1.365-2.212 3.666-.372 3.863.348 3.901-17.682-.938-10.934-2.935-17.568-5.067-47.798-15.365-8.689-2.96-17.239-5.627-19-5.927-1.761-.299 4.448 2.051 13.798 5.223" fill-rule="evenodd" transform="translate(.5 .5)"/></svg>