<svg height="552" viewBox="0 0 1006 552" width="1006" xmlns="http://www.w3.org/2000/svg"><path d="m865 4c-1.122 2.2-2.482 4-3.02 4-.539 0-.98 2.283-.98 5.074v5.075l-23.75-.247-23.75-.246-1.406 10.545c-.773 5.8-1.116 11.3-.761 12.223.354.923 2.674 2.576 5.155 3.674 2.482 1.097 4.512 2.388 4.512 2.867 0 2.33-1.554 4.218-5.123 6.224l-3.914 2.2.535 8.555c.295 4.706 1.215 10.917 2.046 13.803 1.357 4.715 1.352 5.554-.05 8.265-.859 1.66-1.658 5.374-1.777 8.253-.213 5.14-.163 5.24 2.783 5.528 5.676.554 6.179 1.175 2.726 3.361-2.882 1.824-3.225 2.539-3.22 6.694.003 2.559.488 7.352 1.078 10.652 1.311 7.331 1.321 6.53-.177 14.84-1.466 8.135-1.079 8.622 6.878 8.645 3.247.009 6.276.664 7.855 1.698 2.199 1.441 5.063 1.649 19.878 1.439l17.308-.245-.543 4.052c-.338 2.516-.073 4.619.698 5.549.684.823.972 2.202.641 3.064s-.827 18.53-1.104 39.263c-.276 20.732-.813 41.295-1.192 45.695l-.689 8-.75-4.848c-.837-5.418-1.253-6.162-2.879-5.157-.659.407-.871 1.851-.513 3.483 1.011 4.602 1.291 23.022.35 23.022-.481 0-1.763-1.46-2.848-3.245-1.814-2.984-1.937-4.624-1.521-20.342.249-9.403.844-18.18 1.322-19.505.487-1.349.498-6.806.025-12.408-.464-5.5-.621-13.375-.35-17.5.272-4.125.089-9.3-.406-11.5-.621-2.764-.888 2.954-.863 18.5.023 14.512-.391 24.065-1.165 26.909-.661 2.425-.91 5.965-.553 7.867.356 1.901.347 6.272-.022 9.712-.529 4.947-1.014 6.23-2.317 6.134-1.156-.086-1.637.674-1.614 2.547.027 2.172-.273 2.505-1.612 1.789-1.064-.57-2.297-.403-3.493.471-1.549 1.133-1.665 1.755-.716 3.839.782 1.715.812 2.808.098 3.522-1.588 1.588-.125 3.048 4.232 4.221 3.312.892 3.958 1.487 3.958 3.644 0 2.332-.263 2.505-2.75 1.812-2.774-.774-12.975-.94-19.023-.31-3.445.358-7.2-1.904-20.637-12.427-3.349-2.623-12.022-8.698-19.271-13.5l-13.181-8.73-.069-7.429c-.038-4.086-.617-8.945-1.287-10.797-1.172-3.242-1.387-3.354-5.75-2.993l-4.532.376-.5 6.921c-.424 5.864-.612 6.421-1.23 3.648-.972-4.363-3.086-4.957-8.42-2.365-4.19 2.035-4.403 2.338-3.823 5.43.598 3.19.464 3.342-5.207 5.938-8.164 3.737-11.03 4.488-27.726 7.272-8.111 1.352-20.001 3.766-26.421 5.363-29.306 7.292-44.1 10.13-68.612 13.158-9.316 1.151-17.275 2.301-17.686 2.555s-4.939.895-10.061 1.424c-5.123.528-14.039 1.615-19.814 2.414-48.604 6.73-93.883 7.999-128.5 3.604-8.25-1.047-23.1-2.41-33-3.028-20.677-1.29-20.776-1.299-37.663-3.409-6.965-.87-14.616-1.582-17.002-1.582-5.133 0-23.519-3.64-42.635-8.44-7.535-1.892-18.875-4.601-25.2-6.021-6.325-1.419-15.55-3.899-20.5-5.51s-14.85-4.742-22-6.956c-16.064-4.976-19.254-6.801-19.682-11.267-.412-4.281-3.328-4.819-7.358-1.356-2.577 2.215-2.793 2.787-1.705 4.529 1.702 2.725 1.567 7.509-.255 9.021-1.293 1.073-1.514.64-1.599-3.128-.054-2.404-.196-5.272-.315-6.372s-.307-4.25-.417-7-.577-5.595-1.037-6.321c-1.045-1.648-7.946-2.289-8.853-.822-.368.595-.543 5.068-.388 9.94l.28 8.858-5.335 4.985c-2.935 2.742-8.261 7.062-11.836 9.601s-12.396 8.811-19.601 13.938c-7.206 5.126-13.602 9.321-14.215 9.321-.612 0-1.561.836-2.108 1.858s-2.181 2.636-3.63 3.585c-2.56 1.678-2.617 1.67-1.993-.296.353-1.112.241-2.838-.249-3.834-.491-.997-1.371-2.753-1.956-3.902-.646-1.268-.713-2.645-.172-3.5 2.329-3.679-1.099-8.716-6.531-9.597-3.428-.557-3.545-.472-3.545 2.555 0 1.722-.394 3.131-.876 3.131s-.943-3.488-1.025-7.75c-.141-7.315-1.62-25.611-4.264-52.75-1.235-12.672-1.41-21.259-.452-22.216.317-.317 2.723-.958 5.346-1.424 7.543-1.341 12.326-2.568 18.676-4.792 3.248-1.137 7.523-2.081 9.5-2.098 4.857-.04 17.204-4.196 18.482-6.221.765-1.214.579-2.129-.727-3.573-1.045-1.154-1.812-3.71-1.894-6.308-.097-3.053-.82-5.072-2.404-6.706-2.968-3.064-4.028-10.114-2.305-15.335 1.073-3.25 1.077-4.126.021-4.779-.871-.538-1.069-1.814-.607-3.918.596-2.711.358-3.244-1.813-4.07-1.814-.689-2.359-1.486-1.989-2.903.281-1.074.018-2.872-.583-3.997-1.167-2.179-.204-10.95 2.057-18.754 1.033-3.562.928-4.665-.811-8.5-4.326-9.543-4.508-10.998-2.215-17.785 1.626-4.815 2.886-6.754 5.485-8.436 5.287-3.424 4.369-5.269-2.352-4.724-1.237.1-2.25-.3-2.25-.889 0-.59 1.425-1.072 3.167-1.072 1.741 0 2.971-.196 2.732-.435-.699-.698-24.495 1.213-35.399 2.843-15.016 2.245-14.936 2.257-16.768-2.408-1.354-3.447-1.992-4-4.616-4-3.491 0-5.291 2.439-4.061 5.5 1.31 3.258 1.118 3.499-2.805 3.524-2.062.014-5.775.492-8.25 1.062-6.369 1.468-10.106 1.887-21.676 2.43-5.597.262-11.366.93-12.821 1.483-3.201 1.217-25.283 3.255-26.581 2.453-1.895-1.171-.975-5.204 1.328-5.822 3.321-.89 3.557-.813 4.25 1.37.831 2.619 2.471 2.605 1.786-.016-.744-2.844-1.701-3.194-6.681-2.448l-4.389.659.52 3.87.519 3.871-4.109.657c-2.261.361-3.893 1.008-3.628 1.437.266.429-1.43.605-3.768.391-3.112-.284-3.581-.177-1.75.402l2.5.79-2.5.68c-1.375.374-3.85.633-5.5.575l-3-.105 3-.763c2.402-.611 1.804-.778-3-.838-9.355-.115-15.565 1.896-18.315 5.931-3.102 4.55-2.186 9.709 3.036 17.099.998 1.412.748 2.045-1.513 3.823-3.088 2.429-3.517 5.433-.979 6.853 1.628.911 1.62 1.088-.121 3.013-2.327 2.571-1.476 4.965 2.265 6.377 2.818 1.064 2.86 1.194 2.372 7.28-.441 5.494-.2 6.634 2.129 10.061 2.936 4.322 3.206 6.728 1.168 10.401-1.196 2.154-1.182 2.728.098 4.149 1.327 1.472 1.264 1.805-.589 3.103-1.614 1.13-1.971 2.211-1.605 4.851.562 4.042 1.765 8.024 3.992 13.204.9 2.094 1.592 5.469 1.539 7.5-.11 4.125.425 7.82 1.512 10.443.653 1.576 2.538 1.75 18.993 1.75h18.268l.625 3.125c.344 1.719.625 9.561.625 17.428 0 7.866.416 17.597.925 21.625 1.488 11.776 2.251 40.049 1.061 39.314-1.367-.846-7.517 1.238-9.028 3.059-.94 1.132-.926 1.782.062 2.973.696.838 1.088 1.626.873 1.75-.216.124-1.293.79-2.393 1.478-1.1.689-3.021 1.694-4.268 2.232-4.372 1.889-5.664 9.9-2.009 12.459 2.192 1.536 2.193 1.557.134 1.557-3.158 0-7.357 3.769-7.357 6.604 0 3.167 2.292 3.998 7.321 2.656 2.208-.589 4.934-.731 6.058-.316 1.923.712 4.329-.051 14.272-4.526 1.733-.78 4.506-1.418 6.162-1.418 6.716 0 18.677-2.958 20.395-5.044 1.436-1.743 2.232-1.93 5-1.176 1.811.494 4.98.696 7.042.45 2.966-.355 3.75-.112 3.75 1.161 0 .885.567 1.609 1.259 1.609.693 0 1.822.9 2.509 2 1.666 2.667 5.14 2.531 11.305-.443 2.785-1.343 5.655-2.215 6.378-1.937.724.277 2.998-.199 5.054-1.058 5.094-2.128 8.222-1.999 8.974.372.465 1.465 1.903 2.095 5.928 2.598 6.324.79 10.857-1.088 13.425-5.561l1.657-2.888 10.177.268c9.195.242 10.553.529 14.072 2.968 3.57 2.473 4.307 2.621 8.829 1.767 2.713-.513 8.515-.77 12.893-.571 7.848.357 8.012.419 11.71 4.424 3.31 3.585 4.275 4.061 8.227 4.061 6.893 0 25.3 4.904 28.737 7.656.751.602 2.716 1.779 4.367 2.616 1.65.837 4.709 3.133 6.797 5.102 3.262 3.077 3.642 3.869 2.699 5.631-.603 1.128-1.501 1.801-1.995 1.496-.493-.304-3.058-.772-5.699-1.038-3.243-.327-5.298-1.139-6.327-2.5-1.149-1.52-1.807-1.732-2.675-.864-.728.728-2.505.898-4.826.462-2.808-.526-3.562-1.087-3.197-2.375.263-.927.646-2.305.85-3.061.691-2.555-2.09-2.303-3.274.296-1.131 2.482-3.158 3.167-6.068 2.05-.928-.356-1.243-1.678-.966-4.055.304-2.607-.072-3.88-1.443-4.882-1.02-.746-2.197-1.145-2.616-.886-1.125.695-.925 4.352.239 4.352.55 0 1 .948 1 2.107 0 1.604-.418 1.942-1.75 1.414-.963-.381-4.675-1.148-8.25-1.704-3.828-.596-7.348-1.793-8.564-2.914-1.136-1.047-2.651-1.903-3.367-1.903-.842 0-1.103-.763-.737-2.162 1.217-4.652-3.447-7.814-6.357-4.308-.97 1.169-1.004 2.111-.143 4 .931 2.044.86 2.47-.412 2.47-.846 0-1.279-.419-.963-.931.317-.512.088-1.232-.508-1.601-.604-.373-1.319.23-1.615 1.362-.438 1.675-1.655 2.152-6.933 2.717-3.52.378-6.401 1.035-6.401 1.463 0 1.752-3.322 1.937-4.627.257-1.306-1.681-1.446-1.672-2.873.174-2.014 2.606-1.896 5.499.25 6.163.963.298 2.531.959 3.486 1.469s2.418.927 3.25.927c.833 0 1.514.525 1.514 1.167 0 .641.303.863.674.492 1.091-1.09 1.048-6.018-.068-7.864-.567-.937-.822-1.893-.568-2.124s5.022-.734 10.595-1.117l10.134-.698 3.366 2.94c2.533 2.212 5.397 3.349 11.56 4.591 4.506.908 11.481 2.991 15.5 4.628 4.019 1.638 8.657 2.996 10.307 3.017s4.125.682 5.5 1.468 5.072 1.445 8.215 1.465c4.666.029 5.911.401 6.783 2.032.588 1.098 2.771 2.865 4.852 3.927 2.081 1.061 4.371 2.638 5.089 3.503s2.39 1.573 3.715 1.573c1.421 0 2.63.717 2.95 1.75.297.962.964 2.425 1.481 3.25s1.781 3.326 2.81 5.558c1.964 4.264 5.11 6.903 9.56 8.02 1.979.497 2.483 1.087 1.961 2.295-1.66 3.841-2.61 15.405-1.471 17.905.989 2.17.817 2.876-1.246 5.12-1.316 1.431-3.136 3.715-4.046 5.075-1.24 1.854-1.653 2.051-1.653.786 0-.928-1.679-2.828-3.732-4.223s-3.29-2.55-2.75-2.568c.54-.017 1.855-.692 2.922-1.499 1.907-1.443 1.903-1.501-.279-3.534-2.815-2.622-6.55-2.213-6.974.765-.278 1.953-.589 2.074-2.774 1.078-2.973-1.354-3.893-4.385-2.468-8.132 1.35-3.553 1.34-3.646-.426-3.646-.814 0-1.763 1.124-2.108 2.498l-.627 2.498-3.033-2.552c-4.625-3.892-15.464-8.443-20.139-8.455-2.262-.006-6.321-.681-9.021-1.5s-8.389-1.489-12.643-1.489c-8.384 0-9.544-.776-8.339-5.579.454-1.81.202-2.421-1.001-2.421-1.845 0-2.142 3.135-.573 6.066.803 1.499.709 1.934-.416 1.934-.799 0-1.687-.562-1.973-1.25-.369-.887-.975-.686-2.083.691-1.547 1.922-1.563 1.922-1.571 0-.004-1.088-1.103-2.449-2.5-3.097-2.842-1.318-2.823-1.344-1.521 2.079.842 2.214.676 2.62-1.25 3.057-6.133 1.391-10.439 2.451-12.471 3.069-1.728.526-2.25.284-2.25-1.041 0-1.34-.557-1.585-2.5-1.097-1.442.361-2.5.196-2.5-.392 0-.56-.483-1.019-1.073-1.019-1.891 0-.491 3.409 1.886 4.594l2.295 1.144-2.304.618c-1.267.339-5.146.623-8.62.63-3.473.008-7.298.517-8.5 1.132-3.114 1.594-9.684 8.057-9.684 9.526 0 2.838 2.354 2.285 6.487-1.525l4.398-4.054 6.808.605c3.744.333 7.565.993 8.491 1.467.927.475 2.911.863 4.409.863 1.965 0 3.919 1.301 7.006 4.663 3.984 4.339 4.684 4.694 10.091 5.112 5.395.416 6.144.794 10.478 5.275 5.01 5.179 11.337 8.946 15.042 8.956 1.26.004 3.594.687 5.189 1.518 1.594.831 3.094 1.316 3.334 1.076.239-.239.682-2.272.983-4.517.387-2.885.182-4.083-.698-4.083-.804 0-1.095 1.024-.821 2.89.371 2.528.208 2.755-1.298 1.815-.948-.592-1.983-2.373-2.299-3.957-.35-1.748-1.009-2.613-1.675-2.201-.605.373-.877 1.528-.606 2.566.574 2.195-.649 2.365-5.32.737-4.091-1.426-6.33-3.619-8.961-8.775-2.567-5.032-4.522-6.075-11.388-6.075-5.188 0-5.649-.211-8.607-3.946-1.719-2.17-4.04-4.236-5.159-4.591-2.99-.949-2.056-1.343 7.22-3.05 10.009-1.842 30.247-2.025 34.446-.312 1.623.661 5.719 1.522 9.104 1.912 8.132.937 18.292 5.738 21.758 10.283 1.736 2.276 5.289 4.765 9.991 6.998 6.676 3.17 7.345 3.763 7.866 6.977 1.056 6.507 5.497 14.219 10.729 18.63 3.603 3.038 5.002 4.935 5.002 6.779v2.561l-4.392-3.599c-3.448-2.826-5.604-3.742-10.028-4.262-5.591-.657-7.551-1.662-5.596-2.87.559-.345 1.016-2.401 1.016-4.569 0-4.732-2.497-5.505-3.471-1.075-.625 2.849-.651 2.858-4.459 1.546-6.038-2.08-23.234-4.58-26.882-3.908-2.407.443-3.223 1.073-2.983 2.303.238 1.225 1.43 1.728 4.312 1.818 11.516.363 23.808 4.152 27.432 8.458 2.159 2.565 3.473 3.122 8.551 3.626 5.224.518 6.728 1.189 11.629 5.193 4.184 3.419 5.773 5.442 6.193 7.887.541 3.151 7.069 13.211 8.572 13.211.398 0 1.566.616 2.595 1.368 3.571 2.612-5.608 1.092-10.489-1.736-2.475-1.435-5.229-2.613-6.12-2.62s-4.491-.947-8-2.091c-4.865-1.585-8.109-1.976-13.663-1.648-4.005.237-7.519.047-7.809-.421-.907-1.468-3.254-.934-5.233 1.191-1.625 1.744-3.423 2.101-12.289 2.436-10.163.385-19.672 2.271-25.105 4.981-1.833.914-4.686 1.178-8.75.809l-6.031-.547v-5.361c0-6.758-1.714-6.997-2.594-.361l-.664 5-6.621-.044c-3.641-.024-8.421-.692-10.621-1.485-2.2-.792-5.841-1.448-8.09-1.456-7.612-.028-24.351 10.391-22.87 14.235.959 2.49 3.125 2.173 7.316-1.07 10.188-7.884 13.972-8.691 21.957-4.68 4.65 2.335 5.968 2.5 20.025 2.5 12.989 0 15.5-.261 18.355-1.91 5.214-3.01 13.908-4.344 23.245-3.567 6.129.511 9.72.298 13.685-.812 8.928-2.499 16.813-2.937 22.392-1.245 2.742.832 6.11 1.522 7.485 1.533s4.907 1.141 7.849 2.511c2.942 1.369 7.105 2.49 9.25 2.49 3.751 0 3.901.128 3.901 3.318 0 9.688 5.358 18.166 9.933 15.718 1.869-1.001 2.067-.828 2.067 1.804 0 1.601 1.112 5.427 2.472 8.501 1.926 4.354 3.325 6.025 6.33 7.558 3.01 1.536 4.555 3.384 7.028 8.407 1.744 3.542 3.17 7.199 3.17 8.127s2.188 4.022 4.862 6.877c5.597 5.974 7.138 8.569 7.138 12.021 0 3.425 5.712 8.207 10.77 9.016 3.964.634 4.054.74 4.719 5.572.373 2.71 1.247 5.705 1.942 6.656 1.544 2.111 4.011.938 3-1.426-.388-.907-1.06-4.053-1.494-6.992-.435-2.939-.97-5.523-1.19-5.743s-2.809-.857-5.754-1.415c-6.955-1.319-8.588-2.933-9.333-9.222-.519-4.385-1.29-5.848-5.135-9.752-2.84-2.882-4.525-5.49-4.525-6.999 0-3.282-7.665-15.728-11.316-18.375-3.18-2.306-7.684-11.163-7.684-15.112 0-1.464-.726-2.635-1.855-2.993-1.206-.383-1.86-1.545-1.867-3.317-.006-1.501-.365-5.147-.799-8.103-.661-4.517-.52-5.524.888-6.312.921-.515 1.41-1.367 1.085-1.892s-.96-.726-1.411-.447c-.452.279-1.106-1.009-1.454-2.862-.614-3.273-1.4-4.285-8.989-11.565-2.874-2.757-3.598-4.204-3.598-7.191 0-2.056-.45-4.017-1-4.357s-1-2.556-1-4.924c0-4.479-2.904-9.576-5.456-9.576-1.746 0-8.544-7.593-8.544-9.543 0-2.385 3.533-8.703 6.322-11.306 1.385-1.292 3.069-3.68 3.743-5.308 1.062-2.565.962-3.317-.751-5.651-1.524-2.076-1.79-3.379-1.161-5.692.448-1.65.595-3.699.326-4.552-.268-.854.414-3.42 1.516-5.702 1.103-2.282 2.005-4.566 2.005-5.075 0-1.9-3.289-3.55-7.58-3.802-2.435-.144-5.317-.884-6.403-1.645-2.618-1.833-6.542-7.697-7.377-11.022-.408-1.626-3.561-5.077-8.094-8.86-6.671-5.568-7.368-6.482-6.864-9.004.485-2.425-.171-3.489-4.81-7.793-2.955-2.741-6.722-5.521-8.372-6.177-1.65-.655-3.9-1.942-5-2.859-1.1-.918-4.7-2.417-8-3.333-10.04-2.785-18.189-4.676-20.144-4.674-1.681.002-1.812-.683-1.387-7.25l.468-7.252.532 6.422c.654 7.911 2.511 9.057 3.431 2.117.703-5.299 1.729-6.013 5.041-3.507 1.068.807 3.148 1.468 4.622 1.468s7.112 1.124 12.528 2.498 10.583 2.264 11.483 1.979c2.059-.654 5.846.693 5.687 2.023-.065.55.749 1.128 1.81 1.284 1.061.157 4.314.993 7.229 1.859 3.97 1.179 6.252 1.333 9.091.613 3.165-.804 4.234-.64 6.47.988 5.237 3.815 17.839 3.232 18.435-.853.398-2.73-3.571-4.479-11.7-5.156-5.258-.438-6.625-.233-7.635 1.149-1.125 1.539-1.51 1.445-4.535-1.101-2.928-2.465-4.195-2.807-11.104-2.995-6.078-.165-8.415-.666-10.584-2.27-1.576-1.165-5.16-2.332-8.261-2.69-3.012-.347-6.485-1.412-7.717-2.366-1.233-.954-5.17-2.528-8.75-3.497-3.581-.969-6.51-2.098-6.51-2.508 0-2.016 4.395-14.574 7.436-21.247l3.426-7.517 8.222 2.39c4.523 1.315 8.374 2.542 8.559 2.727.185.184-.34 2.778-1.167 5.763-.826 2.985-2.176 8.577-3 12.427-.823 3.85-1.749 8.125-2.057 9.5-.353 1.576-.215 2.131.375 1.5.515-.55 1.477-3.925 2.138-7.5s2.125-9.924 3.253-14.109l2.051-7.608 5.825 1.467 5.824 1.467-3.424 9.46c-4.381 12.103-6.726 20.003-5.574 18.781.496-.527 3.067-6.808 5.713-13.958 2.645-7.15 4.925-13.169 5.065-13.376.335-.496 15.628 3.006 16.544 3.789.672.573-1.365 20.884-2.792 27.837-.367 1.787-.418 3.25-.113 3.25.558 0 1.113-2.605 4.261-20 .946-5.225 1.85-9.657 2.01-9.85.337-.405 7.425 1.835 7.425 2.348 0 .188-1.591 5.868-3.535 12.623-4.648 16.148-3.89 18.772.976 3.379 5.34-16.891 4.046-15.587 13.275-13.378 8.779 2.1 10.284 2.248 10.284 1.008 0-.478-2.667-1.395-5.927-2.036-11.677-2.297-21.573-5.718-21.573-7.456 0-1.972.417-2.067 5.52-1.251 2.572.411 3.98 1.163 3.98 2.125 0 1.678 1.131 1.936 2.55.582.572-.545 4.198-.062 9.103 1.212l8.152 2.118-.464 3.538c-.256 1.946-1.131 8.038-1.946 13.538s-1.731 11.718-2.037 13.818c-.54 3.701-.669 3.808-4.207 3.5-3.321-.289-3.679-.073-3.964 2.394-.281 2.436-.637 2.665-3.5 2.241l-3.187-.472 3 1.464c1.65.806 3.958 1.485 5.128 1.51s3.839.76 5.929 1.633c2.091.874 5.296 1.414 7.123 1.201 1.826-.213 3.32-.028 3.32.412 0 .439.513.799 1.14.799s1.699.765 2.383 1.701c.852 1.165 3.405 1.92 8.11 2.398 3.777.384 10.164 1.197 14.193 1.807 4.819.729 7.899.774 9 .132 1.243-.726.316-.985-3.607-1.008-3.818-.022-5.446-.458-5.874-1.573-.837-2.182-.159-2.571 5.84-3.348l5.315-.689-4-.682c-5.096-.868-8.5.018-8.5 2.212 0 2.386-.674 2.835-3.455 2.303-2.151-.411-2.29-.719-1.304-2.884.674-1.479.745-2.776.182-3.327-1.446-1.417-14.735-1.605-15.198-.216-.216.646-1.254 1.174-2.308 1.174-1.334 0-1.917-.7-1.917-2.3 0-1.265-.492-2.792-1.093-3.393-.791-.791-.774-2.713.059-6.95 1.487-7.557 5.146-20.617 6.075-21.688.805-.928 20.028 1.08 21.212 2.216.415.397.107 4.748-.684 9.668-1.888 11.74-2.587 21.447-1.546 21.447.458 0 1.088-2.587 1.401-5.75.954-9.663 2.77-23.73 3.111-24.095.177-.19 1.755-.03 3.507.354 3.03.666 3.155.878 2.564 4.345-1.412 8.274-1.898 24.847-.75 25.557.821.507 1.15-1.498 1.164-7.102.021-7.965 1.408-20.071 2.416-21.079.308-.307 4.048.187 8.311 1.098 4.264.91 8.653 1.788 9.753 1.949 1.68.247 1.948.927 1.677 4.258-.178 2.181-1.165 7.115-2.193 10.965-1.029 3.85-2.367 8.926-2.974 11.28-.614 2.383-1.545 4.007-2.1 3.664-1.319-.815-3.91 1.394-3.91 3.333 0 1.333.239 1.317 1.829-.122 1.249-1.13 3.626-1.655 7.5-1.655 5.004 0 5.671.235 5.671 2 0 1.822-.667 2-7.5 2-4.967 0-7.5.387-7.5 1.145 0 .807 2.065.972 6.988.559 5.354-.449 7.324-.249 8.428.855.793.793 2.373 1.441 3.513 1.441 1.139 0 2.071.477 2.071 1.061 0 .712 2.298.834 6.993.371 5.026-.495 7.419-.335 8.51.57 1.092.906 4.447 1.129 11.973.794 5.956-.265 10.864-.056 11.406.486 1.507 1.507 22.368 2.19 24.935.816 2.798-1.497 2.794-4.235-.007-5.985-2.422-1.512-10.57-1.627-15.459-.218-2.11.608-3.512.544-4.25-.194-.801-.801-1.101-.661-1.101.516 0 .889.563 1.843 1.25 2.121.688.277.238.54-1 .583-1.601.056-2.25-.491-2.25-1.898 0-3.201-4.244-5.268-9.999-4.871l-5.051.348.614-3c.338-1.65.848-4.012 1.134-5.25.285-1.237.268-2.25-.039-2.25s-1.09 2.7-1.739 6c-.968 4.924-1.537 6-3.167 6-1.494 0-1.857.496-1.463 2 .388 1.483.03 2-1.384 2-1.322 0-1.906-.704-1.906-2.3 0-3.714-1.906-4.7-9.083-4.7-5.712 0-6.756.275-7.178 1.889-.272 1.039-.106 2.502.368 3.25.632.997.866.759.878-.889.01-1.578.612-2.25 2.015-2.25 1.1 0 2 .45 2 1 0 1.393 2.747 1.258 3.219-.158.532-1.594 5.781-.193 5.781 1.543 0 1.603-13.926 2.975-15.45 1.521-.523-.498-2.015-.906-3.317-.906-1.932 0-2.248-.378-1.717-2.049.383-1.207-.012-3.059-.961-4.507-1.374-2.098-1.453-3.449-.532-9.201 2.175-13.585 4.095-20.243 5.835-20.235 2.11.01 24.442 2.955 24.733 3.261.337.354-2.259 14.437-4.005 21.731-1.58 6.6-1.971 9.719-1.11 8.857.46-.459 4.636-19.437 5.965-27.107.357-2.062 1.218-3.75 1.912-3.75.942 0 1.207 2.35 1.041 9.25l-.222 9.25 1.061-9.366 1.062-9.365 4.602.652c2.532.358 8.99.928 14.353 1.266s9.749.66 9.749.714c-.016 1.097-3.265 17.805-4.375 22.494-.833 3.518-1.159 5.993-.725 5.5.434-.492 2.059-6.614 3.611-13.604 1.551-6.99 3.172-13.277 3.601-13.971 1.666-2.695 1.793.171.388 8.745-2.035 12.417-1.684 14.774.586 3.935 1.036-4.95 2.115-9.974 2.397-11.163.492-2.077.98-2.157 12.131-2l11.618.163-.594 9.5c-.327 5.225-.817 11.975-1.089 15-.565 6.272 2.026-10.499 2.974-19.25.342-3.163 1.088-5.75 1.657-5.75s.762.712.428 1.582-.607 7.884-.607 15.587v14.005l-3 1.132c-1.65.623-3 1.532-3 2.02s.788.569 1.75.179c2.824-1.145 14.251-1.861 14.235-.892-.039 2.223-1.857 3.187-6.485 3.441-9.445.518-10.5.241-10.5-2.754 0-2.943-1.477-2.168-2.287 1.2-.456 1.897-.487 1.891-.597-.128-.166-3.053-1.862-4.015-8.366-4.744l-5.75-.645v3.08c0 4.468 4.732 8.234 7.481 5.953.811-.673 2.911-.7 6.179-.081 2.723.517 7.85.774 11.395.572 5.719-.327 28.639-.673 40.945-.62 2.475.011 7.34-.634 10.812-1.434 7.652-1.761 8.256-1.781 7.938-.252-.385 1.851 6.441.986 14.08-1.785 3.664-1.329 6.806-2.416 6.983-2.416s.015 1.012-.359 2.25l-.681 2.25 2.152-2.25c2.41-2.519 4.22-2.801 6.966-1.086 1.431.894 2.944.862 6.512-.137 2.557-.716 4.888-1.69 5.182-2.164.943-1.527 6.166-.955 6.819.746.754 1.966 5.286 1.322 12.387-1.758 5.676-2.463 10.209-2.986 10.209-1.177 0 1.602 7.778.771 13-1.388 1.925-.796 6.18-1.42 9.456-1.387 3.351.034 6.85-.519 8-1.264 1.124-.728 4.666-1.59 7.871-1.915 3.206-.325 6.808-1.234 8.006-2.018 1.373-.9 2.95-1.141 4.269-.654 1.39.515 4.781-.178 10.116-2.066 5.539-1.96 8.346-2.518 9.061-1.803 1.137 1.137 7.099-.428 10.801-2.834 1.144-.744 2.334-1.098 2.644-.788.595.595 14.561-3.317 16.276-4.558.55-.398 3.414-.996 6.365-1.328s7.255-1.519 9.566-2.638c2.31-1.118 4.755-2.033 5.433-2.033s3.095-.9 5.372-2 4.505-2 4.952-2 .812 2.025.812 4.5-.425 4.5-.943 4.5c-.519 0-1.718 1.311-2.665 2.913-.946 1.602-3.4 3.573-5.454 4.379-6.327 2.486-7.192 4.88-7.435 20.589-.203 13.098-.349 13.998-2.859 17.692-2.734 4.023-3.547 10.452-1.692 13.384.673 1.063-.12 2.587-2.935 5.64-3.541 3.842-3.812 4.54-3.32 8.543.539 4.386 3.974 11.512 6.6 13.692.777.645 3.075 1.748 5.107 2.451 3.371 1.167 3.985 2 7.022 9.533 1.831 4.54 4.042 9.043 4.913 10.006 2.257 2.494 1.105 5.814-4.002 11.536-2.386 2.672-4.337 5.26-4.337 5.75 0 1.605-2.492.935-3.696-.993-1.665-2.667-.547-6.327 1.715-5.609 1.879.596 4.981-1.819 4.981-3.877 0-.676-.502-1.731-1.116-2.345-.821-.821-.689-1.725.5-3.422 2.62-3.74 1.824-4.654-.968-1.112-1.408 1.787-2.946 3.25-3.416 3.25-.471 0-.601-2.465-.29-5.479.465-4.508.273-5.59-1.085-6.111-2.913-1.118-4.42 1.229-3.878 6.04l.498 4.413-3.873.635c-2.129.349-4.542.723-5.361.83-.818.107-1.625.905-1.792 1.772-.249 1.292.8 1.587 5.801 1.634 6.593.062 8.012.634 6.163 2.483-2.546 2.546-.177 14.787 3.394 17.539 1.817 1.399 1.774 1.447-.766.859-3.049-.706-4.549.79-2.849 2.84.758.912.795 1.577.113 1.998-.562.348-1.802 2.3-2.756 4.339-1.538 3.29-4.054 6.934-11.349 16.444-2.047 2.669-2.188 2.7-5.657 1.25-1.956-.817-4.565-1.486-5.796-1.486-1.786 0-2.152-.458-1.808-2.259.557-2.912-3.418-6.753-7.28-7.034-2.093-.152-2.954.297-3.241 1.689-.289 1.401.027 1.736 1.211 1.281 1.209-.464 1.601.007 1.601 1.926 0 2.492-.104 2.528-5.424 1.863-2.984-.373-5.889-.391-6.457-.04-1.486.919-.203 3.571 1.738 3.59.904.009-.153 1.034-2.349 2.278-2.195 1.243-4.14 3.035-4.323 3.983-.448 2.328 1.381 2.168 5.044-.44 4.311-3.07 14.266-5.44 20.271-4.826l5 .511-5 2.596c-2.75 1.428-7.128 2.875-9.73 3.217-7.166.941-11.397 3.042-12.147 6.031-.357 1.42-1.705 4.14-2.998 6.044-1.292 1.904-2.635 5.252-2.985 7.438-.538 3.365-1.597 4.743-6.888 8.961-3.438 2.742-7.827 7.102-9.752 9.689s-5.075 5.533-7 6.548c-5.931 3.125-9.407 6.452-8.691 8.317 1.147 2.989 3.582 2.916 8.526-.257 2.662-1.708 5.282-3.106 5.823-3.106s3.355-2.959 6.253-6.576 5.486-6.361 5.749-6.097c.264.263-.449 2.298-1.583 4.522-1.258 2.466-1.675 4.281-1.07 4.656 1.725 1.065 2.723-.303 6.023-8.257 1.769-4.261 4.061-8.942 5.093-10.402 1.077-1.524 1.877-4.351 1.877-6.635 0-5.24 2.048-6.474 13.376-8.061 5.019-.703 10.884-2.25 13.5-3.56 2.543-1.275 6.321-2.626 8.395-3.003 5.157-.937 10.142-5.611 13.234-12.405 1.422-3.125 3.275-6.935 4.117-8.467.843-1.532 1.706-4.159 1.919-5.839.213-1.679 1.966-4.802 3.897-6.939 4.045-4.478 5.195-7.886 3.64-10.792-.924-1.726-.682-2.319 1.568-3.843 5.326-3.608 9.575-8.285 8.966-9.87-.329-.857.074-2.858.895-4.446 2.103-4.066 1.927-9.566-.357-11.179-1.856-1.311-3.282-4.748-5.152-12.423-1.286-5.28-4.919-8.875-10.348-10.242-3.066-.772-4.639-1.824-5.476-3.66-1.672-3.669-1.526-4.317 1.826-8.135 3.037-3.458 3.447-4.982 3.072-11.416-.131-2.236.744-5.36 2.343-8.367 2.097-3.944 2.567-6.245 2.643-12.931.051-4.473.145-9.483.21-11.133.064-1.65-.082-4.125-.325-5.5-.383-2.158-.033-2.546 2.557-2.834 3.84-.427 6.116-2.494 6.864-6.234.662-3.313 4.489-5.384 8.524-4.613 1.316.252 4.242-.382 6.503-1.409 2.416-1.097 6.375-1.866 9.609-1.866 5.383 0 5.454.037 3.326 1.728-1.195.951-2.32 2.812-2.5 4.136-.218 1.613-1.596 3.065-4.171 4.398-3.468 1.793-3.787 2.284-3.247 4.985.331 1.655.1 3.597-.516 4.339-.614.74-.839 2.065-.501 2.946.344.897-.267 2.722-1.388 4.148-1.102 1.4-2.018 3.048-2.036 3.661-.038 1.266-3.459 5.615-4.417 5.615-.347 0-2.476 1.913-4.731 4.25l-4.101 4.25-1.717-3.808c-.944-2.094-2.23-4.321-2.859-4.95-1.672-1.672-1.435 3.1.311 6.255.971 1.756 1.073 2.869.342 3.75-.761.916-.604 1.253.583 1.253 2.449 0 1.946 1.531-.934 2.844-1.406.64-2.275 1.62-1.931 2.177.344.556 1.044.753 1.556.436.512-.316.931.325.931 1.425 0 2.946 1.588 3.428 4.722 1.433 3.626-2.308 4.353-3.426 3.666-5.632-.394-1.268.595-2.843 3.273-5.209 2.112-1.865 4.217-3.409 4.679-3.432 1.817-.09 6.66-5.655 6.66-7.654 0-1.165.837-3.191 1.859-4.503 2.156-2.765 3.552-10.739 2.239-12.783-.639-.993-.059-2.106 2.001-3.839 1.668-1.403 2.901-3.428 2.901-4.763 0-2.204 4.997-7.5 7.077-7.5.508 0 1.823.9 2.923 2 2.41 2.41 7.654 2.631 10.762.454 1.214-.85 3.382-3.55 4.818-6 1.435-2.45 2.697-4.454 2.803-4.454s3.983-1.575 8.617-3.5 10.134-3.5 12.223-3.5 5.706-.846 8.038-1.88c4.875-2.163 21.057-4.406 25.446-3.529 2.015.403 3.476.083 4.558-.999 1.151-1.15 3.518-1.592 8.538-1.592 3.82 0 8.915-.696 11.321-1.546 3.976-1.404 5.564-1.391 17.376.149 17.011 2.217 16.278 2.172 20.95 1.298 2.945-.551 4.683-.349 6.37.74 2.567 1.656 6.499 2.027 9.935.937 3.22-1.022 2.863-3.571-.505-3.609-1.513-.017-4.55-1.14-6.75-2.495s-4.9-2.498-6-2.539l-2-.076 2-.819c1.1-.45 3.223-.59 4.717-.311 2.277.426 2.905.042 3.872-2.361.635-1.577 2.2-5.118 3.479-7.868 2.737-5.887 4.129-12.5 2.632-12.5-1.673 0-5.884 5.609-7.665 10.211-.914 2.359-2.758 5.098-4.098 6.086-2.995 2.208-3.318.237-.354-2.163 1.517-1.228 2.296-3.445 2.869-8.16.717-5.894.387-9.179-.635-6.335-.226.627-2.009 3.327-3.963 6l-3.553 4.861.604-21.5c.332-11.825.796-34.775 1.031-51 .459-31.661.016-27.25-2.462 24.5-1.714 35.795-2.54 45.584-4.216 50l-1.519 4-.582-3.5c-1.14-6.85-1.419-27.748-.588-44 1.423-27.82 1.803-60 .709-60-.546 0-.769.58-.497 1.289s-.116 10.497-.863 21.75c-.746 11.254-1.377 32.386-1.403 46.961-.025 14.575-.435 27.115-.912 27.867-.702 1.109-1.444.941-3.912-.884-2.948-2.179-6.191-2.174-6.191.01 0 .581 1.031 1.448 2.291 1.928 3.411 1.296 4.414 2.979 5.593 9.387.588 3.194 1.305 6.189 1.593 6.655.697 1.128-15.24.16-18.656-1.133-1.975-.747-4.082-.605-8.025.541-3.148.915-8.922 1.525-14.038 1.482l-8.69-.072.584-4.259c.375-2.739.169-4.514-.578-4.976-1.648-1.019-3.872 1.13-4.428 4.277-.261 1.472-.3-.698-.089-4.823.391-7.642 1.123-36.46 1.959-77.161.257-12.502.948-23.929 1.541-25.489.592-1.556.79-4.352.441-6.213l-.635-3.385 4.818.789c2.651.434 14.944.872 27.319.974 12.375.101 27.675.521 34 .933 6.325.411 16.45.921 22.5 1.133 14.51.507 21.658.977 29.35 1.929 7.698.953 8.113.522 8.135-8.437.014-6.031-.185-6.596-3.235-9.167-3.428-2.891-3.328-3.065 2.485-4.338 4.349-.952 4.456-2.121 3.717-40.568-.079-4.125.175-9.452.565-11.837.889-5.431-.547-7.351-3.5-4.679-2.193 1.985-4.061 1.282-2.482-.934.531-.744 3.01-3.985 5.508-7.202 2.499-3.216 4.822-6.304 5.163-6.861.987-1.616-.902-27.583-2.094-28.775-.593-.593-1.319-.838-1.612-.545-.294.294.001 7.118.655 15.164 1.082 13.303 1.038 14.798-.483 16.479-.919 1.016-1.672 2.157-1.672 2.536 0 .378-1.985 2.593-4.412 4.921-3.659 3.51-4.322 4.703-3.883 6.983.322 1.677 1.173 2.75 2.18 2.75 1.422 0 1.665 1.426 1.748 10.25.053 5.638.193 14.234.311 19.102.119 4.869-.088 11.057-.458 13.75-.631 4.586-.859 4.898-3.58 4.898-1.598 0-2.906.461-2.906 1.025 0 .563-1.125 1.452-2.5 1.975-3.571 1.358-3.131 2.906 2.198 7.73 4.008 3.627 4.684 4.779 4.597 7.831-.055 1.968-.327 3.805-.604 4.082-.277.276-2.233-.02-4.347-.659-5.891-1.78-20.617-2.924-22.121-1.718-1.724 1.382-29.246 1.33-41.223-.078-5.225-.614-27.5-1.408-49.5-1.763-59.342-.959-60.443-1.086-57.339-6.611.934-1.662 1.224-6.229 1.03-16.218-.269-13.894-.267-13.907 2.422-16.714 2.227-2.324 2.475-3.071 1.439-4.319-.689-.831-2.783-1.797-4.652-2.148-3.258-.611-3.4-.822-3.4-5.061 0-2.434.727-5.534 1.616-6.891 1.042-1.59 1.392-3.444.985-5.215-1.809-7.868-3.095-18.118-2.629-20.94.361-2.185 1.608-3.921 3.951-5.5 3.521-2.374 5.704-6.732 4.693-9.367-.316-.822-2.549-2.341-4.963-3.376-4.983-2.135-6.177-4.751-4.631-10.143.538-1.875.992-4.537 1.009-5.915.019-1.508 1.045-3.246 2.576-4.36 2.401-1.75 4.739-1.828 41.718-1.386 29.717.355 44.366.982 60.675 2.598 23.249 2.303 64.905 4.017 77 3.168 13.877-.975 3.449-1.999-20.5-2.014l-23-.015-.053-5.496c-.051-5.37-2.316-10.292-5.172-11.244-1.543-.514-7.366 8.237-7.59 11.408-.269 3.797 2.198 4.168 2.943.442.337-1.685 1.234-3.578 1.993-4.208.758-.63 1.393-2.102 1.411-3.272.029-1.954.138-1.988 1.327-.423.712.937 1.394 4.141 1.514 7.119l.219 5.416-7.296-.393c-4.013-.216-11.121-.819-15.796-1.339-19.065-2.121-40.102-3.555-57.75-3.938-3.107-.067-3.25-.244-3.25-4.023 0-2.174.521-5.097 1.159-6.496 1.136-2.494 1.185-2.504 2.556-.547.769 1.098 2.082 1.996 2.917 1.996 1.107 0 1.431.858 1.193 3.166-.179 1.749.183 3.336.81 3.545.668.223 1.323-1.182 1.591-3.416.385-3.205-.082-4.455-3.005-8.045-1.904-2.338-4.074-4.25-4.821-4.25-.748 0-2.278 1.8-3.4 4m-745.296 49.425c-1.255.953-1.61 2.102-1.178 3.822.488 1.946 1.227 2.437 3.543 2.356 3.185-.112 3.549-1.152 1.77-5.056-1.324-2.907-1.66-2.998-4.135-1.122m48.075 5.129c-.305.305-4.542.929-9.417 1.387-10.221.96-17.62 2.245-32.443 5.638-11.562 2.646-18.582 3.034-23.392 1.294-2.488-.899-7.539-.575-25.071 1.611-12.076 1.505-24.431 3.036-27.456 3.402-3.025.365-7.631 1.702-10.235 2.971-4.314 2.102-5.837 2.277-17.124 1.975-9.174-.246-12.273-.028-11.938.84.248.644-.035 2.08-.629 3.189-.594 1.11-.703 2.25-.243 2.535.46.284.799 2.781.753 5.55-.053 3.171.378 5.21 1.166 5.512 2.299.881 1.428 5.14-1.306 6.386-2.566 1.169-2.53 3.156.056 3.156 2.537 0 2.538 1.802.002 4.816l-2.512 2.985 3.005 1.047c3.099 1.081 3.468 2.341 2.089 7.152-.393 1.375-.067 5.65.727 9.5.793 3.85 1.377 8.656 1.297 10.679-.08 2.024.298 3.954.84 4.289 1.009.623.396 5.8-1.015 8.579-.442.869-.215 2.841.516 4.5 2.024 4.592 3.78 15.778 3.397 21.642l-.346 5.311 3-.137c1.65-.075 10.425-.451 19.5-.836 17.344-.735 47.608-4.261 64.5-7.515 5.5-1.059 13.446-1.945 17.658-1.969 13.519-.076 31.562-2.873 42.51-6.591 5.593-1.898 10.88-3.452 11.75-3.452 1.112 0 1.582-.948 1.582-3.191 0-2.93-.111-3.04-1.355-1.338-.875 1.197-1.976 1.616-3.106 1.182-1.687-.647-1.695-2.477-.03-6.817.293-.762-.445-1.782-1.695-2.343-1.885-.846-2.17-1.661-1.919-5.493.716-10.93.766-14.533.205-15-.924-.77-2.987-4.226-4.179-7-.771-1.794-.764-3.001.025-4.273.721-1.163.772-2.385.149-3.55-.582-1.088-.615-4.469-.083-8.727.485-3.887.487-7.334.006-7.822-.474-.479-.606-1.537-.294-2.351.312-.813-.061-1.877-.828-2.363-1.05-.664-.837-.887.854-.899 2.372-.016 3.242-3.284 1.209-4.54-1.903-1.176-5.959-8.403-5.959-10.617 0-4.996 5.159-19.35 7.259-20.199.702-.283.771-.535.158-.58-.596-.043-1.333.17-1.638.475m-61.58 3.432c-1.815.43-3.578 1.059-3.916 1.398-.992.992 6.221.707 7.267-.287.523-.497 1.85-1.119 2.95-1.384 1.588-.382 1.485-.484-.5-.495-1.375-.007-3.985.338-5.801.768m-90.386 12.697c.721.289 1.584.253 1.916-.079s-.258-.568-1.312-.525c-1.165.048-1.402.285-.604.604m153.266 26.9c.048 1.165.285 1.402.604.605.289-.722.253-1.585-.079-1.917s-.568.258-.525 1.312m687.601 48.846c-1.267.97-1.723 2.408-1.5 4.732l.32 3.339 3.257-3.48c1.791-1.914 3.103-3.939 2.917-4.5-.528-1.584-2.986-1.629-4.994-.091m-.306 19.071c.002 6.05.167 8.396.366 5.213.199-3.182.197-8.132-.004-11-.201-2.867-.364-.263-.362 5.787m-742.374 8.5-3.5.737 4 .061c2.2.034 4.9-.325 6-.798 1.812-.779 1.765-.854-.5-.798-1.375.034-4.075.393-6 .798m20.813-.317c.721.289 1.584.253 1.916-.079s-.258-.568-1.312-.525c-1.165.048-1.402.285-.604.604m-10.146 1.984c-1.213 1.213-.676 18.647.934 30.333.872 6.325 1.719 17.8 1.882 25.5.443 20.855.255 19.381 2.4 18.82 1.209-.316 2.493.344 3.587 1.844l1.704 2.336-.54-3c-.726-4.032-2.343-24.122-3.662-45.5-.594-9.625-1.246-20.2-1.449-23.5-.204-3.3-.404-6.338-.446-6.75-.095-.929-3.5-.993-4.41-.083m-8.167.992c-14.898 1.203-25.939 2.563-28.275 3.483-1.499.59-7.447 1.27-13.219 1.51-5.772.239-10.838.78-11.259 1.201-.42.42-.317 8.163.231 17.206.548 9.042 1.296 26.401 1.664 38.575l.668 22.134 3.246-1.356c2.936-1.227 3.493-1.161 5.845.689 2.866 2.254 3.436 5.641 1.099 6.537-.825.317-1.5 1.476-1.5 2.576 0 1.445.456 1.825 1.645 1.369 2.03-.779 5.355 2.059 5.355 4.572 0 1.015.675 1.845 1.5 1.845 2.198 0 1.831 1.68-.5 2.29-1.1.287-2 1.24-2 2.116 0 1.323.34 1.254 2-.406 1.361-1.361 3.333-2 6.171-2 2.528 0 4.914-.672 6.056-1.706 1.389-1.256 2.331-1.441 3.579-.7 2.261 1.341 6.694.287 6.694-1.592 0-1.407 3.332-3.42 9.8-5.922 2.751-1.064 2.787-1.185 2.123-7.061-.66-5.832-.596-6.055 2.606-9.046 1.806-1.687 3.91-2.827 4.677-2.532 1.584.607 1.184-13.907-1.36-49.441-1.85-25.83-1.774-25.024-2.346-24.832-.275.093-2.3.314-4.5.491m-59.858 12.488c-.932 8.918-.788 24.319.333 35.567.536 5.382 1.468 17.431 2.071 26.774.603 9.344 1.279 17.17 1.501 17.393.997.996 3.194-2.154 2.733-3.918-.282-1.08-.043-1.963.531-1.963.653 0 .869-1.97.578-5.25-.256-2.887-.841-19.309-1.298-36.491-.583-21.915-1.193-31.678-2.044-32.702-.667-.804-.92-2.383-.562-3.509.501-1.58.21-2.048-1.275-2.048-1.622 0-2.026.969-2.568 6.147m157.792 53.678c.337 16.752.965 27.973 1.621 29 .77 1.203.924-6.009.55-25.59-.33-17.215-.928-27.904-1.622-29-.808-1.274-.954 5.52-.549 25.59m556.189-25.111c-1.685.432-1.821 1.215-1.32 7.634.704 9.02 1.516 33.549 1.619 48.902l.078 11.75 6.75-.032c4.343-.02 7.442-.555 8.691-1.5 2.187-1.654 7.181-1.856 12.924-.523 3.676.852 4.049.704 7.603-3.032l3.736-3.928-8.581-7.242c-4.72-3.984-11.552-10.055-15.182-13.493-3.631-3.437-6.903-6.25-7.271-6.25-.369 0-.67 5.223-.67 11.607 0 9.906.22 11.523 1.5 11.031 2.782-1.067 4.5.448 4.5 3.969 0 3.073-.272 3.393-2.883 3.393-2.116 0-3.034.576-3.45 2.164-.485 1.858-.793 1.977-2.164.838-1.428-1.184-1.524-4.396-.902-29.947.525-21.527.393-29.542-.529-32.338-.675-2.044-1.53-3.665-1.9-3.601-.369.064-1.517.333-2.549.598m-542.956 7.953c-.367.366-.597 9.479-.511 20.25l.156 19.583.712-14.617c.392-8.04 1.029-17.152 1.416-20.25.644-5.152.057-6.796-1.773-4.966m532.083.956c-2.984 1.563-3.655 3.377-1.25 3.377 1.812 0 2.008 2.628.25 3.338-.747.301-.545.536.5.583 2.317.105 2.232 2.488-.151 4.207-1.78 1.285-1.851 2.259-1.11 15.372.436 7.7 1.137 15.083 1.559 16.406.547 1.716.435 2.201-.39 1.691-.845-.521-1.158 1.737-1.158 8.344 0 8.439.139 9.059 2.031 9.059 1.118 0 2.249-.567 2.515-1.26s.364-15.052.219-31.909l-.265-30.65zm-526.75 7.225c0 1.927 1.95 2.972 14 7.497 13.216 4.964 16.316 5.759 17.173 4.409 1.623-2.555.671-3.377-5.923-5.115-3.713-.979-10.631-3.323-15.374-5.209-4.743-1.887-8.906-3.43-9.25-3.43s-.626.832-.626 1.848m-29 7.434c-6.249 5.971-6.963 6.517-27.642 21.102-9.098 6.417-15.36 11.516-15.69 12.777-.348 1.331-1.085 1.893-2.014 1.536-.807-.309-2.253.308-3.215 1.37-.962 1.063-1.567 1.966-1.344 2.007s1.373.257 2.556.479c1.273.239 2.383-.199 2.719-1.074.762-1.987 4.305-1.882 5.449.161 1.124 2.01 3.56.79 2.732-1.368-.322-.839-.171-2.031.336-2.649s1.077-2.248 1.267-3.623c.521-3.762 3.251-3.139 3.846.876l.5 3.376 5.904-4.876c3.248-2.682 9.773-8.392 14.5-12.69 4.728-4.298 10.284-8.768 12.346-9.934 3.597-2.034 3.75-2.337 3.75-7.436 0-2.924-.113-5.31-.25-5.303015-.137.008015-2.725 2.379015-5.75 5.269015m28.653-.064c-.767 2.933-.075 3.44 1.269.928.61-1.139.695-2.265.194-2.574-.489-.302-1.147.438-1.463 1.646m546.347 1.563c0 3.293.742 4.498 5.75 9.332 3.163 3.052 8.45 7.738 11.75 10.412 3.3 2.673 8.303 7.062 11.117 9.753l5.117 4.891 4.668-1.584c2.567-.872 5.777-1.585 7.133-1.585s2.465-.372 2.465-.826c0-1.158-3.636-4.298-9.5-8.205-2.75-1.833-7.25-5.21-10-7.505-6.017-5.022-26.013-18.464-27.467-18.464-.568 0-1.033 1.702-1.033 3.781m-558 6.778c0 6.118.36 9.337 1 8.941.55-.34 1-4.641 1-9.559 0-5.294-.408-8.941-1-8.941-.597 0-1 3.853-1 9.559m531.015-7.309c.009 1.238.653 4.275 1.433 6.75l1.418 4.5.067-6.75c.053-5.363-.241-6.75-1.433-6.75-.893 0-1.494.91-1.485 2.25m-516.859 1.306c-.64 1.406-1.548 2.32-2.016 2.03-.468-.289-1.096 5.134-1.395 12.051-.455 10.548-.289 12.873 1.034 14.417 1.477 1.726 1.746 1.327 4.275-6.356 1.485-4.509 3.88-10.798 5.323-13.977 1.442-3.178 2.623-6.419 2.623-7.203 0-.794-1.659-1.885-3.75-2.465-4.957-1.377-4.759-1.426-6.094 1.503m499.844-.556c-1.375.44-4.3.877-6.5.971-5.095.216-7.626 1.216-6.713 2.653.785 1.236 8.199-.31 14.347-2.992 3.614-1.577 2.958-1.943-1.134-.632m10 .264c-1.375.621-2.613 1.191-2.752 1.267-.138.077 2.041 5.469 4.843 11.984 5.265 12.244 6.989 18.485 5.107 18.485-.585 0-1.365-1.012-1.734-2.25s-2.872-7.893-5.563-14.79l-4.893-12.54-8.493 2.04c-4.672 1.122-8.498 2.478-8.504 3.014s1.815 7.673 4.047 15.859 3.807 15.135 3.5 15.442c-.872.872-.982.553-4.937-14.275-2.054-7.7-3.97-14.806-4.258-15.792-.384-1.312-1.105-1.613-2.694-1.126-1.193.367-2.271.75-2.395.852-.42.344 3.521 22.014 5.13 28.21.878 3.38 1.596 7.092 1.596 8.25 0 1.451.633 2.106 2.035 2.106 1.732 0 1.874-.301.954-2.021-1.652-3.087-.541-3.804 7.058-4.552 3.85-.38 7.328-1.201 7.727-1.826s2.751-1.67 5.226-2.321c3.754-.988 4.684-.944 5.61.268.611.798 1.623 1.452 2.25 1.452 1.744 0 1.456-19.023-.39-25.846-.842-3.11-1.985-7.341-2.541-9.404-1.066-3.96-1.895-4.307-5.929-2.486m-479 2.153c0 2.102.675 2.562 5.174 3.527 4 .858 5.347.831 5.934-.119 1.122-1.816.382-2.47-4.787-4.231-6.069-2.068-6.321-2.035-6.321.823m437.25 3.261c-13.66 3.334-14.25 3.583-14.25 6.007 0 1.609.455 2.357 1.25 2.055 1.719-.652 13.74-4.253 22.5-6.74 4.782-1.357 7.25-2.558 7.25-3.529 0-1.888.069-1.897-16.75 2.207m233.962-.646c-1.431 2.292-1.566 3.968-.32 3.968.877 0 2.526-4.916 1.869-5.573-.185-.185-.882.537-1.549 1.605m-658.212 1.449c0 .814 1.238 1.761 2.75 2.104s5.29 1.252 8.394 2.019c7.063 1.747 6.856 1.76 6.856-.45 0-1.484-1.474-2.169-7.528-3.5-9.242-2.03-10.472-2.051-10.472-.173m-79.129 6.834c-4.604 4.023-13.096 11.258-18.871 16.078s-10.618 9.082-10.762 9.471 2.153.707 5.104.707c5.112 0 5.407-.143 6.261-3.035 1.157-3.916 4.013-4.143 3.609-.286-.202 1.933.169 2.75 1.25 2.75.871 0 1.538.867 1.538 2 0 1.1.492 2 1.094 2 .601 0 1.329-.9 1.616-2 .288-1.1.969-2 1.514-2 .544 0 .731.675.414 1.5-.35.914-.001 1.5.893 1.5 1.052 0 1.469-1.159 1.469-4.083 0-5.031 2.2-4.916 3.118.162.553 3.055.633 3.127.75.671.165-3.435 2.132-3.665 2.132-.25 0 2.875 2.601 3.464 3.311.75.435-1.667.463-1.667.573 0 .122 1.835 4.116 2.563 4.116.75 0-1.696 1.826-1.103 2.311.75.251.962.509-.315.573-2.839.102-4.036-.2-4.734-2.506-5.785-2.407-1.096-2.568-1.538-1.955-5.373.758-4.738 1.029-5.21 2.478-4.314.568.351.767 1.971.441 3.6-.407 2.035-.196 2.961.675 2.961.956 0 1.11-1.513.625-6.147-.353-3.38-.642-8.555-.642-11.5 0-3.884-.379-5.353-1.379-5.353-.759 0-5.147 3.292-9.75 7.315m510.129-3.335c-1.375.453-6.44 2.008-11.256 3.456l-8.757 2.633.667 4.215c.367 2.319 1.765 7.366 3.106 11.216 1.342 3.85 3.183 9.131 4.09 11.737 1.414 4.059 2.035 4.738 4.341 4.75 1.48.007 2.969.463 3.309 1.013.904 1.462 2.5 1.221 2.5-.379 0-1.365 2.159-2.452 9.08-4.569l3.579-1.095-1.822-9.728c-1.003-5.351-2.317-12.991-2.92-16.979-1.129-7.456-1.409-7.753-5.917-6.27m-579.965 1.954c-1.234 2.307-1.358 5.066-.226 5.066 2.254 0 4.4-2.765 3.746-4.826-.854-2.69-2.161-2.779-3.52-.24m548.965-.799c-6.312 1.284-26.858 4.516-44 6.92-16.176 2.269-43.159 6.771-43.675 7.287-.184.183.175 1.794.797 3.579.915 2.624 1.538 3.137 3.255 2.677 1.168-.313 8.085-1.764 15.373-3.226 12.502-2.507 13.25-2.79 13.25-5.014 0-1.297.45-2.358 1-2.358s1 .904 1 2.009c0 1.848.459 1.961 5.75 1.409 3.163-.33 9.908-1.233 14.989-2.009 5.082-.775 9.469-1.409 9.75-1.409s.511-1.125.511-2.5.45-2.5 1-2.5 1 .9 1 2c0 1.339.667 2 2.017 2 3.125 0 25.35-4.967 26.249-5.866 1.243-1.243-.289-4.147-2.123-4.024-.904.06-3.668.521-6.143 1.025m-557.399 1.753c-.977 1.08-1.624 2.639-1.439 3.464.284 1.261.709 1.198 2.657-.391 1.664-1.358 2.07-2.337 1.439-3.465-.777-1.389-1.086-1.343-2.657.392m19.399 3.49c0 4.409 6.024 6.452 6.821 2.312.478-2.483-1.612-4.69-4.443-4.69-1.837 0-2.378.541-2.378 2.378m791.606.206c-.373.973-.15 1.431.581 1.187 1.495-.498 2.318-2.771 1.003-2.771-.537 0-1.249.713-1.584 1.584m30.223 2.74c-1.211 1.747-3.454 4.638-4.984 6.425-2.952 3.448-2.87 6.251.184 6.251.999 0 3.538-2.007 5.643-4.461 3.557-4.145 4.218-4.484 9.328-4.789 4.795-.285 5.541-.611 5.82-2.543.371-2.564-.305-2.862-8.054-3.55-5.55-.493-5.806-.407-7.937 2.667m-631.829.564v2.925l9.75.723c5.363.397 12.113 1.039 15 1.426s5.25.329 5.25-.129.45-.833 1-.833 1 .603 1 1.34c0 .819 2.237 1.83 5.75 2.6 24.49 5.364 23.948 5.289 24.66 3.435 1.214-3.164.632-6.374-1.16-6.406-.962-.017-7.15-.683-13.75-1.479-6.6-.797-14.404-1.458-17.343-1.469-4.402-.017-16.587-2.005-27.907-4.553-1.936-.435-2.25-.098-2.25 2.42m340.634-.012-12.865 2.624.632 8c.348 4.4 1.525 11.345 2.616 15.432 1.941 7.274 2.552 11.971 1.41 10.828-1.029-1.029-5.196-20.485-5.91-27.591-.62-6.172-.907-6.88-2.607-6.435-1.301.34-1.91 1.384-1.91 3.274 0 4.008 3.841 32.167 4.475 32.8.293.293 2.816.007 5.605-.637 6.997-1.615 8.908-1.492 8.988.579.054 1.411.274 1.323 1.134-.459.791-1.638 2.26-2.363 5.682-2.804 2.539-.328 5.601-.798 6.805-1.045s2.468.002 2.809.554c1.247 2.019 2.181.914 2.324-2.746.08-2.062-.972-10.481-2.338-18.708-1.366-8.228-2.484-15.315-2.484-15.75 0-.436-.337-.735-.75-.666-.413.07-6.54 1.307-13.616 2.75m-602.174.579c-1.859 1.405-1.788 1.483 1.373 1.513 2.14.021 3.192-.393 2.938-1.155-.616-1.848-2.17-1.977-4.311-.358m151.54 1.986c0 1.893.45 3.719 1 4.059.604.373 1-.99 1-3.441 0-2.232-.45-4.059-1-4.059s-1 1.548-1 3.441m467.158-1.441c0 1.375.227 1.938.504 1.25.278-.687.278-1.812 0-2.5-.277-.687-.504-.125-.504 1.25m236.019-.333c.486 2.509 2.823 2.853 2.823.416 0-1.228-.646-2.083-1.573-2.083-.932 0-1.442.68-1.25 1.667m-786.177 2.857c0 3.575.104 3.716 1.417 1.92 1.077-1.473 1.145-2.299.283-3.441-.624-.827-1.261-1.69-1.417-1.92-.156-.229-.283 1.32-.283 3.441m-4.375-1.04c-2.103 1.592-1.557 4.516.844 4.516 1.034 0 1.531-.973 1.531-3 0-3.444.092-3.385-2.375-1.516m-10.054 1.087c-2.257 2.258-1.94 3.429.929 3.429 2 0 2.5-.5 2.5-2.5 0-2.869-1.171-3.186-3.429-.929m521.429.579c-2.475.512-7.65 1.477-11.5 2.143l-7 1.212.311 7.497c.171 4.124 1.314 11.998 2.541 17.498 2.181 9.778 2.29 9.994 4.91 9.717 1.82-.193 3.087.369 3.949 1.75.699 1.118 1.638 2.033 2.089 2.033.45 0 .58-.385.29-.855-.291-.47.555-1.872 1.879-3.115 2.995-2.814 10.723-3.93 13.215-1.909 1.042.845 1.419.91.973.168-1.266-2.109-4.615-24.529-4.636-31.039-.023-6.83.279-6.61-7.021-5.1m-315.32 3.6c-.321 2.063-1.447 8.351-2.502 13.974-1.904 10.151-1.903 10.228.053 10.849 2.814.893 3.523-.247 4.71-7.573.579-3.575 1.942-9.406 3.028-12.959 2.107-6.893 1.752-7.994-2.587-8.026137-1.682-.011863-2.239.758137-2.702 3.735137m437.606.75c.008 2.75.202 3.756.432 2.236.229-1.52.223-3.77-.014-5s-.425.014-.418 2.764m-716.669-2.209c-1.64 1.199-1.575 1.394.909 2.723 2.426 1.298 2.805 1.253 4.075-.482.769-1.053 1.399-2.278 1.399-2.723 0-1.277-4.436-.942-6.383.482m92.948.637c-2.35 2.597-1.238 6.072 1.943 6.072 3.163 0 3.664-1.085 2.241-4.853-1.387-3.676-1.841-3.808-4.184-1.219m252.435 2.053c0 2.544.459 4.022 1.25 4.028.688.004 6.875.676 13.75 1.491 16.727 1.984 15.797 2.099 16.575-2.047.366-1.95.403-3.808.083-4.128-.32-.321-6.562-.963-13.87-1.429s-14.3-1.091-15.538-1.39c-2.05-.496-2.25-.187-2.25 3.475m293.439-.981c.25 1.925.984 7.887 1.631 13.25s1.325 9.75 1.506 9.75c.182 0 1.504-.535 2.938-1.188 2.952-1.345 2.843-3.232-.595-10.312-1.069-2.2-2.841-6.475-3.939-9.5-1.61-4.438-1.908-4.824-1.541-2m167.497-1.423c-1.154 1.391-.911 1.539 2.05 1.25 1.848-.18 3.545-.889 3.77-1.577.604-1.839-4.249-1.566-5.82.327m-286.217 1.289c-7.58.899-13.767 1.971-13.750035 2.384.017035.413.031035 1.425.031035 2.25 0 1.053 1.063 1.5 3.566 1.5 1.961 0 4.347.418 5.301.929 1.461.782 23.854-1.316 24.868-2.33.151-.151-.222-1.698-.828-3.437-1.274-3.654-.014-3.569-19.188-1.296m-502.719.16c-.825.547-3.154.732-5.175.409-3.078-.49-3.862-.235-4.831 1.575-1.431 2.675-1.25 2.858 3.044 3.07 4.687.232 11.081-2.605 10.324-4.58-.671-1.748-1.307-1.838-3.362-.474m360.843 3.825-.367 3.851 13.012 1.15c19.282 1.705 18.699 1.772 18.325-2.102l-.313-3.25-11.5-1.674c-6.325-.921-13.14-1.709-15.145-1.75-3.514-.073-3.658.062-4.012 3.775m187.657-2.709c-7.714 1.158-21.745 3.891-22.558 4.394-.951.588 1.549 16.022 4.023 24.84 1.204 4.291 1.94 8.052 1.636 8.356-.794.794-1.153-.579-6.839-26.158-2.428-10.925-3.469-7.761-3.007 9.147.384 14.09.635 15.926 2.338 17.151 1.049.755 1.907 1.992 1.907 2.75 0 .934 1.252 1.378 3.889 1.378 3.031 0 3.858-.371 3.75-1.681-.195-2.36 12.968-5.89 15.165-4.067 3.068 2.546 7.862.426 6.778-2.999-.471-1.488-3.582-28.725-3.582-31.36 0-.491.41-.893.91-.893.501 0 1.193 3.938 1.537 8.75.345 4.813 1.133 12.462 1.751 17 1.044 7.662 1.291 8.25 3.463 8.25 2.894 0 2.89-.228-.214-12.5-1.391-5.5-2.801-13.038-3.133-16.75s-.876-6.696-1.209-6.629c-.333.066-3.305.526-6.605 1.021m-504.792 1.034c-2.245.819-2.564 1.293-1.627 2.421 2.18 2.627 7.919 1.392 7.919-1.704 0-2.106-1.893-2.321-6.292-.717m109.792.824c.34.55.816 1 1.059 1s.441-.45.441-1-.477-1-1.059-1-.781.45-.441 1m315.5.053c-5.775.394-18.487 1.064-28.25 1.49-17.728.772-17.75.776-17.75 3.115 0 2.28.236 2.342 8.849 2.342 4.867 0 12.353-.296 16.635-.658 6.396-.541 7.872-.987 8.268-2.5.577-2.209 2.248-2.463 2.248-.342 0 .878.911 1.5 2.197 1.5 2.898 0 25.224-2.156 25.577-2.47.15-.134-.011-.983-.357-1.887-.683-1.777-.252-1.763-17.417-.59m298.813-.37c.721.289 1.584.253 1.916-.079s-.258-.568-1.312-.525c-1.165.048-1.402.285-.604.604m-761.186 1.846c-1.211 3.155-.681 5.471 1.251 5.471 2.393 0 4.388-2.377 3.944-4.702-.446-2.343-4.368-2.923-5.195-.769m141.15 4.219c-.273 3.854.026 6.235.908 7.216 1.102 1.227 1.315.386 1.315-5.191 0-8.291-1.67-9.812-2.223-2.025m10.302-4.165c.048 1.165.285 1.402.604.605.289-.722.253-1.585-.079-1.917s-.568.258-.525 1.312m-174.187 1.34-2.392 1.973 2.266-.569c2.289-.574 3.819-2.075 2.976-2.919-.252-.252-1.535.43-2.85 1.515m14.214.531c-4.674 1.977-7.945 5.136-8.0711089 7.796-.0188911.413 2.4501089.75 5.4861089.75 4.961 0 5.641-.261 6.694-2.572.948-2.08.897-2.741-.267-3.46-1.198-.741-1.106-1.132.555-2.347 3.39-2.478 1.257-2.559-4.397-.167m164.973-.871c.048 1.165.285 1.402.604.605.289-.722.253-1.585-.079-1.917s-.568.258-.525 1.312m230.921 1.139v3.021l13.072.723c7.19.398 13.228.567 13.419.377.19-.191.657-1.584 1.036-3.095.683-2.72.64-2.748-4.265-2.748-2.725 0-9.074-.292-14.108-.65l-9.154-.649zm-414.541-.655c-.363.586-.445 1.281-.183 1.543s.743-.218 1.069-1.067c.676-1.762.1-2.072-.886-.476m130.541 1.433c0 1.375.45 2.5 1 2.5s1-1.125 1-2.5-.45-2.5-1-2.5-1 1.125-1 2.5m43 .859c0 1.363-.309 3.302-.687 4.309-.605 1.613-.485 1.668 1 .46 1.847-1.503 2.277-5.645.687-6.628-.564-.348-1 .462-1 1.859m17.417-1.225c-.99 1.602.508 2.593 4.787 3.167 2.339.313 4.413 1.049 4.608 1.634.707 2.122 3.335 1.119 3.008-1.148-.264-1.826-1.33-2.415-6.094-3.366-3.177-.634-6.015-.763-6.309-.287m155.558 2.431c-.536 1.411-.975 3.327-.975 4.257 0 2.412-4.456 18.292-5.878 20.95-1.072 2.003-.962 2.226 1.093 2.213 1.257-.009 2.815-.353 3.463-.765s1.907-5.693 2.798-11.735c.892-6.042 1.875-12.447 2.186-14.235.688-3.957-1.254-4.452-2.687-.685m186.8-2.007c-.307.307-5.149.724-10.759.926-5.611.203-10.396.563-10.634.801-.238.237.51 2.629 1.661 5.315 2.7 6.3 4.923 15.776 4.942 21.068.018 5.137.803 7.332 2.622 7.332.766 0 1.393.337 1.393.75s2.227.75 4.949.75c3.872 0 5.048-.381 5.406-1.75.27-1.033 1.418-1.756 2.801-1.764 5.487-.032 6.654-.931 6.256-4.825-.206-2.013-.653-9.399-.994-16.411l-.619-12.75h-3.233c-1.778 0-3.484.251-3.791.558m-524.108 1.109c-.367.366-.653 1.379-.637 2.25.025 1.3.221 1.257 1.092-.242 1.077-1.852.765-3.228-.455-2.008m45.833.333c-.34.55-1.772 1-3.181 1-2.166 0-2.371.233-1.319 1.5 1.659 1.999 5 1.927 5-.108 0-1.217.609-1.456 2.5-.981 1.845.463 2.5.229 2.5-.892 0-1.716-4.498-2.141-5.5-.519m23.794.326c-4.42 1.619-5.256 2.727-4.179 5.539.752 1.964 1.369 2.251 3.645 1.696 1.507-.368 4.674-1.026 7.039-1.464 5.57-1.03 6.587-2.102 4.635-4.888-1.746-2.493-5.854-2.819-11.14-.883m-81.794.619c-1.1.443-2.386.58-2.857.305-.472-.275-.554.456-.183 1.625.514 1.62.254 2.125-1.093 2.125-1.284 0-1.467.3-.668 1.099 1.691 1.691 5.155.085 6.838-3.17 1.577-3.051 1.296-3.325-2.037-1.984m7.25-.149c-.962.193-1.75.956-1.75 1.696 0 .739-.299 2.124-.664 3.076-.571 1.486-.252 1.628 2.248 1 3.638-.913 3.485-.701 2.633-3.646-.477-1.65-1.302-2.36-2.467-2.126m58.25.739c0 1.225.404 1.319 2 .465 1.1-.589 2-1.28 2-1.535 0-.256-.9-.465-2-.465-1.131 0-2 .667-2 1.535m426-.855c-8.499.874-8.129-.197-4.52 13.054 1.762 6.471 4.408 14.129 5.879 17.016 2.309 4.532 3.076 5.25 5.608 5.25 1.614 0 3.293.636 3.733 1.413 1.032 1.823 6.3.909 6.3-1.092 0-.923.807-1.333 2.229-1.134 1.772.249 2.363-.303 2.882-2.687l.652-3 .119 2.867c.101 2.464.433 2.782 2.368 2.263 1.237-.331 2.757-.609 3.377-.616 1.437-.018.824-7.385-1.292-15.514-1.528-5.872-6.761-18.5-7.667-18.5-.252 0-.066 1.688.412 3.75.478 2.063 1.084 8.7 1.347 14.75.469 10.823.462 10.871-.472 3-.522-4.4-1.442-11.038-2.043-14.75l-1.093-6.75-7.159.16c-3.938.088-8.735.322-10.66.52m42.451 1.32c.324 1.375 1.705 6.712 3.069 11.859 1.364 5.148 2.532 10.323 2.596 11.5.087 1.607.227 1.718.563.446.525-1.993-4.199-22.238-5.752-24.65-.864-1.343-.954-1.184-.476.845m188.821 2c0 2.475.195 3.488.434 2.25.238-1.238.238-3.262 0-4.5-.239-1.238-.434-.225-.434 2.25m-680.183-1.076c-1.043.66-.391 1.176 2.5 1.979 5.876 1.631 6.675 1.492 5.179-.903-1.307-2.092-5.21-2.639-7.679-1.076m421.411.323c-6.6.504-12.491 1.063-13.09 1.242-1.026.306-2.915 29.339-1.971 30.283.218.218 2.293.651 4.611.962 2.964.397 4.359 1.114 4.699 2.415.663 2.535 6.09 2.628 5.89.101-.119-1.504.94-1.791 7.531-2.041 6.976-.264 7.728-.106 8.317 1.75.901 2.838 6.513 2.927 6.513.104 0-1.656.509-1.855 3.5-1.369 3.996.648 4.114.393 1.844-3.994-1.446-2.794-4.769-13.423-8.324-26.625-.824-3.06-1.6-4.075-3.118-4.075-1.111 0-1.808.342-1.55.761.259.418 1.198 6.023 2.088 12.455.889 6.431 2.279 13.57 3.088 15.864 1.713 4.853 1.813 5.92.555 5.92-1.16 0-2.84-7.582-4.62-20.846-1.502-11.188-2.219-14.245-3.28-13.989-.376.09-6.083.577-12.683 1.082m237.5-.247c-.825.533-1.05.969-.5.969s1.675-.436 2.5-.969 1.05-.969.5-.969-1.675.436-2.5.969m-672.785 1.643c.728.729 2.281 1.04 3.541.711 3.355-.878 2.704-1.844-1.3-1.931-2.899-.063-3.304.158-2.241 1.22m180.33-.387c.734 1.914 9.232 3.367 10.759 1.84 1.557-1.557.721-1.958-5.628-2.704-4.904-.577-5.637-.453-5.131.864m-136.545.785c-.825.437-2.963 1.336-4.75 1.998-3.134 1.161-4.561 3.977-2 3.946 1.586-.019 8.513-2.415 9.323-3.225 1.188-1.188-1.032-3.534-2.573-2.719m25.066 1.836c-1.225 2.289.248 3.123 5.516 3.123 2.372 0 3.418-.459 3.418-1.5 0-.825.873-1.5 1.941-1.5s2.145-.337 2.394-.75-2.403-.873-5.893-1.024c-5.404-.232-6.499.013-7.376 1.651m590.178-1.213c-.691.279-1.002.918-.691 1.421.893 1.446 5.077 1.066 6.447-.585 1.059-1.276.816-1.488-1.628-1.421-1.579.043-3.437.307-4.128.585m-651.494 1.635c-3.148 1.244-3.77 3.125-.75 2.268 1.1-.312 2.907-.824 4.015-1.139s1.756-.99 1.441-1.5c-.677-1.094-1.078-1.062-4.706.371m-36.75 1.201c-1.375.786-2.024 1.445-1.441 1.465.582.019 1.932-.626 3-1.433 2.469-1.868 1.68-1.884-1.559-.032m230 .042c0 1.879 9.558 5.607 12.487 4.872 5.324-1.336 1.98-4.104-6.33-5.241-4.618-.631-6.157-.539-6.157.369m-220.466.659c-1.081.627-3.331 1.417-5 1.756-2.183.444-3.128 1.27-3.369 2.945-.59 4.108 1.143 4.441 8.782 1.685 3.945-1.423 8.228-2.587 9.519-2.587 1.854 0 2.237-.42 1.824-2-.654-2.501-1.992-2.513-5.728-.05-3.501 2.307-5.403 1.636-2.972-1.049 2.009-2.221.258-2.622-3.056-.7m16.466-.142c0 .582.45.781 1 .441s1-.816 1-1.059-.45-.441-1-.441-1 .477-1 1.059m151.525.901c-.848 1.372-.097 2.402 1.38 1.894.606-.208.683-.914.188-1.711-.625-1.006-1.03-1.053-1.568-.183m493.225 1.243c-2.062.547-3.75 1.401-3.75 1.896 0 .496.17.901.378.901.941 0 7.622-3.079 7.622-3.513 0-.268-.112-.44-.25-.384-.138.057-1.937.552-4 1.1m-419.083.464c-1.652 1.651-.325 3.169 3.774 4.316 4.673 1.309 11.77.41 11.71-1.483-.057-1.838-13.939-4.379-15.484-2.833m-259.785 3.451c-2.687 2.687-.966 4.053 3.495 2.774 1.711-.491 3.183-.892 3.273-.892.089 0-.073-.9-.36-2-.683-2.61-3.736-2.554-6.408.118m660.868.044c-2.581.943-3.916 3.838-1.77 3.838 1.922 0 9.02-3.233 9.02-4.109 0-1.151-3.738-1.011-7.25.271m-378.75 1.85c0 2.342 5.75 5.137 11 5.348 2.855.114 3.5-.221 3.5-1.816 0-1.96-3.02-3.266-11.25-4.863-2.777-.539-3.25-.345-3.25 1.331m-106.921 3.571c.048 1.165.285 1.402.604.605.289-.722.253-1.585-.079-1.917s-.568.258-.525 1.312m472.421-.583c-1.1.473-3.327.891-4.95.93-2.147.051-2.65.37-1.849 1.171 1.097 1.097 7.493-.415 9.749-2.305 1.237-1.036-.314-.929-2.95.204m-466.046 1.26c-.859 2.237-.155 6.284 1.046 6.021.55-.12 1.148-1.413 1.328-2.872.391-3.162-1.438-5.589-2.374-3.149m8.185.434c-.959.959-.769 4.306.244 4.306 1.155 0 2.157-3.857 1.163-4.472-.422-.26-1.055-.186-1.407.166m438.361 1.562c-2.164.665-2.877 1.223-1.867 1.461.898.211 3.148-.277 5-1.085 3.915-1.708 1.964-1.942-3.133-.376m-427.902 2.893c-1.291 3.703-1.373 4.853-.348 4.845041.849-.007041 4.25-5.669041 4.25-7.075041 0-2.271-2.914-.606-3.902 2.23m103.08-1.449c.471 2.467 10.553 4.336 11.9 2.206 1.634-2.584.31-3.404-5.99-3.706-5.568-.267-6.216-.102-5.91 1.5m31.822 2.8c0 2.157.404 3.369 1 3 .55-.34 1-1.69 1-3s-.45-2.66-1-3c-.596-.369-1 .843-1 3m278.835-2.792c-2.531.388-4.552 2.789-3.041 3.613 1.49.813 7.206-1.448 7.206-2.85 0-.809-.337-1.404-.75-1.321-.413.082-1.949.333-3.415.558m-189.64 4.792c.02 1.65.244 2.204.498 1.231s.237-2.323-.037-3-.481.119-.461 1.769m124.884.083c.048 1.165.285 1.402.604.605.289-.722.253-1.585-.079-1.917s-.568.258-.525 1.312m41.921.379c-2.163.66-2.263.863-.742 1.51 2.174.925 8.742-.215 8.742-1.517 0-1.106-4.366-1.102-8 .007m-380.701 1.93c-.65 1.041-.907 2.167-.571 2.502.698.698 4.272-2.271 4.272-3.549 0-1.569-2.51-.859-3.701 1.047m128.201-.892c.34.55 1.293 1 2.118 1s1.222-.45.882-1-1.293-1-2.118-1-1.222.45-.882 1m232.75.119c-1.788.516-3.25 1.375-3.25 1.91 0 1.444 1.934 1.19 7.5-.983 4.356-1.701 4.614-1.947 2-1.909-1.65.024-4.462.466-6.25.982m-444.805 3.055c-.772 2.43 1.61 4.826 4.798 4.826 1.024 0 5.55 1.852 10.059 4.115 6.203 3.114 9.78 4.246 14.698 4.651 3.575.294 7.4 1.105 8.5 1.802s5 1.577 8.666 1.957c5.495.569 7.137 1.182 9.349 3.491 1.476 1.54 6.021 4.256 10.101 6.034 5.976 2.606 7.529 3.741 7.994 5.842 1.21 5.477 1.612 6.172 4.411 7.619 1.584.819 3.352 1.489 3.929 1.489 2.019 0 1.029-3.053-1.34-4.132-1.676-.763-2.566-2.193-2.981-4.786-.719-4.495-3.213-6.908-11.341-10.969-3.417-1.707-6.69-3.996-7.273-5.085-1.484-2.773-4.171-4.003-11.22-5.138-3.353-.54-7.215-1.862-8.581-2.936-1.366-1.075-3.286-1.954-4.267-1.954s-2.52-.283-3.419-.628c-1.439-.552-1.365-.916.605-3.013 3.189-3.395 1.115-5.245-2.315-2.066-1.392 1.29-2.742 2.978-2.999 3.751-.364 1.092-2.576.459-9.894-2.834-10.843-4.878-16.374-5.522-17.48-2.036m424.654-.62c-4.199 1.823-3.527 2.804 1.299 1.899 2.082-.39 3.602-1.261 3.602-2.064 0-1.717-.613-1.696-4.901.165m233.727 2.78c.344 3.939.278 4.057-1.199 2.166l-1.563-2-.049 2c-.04 1.624-.44 1.388-2.13-1.25-2.333-3.642-3.885-4.19-3.885-1.371 0 2.54 4.529 12.279 6.828 14.682 1.816 1.898 1.779 1.982-1.727 3.965-2.343 1.326-4.577 3.911-6.46 7.473-2.514 4.756-2.817 6.218-2.391 11.528.269 3.345 1.096 7.054 1.839 8.243 1.493 2.391 2.138 1.418-8.963 13.517-4.326 4.715-5.088 6.054-4.113 7.229.843 1.015 1.717 1.163 2.955.501 2.665-1.426 8.032-7.879 8.032-9.657 0-.864 1.125-2.908 2.5-4.542 2.642-3.14 3.228-6.69 1.405-8.513-1.535-1.535.852-11.775 3.251-13.946 1.014-.918 1.844-2.483 1.844-3.479 0-2.248 3.261-4.099 8.5-4.825 3.18-.441 4.066-1.016 4.32-2.805.236-1.662-.182-2.25-1.597-2.25-2.491 0-8.223-2.867-8.223-4.113 0-.532.9-2.731 2-4.887 2.175-4.263 2.577-6.475 1-5.5-.582.36-1-.637-1-2.382 0-1.65-.346-3.214-.768-3.475-.423-.261-.605 1.4-.406 3.691m-393.576-2.356c-1.238.527-2.25 1.709-2.25 2.627 0 1.443.891 1.597 6.592 1.14 6.453-.518 9.666-1.849 7.578-3.14-1.9-1.174-9.673-1.583-11.92-.627m-229.25 3.022c0 2.384 1.536 2.653 2.393.418.858-2.235.79-2.418-.893-2.418-.833 0-1.5.889-1.5 2m8.676-.195c-2.139 2.364-2.156 4.436-.033 4.018 2.352-.463 4.088-3.492 2.761-4.819-.735-.735-1.556-.494-2.728.801m353.074-.502c-4.422 1.238-5.333 4.086-1 3.126 5.665-1.254 9.25-2.613 9.25-3.507 0-1.148-3.339-.994-8.25.381m-109.628.601c-2.894 1.832.141 3.096 7.437 3.096 7.398 0 9.217-.979 5.507-2.965-2.345-1.255-11.031-1.343-12.944-.131m25.128-.115c-1.788.186-3.25.743-3.25 1.239 0 1.329 3.505 2.972 6.341 2.972 1.986 0 2.368-.396 1.945-2.016-.648-2.476-.971-2.617-5.036-2.195m40.434.952c-3.95.246-5.689.747-5.419 1.561.518 1.561 8.725 2.709 10.985 1.536 1.679-.871 2.547-4.039 1-3.649-.413.104-3.367.352-6.566.552m21.066-.013c-2.583.271-3.75.884-3.75 1.97 0 1.33.893 1.472 5.699.908 3.134-.369 5.934-.905 6.221-1.192.656-.656-2.074-2.436-3.42-2.231-.55.084-2.687.33-4.75.545m275.122 9.033c1.206 2.254 5.138 5.837 5.096 4.644-.036-1.054-4.594-6.405-5.455-6.405-.321 0-.159.793.359 1.761m20.128 6.239c0 .55.45 1 1 1s1-.45 1-1-.45-1-1-1-1 .45-1 1m148.597 13.844c-.346.56-.142 1.319.453 1.687 1.538.95 2.53-.351 1.246-1.635-.718-.718-1.277-.735-1.699-.052m-756.422 2.825c.424 2.201 4.325 2.5 4.325.331 0-.825-1.053-1.649-2.339-1.831-1.814-.257-2.26.08-1.986 1.5m-23.536 1.025c-1.126 1.126-.685 2.306.861 2.306.825 0 1.5-.423 1.5-.941 0-1.261-1.562-2.164-2.361-1.365m-6.489 4.256c.43 1.289 1.801 1.521 1.925.325.041-.399-.465-.905-1.125-1.125s-1.02.14-.8.8m83.85 15.05c0 1.1.45 2 1 2s1-.9 1-2-.45-2-1-2-1 .9-1 2m-48.333 10.667c-.367.366-.667 1.529-.667 2.583 0 2.593 2.415 1.67 2.82-1.078.309-2.103-.789-2.87-2.153-1.505m18.016 3.333c.328 2.475.758 4.688.956 4.917.752.868.181-5.507-.665-7.417-.591-1.335-.688-.505-.291 2.5m3.317 7.441c0 3.513 1.348 5.424 2.505 3.551.856-1.385-.415-6.992-1.584-6.992-.507 0-.921 1.548-.921 3.441m7.552-2.191c-1.274 4.137-1.43 6.707-.444 7.317 1.552.959 2.858-1.455 2.877-5.317.015-3.153-1.655-4.526-2.433-2m526.448 7.095c0 4.932-.417 6.723-1.873 8.04-1.77 1.602-1.902 1.583-2.406-.345-.294-1.122-.126-2.04.373-2.04 1.237 0 1.153-6.729-.094-7.5-.574-.355-1 .553-1 2.132 0 2.623-.066 2.66-1.429.809-1.309-1.778-1.484-1.798-2.089-.236-.385.991.271 3.362 1.567 5.668 2.547 4.532 2.064 7.127-1.326 7.127-3.28 0-6.19 2.34-5.417 4.355.714 1.862 4.2 2.13 8.379.645 2.255-.802 1.668.044-2.949 4.25-5.596 5.098-7.111 7.75-4.427 7.75.72 0 2.182-.661 3.25-1.468 1.067-.808 2.475-1.483 3.127-1.5 2.532-.068 13.814-8.71 13.851-10.61.064-3.282 1.439-4.422 5.334-4.422 2.065 0 7.625-1.308 12.356-2.908l8.602-2.908.605 2.408c.471 1.877 1.268 2.408 3.617 2.408 4.724 0 10.168-2.643 9.745-4.731-.368-1.815-2.383-2.043-6.546-.74-1.937.606-2.25.342-2.25-1.893 0-3.858-3.577-4.283-14.87-1.769-5.296 1.179-10.772 2.142-12.169 2.139-1.396-.003-4.208.845-6.25 1.886l-3.711 1.892v-7.392c0-4.261-.424-7.392-1-7.392-.562 0-1 2.782-1 6.345m-519.881-3.03c-1.66 4.175-1.198 6.739.51 2.826.806-1.847 1.273-3.872 1.037-4.5-.235-.627-.931.126-1.547 1.674m6.548.352c-.992.991-.807 5.333.226 5.333.997 0 2.107-2.413 2.107-4.582 0-1.492-1.205-1.88-2.333-.751m4.333 2.333c0 1.1.45 2 1 2s1-.9 1-2-.45-2-1-2-1 .9-1 2m508 10.059c0 .582.45.781 1 .441s1-.816 1-1.059-.45-.441-1-.441-1 .477-1 1.059m-560.345 21.691c-1.247 4.543-1.659 9.25-.812 9.25.514 0 1.233-1.687 1.599-3.75.366-2.062.896-4.538 1.179-5.5.282-.962.064-1.75-.486-1.75s-1.216.788-1.48 1.75m15.012 1.917c-1.055 1.054-.776 5.148.4 5.874 1.378.852 1.562.598 2.396-3.291.527-2.462.353-3.25-.717-3.25-.777 0-1.713.3-2.079.667m-21.81 1.223c.921.584 1.166 1.943.762 4.235-.579 3.284-.566 3.3.487.592 1.214-3.12.609-5.725-1.325-5.702-.985.012-.967.214.076.875m11.18 1.512c-1.433 3.77-1.331 7.863.184 7.358 1.64-.547 3.11-7.829 1.838-9.101-.646-.646-1.341-.046-2.022 1.743m16.343-.95c-.689 1.797.428 3.785 1.689 3.005 1.267-.783 1.184-4.457-.1-4.457-.568 0-1.283.653-1.589 1.452m10.433-.769c.721.289 1.584.253 1.916-.079s-.258-.568-1.312-.525c-1.165.048-1.402.285-.604.604m-61.813 2.817c0 1.442.576 2.5 1.361 2.5.913 0 1.204-.824.884-2.5-.263-1.375-.876-2.5-1.362-2.5-.485 0-.883 1.125-.883 2.5m9.158-.5c0 1.375.227 1.938.504 1.25.278-.687.278-1.812 0-2.5-.277-.687-.504-.125-.504 1.25m30.842.5c0 1.03.655 1.52 1.75 1.31 2.108-.406 1.975-2.181-.197-2.633-.906-.189-1.553.362-1.553 1.323m-48 1.5c0 .55.45 1 1 1s1-.45 1-1-.45-1-1-1-1 .45-1 1m519 14.659c0 2.379.413 2.976 1.98 2.861 3.095-.228 3.208-.995.516-3.524l-2.496-2.345zm-319.25 93.887c-1.512.835-2.75 1.954-2.75 2.486 0 1.392 1.229 1.196 3.802-.606 1.5-1.051 3.236-1.357 5.223-.921 1.866.41 2.975.252 2.975-.426 0-.593-.562-1.085-1.25-1.093-.687-.007-2.15-.226-3.25-.486s-3.238.211-4.75 1.046" fill-rule="evenodd" transform="translate(0 .5)"/></svg>