<svg height="440" viewBox="0 0 484 440" width="484" xmlns="http://www.w3.org/2000/svg"><g fill-rule="evenodd"><path d="m144.5 1.106c-10.171 1.231-26.624 8.827-35.827 16.539-9.756 8.175-16.567 17.555-20.268 27.911-3.653 10.218-6.405 22.383-6.405 28.305 0 4.179 5.297 20.487 9.619 29.617 4.506 9.515 21.765 27.467 31.169 32.42 7.923 4.172 36.417 6.538 48.232 4.004 2.815-.603 5.344-.871 5.62-.595.473.473-3.511 7.861-10.349 19.193-1.66 2.75-8.583 14.802-15.385 26.783l-12.367 21.783-2.122-6.283c-4.781-14.151-13.604-27.492-23.132-34.977-8.465-6.651-21.947-13.8-28.285-14.999-13.168-2.492-33.976 1.129-48.5 8.44-15.301 7.701-25.659 20.921-32.716 41.753-3.01 8.886-3.219 10.405-3.24770115 23.5-.02229885 13.925 0 14.038 3.39370115 21 4.924 10.092 13.213 20.677 22.649 28.927 14.394 12.584 25.887 17.07 43.421 16.946 8.993-.063 11.84-.524 19.837-3.209 5.227-1.754 11.17-4.557 13.5-6.365 7.607-5.904 15.391-13.234 19.966-18.799 4.791-5.828 12.34-19.967 13.346-24.997.331-1.652.947-3.003 1.369-3.003s3.593 4.838 7.046 10.75c3.453 5.913 9.075 15.475 12.493 21.25 3.417 5.775 7.579 13.2 9.249 16.5 1.669 3.3 5.086 9.572 7.593 13.938s4.426 8.07 4.265 8.231-3.427-1.024-7.259-2.634c-11.069-4.651-20.984-6.329-30.192-5.111-11.211 1.484-27.643 9.896-35.963 18.411-12.468 12.76-20.824 27.858-22.46 40.58-1.695 13.186.88 31.469 6.051 42.961 2.528 5.616 16.639 19.645 26.159 26.006 14.582 9.743 32.09 15.124 42.028 12.918 1.91-.424 6.774-1.257 10.81-1.851 14.113-2.077 30.616-12.19 39.081-23.949 2.178-3.025 4.903-6.462 6.055-7.637s3.487-6.125 5.187-11c3.051-8.743 3.085-9.059 2.535-23.363-.62-16.129-2.104-22.958-7.201-33.134-4.888-9.757-7.803-14.051-12.1-17.824l-3.842-3.373 14.473.662c7.961.364 23.798.663 35.194.665l20.72.004-2.34 3.448c-3.617 5.33-11.212 23.371-12.651 30.052-1.718 7.975-1.8 31.398-.136 39 2.246 10.267 5.87 16.203 16.177 26.5 11.641 11.629 24.977 19.484 35.01 20.62 1.375.155 5.413.684 8.972 1.174 7.633 1.051 22.108-.094 29.928-2.367 9.524-2.769 25.566-11.85 26.829-15.187.362-.957 2.614-4.771 5.004-8.476 8.522-13.209 12.056-22.109 14.401-36.264 2.188-13.213 2.151-14.705-.673-27-1.4-6.093-9.734-22.216-15.121-29.25-3.054-3.987-5.842-7.256-6.196-7.262-.354-.007-2.545-1.779-4.869-3.938-5.226-4.853-14.769-9.491-24.821-12.062-9.227-2.36-12.859-2.624-21.844-1.591l-6.89.792 2.037-3.344c2.666-4.376 10.341-18.164 16.057-28.845 2.502-4.675 7.617-13.622 11.367-19.882 3.751-6.26 6.852-11.885 6.892-12.5s1.354 3.949 2.919 10.141c2.879 11.389 7.641 21.581 12.17 26.046 2.554 2.517 16.251 12.493 21.838 15.904 1.925 1.175 8.9 3.593 15.5 5.372 9.79 2.638 13.934 3.245 22.5 3.295 9.984.058 10.844-.107 17.5-3.362 15.757-7.704 27.206-17.756 36.363-31.923 2.216-3.429 4.535-7.89 5.153-9.913s1.508-4.578 1.978-5.678c1.665-3.894 2.239-8.121 2.514-18.5.153-5.775-.014-8.925-.372-7-.616 3.311-.719 3.14-1.902-3.162-1.528-8.135-5.623-20.604-8.979-27.338-3.498-7.02-8.193-12.504-16.548-19.329-13.792-11.266-24.259-14.733-43.707-14.477-10.787.141-13.437.52-19.338 2.759-17.058 6.475-26.849 13.759-35.529 26.432-7.183 10.488-10.063 16.481-10.983 22.86l-.65 4.504-2.311-4.333c-3.891-7.295-14.99-25.526-26.736-43.916-12.164-19.044-13.536-21.667-10.714-20.485 3.391 1.419 17.149 1.72 26.912.589 7.873-.913 11.454-1.909 17.849-4.961 18.854-9 32.471-26.34 37.643-47.934 1.736-7.25 1.977-10.443 1.433-19.062-1.127-17.876-3.343-24.686-12.293-37.773-6.356-9.295-14.239-15.726-26.783-21.852-19.995-9.764-32.753-10.305-55.325-2.347-10.369 3.655-20.136 9.872-26.758 17.032-3.975 4.297-5.977 7.762-9.184 15.894-2.255 5.72-4.805 13.164-5.667 16.543-1.781 6.988-2.065 22.408-.561 30.47 1.431 7.673 8.781 22.323 14.869 29.639l5.199 6.247-2.787.003c-6.519.008-62.173 3.003-66.236 3.564l-4.45.616 5.95-6.384c7.342-7.877 12.215-19.118 15.556-35.883 2.221-11.148 2.233-11.57.604-21.116-2.339-13.706-6.54-23.852-14.386-34.746-5.825-8.087-13.265-15.681-15.177-15.489-.356.036-4.697-1.824-9.647-4.134-12.472-5.818-27.125-8.642-38-7.325m170 4.93c-9.278 1.46-24.252 7.497-32.5 13.103-9.966 6.774-16.243 14.305-20.305 24.361-6.111 15.131-6.868 19.452-5.798 33.095.555 7.068 1.744 14.196 2.926 17.544 2.372 6.713 10.507 18.221 16.791 23.752 8.317 7.322 24.289 14.436 38.43 17.117 7.718 1.464 25.534-1.259 34.456-5.265 15.172-6.813 23.806-14.554 29.472-26.422 6.799-14.24 8.369-21.593 7.752-36.303-.659-15.722-2.164-20.534-9.594-30.677-7.404-10.108-15.8-16.96-28.63-23.363-14.727-7.35-21.436-8.761-33-6.942m-178.5.941c-4.069.869-15.918 7.324-23.041 12.553-2.719 1.996-7.654 6.63-10.968 10.299-4.776 5.289-6.744 8.536-9.499 15.671-3.878 10.046-7.492 23.362-7.492 27.606 0 3.756 7.076 23.63 10.538 29.596 3.558 6.133 22.792 25.304 27.716 27.626 11.429 5.389 36.104 6.68 52.193 2.73 9.224-2.264 10.429-2.857 16.584-8.154 13.392-11.526 22.442-27.457 25.452-44.806 3.123-17.999-2.047-35.022-15.444-50.849-9.29-10.975-23.264-19.049-37.773-21.825-7.796-1.492-22.298-1.721-28.266-.447m182.502 12.022c-2.157 1.1-4.266 2.615-4.687 3.368-.612 1.093-1.579 1.151-4.816.287-3.395-.906-4.594-.788-7.407.727-1.846.994-3.86 2.911-4.474 4.26-1.436 3.151-1.445 10.632-.016 12.061.803.803.486 1.936-1.166 4.171-1.599 2.163-2.269 4.452-2.269 7.755 0 4.003.463 5.099 3.182 7.528 2.028 1.813 4.356 2.873 6.417 2.923 1.779.043 2.662.309 1.963.59-2.171.874-4.46 6.426-3.869 9.382.438 2.191.039 3.113-1.902 4.385-2.827 1.852-3.461 7.242-.964 8.2.822.316 1.233.996.914 1.513-.764 1.236 1.45 3.851 3.262 3.851 2.386 0 6.33-5.076 6.33-8.146 0-1.57.538-2.854 1.195-2.854 2.058 0 6.805-5.27 6.805-7.555 0-1.796.721-2.278 4.078-2.729 2.242-.3 4.877-1.27 5.855-2.155s2.471-1.343 3.318-1.018c2.429.932 9.363-1.347 12.739-4.188 4.382-3.687 6.321-7.883 5.548-12.002-.479-2.558-.129-4.119 1.412-6.283 2.08-2.921 2.539-8.097 1.158-13.06-.706-2.537-2.691-3.291-12.309-4.677-2.46-.355-4.246-1.366-5.328-3.017-1.556-2.375-6.938-5.316-9.727-5.316-.727 0-3.086.9-5.242 1.999m-173.728 7.266c-4.707 4.087-5.779 7.08-5.752 16.05.026 8.62 2.096 13.825 7.321 18.413 3.036 2.666 3.657 3.873 3.657 7.114 0 2.147-.93 6.006-2.066 8.575-2.03 4.589-2.034 4.728-.2 7.867 2.191 3.752 6.264 6.315 8.606 5.416.91-.349 2.655-2.694 3.877-5.21 2.174-4.475 2.185-4.679.503-9.416-2.623-7.386-2.266-10.152 1.821-14.113 4.657-4.514 6.923-12.089 6.136-20.512-.827-8.863-2.926-12.622-8.521-15.266-6.666-3.15-10.847-2.856-15.382 1.082m175.726-2.093c-1.1.611-2.912 2.213-4.028 3.559-2.021 2.442-2.038 2.444-5.759.669-7.068-3.37-12.658 1.609-9.927 8.844 1.069 2.833.931 3.557-1.294 6.768-3.01 4.343-3.187 8.293-.492 10.988 2.57 2.57 5.054 2.532 8.436-.129 3.027-2.381 3.749-2.014 6.369 3.234 1.076 2.155 2.554 3.517 4.047 3.728 3.568.505 7.148-.689 7.148-2.383 0-2.232 2.624-2.848 6.063-1.424 3.682 1.525 7.021.302 9.499-3.48 1.546-2.36 1.549-2.728.033-5.042-1.954-2.982-1.224-7.097 1.52-8.566 1.191-.637 1.885-2.092 1.885-3.95 0-3.763-3.721-6.403-8.114-5.758-2.762.405-3.277.08-4.501-2.85-2.086-4.994-6.441-6.677-10.885-4.208m-173.412 8.234c-3.498 3.724-3.939 12.726-.911 18.594 2.994 5.8 6.459 6.517 10.751 2.225 5.339-5.338 6.236-15.204 1.886-20.734-2.692-3.422-8.551-3.465-11.726-.085m170.662-.834c-3.401 1.845-3.935 6.428-.75 6.428 1.111 0 2-.667 2-1.5 0-.825.675-1.5 1.5-1.5 2.286 0 1.796 1.618-1.137 3.754-2.319 1.69-2.521 2.273-1.668 4.834 1.149 3.446 4.305 4.592 4.305 1.562 0-1.098 1.381-3.378 3.07-5.066 2.333-2.334 2.909-3.611 2.399-5.327-1.372-4.616-4.931-5.783-9.719-3.185m.821 17.999c-3.186 3.187-.513 6.539 3.501 4.39 2.198-1.176 2.479-3.01.728-4.761-1.581-1.581-2.343-1.515-4.229.371m-9.028 10.36c-.317.512-.118 1.213.441 1.559.559.345 1.016-.074 1.016-.931 0-1.757-.6-2.015-1.457-.628m-2.945 6.805c-1.118 1.117-.604 4.048.804 4.588 1.734.665 2.598-.127 2.598-2.384 0-1.768-2.329-3.278-3.402-2.204m-154.015 12.13c-.431.697-.513 1.537-.183 1.867.895.895 1.871-.421 1.387-1.871-.338-1.016-.574-1.016-1.204.004m109.417 47.255c-8.525.341-26.637.973-40.25 1.404s-24.748 1.052-24.746 1.38c.004.529 13.365 8.285 35.889 20.832 4.184 2.331 8.29 4.243 9.124 4.250008.835.006992 10.06-4.856008 20.5-10.806008 10.441-5.95 19.799-11.272 20.796-11.825 1.621-.899 1.408-1.264-2-3.431-3.74-2.379-4.108-2.413-19.313-1.804m-69.56 5.976c-.367.595.736 2.954 2.453 5.242 1.717 2.289 4.965 7.311 7.218 11.161 7.954 13.59 13.163 20.609 14.826 19.974.86-.328 6.08-3.145 11.601-6.26l10.038-5.663-19.038-10.875c-24.826-14.181-26.277-14.908-27.098-13.579m82.56 7.248c-6.875 4.023-16.431 9.572-21.237 12.331-8.728 5.01-8.734 5.016-6 6.238 1.506.672 6.934 3.749 12.064 6.838 7.6 4.575 9.499 5.35 10.251 4.182.507-.789 2.784-4.584 5.059-8.434s5.502-9.25 7.171-12c7.045-11.611 8.608-14.934 7.387-15.71-1.741-1.107-1.163-1.364-14.695 6.555m-86.599-4.583c-1.212.813-2.936 49.238-1.753 49.238.636 0 25.372-12.833 26.267-13.628.228-.202-1.632-3.406-4.133-7.12s-6.65-10.352-9.22-14.752c-5.769-9.877-9.702-14.717-11.161-13.738m106.602985 12.988c.002015 6.463.293015 18.078.647015 25.812l.643 14.063 4.099 2.437c2.254 1.341 6.575 3.834 9.603 5.541 5.521 3.112 24.232 14.085 31.254 18.328 2.951 1.784 3.75 1.952 3.75.789 0-1.642-6.618-13.909-12.607-23.368-2.141-3.382-5.796-9.457-8.122-13.5-2.326-4.044-6.947-11.627-10.268-16.852s-7.566-12.447-9.432-16.049c-2.913-5.622-6.304-8.951-9.118-8.951-.249 0-.451 5.287-.449015 11.75m-113.003985-9.71c0 .573-.828 2.26-1.841 3.75-3.157 4.647-10.147 16.364-22.713 38.072-1.07 1.848-5.659 9.61-10.196 17.247-7.821 13.163-9.124 15.891-7.588 15.891 1.041 0 9.491-5.066 13.204-7.916 1.851-1.421 9.276-6.213 16.5-10.647l13.134-8.064.686-10.436c1.376-20.95 1.406-38.94.064-38.938-.687 0-1.25.469-1.25 1.041m104.723 11.214c-2.464 3.985-5.273 8.821-6.242 10.746s-3.049 5.381-4.622 7.68c-1.572 2.299-2.859 4.393-2.859 4.653 0 .493 18.692 12.667 19.449 12.667.79 0 .329-42.019-.467-42.511-.429-.265-2.795 2.779-5.259 6.765m-226.063 7.727c-13.7 2.487-28.047 8.556-33.79 14.293-14.082 14.07-22.832 35.127-22.85807484 55.006-.01492516 11.921 2.22007484 18.064 11.00007484 30.233 7.804 10.816 23.166 24.452 28.165 25.001 1.285.141 5.63 1.237 9.654 2.436 10.97 3.267 18.985 3.595 30.343 1.244 8.757-1.814 10.37-2.521 17-7.456 12.58-9.364 23.451-22.134 30.2-35.479 7.374-14.58 6.972-31.457-1.138-47.759-3.928-7.896-11.26-17.278-16.721-21.397-7.311-5.515-20.473-13.572-24.515-15.007-4.464-1.586-21.026-2.261-27.34-1.115m340.34-.092c0 .488-1.462 1.169-3.25 1.511-5.834 1.118-18.444 7.216-25.251 12.21-6.401 4.697-17.042 17.462-20.748 24.89-3.456 6.927-4.886 25.416-2.236 28.918 1.051 1.389 1.156 2.274.38 3.209-1.954 2.354 3.713 22.335 8.604 30.337 3.108 5.085 13.69 14.184 23.555 20.254 5.969 3.673 29.371 9.782 37.47 9.782 5.155 0 21.691-7.33 31.093-13.783 9.352-6.418 20.486-18.74 25.496-28.217 2.202-4.167 2.377-5.611 2.360117-19.5-.020117-14.326-.167117-15.424-3.290117-24.436-4.043-11.668-9.16-21.521-13.434-25.868-9.154-9.309-21.376-15.911-34.749-18.771-7.212-1.543-26-1.93-26-.536m-166 5.193c-3.575 2.151-9.088 5.268-12.25 6.928s-5.75 3.245-5.75 3.521c0 .277 1.959 3.758 4.353 7.736 4.9 8.142 16.645 28.751 18.845 33.064l1.443 2.832 5.009-7.832c15.589-24.375 21.275-35.189 19.184-36.484-5.991-3.714-23.437-13.757-23.834-13.720102-.275.025102-3.425 1.805102-7 3.955102m148.452 11.564c-6.709 7.24 1.12 19.864 9.529 15.364 1.541-.825 2.547-.157 6.031 4.004 3.895 4.652 4.106 5.209 3.084 8.139-1.507 4.326-1.373 8.099.372 10.406 2.155 2.849 1.917 3.281-2.218 4.029-8.519 1.543-11.996 5.813-10.969 13.47.675 5.034 2.082 6.74 7.455 9.043 2.345 1.005 4.264 2.294 4.264 2.863 0 1.744 3.581 1.154 6.385-1.052 3.718-2.925 5.615-7.064 5.615-12.254 0-4.013.265-4.507 2.75-5.121 3.517-.869 8.25-5.348 8.25-7.807 0-2.165.161-2.126 5.238 1.27 2.055 1.375 3.743 3.317 3.75 4.316.018 2.706 1.882 5.684 3.557 5.684.811 0 2.245.9 3.187 2 4.95 5.781 13.487-3.228 10.315-10.886-1.979-4.779-8.357-6.863-12.561-4.105-2.466 1.618-2.938 1.639-5.377.239-2.544-1.46-2.664-1.882-2.451-8.642.249-7.925 2.078-10.717 4.685-7.152 2.054 2.809 7.41 1.027 10.477-3.486 1.899-2.795 2.245-4.296 1.785-7.735-.587-4.381-3.354-10.818-4.26-9.911-.28.279-2.046-.135-3.927-.921-2.962-1.237-3.874-1.237-6.84.002-4.762 1.99-6.798 5.476-6.455 11.054.389 6.319-1.485 8.207-5.94 5.985-2.959-1.477-3.552-1.466-7.747.136l-4.542 1.734-4.397-4.315c-3.514-3.449-4.206-4.672-3.447-6.09 1.753-3.275 1.099-8.419-1.364-10.733-3.513-3.299-10.968-3.052-14.234.472m-183.202 7.239-14.25 7.593v14.761 14.761h27.035 27.035l-1.154-2.25c-2.415-4.709-21.23-37.612-23.361-40.854-.922-1.402-2.858-.644-15.305 5.989m67.507.323c-4 7.355-11.264 19.454-17.495 29.137-2.423 3.765-4.15 7.101-3.838 7.412.311.312 10.918.78 23.571 1.041l23.005.474v-15.397-15.396l-7.75-4.711c-4.262-2.591-9.172-5.643-10.911-6.782l-3.161-2.07zm119.742-3.207c-1.226 1.984.421 6.161 2.287 5.802 2.336-.45 2.385-6.146.057-6.595-.911-.175-1.966.182-2.344.793m-336.133 3.487c-.332.865-.335 2.916-.007 4.556l.596 2.983-2.727-1.955c-3.017-2.163-12.228-3.911-12.228-2.32 0 .538.836 2.051 1.859 3.363 1.022 1.312 2.576 3.784 3.452 5.494 1.998 3.897 6.619 6.034 9.598 4.44 2.465-1.319 2.53-.851.62 4.451-1.662 4.614-1.971 11.109-.57 11.975 2.254 1.392 4.949-1.902 5.245-6.411l.296-4.513 6.5-.025c5.434-.022 7.153-.477 10.482-2.776 2.19-1.512 4.778-2.75 5.75-2.75 1.167 0 1.768-.765 1.768-2.252 0-3.048-10.465-8.146-15.513-7.557-2.274.266-3.606-.059-3.953-.964-.309-.804-1.28-1.125-2.362-.782-1.305.415-2.162-.128-2.955-1.869-1.537-3.372-5.033-5.218-5.851-3.088m379.884.201c-2.692.539-3.009 3.782-.693 7.088 1.952 2.788 5.559 2.858 8.005.155 1.709-1.889 1.741-2.302.371-4.75-1.504-2.689-3.489-3.333-7.683-2.493m-387.172 9.236c1.741 3.341 2.646 4.075 5.023 4.075 1.594 0 2.899-.366 2.899-.813 0-1.346-5.339-5.914-7.773-6.649l-2.273-.687zm124.824 8.018c-7.479 4.706-15.129 9.73-17 11.163s-5.314 3.653-7.652 4.934c-2.338 1.28-4.25 2.583-4.251 2.894 0 .548 42.217.168 42.78-.385.154-.151.154-6.324 0-13.718l-.279-13.445zm-106.502-6.515c-4.09 1.78-4.91 4.102-2.136 6.045 2.465 1.726 8.295 2.05 9.245.513.345-.558 2.509-1.978 4.809-3.155l4.182-2.14-3.5-1.27c-4.583-1.661-8.773-1.659-12.6.007m233.6 12.572v14l24.75-.002 24.75-.002-8-4.798c-4.4-2.639-13.625-7.88-20.5-11.646-6.875-3.767-14.178-7.907-16.229-9.2-2.05-1.294-3.963-2.352-4.25-2.352-.286 0-.521 6.3-.521 14m-242-11.559c0 .857.45 1.559 1 1.559s1-.423 1-.941-.45-1.219-1-1.559-1 .084-1 .941m355.1 6.158c-5.721 7.274 2.426 16.847 8.639 10.151 3.364-3.625 3.368-8.006.011-10.123-4.53-2.857-6.419-2.863-8.65-.028m-329.774 2.389c-1.196.49-6.339 4.181-11.429 8.202l-9.256 7.31h-8.4c-7.238 0-8.607.277-9.891 2-1.396 1.874-1.249 8.236.246 10.655.617.999 16.659.998 27.646-.002 7.657-.697 7.799-.762 13.031-5.929 4.782-4.723 5.719-5.225 9.758-5.235 9.283-.023 12.071-.99 13.633-4.728.791-1.893 1.303-5.538 1.137-8.101l-.301-4.66-12-.202c-6.6-.111-12.978.199-14.174.69m4.476 2.961c-2.033.396-4.283 1.156-5 1.691-12.362 9.22-16.802 12.787-16.802 13.499 0 1.654 2.733.838 7.1-2.121 4.902-3.322 5.9-3.614 5.9-1.726 0 1.344-9.974 6.708-12.472 6.708-.786 0-1.788-.602-2.228-1.338-1.273-2.129-16.668-.748-17.103 1.535-.289 1.52 1.164 1.728 13.99 2l14.313.303 3.5-3.07c8.919-7.823 10.204-8.43 17.844-8.43 7.137 0 7.156-.007 7.17-2.75.007-1.512.285-3.762.616-5 .585-2.181.392-2.246-6.263-2.135-3.777.063-8.531.439-10.565.834m-83.482 15.051c0 3.575.182 5.037.403 3.25.222-1.787.222-4.713 0-6.5-.221-1.787-.403-.325-.403 3.25m437.68-.469c0 .808.675 1.469 1.5 1.469s1.5-.402 1.5-.893-.675-1.152-1.5-1.469c-.914-.35-1.5-.001-1.5.893m-292.5 1.365c-4.09.412-6 1.036-6 1.961 0 .747 7.425 5.181 16.5 9.854s19.361 10.287 22.857 12.475l6.357 3.98-.724-13.833c-.398-7.608-.784-13.885-.857-13.95-.612-.536-33.473-.956-38.133-.487m41.039 3.354c.227 1.787.692 8.517 1.033 14.954.618 11.675.628 11.711 3.774 14.084 3.655 2.757 19.926 11.716 21.255 11.704012.495-.005012 2.066-2.143012 3.492-4.750012 4.442-8.124 14.407-25.465 18.241-31.742l3.665-6-9.25-.638c-5.087-.351-16.758-.689-25.936-.75l-16.687-.112zm209.661-2.05c-1.559 1.559-1.534 5.003.05 6.969 2.018 2.504 4.498 2.856 6.828.969 2.847-2.306 1.882-5.512-2.284-7.591-3.697-1.844-3.139-1.802-4.594-.347m-145.183 11.389c3.448 6.551 9.179 16.98 12.734 23.176l6.465 11.264 3.642-2.19c2.003-1.205 4.767-2.954 6.142-3.886 1.375-.933 4.863-2.887 7.75-4.342l5.25-2.645v-15.983-15.983h-10.342c-5.688 0-16.545-.297-24.126-.661l-13.785-.661zm-16.037 1.633c-4.031 6.753-9.928 16.553-13.103 21.778-3.176 5.225-5.459 9.812-5.075 10.193.384.382 6.764 3.684 14.177 7.338l13.479 6.644 11.021-5.745c6.062-3.16 11.186-5.876 11.387-6.037.201-.16-2.334-5.152-5.633-11.092-3.299-5.941-7.807-14.401-10.016-18.801-2.21-4.4-5.118-9.925-6.463-12.278l-2.445-4.277zm61.02 2.778c0 8.25.15 15 .332 15 1.001 0 36.945-19.825 44.418-24.499 8.201-5.128 6.829-5.501-20.25-5.501h-24.5zm-295.748-7.5c.011 2.2.216 2.982.455 1.738s.23-3.044-.02-4-.446.062-.435 2.262m138.748-2.968c0 1.619 3.365 8.116 6.9 13.321 6.161 9.072 17.405 28.714 25.765 45.008 8.055 15.698 12.236 22.789 13.835 23.463 1.049.443 1.018-10.963-.11-41.151l-.61-16.327-6.64-4.23c-6.007-3.826-37.488-20.616-38.656-20.616-.266 0-.484.239-.484.532m193.438 10.102c-4.366 2.526-13.788 7.732-20.938 11.57-7.15 3.837-13.45 7.499-14 8.137-.618.716-.89 9.058-.711 21.835l.289 20.676 4.211-1.44c4.474-1.53 4.459-1.509 12.099-15.754 7.867-14.666 18.233-33.004 23.129-40.916 2.641-4.267 4.589-7.969 4.33-8.228s-4.043 1.595-8.409 4.12m-144.368 41.232c.039 13.549.406 25.489.816 26.535.646 1.646.934 1.445 2.15-1.5.772-1.871 4.965-9.476 9.318-16.901 11.396-19.442 11.272-19.201 10.106-19.637-.571-.214-5.859-3.256-11.75-6.761l-10.71-6.371zm94.43-13.741c-5.5 3.279-9.912 6.319-9.804 6.756.107.436 1.729 3.454 3.604 6.706s5.612 9.849 8.304 14.66c2.693 4.81 5.346 8.741 5.896 8.734009 3.039-.036009 3.232-1.669009 2.619-22.150009l-.619-20.669zm-72.233 11.125c-8.254 13.002-16.075 26.421-18.106 31.064l-2.106 4.815 3.723-2.224c2.047-1.223 5.072-3.204 6.722-4.401 4.098-2.972 24.485-14.564 32.75-18.62 3.713-1.822 6.75-3.563 6.75-3.867 0-.488-24.441-13.017-25.393-13.017-.205 0-2.158 2.813-4.34 6.25m50.233.396c-13.482 6.834-13.634 5.573 1.628 13.543 7.355 3.84 15.436 8.294 17.96 9.897 2.523 1.603 4.907 2.914 5.298 2.914.392 0-.943-3.038-2.965-6.75-9.356-17.173-12.997-23.24-13.921-23.198216-.55.026216-4.15 1.643216-8 3.594216m-34 17.27c-21.421 10.987-34.245 19.088-32.109 20.283.836.468 18.677.85 39.646.85h38.126l4.919-4.117c2.705-2.265 4.915-4.414 4.912003-4.775-.004003-.361-1.466003-1.513-3.250003-2.558-6.483-3.8-34.257-18.584-34.744-18.494-.275.051-8.15 4.016-17.5 8.811m98.5 7.084c0 .55-2.363 1.016-5.25 1.035-11.581.077-29.579 4.982-37.069 10.102-5.212 3.562-11.681 10.162-11.681 11.916 0 .9-.862 2.417-1.915 3.37-3.375 3.055-11.934 23.468-13.036 31.09-3.51 24.289.49 39.76 13.738 53.135 7.598 7.672 21.761 17.101 29.773 19.821 2.69.913 5.433 2.111 6.096 2.661 2.247 1.864 11.798 2.074 23.619.519 11.036-1.452 12.478-1.914 22.949-7.349 6.212-3.225 12.763-7.453 14.754-9.522 1.97-2.047 6.414-9.419 9.877-16.383 5.167-10.389 6.662-14.567 8.331-23.278 2.76-14.407 2.093-25.082-2.098-33.577-4.419-8.955-12.706-20.509-20.374-28.403-7.28-7.496-7.715-7.706-28.479-13.736-9.499-2.759-9.235-2.719-9.235-1.401m-176.183 2.05c-.193.577-3.718 1.483-7.834 2.012-5.853.754-9.753 2.104-17.904 6.201-14.321 7.197-23.021 15.961-30.098 30.318-5.432 11.021-6.981 17.122-6.981 27.492 0 10.288 5.037 29.927 7.675 29.927.701 0 1.927 1.238 2.726 2.75 2.133 4.039 15.146 16.356 22.364 21.168 8.998 5.999 31.034 13.324 33.622 11.176.656-.545 6.125-1.865 12.153-2.934 12.821-2.274 19.602-5.061 30.055-12.351 10.366-7.23 16.314-15.297 20.471-27.764 3.055-9.162 3.159-10.006 2.595-21.045-.676-13.246-2.286-20.154-7.145-30.672-5.361-11.603-12.504-17.88-30.009-26.371-7.704-3.737-17.5-7.731-21.768-8.876-8.932-2.395-9.45-2.449-9.922-1.031m2.183 19.509c0 .857.457 1.276 1.016.931.559-.346.758-1.047.441-1.559-.857-1.387-1.457-1.129-1.457.628m3.409-.183c-.847 2.208.28 3.335 1.808 1.807.902-.902.905-1.461.016-2.35-.89-.89-1.324-.761-1.824.543m-6.909.624c-.34.55.11 1 1 1s1.34-.45 1-1-.79-1-1-1-.66.45-1 1m158.808-.002c-4.762 1.943-7.173 10.649-4.389 15.851.791 1.478.838 2.736.151 4.02-.55 1.027-.678 2.224-.285 2.659s-.021.528-.92.207c-1.915-.684-5.392 1.513-6.924 4.375-1.664 3.11-.14 7.798 3.194 9.826l2.944 1.79-4.177.56c-2.298.308-4.833 1.216-5.635 2.018-1.618 1.618-3.302 13.021-2.189 14.822 1.161 1.879 12.849 1.684 14.258-.238 1.304-1.777 7.08-1.504 9.523.45.765.613 5.701 1.104 11.305 1.125 9.229.034 10.071-.129 11.682-2.262 1.668-2.208 5.154-2.272 5.154-.094 0 1.404 10.784 1.075 11.7-.357.44-.687 1.7-1.25 2.8-1.25 3.151 0 3.347-7.612.312-12.158-2.053-3.075-2.692-3.406-5.698-2.944l-3.386.52 2.136-2.273c3.204-3.411 2.611-11.307-.864-11.503-.275-.016-1.874-.616-3.554-1.335-2.606-1.116-2.95-1.673-2.349-3.807.387-1.375.748-4.406.803-6.737.093-3.958-.138-4.335-3.522-5.75-7.602-3.176-12.833-.608-12.833 6.3 0 4.712 2.202 7.618 6.96 9.189 3.227 1.065 3.251 1.12 2.242 5.097-1.166 4.594.068 7.948 3.618 9.83 1.23.653 1.398.923.397.638-4.381-1.248-11.762-1.761-11.762-.818 0 .929-17.661 2.417-19.145 1.612-.355-.192.223-2.04 1.284-4.105 1.359-2.647 1.752-4.824 1.329-7.374-.42-2.534-.201-3.771.731-4.128.992-.381 1.242.415.984 3.128-.502 5.262 2.466 8.661 8.255 9.454 5.683.779 7.249.169 9.187-3.579 3.163-6.115-1.162-13.757-7.786-13.757-2.879 0-2.884-.012-1.365-2.95.839-1.623 1.526-4.712 1.526-6.864 0-3.404-.488-4.245-3.75-6.456-4.379-2.968-8.853-3.991-11.942-2.732m-162.308 1.443c0 .857.45 1.559 1 1.559s1-.423 1-.941-.45-1.219-1-1.559-1 .084-1 .941m14 .059c0 .825.45 1.5 1 1.5 1.718 0 1.04 3.334-1.526 7.5-1.355 2.2-2.466 5.282-2.469 6.849-.008 4.313 2.84 9.415 6.047 10.834l2.865 1.268-3.992 1.179c-2.577.761-4.956.861-6.709.284-6.846-2.257-6.636-1.885-3.117-5.516 2.651-2.735 3.313-4.324 3.689-8.85.391-4.721.187-5.617-1.415-6.215-1.996-.744-7.529-4.38-8.388-5.512-.749-.987-9.67 1.095-10.865 2.535-1.775 2.139-3.458 10.16-2.736 13.039 1.103 4.393 4.959 7.588 9.321 7.722 3.465.107 3.334.193-1.502.998-7.027 1.17-10.569 3.124-13.106 7.229-2.595 4.199-2.845 12.585-.482 16.191 1.56 2.382 2.001 2.465 13.031 2.465 9.133 0 11.53-.295 11.982-1.473.494-1.287.997-1.293 3.984-.045 5.047 2.109 27.168.539 29.071-2.063 2.012-2.751 1.613-10.12-.777-14.373-2.067-3.676-7.18-7.613-8.683-6.684-.425.263-2.336.11-4.248-.34l-3.475-.817 3.295-.103c6.514-.202 11.215-8.639 9.129-16.385-.605-2.246-1.533-3.671-2.23-3.424-.657.232-2.319-.358-3.694-1.311s-3.963-2.05-5.75-2.437-3.25-1.118-3.25-1.624c0-.507-.675-.921-1.5-.921s-1.5-.675-1.5-1.5-.45-1.5-1-1.5-1 .675-1 1.5m148 3.5c-2.191 2.191-2.647 4.144-.875 3.75.619-.137 1.355.384 1.636 1.159.355.977.01 1.217-1.125.782-1.813-.696-1.924-.07-.99 5.584.542 3.282.899 3.687 2.739 3.104 1.163-.369 3.803-1.736 5.865-3.038 3.083-1.945 3.747-2.942 3.735-5.604-.02-4.092-.833-5.348-4.32-6.674-3.802-1.446-4.361-1.367-6.665.937m2.639 3.694c-1.126 1.126-.685 2.306.861 2.306.825 0 1.5-.423 1.5-.941 0-1.261-1.562-2.164-2.361-1.365m3.59.494c.618 1.854 2.771 2.161 2.771.395 0-.871-.712-1.583-1.583-1.583s-1.406.534-1.188 1.188m-150.466 1.377c-5.055 2.743-4.819 9.828.458 13.757 2.304 1.715 3.117 1.845 5.302.849 2.951-1.344 5.88-7.428 5.091-10.573-.492-1.959-5.319-5.65-7.268-5.558-.465.022-2.078.708-3.583 1.525m-26.54.992c-3.33 2.332-3.103 8.606.412 11.37 3.039 2.391 4.272 2.528 7.893.878 2.667-1.215 5.472-5.447 5.472-8.255 0-4.768-8.963-7.366-13.777-3.993m194.335-.651c-.387.626.717.934 2.881.804 1.93-.115 3.521.24 3.537.79s-1.21 1.064-2.724 1.143c-4.166.216-4.252.252-4.252 1.784 0 1.325 4.49 5.573 5.891 5.573 1.146 0 3.258-5.926 2.932-8.225-.259-1.823-1.049-2.336-3.98-2.58-2.012-.167-3.94.152-4.285.711m-190.558 1.094c0 .55.45 1 1 1s1-.45 1-1-.45-1-1-1-1 .45-1 1m25 0c0 .55.45 1 1 1s1-.45 1-1-.45-1-1-1-1 .45-1 1m-29.447 2.915c-.322.521-.159 1.21.362 1.532s1.21.159 1.532-.362.159-1.21-.362-1.532-1.21-.159-1.532.362m4 0c-.322.521-.159 1.21.362 1.532s1.21.159 1.532-.362.159-1.21-.362-1.532-1.21-.159-1.532.362m4 0c-.322.521-.159 1.21.362 1.532s1.21.159 1.532-.362.159-1.21-.362-1.532-1.21-.159-1.532.362m21.447.085c0 .55.45 1 1 1s1-.45 1-1-.45-1-1-1-1 .45-1 1m-25.457 3.931c-.317.512-.118 1.213.441 1.559.559.345 1.016-.074 1.016-.931 0-1.757-.6-2.015-1.457-.628m-4.543 1.069c0 .55.423 1 .941 1s1.219-.45 1.559-1-.084-1-.941-1-1.559.45-1.559 1m8 0c0 .55.423 1 .941 1s1.219-.45 1.559-1-.084-1-.941-1-1.559.45-1.559 1m22.51.016c.346.559 1.047.758 1.559.441 1.387-.857 1.129-1.457-.628-1.457-.857 0-1.276.457-.931 1.016m153.063 3.554c-2.578 2.578-3.03 6.268-1.037 8.47 2.258 2.495 3.938 2.471 7.56-.108 5.159-3.674 3.295-9.932-2.959-9.932-1.097 0-2.701.706-3.564 1.57m-20.133 4.881c-2.367 3.613-1.524 5.991 2.257 6.358 2.475.24 3.539-.24 4.802-2.167 1.363-2.08 1.414-2.808.321-4.559-1.764-2.825-5.407-2.644-7.38.368m40.227-.784c-1.281 1.28-.668 6.395.835 6.972 4.338 1.665 9.149-2.944 6.458-6.187-1.225-1.477-6.079-1.999-7.293-.785m-204.359 6.343c-3.287 1.324-5.26 5.043-5.74 10.816l-.43 5.174h6.806c3.743 0 8.325.263 10.181.584 2.312.4 2.945.281 2.01-.38-1.011-.714-1.267-2.928-.984-8.529.349-6.908.207-7.611-1.634-8.106-2.919-.784-7.678-.579-10.209.441m23.842 3.059c-1.937 2.08-3.15 6.143-3.15 10.556 0 2.362.061 2.375 11.5 2.375h11.5v-5.035c0-2.951-.669-6.056-1.615-7.5-1.474-2.25-2.257-2.465-8.961-2.465-6.14 0-7.663.34-9.274 2.069m136.073 5.488c-2.852 1.997-3.201 8.359-.473 8.594 7.96.687 8.249.57 8.25-3.319 0-2.018.273-4.38.607-5.25.827-2.156-5.316-2.175-8.384-.025m18.14.291c-2.528 1.6-3.214 2.789-3.532 6.128-.359 3.762-.208 4.093 1.637 3.597 1.118-.3 7.047-.552 13.176-.559l11.143-.014-.951-4.25c-.523-2.337-1.324-4.627-1.78-5.087s-4.368-1.054-8.693-1.319c-6.656-.408-8.344-.177-11 1.504m28.637 2.652v4.5h5.579 5.58l-.695-3.25c-1.002-4.685-2.222-5.75-6.586-5.75h-3.878z" fill-opacity=".251"/><path d="m134 3.873c-12.824 4.69-19.945 9.086-28.551 17.627-13.27 13.17-14.491 15.264-20.015 34.324-3.523 12.159-3.515 20.624.03 31.176 6.224 18.524 11.135 26.282 24.255 38.315 10.956 10.048 13.891 11.572 26.516 13.769 12.713 2.213 25.364 2.404 35.048.53 3.731-.722 6.653-1.043 6.494-.714-2.108 4.376-6.454 12.196-7.976 14.354-1.695 2.402-6.611 10.956-16.807 29.246-1.534 2.75-5.453 9.577-8.71 15.171l-5.923 10.172-2.664-8.172c-3.79-11.627-9.005-19.981-18.21-29.171-10.376-10.359-24.283-18.15-34.987-19.602-19.935-2.703-46.384 5.279-59.242 17.879-8.062 7.9-14.456 18.563-18.756 31.279-3.727 11.019-3.87 11.933-3.84792382 24.592.02692382 13.025.06092382 13.219 3.65992382 20.798 9.67 20.363 29.552 38.325 48.217 43.563 15.834 4.443 37.898 1.296 50.186-7.158 6.409-4.41 16.83-14.414 21.964-21.087 4.839-6.288 10.862-18.415 12.096-24.353l.77-3.705 7.37 12.397c14.586 24.532 16.866 28.478 19.583 33.897 4.334 8.64 13.583 24.27 15.846 26.778 1.905 2.112 1.553 2.051-4.802-.831-14.82-6.72-29.98-8.699-41.375-5.401-8.913 2.579-22.032 10.211-28.194 16.403-6.939 6.971-14.072 17.004-18.592 26.15-6.085 12.313-6.745 28.364-1.888 45.901 3.794 13.695 4.535 14.982 14.005 24.333 18.171 17.941 37.64 27.527 53.5 26.342 13.929-1.041 21.387-2.814 30.821-7.329 7.726-3.697 10.727-5.865 17.533-12.671 4.516-4.517 8.814-9.666 9.55-11.444.736-1.777 1.883-3.231 2.547-3.231.665 0 2.706-4.481 4.535-9.959 3.298-9.875 3.321-10.069 2.684-23.25-.353-7.31-1.347-15.991-2.21-19.291-2.593-9.923-9.925-23.675-15.757-29.551l-5.203-5.243 23.5.645c12.925.354 28.818.645 35.318.647l11.818.002-2.227 3.128c-3.495 4.908-10.926 22.707-12.472 29.872-1.735 8.042-1.791 33.319-.091 41 1.519 6.867 3.604 10.83 9.842 18.706 10.957 13.837 28.286 24.801 42.789 27.074 8.818 1.382 29.143.708 35.463-1.176 10.569-3.15 28.56-13.176 28.56-15.915 0-.669 1.493-3.46 3.318-6.202 10.632-15.978 13.739-24.364 16.712-45.118 1.046-7.302.955-8.941-.891-16.066-6.227-24.02-22.073-44.51-40.287-52.092-8.755-3.645-23.971-7.272-25.972-6.191-1.784.963-13.88 1.808-13.88.969 0-.351 2.755-5.555 6.122-11.564 3.368-6.009 8.833-15.875 12.146-21.925 4.865-8.885 17.187-30.015 18.255-31.304.139-.168 1.03 3.207 1.981 7.5.95 4.292 2.644 10.279 3.763 13.304 2.381 6.436 8.933 16.502 11.708 17.987 1.063.569 4.766 3.2 8.229 5.846 3.463 2.647 8.398 6.039 10.967 7.538 6.532 3.813 26.356 8.684 36.829 9.05 7.499.263 9.35-.048 15.72-2.642 9.72-3.959 18.478-9.7 26.119-17.122 12.015-11.67 21.108-27.971 21.146-37.907.008-2.062.465-3.75 1.015-3.75s.993-1.012.985107-2.25c-.013107-1.819-.201107-1.963-.985107-.75-.68 1.052-.974-.477-.985-5.122-.031-13.664-8.34-37.336-16.675-47.508-4.576-5.585-17.67-15.726-23.562-18.249-8.49-3.636-17.054-5.121-29.524-5.121-10.886 0-12.914.294-19.954 2.89-14.253 5.254-25.272 12.926-32.4 22.555-9.152 12.364-13.859 22.334-13.923 29.487-.018 2.082-.648 1.432-3.325-3.432-1.816-3.3-6.138-10.725-9.603-16.5-6.065-10.106-8.094-13.312-20.256-32-6.079-9.341-9.159-14.967-8.536-15.59.222-.223 2.915.059 5.984.627 3.834.708 9.597.708 18.419-.001 12.124-.974 13.346-1.276 21.919-5.408 17.719-8.541 30.948-24.521 36.532-44.128 3.945-13.853 2.356-37.762-3.243-48.772-9.229-18.151-24.295-30.852-45.368-38.245-21.609-7.582-56.134 3.091-71.797 22.196-3.931 4.794-10.913 21.537-13.271 31.821-2.037 8.882-1.177 26.124 1.745 35 2.81 8.537 8.412 18.173 14.008 24.097 2.648 2.803 4.815 5.319 4.815 5.59 0 .272-9.562.784-21.25 1.138-11.687.354-28.158 1.13-36.6 1.725-8.443.596-15.495.939-15.671.763-.176-.177 1.939-2.791 4.701-5.81 2.761-3.019 5.596-6.617 6.301-7.996 6.813-13.337 12.007-34.434 10.923-44.375-.863-7.923-4.72-21.334-8.034-27.939-5.501-10.964-18.68-26.693-22.365-26.693-.591 0-2.077-.656-3.3-1.458-4.816-3.155-17.559-7.681-25.553-9.075-12.588-2.195-20.327-1.822-29.152 1.406m3.969 2.486c-11.097 2.289-29.952 15.028-38.768 26.192-5.946 7.529-14.201 30.829-14.201 40.082 0 3.909 5.507 21.579 8.573 27.508 4.063 7.856 23.072 27.11 30.427 30.818 1.925.97 8.43 2.561 14.455 3.536 14.314 2.314 27.662 1.659 40.045-1.966 8.435-2.469 9.427-3.055 15.813-9.332 13.422-13.193 20.353-25.866 23.237-42.485 1.801-10.383 1.342-17.533-1.783-27.712-2.912-9.49-5.79-14.62-13.193-23.525-10.862-13.065-26.374-21.11-45.074-23.378-10.537-1.278-12.174-1.256-19.531.262m172.066.241c-16.199 4.354-32.661 13.665-40.648 22.993-4.282 5-9.393 15.953-12.803 27.437-2.257 7.598-2.061 21.784.434 31.542 2.637 10.308 6.796 17.216 15.982 26.544 6.195 6.291 9.153 8.406 17 12.155 5.225 2.496 13.594 5.535 18.597 6.754 8.912 2.17 9.345 2.183 21.357.642 10.778-1.383 13.372-2.114 21.448-6.042 12.314-5.991 22.043-14.899 26.53-24.292 6.374-13.343 8.068-20.381 8.068-33.513 0-17.245-1.712-23.708-8.866-33.472-8.011-10.935-15.744-17.466-28.264-23.87-16.442-8.41-26.502-10.192-38.835-6.878m9.972 12.017c-1.921.82-4.466 2.405-5.656 3.523-1.811 1.701-2.52 1.84-4.362.854-3.027-1.62-8.206-.456-10.945 2.459-2.65 2.821-3.835 10.2-2.146 13.357.907 1.694.735 2.744-.882 5.396-6.195 10.16 2.262 21.55 12.164 16.384 2.297-1.199 2.756-1.198 3.218.006.364.949-.189 1.404-1.707 1.404-5.659 0-9.73 6.21-7.285 11.111 1.387 2.781 1.351 2.889-.947 2.889-4.278 0-6.161 7.019-2.421 9.02 4.017 2.15 8.816-1.753 7.45-6.058-.503-1.586-.152-1.962 1.834-1.962 4.088 0 7.064-3.189 7.125-7.636.051-3.766.159-3.886 3.171-3.537 2.997.347 9.383-2.105 9.381-3.603 0-.398 2.204-.571 4.898-.384 4.466.309 5.262.011 9.001-3.367 4.344-3.924 5.249-7.462 2.988-11.685-.888-1.66-.794-2.26.461-2.962 2.37-1.327 3.666-7.196 2.511-11.378-1.163-4.211-6.047-7.703-10.032-7.173-2.005.267-2.93-.209-3.704-1.907-2.177-4.777-8.816-7.012-14.115-4.751m-174.755 7.899c-5.143 4.403-6.643 8.778-6.015 17.551.537 7.505 3.939 14.691 8.309 17.555 2.087 1.367 2.449 2.376 2.422 6.743-.018 2.92-.665 5.972-1.5 7.076-2.075 2.744-1.821 7.255.6 10.655 2.814 3.951 4.51 3.652 7.003-1.236 1.577-3.091 1.964-5.181 1.526-8.25-2.141-15.009-2.193-14.495 1.793-17.78 4.898-4.037 6.245-6.992 7.093-15.559.616-6.224.425-7.823-1.375-11.5-2.467-5.039-7.749-8.771-12.414-8.771-2.368 0-4.525 1.019-7.442 3.516m172.594-.516c-3.006 3.007-6.189 3.873-7.346 2-1.098-1.776-7.08-1.122-8.985.983-1.467 1.622-1.676 2.987-1.147 7.492.553 4.708.356 5.801-1.36 7.517-1.314 1.314-2.008 3.336-2.008 5.853 0 6.635 5.494 9.271 10.734 5.15 3.022-2.378 4.724-1.457 5.624 3.044 1.101 5.507 9.538 6.478 11.867 1.367.889-1.953 1.633-2.384 3.216-1.868 5.784 1.884 8.097 1.652 10.839-1.091 3.205-3.205 3.266-3.688.97-7.685-1.26-2.194-1.416-3.165-.556-3.469.656-.232.946-1.068.643-1.858-.335-.872.066-1.435 1.021-1.435 2.068 0 3.916-3.56 3.132-6.032-1.116-3.514-3.474-4.968-8.061-4.968-3.762 0-4.429-.301-4.429-2 0-6.148-9.081-8.073-14.154-3m-168.99 4.516c-6.704 3.642-6.537 20.092.253 24.848 2.511 1.759 4.416 1.243 8.147-2.204 6.84-6.319 5.927-20.506-1.486-23.09-3.76-1.311-3.668-1.317-6.914.446m170.242.749c-3.465 1.782-4.876 4.361-3.258 5.957 1.052 1.039 1.537.95 2.588-.472 1.588-2.15 4.751-2.381 3.948-.288-.308.804-1.444 1.742-2.524 2.085-1.563.496-1.9 1.369-1.657 4.288.33 3.971 2.978 5.22 3.652 1.722.206-1.069 1.449-2.789 2.763-3.823 2.791-2.194 3.2-6.781.819-9.163-1.883-1.882-3.147-1.944-6.331-.306m-.541 18.672c-1.978 2.185-1.34 4.063 1.38 4.063 2.809 0 4.607-2.64 3.063-4.5-1.629-1.963-2.334-1.893-4.443.437m-12.967 17.69c-.703 1.831.997 4.373 2.925 4.373 2.164 0 2.761-3.325.848-4.724-2.294-1.677-3.021-1.61-3.773.351m-153.59 11.873c0 .825.45 1.5 1 1.5s1-.675 1-1.5-.45-1.5-1-1.5-1 .675-1 1.5m98.5 46.574c-5.5.422-19.895 1.06-31.988 1.418-20.017.593-24.955 1.079-21.956 2.163.58.21 9.355 5.138 19.5 10.951 10.144 5.813 20.165 11.456 22.268 12.54l3.824 1.97 20.176-11.536c11.097-6.345 20.757-11.921 21.468-12.393.946-.627.262-1.57-2.554-3.522-3.485-2.415-4.638-2.651-12.292-2.511-4.645.084-12.946.499-18.446.92m-58.74 6.147c-.224.671 1.468 3.709 3.76 6.75s5.444 7.779 7.005 10.529c1.562 2.75 5.068 8.466 7.792 12.702l4.953 7.701 3.69-1.883c2.03-1.035 7.377-4.099 11.883-6.807l8.191-4.924-10.767-6.005c-5.922-3.303-16.072-8.993-22.556-12.645-6.485-3.651-12.185-6.639-12.667-6.639-.483 0-1.06.549-1.284 1.221m88.24 3.841c-3.575 2.195-12.943 7.649-20.818 12.12l-14.319 8.129 2.819 1.669c1.55.918 6.769 4.041 11.598 6.94 4.828 2.899 9.328 5.06 10 4.802.671-.257 3.197-4.013 5.613-8.345s6.288-10.812 8.606-14.399c6.719-10.399 7.93-13.091 6.345-14.095-2.105-1.335-2.924-1.07-9.844 3.179m-91.683-1.306c-.824.543-1.401 8.272-1.9 25.473l-.717 24.693 13.376-6.887c7.356-3.788 13.5-7.264 13.654-7.726.154-.461-2.085-4.536-4.975-9.057-2.89-4.52-6.817-10.966-8.726-14.324-4.468-7.86-9.162-13.193-10.712-12.172m-6.152 2.121c-.735.466-1.185 1.04-1 1.276.184.236-2.073 4.461-5.015 9.388-2.943 4.928-9.524 16.159-14.626 24.959-5.101 8.8-12.256 20.95-15.898 27-3.643 6.05-6.624006 11.83-6.624006 12.845-.001994 1.667.456006 1.58 4.748006-.899 2.613-1.509 7.268-4.59 10.345-6.845 3.077-2.256 10.809-7.251 17.181-11.101l11.586-7 .53-6c.975-11.047 1.623-44.5.861-44.485005-.414.009005-1.354.397005-2.088.862005m113.068 24.797.267 25.675 7 4.186c3.85 2.303 10.375 6.122 14.5 8.486s11.948 6.941 17.384 10.171c5.436 3.231 10.103 5.655 10.37 5.387 1.662-1.662-5.449-14.35-32.968-58.825-4.338-7.01-8.347-14.065-8.909-15.677-.846-2.428-4.783-5.077-7.543-5.077-.202 0-.248 11.553-.101 25.674m-7.907-13.608c-2.654 4.436-7.114 11.79-9.91 16.343l-5.084 8.278 8.785 5.669c4.832 3.118 9.482 5.937 10.334 6.264 1.37.525 1.549-2.011 1.549-22.013 0-12.434-.191-22.607-.424-22.607s-2.596 3.63-5.25 8.066m-233.826 10.328c-4.95 1.334-10.8 3.18-13 4.101-5.206 2.18-16.5 9.476-16.5 10.659 0 .505-2.322 3.94-5.159 7.632-9.582 12.468-15.029 28.838-15.213 45.714-.102 9.325.11 10.466 3.151 16.904 7.878 16.682 27.912 37.08 38.221 38.915 1.925.343 6.845 1.536 10.932 2.652 14.861 4.057 31.151 1.864 42.568-5.73 17.548-11.673 34.306-35.053 37.085-51.741.458-2.75.748-5.675.644-6.5s-.397-4.034-.651-7.132c-1.096-13.354-12.315-32.996-23.645-41.397-18.174-13.475-23.268-15.641-37.933-16.124-9.813-.324-12.82-.023-20.5 2.047m347-1.685c-.55.488-3.475 1.722-6.5 2.742-13.141 4.432-25.388 12.291-31.754 20.375-8.373 10.634-11.461 16.016-12.816 22.336-1.581 7.369-1.872 21.447-.463 22.318.532.329.715 1.86.406 3.403-.782 3.91 3.972 21.108 7.841 28.367 3.249 6.096 10.243 12.541 22.143 20.404 8.043 5.315 29.096 11.346 39.608 11.346 10.26 0 30.689-10.985 43.035-23.14 16.028-15.78 20.467-29.564 16.422-51-2.052-10.877-8.452-27.18-13.361-34.035-5.52-7.709-18.941-17.043-29.431-20.469-6.597-2.154-10.581-2.738-21.13-3.095-7.15-.241-13.45-.04-14 .448m-164 4.153c-12.559 7.098-18.066 10.347-18.878 11.138-.498.485 1.829 5.535 5.382 11.678 3.442 5.952 9.072 15.704 12.51 21.672l6.252 10.85 2.985-4.35c7.768-11.32 22.249-36.542 22.249-38.75 0-1.253-23.313-15.2-25.21-15.082-.16.01-2.54 1.29-5.29 2.844m147.423 13.061c-2.164 2.164-2.923 3.872-2.923 6.577 0 6.474 7.996 12.022 11.891 8.25 1.041-1.009 2.21-.231 6.054 4.027l4.763 5.278-1.5 4.555c-1.359 4.127-1.343 4.883.163 8.041.914 1.918 1.441 3.845 1.17 4.283s-2.347 1.045-4.615 1.349c-7.542 1.012-11.449 7.572-8.975 15.07 1.457 4.413 4.849 6.647 10.091 6.647 8.201 0 13.39-9.56 9.271-17.081l-1.993-3.638 5.309.077c4.509.065 5.748-.345 8.232-2.725l2.924-2.801 4.322 3.131c2.574 1.864 4.741 4.422 5.358 6.322 1.925 5.935 9.763 7.395 12.477 2.324 3.996-7.467-3.123-15.375-9.03-10.029-1.443 1.306-2.15 1.367-4.079.351-5.35-2.818-6.411-4.309-6.713-9.431-.162-2.75-.351-5.225-.42-5.5s.44-1.518 1.13-2.763c1.01-1.822 1.622-2.065 3.146-1.25 6.32 3.382 14.024-1.549 14.024-8.976 0-7.126-3.118-10.926-9.01-10.979-6.183-.056-11.409 7.435-9.712 13.923.287 1.097-.231 2.597-1.198 3.473-1.423 1.287-2.232 1.341-4.922.325-2.679-1.011-4.013-.93-7.939.482l-4.719 1.697-4.75-4.678c-4.366-4.301-4.75-5.069-4.75-9.512 0-8.926-7.21-12.685-13.077-6.819m-183.673 6.684-14.25 7.546v14.923 14.924l5.75.136c9.009.212 47.713-.313 48.078-.653.425-.396-24.541-44.547-25.136-44.452153-.106.016153-6.604 3.426153-14.442 7.576153m66.991.622c-3.257 6.366-6.903 12.516-16.439 27.729-2.916 4.652-5.452 8.814-5.635 9.25-.184.436 10.504.792 23.75.792h24.083v-15.31-15.31l-9.953-6.203c-5.475-3.412-10.549-6.432-11.276-6.711-.847-.325-2.472 1.742-4.53 5.763m119.759-1.264c0 3.41 2.933 5.702 4.847 3.788 2.482-2.482.555-6.753-3.047-6.753-1.329 0-1.8.776-1.8 2.965m-335.082.45c-.244.244-.279 2.515-.078 5.046.264 3.318.991 5.072 2.607 6.291l2.24 1.69-2.288 5.029c-1.258 2.766-2.601 7.431-2.984 10.367-.679 5.207-.638 5.33 1.678 5 2.11-.3 2.342-.787 2.081-4.364-.162-2.215.181-5.279.763-6.809 1.005-2.643 1.169-2.704 3.283-1.223 3.357 2.351 7.951 1.887 14.28-1.442 3.137-1.65 6.332-3 7.102-3 2.961 0 1.191-3.037-3.306-5.673-3.615-2.118-5.932-2.739-10-2.68-2.913.042-5.296-.364-5.296-.902s-.9-.743-2-.455c-1.192.312-2 .03-2-.697 0-1.378-5.398-6.861-6.082-6.178m377.083 4.18c-.001 3.899 2.91 6.663 6.56 6.23 3.951-.469 5.332-3.145 3.397-6.584-1.3-2.309-2.205-2.741-5.75-2.741-4.036 0-4.207.126-4.207 3.095m-391.001 1.393c0 1.107.441 2.012.98 2.012.538 0 1.907 1.818 3.04 4.04 2.331 4.569 5.623 6.517 9.406 5.568 3.066-.77 3.295-2.995.711-6.913-2.529-3.837-4.891-5.284-9.887-6.059-3.81-.591-4.25-.451-4.25 1.352m16.015.203c-.008.93.435 1.969.985 2.309 1.266.782 1.266-.542 0-2.5-.835-1.293-.971-1.266-.985.191m-10.411 4.559c1.399 2.063 3.147 4.088 3.884 4.502 1.48.83 4.512-.013 4.512-1.255 0-1.499-7.075-6.997-9.005-6.997-1.805 0-1.764.252.609 3.75m132.88 3.047c-3.308 2.037-9.773 6.178-14.366 9.203-4.592 3.025-11.213 7.313-14.713 9.529-9.965 6.31-10.13 6.837-1.905 6.107 3.85-.342 14.088-.625 22.75-.629l15.75-.007v-14c0-7.7-.338-13.979-.75-13.95308-.412.02608-3.457 1.71308-6.766 3.75008m118.869 3.854c.356 4.208.647 10.665.647 14.349v6.699l16.25.569c8.938.313 20.075.268 24.75-.099l8.5-.669-10.5-6.092c-5.775-3.351-14.775-8.477-20-11.39-5.225-2.914-11.667-6.585-14.316-8.158s-5.078-2.86-5.397-2.86-.289 3.443.066 7.651m-233.484-5.141c-5.207 2.829-4.378 6.869 1.644 8.012 2.336.443 4.268-.255 8.864-3.204l5.877-3.771-2.877-1.228c-3.868-1.652-10.284-1.561-13.508.191m346.777 6.907c-2.427 3.705-2.144 9.121.577 11.026 3.778 2.647 7.538 1.996 9.788-1.693 1.09-1.787 1.983-3.787 1.985008-4.444.006992-2.175-4.447008-6.147-7.600008-6.779-2.581-.517-3.381-.198-4.75 1.89m-326.592 2.303c-2.355.298-6.313 2.687-12.5 7.547-4.98 3.911-9.204 7.476-9.387 7.922-.184.446-4.256.811-9.05.811-5.447 0-9.167.45-9.917 1.2-.66.66-1.2 3.099-1.2 5.421 0 3.806.27 4.273 2.75 4.76 1.513.297 8.15.399 14.75.228 13.751-.357 16.35-1.205 24.444-7.975 5.199-4.349 5.763-4.567 12.5-4.844 4.993-.205 6.983-.655 6.806-1.54-.137-.687.221-1.25.798-1.25.65 0 .935-2.371.75-6.25l-.298-6.25-8.5-.108c-4.675-.059-10.051.089-11.946.328m.451 3.017c-3.794.959-20.505 13.526-20.505 15.42 0 1.701 3.251.766 7.5-2.157 4.922-3.387 5.5-3.559 5.5-1.637 0 .75-2.644 2.55-5.875 4-6.844 3.072-6.587 3.032-8.33 1.289-1.977-1.977-17.444-1.009-18.27 1.143-.326.85-.091 1.855.521 2.234.613.378 7.35.72 14.97.759 11.274.058 14.092-.213 15.124-1.457.698-.841 3.843-3.509 6.989-5.93 5.497-4.23 5.989-4.401 12.664-4.401h6.945l.62-3.75c1.072-6.482 1.347-6.26-7.608-6.134-4.537.064-9.148.343-10.245.621m355.105 14.69c.71 1.849 3.753 2.162 3.14.323-.228-.687-1.164-1.395-2.079-1.573-1.16-.225-1.481.154-1.061 1.25m-294.86 1.301c-4.348.455-5.157 3.086-1.492 4.853 9.234 4.45 34.173 17.683 38.242 20.292l5 3.205.323-6.789c.177-3.734.032-9.986-.322-13.893l-.644-7.104-9.679-.641c-9.922-.657-24.757-.62-31.428.077m43.923 13.522c.243 7.287.623 14.15.845 15.25.438 2.167 5.616 5.775 17.691 12.325l7.709 4.182 5.791-10.074c3.185-5.541 8.828-15.189 12.541-21.441s6.75-11.846 6.75-12.43c0-.722-8.285-1.062-25.884-1.062h-25.883zm208.963-11.743c-1.171 3.052-.653 6.168 1.324 7.957 4.529 4.099 10.777-2.218 6.421-6.492-2.78-2.728-6.957-3.518-7.745-1.465m-150.636-.091c0 .942 22.893 43.27 24.557 45.404.296.38 5.209-2.229 15.443-8.202l7.5-4.377.6-15.37c.329-8.454.394-15.933.143-16.621-.348-.952-6.146-1.25-24.35-1.25-13.141 0-23.893.187-23.893.416m51 14.927c0 8.611.221 15.657.491 15.657.456 0 16.437-8.514 36.427-19.407 15.013-8.181 15.979-10.593 4.242-10.593-4.312 0-15.337-.296-24.5-.657l-16.66-.657zm-56.301-10.63c-1.306 2.083-4.772 7.837-7.702 12.787-2.931 4.95-7.73 13.015-10.663 17.922-2.934 4.908-5.334 9.192-5.334 9.521s6.412 3.68 14.25 7.447l14.25 6.849 11.25-5.689c6.188-3.129 11.25-6.145 11.25-6.702s-2.617-5.588-5.815-11.18c-3.198-5.593-8.46-15.483-11.695-21.98-3.234-6.496-6.227-12.025-6.65-12.287-.422-.261-1.836 1.229-3.141 3.312m-101.699.801c0 .865 2.151 4.541 9.06 15.486 9.1 14.416 14.252 23.431 21.431 37.5 3.367 6.6 8.11 15.375 10.539 19.5 2.428 4.125 4.336 7.775 4.239 8.111s.982 1.138 2.397 1.783c2.317 1.055 2.488.994 1.722-.611-.468-.981-.998-14.247-1.177-29.48l-.326-27.696-6.693-4.228c-3.68-2.326-13.217-7.57-21.192-11.654s-14.928-7.83-15.45-8.325c-1.007-.954-4.55-1.255-4.55-.386m-137.842 2.486c0 1.375.227 1.938.504 1.25.278-.687.278-1.812 0-2.5-.277-.687-.504-.125-.504 1.25m330.818 8.123c-5.762 3.303-14.526 8.175-19.476 10.828s-10.46 5.661-12.244 6.686l-3.243 1.863-.007023 15.103c-.002977 8.307.284023 17.879.639023 21.272.593 5.679.811 6.118 2.75 5.538 5.599-1.675 7.053-3.279 13.06-14.413 12.409-23.003 18.887-34.583 21.539-38.5 3.507-5.182 8.191-13.648 7.779-14.061-.177-.176-5.036 2.381-10.797 5.684m-142.976 42.22c0 14.704.402 26.788.903 27.097.496.307 1.349-.725 1.896-2.293 1.051-3.016 14.698-27.041 18.731-32.976 1.31-1.928 2.17-3.847 1.912-4.264-.258-.418-4.175-2.807-8.706-5.309-4.53-2.502-9.699-5.505-11.486-6.672l-3.25-2.122zm98.5-17.823c-3.3 1.91-7.913 4.464-10.25 5.675-2.337 1.212-4.25 2.609-4.25 3.104s1.508 3.442 3.352 6.55c1.843 3.108 5.492 9.476 8.109 14.151 6.043 10.797 6.601 11.406 8.901 9.724 1.644-1.202 1.713-2.789.955-21.985l-.817-20.69zm-73.501 8.795c-11.832 18.46-23.596 39.422-22.652 40.365.263.263 3.758-1.695 7.766-4.351 8.896-5.894 17.036-10.55 31.137-17.81 5.912-3.045 10.75-5.949 10.75-6.453 0-.505-5.76-3.847-12.8-7.427l-12.8-6.508zm45.121 6.356-10.379 5.587 14.879 7.705c8.184 4.238 17.115 8.997 19.846 10.577l4.966 2.872-2.605-4.456c-1.433-2.451-5.168-9.181-8.301-14.956s-6.22-11.043-6.861-11.708c-.904-.937-3.491.044-11.545 4.379m-27.12 13.686c-14.082 6.995-24.159 12.555-31.454 17.353-2.724 1.793-5.424 3.435-6 3.65-.726.271-.723.736.008 1.519.733.785 12.921 1.274 40 1.606l38.946.476 5.299-5.098c2.914-2.804 5.164-5.196 5-5.316-3.104-2.262-37.502-20.562-38.484-20.473-.448.04-6.44 2.867-13.315 6.283m93.593 9.493c-.289.467-4.478 1.121-9.309 1.453-10.39.714-18.554 2.725-26.784 6.598-7.906 3.72-16.334 10.568-17.153 13.936-.356 1.465-1.818 4.014-3.249 5.664-1.43 1.651-4.838 8.176-7.573 14.5l-4.973 11.499-.026 17.012c-.025 16.602.046 17.192 2.974 24.493 2.512 6.265 4.3 8.791 11 15.538 8.385 8.444 19.795 16.243 28.719 19.63 2.905 1.102 5.869 2.49 6.587 3.084 2.157 1.785 16.052 2.011 26.461.432 13.394-2.033 29.182-9.655 36.903-17.816 4.619-4.881 15.551-28.47 16.857-36.373 2.607-15.774 2.748-18.066 1.534-25.014-1.978-11.323-11.652-27.712-23.09-39.114-7.574-7.552-7.569-7.549-23.343-12.407-13.749-4.235-14.722-4.43-15.535-3.115m-176.143 2.056c-.522.499-4.325 1.404-8.45 2.011-11.533 1.698-24.445 8.549-34.079 18.083-4.168 4.125-8.396 9.075-9.394 11-12.219 23.547-13.368 31.108-8.091 53.252 1.976 8.295 3.492 11.748 5.157 11.748.7 0 1.566.924 1.924 2.054 1.165 3.67 12.434 14.726 20.808 20.413 11.581 7.866 31.499 14.921 35.983 12.745 1.206-.584 7.19-1.958 13.3-3.051 12.114-2.169 19.557-5.335 29.892-12.716 10.33-7.377 14.581-13.164 19.644-26.743 2.991-8.023 3.047-8.496 2.542-21.702-.568-14.874-1.867-20.435-7.362-31.5-6.051-12.186-13.529-18.44-32.356-27.057-11.164-5.109-23.672-9.443-27.255-9.443-.722 0-1.741.408-2.263.906m5.742 20.169c.197.591.786 1.075 1.308 1.075s1.111-.484 1.308-1.075-.391-1.075-1.308-1.075-1.505.484-1.308 1.075m151.037.594c-3.375 1.358-5.394 10.285-3.238 14.315.546 1.019.714 3.239.375 4.934-.482 2.411-1.136 3.082-3.006 3.082-3.123 0-6.538 5.367-5.701 8.959.767 3.294 4.136 5.991 7.518 6.019159 5.637.046841 9.427-10.335159 4.823-13.210159-2.441-1.525-2.583-2.768-.316-2.768 3.285 0 10.539-4.318 12.41-7.387 4.541-7.446.386-14.74-8.278-14.534-1.824.043-3.888.309-4.587.59m-161.229 1.331c0 .55.45 1 1 1s1-.45 1-1-.45-1-1-1-1 .45-1 1m14 0c0 .55.402 1 .893 1 2.089 0 1.94 3.356-.281 6.322-3.309 4.419-3.886 6.948-2.64 11.575 1.247 4.632 5.115 8.103 9.028 8.103 5.461 0 11-6.982 11-13.864 0-3.85-5.807-9.136-10.035-9.136-1.969 0-2.965-.504-2.965-1.5 0-.825-.675-1.5-1.5-1.5s-1.5-.45-1.5-1-.45-1-1-1-1 .45-1 1m147.049 4.129c-1.526 2.485-1.88 4.159-1.349 6.371.396 1.65.693 4.194.659 5.653l-.062 2.654 4.073-1.438c5.985-2.111 8.63-4.999 8.63-9.421 0-4.304-1.458-5.824-6.352-6.618-3.196-.518-3.725-.254-5.599 2.799m-167.499-.335c-4.704 1.621-5.013 1.954-6.242 6.706-1.591 6.15-.956 9.579 2.392 12.927 3.89 3.89 9.486 3.587 13.821-.748 6.143-6.143 5.698-14.176-.96-17.351-1.912-.912-3.243-2.033-2.959-2.493.724-1.171-.381-.996-6.052.959m191.45 1.453c-2.64 1.371-3.72 5.749-2.559 10.373.628 2.501 5.157 5.38 8.465 5.38 1.91 0 1.938.191.585 4.027-1.699 4.813-.644 8.611 2.739 9.862 2.839 1.051 7.491-.499 8.791-2.928 2.513-4.695.26-9.111-5.365-10.515-2.566-.641-2.781-1.015-2.203-3.828 1.738-8.442 1.725-9.147-.186-10.876-2.619-2.371-7.276-3.049-10.267-1.495m-20.531 1.803c-.95 1.538.351 2.53 1.635 1.246.718-.718.735-1.277.052-1.699-.56-.346-1.319-.142-1.687.453m4.074-.119c-.683 1.105.894 2.299 1.818 1.375.95-.951.773-2.306-.302-2.306-.518 0-1.2.419-1.516.931m-175.244 1.175c-3.739 1.081-3.916 1.301-4.753 5.902-.525 2.886-.187 3.969 1.95 6.242 3.444 3.663 7.37 3.611 11.398-.151 4.024-3.759 4.209-8.086.471-11.026-2.853-2.244-4.165-2.384-9.066-.967m24.701-.412c-4.678 1.672-5.548 9.849-1.481 13.916 3.465 3.465 7.232 2.908 10.199-1.508 3.345-4.98 3.023-8.68-.968-11.113-3.272-1.995-4.989-2.282-7.75-1.295m143 .306c0 .55.45 1 1 1s1-.45 1-1-.45-1-1-1-1 .45-1 1m25.75-.311c-1.853.485-2.446 2.311-.75 2.311.55 0 1 .498 1 1.107s-.725.829-1.611.489c-1.18-.453-1.448-.192-1 .974.336.877.611 1.995.611 2.486 0 .986 5.257 3.944 7.009 3.944.61 0 .856-.41.546-.911-.31-.502.214-2.267 1.165-3.924 1.652-2.878 1.645-3.104-.151-5.088-1.834-2.028-3.26-2.318-6.819-1.388m-166.25 2.311c-.34.55-.141 1 .441 1s1.059-.45 1.059-1-.198-1-.441-1-.719.45-1.059 1m167.5.938c0 .516.9.87 2 .787s2-.505 2-.938-.9-.787-2-.787-2 .422-2 .938m-168 2.062c0 .55.45 1 1 1s1-.45 1-1-.45-1-1-1-1 .45-1 1m152.229 4.617c-1.831.812-4.229 5.848-4.229 8.879 0 4.001 4.139 7.504 8.866 7.504 7.181 0 11.701-8.608 7.345-13.988-1.788-2.208-9.108-3.671-11.982-2.395m3.049 2.476c-2.537.938-4.278 3.845-4.278 7.141 0 6.58 9.507 6.488 11.808-.114 1.718-4.928-2.518-8.881-7.53-7.027m-22.243 5.841c-1.644 3.072-1.211 5.901 1.091 7.134 4.415 2.362 9.271-2.59 6.894-7.03-1.449-2.708-6.556-2.774-7.985-.104m40.53-.006c-3.66 4.044 1.406 9.631 6.002 6.62 3.034-1.988 3.123-4.951.21-6.991-2.905-2.035-4.099-1.964-6.212.371m-203.881 2.521c-7.112 2.536-10.684 7.528-10.684 14.93 0 6.835 1.349 7.621 13.071 7.621 5.461 0 9.929-.386 9.929-.858 0-.86-9.366-2.142-15.647-2.142-3.334 0-3.353-.027-3.349-4.75.007-9.344 4.343-12.828 15.019-12.069 3.427.244 4.371.671 4.025 1.819-.248.825-.622 4.262-.83 7.637-.375 6.074-.345 6.155 2.952 7.926 4.436 2.383 29.586 3.43 30.943 1.288.471-.743.863-4.223.872-7.733.014-5.979-.201-6.585-3.407-9.609-4.047-3.817-7.577-4.705-14.41-3.625-6.244.987-9.917 3.321-11.709 7.441-1.315 3.023-1.383 3.054-1.42.648-.021-1.391.708-3.594 1.621-4.897 1.559-2.227 1.548-2.451-.192-3.723-2.371-1.734-11.804-1.68-16.784.096m22.305 7.801c-1.125 1.845-1.983 5.029-1.985 7.364l-.004 4.114 4.64.636c2.551.35 7.726.636 11.5.636h6.86v-5.777c0-8.973-1.354-10.223-11.071-10.223-7.906 0-7.972.022-9.94 3.25m178.011.911c0 .767.933 2.193 2.072 3.169 1.644 1.407 2.017 2.746 1.804 6.472l-.268 4.698 6.946-.267c3.82-.147 7.509-.47 8.196-.719 1.733-.626 1.566-7.002-.276-10.564-1.44-2.785-1.874-2.951-7.75-2.964-3.423-.007-7.236-.285-8.474-.616-1.546-.415-2.25-.167-2.25.791m-40.98 1.123c-3.265 1.652-5.103 5.388-4.78 9.716l.26 3.499 7.715.17c4.243.093 8.068.34 8.5.549.432.208 7.124.511 14.872.672 12.285.256 14.309.071 15.822-1.442 1.115-1.115 1.528-2.562 1.155-4.048-2.386-9.508-4.686-10.871-16.833-9.972-11.863.877-12.639 1.144-14.28 4.917l-1.373 3.155-.039-2.691c-.021-1.48.411-2.969.961-3.309 4.006-2.476-7.235-3.616-11.98-1.216m.203 2.273c-1.658 1.161-2.223 2.558-2.223 5.5v3.943h5.361c5.16 0 5.344-.093 4.89-2.465-.259-1.356.005-3.831.587-5.5 1.055-3.026 1.047-3.035-2.668-3.035-2.049 0-4.725.701-5.947 1.557m17.066.16c-1.367 1.103-2.472 3.451-2.897 6.156l-.687 4.373 13.1-.408c7.204-.225 13.321-.63 13.592-.901.756-.756-1.096-8.036-2.368-9.309-.62-.621-5.042-1.255-9.828-1.411-7.14-.232-9.098.037-10.912 1.5m29.104-.135c.334.87.607 3.016.607 4.769v3.187l5.25-.169c5.814-.188 6.781-1.528 4.82-6.685-.924-2.431-1.504-2.684-6.152-2.684-4.269 0-5.03.266-4.525 1.582" fill-opacity=".44"/><path d="m136.5 3.31c-22.342 7.537-40.887 23.493-46.946 40.392-6.831 19.053-8.066 29.907-4.642 40.798 5.953 18.936 11.07 27.448 23.82 39.624 10.34 9.876 14.737 12.335 25.659 14.352 16.734 3.089 26.929 3.059 41.876-.126l2.767-.59-3.926 6.87c-2.159 3.779-6.104 10.577-8.767 15.108-2.662 4.53-6.553 11.28-8.646 15-4.23 7.517-17.101 29.921-18.534 32.262-.697 1.138-1.212.414-2.136-3-1.923-7.107-7.566-18.603-12.586-25.638-5.523-7.74-14.816-15.584-24.122-20.362-3.749-1.925-7.652-4.175-8.672-5-1.472-1.19-5.084-1.5-17.5-1.5-14.5 0-16.26.206-24.056 2.817-16.613 5.564-24.779 10.956-32.91 21.732-6.338 8.399-9.206 14.149-13.036 26.138-2.613 8.179-3.113 11.37-3.213 20.5-.148 13.677.55 17.276 4.914 25.313 5.059 9.319 11.009 16.784 19.893 24.956 9.404 8.651 17.148 13.136 27.763 16.079 6.808 1.887 9.565 2.132 18.5 1.648 12.44-.676 24.176-4.116 30.402-8.913 9.199-7.087 16.887-14.297 21.144-19.83 5.477-7.117 12.422-21.279 13.169-26.855.302-2.247.948-4.085 1.436-4.085s.605-1.125.26-2.5-.328-2.5.039-2.5c1.369 0 33.951 17.27 40.487 21.459l6.789 4.352.719 28.345c.561 22.092 1.026 28.661 2.11 29.781 1.2 1.24 1.613.896 3.007-2.5 1.644-4.005 18.12-32.072 21.251-36.201l1.717-2.264 13.235 6.598c7.279 3.629 13.235 6.94 13.235 7.357 0 .418-4.162 2.849-9.25 5.402-8.828 4.431-21.349 11.656-34.727 20.039l-6.173 3.868-3.925-1.77c-2.159-.973-3.925-2.194-3.925-2.714 0-.519-.843-2.138-1.873-3.598s-6.145-10.754-11.367-20.654c-11.029-20.911-17.712-32.527-24.908-43.292-6.115-9.147-5.733-8.66-6.327-8.066-.261.261 1.369 3.599 3.623 7.416 12.507 21.182 18.743 32.026 23.829 41.442 7.906 14.634 12.911 23.197 14.758 25.25 2.113 2.348 1.638 2.247-6.253-1.331-14.851-6.734-29.139-8.526-40.291-5.056-9.716 3.024-22.878 10.77-28.922 17.021-6.704 6.935-14.029 17.544-18.036 26.125-3.739 8.007-5.534 21.185-4.289 31.491.923 7.648 4.725 22.435 6.158 23.95.494.523.898 1.567.898 2.321 0 2.374 17.168 19.227 24.996 24.537 12.984 8.808 29.977 14.687 38.759 13.409 21.865-3.181 30.329-6.109 41.031-14.193 5.987-4.522 15.214-14.628 15.214-16.663 0-.526 1.065-1.948 2.368-3.159 1.302-1.211 3.658-5.577 5.234-9.702 2.701-7.064 2.859-8.314 2.72-21.5-.178-16.871-2.1-25.286-8.728-38.208-4.279-8.341-9.467-14.501-16.902-20.068l-2.807-2.102 2.307-1.416c1.27-.778 5.182-3.25 8.694-5.492 3.513-2.242 14.15-8.04 23.639-12.883l17.252-8.808 3.862 1.806c5.901 2.759 31.614 16.624 33.741 18.194 1.769 1.306 1.549 1.689-3.742 6.525l-5.621 5.138-16.259-.092c-8.942-.05-25.596-.385-37.008-.743-15.354-.482-20.75-.353-20.75.499 0 .846 9.65 1.15 36.5 1.15 24.689 0 36.5.338 36.5 1.044 0 .574-.788.911-1.75.75-1.322-.222-2.99 2.183-6.821 9.84-8.144 16.274-9.581 21.656-10.184 38.133-.615 16.799.809 27.436 4.64 34.671 3.001 5.667 16.53 20.376 22.547 24.514 2.237 1.538 7.218 4.398 11.068 6.355 15.881 8.072 41.458 8.634 59 1.296 7.257-3.036 19.477-10.955 20.135-13.049.356-1.13 2.322-4.529 4.371-7.554 4.437-6.552 11.409-20.29 12.434-24.5 1.703-6.992 3.526-20.441 3.543-26.122.043-15.157-11.711-38.652-25.286-50.546-7.153-6.268-11.031-8.687-18.697-11.667-10.052-3.907-18.884-5.206-28.157-4.139-4.589.527-8.723.962-9.188.966-.465.005.628-2.58 2.43-5.742 4.778-8.388 8.674-15.466 15.298-27.798 3.235-6.024 7.579-13.652 9.653-16.952 2.073-3.3 5.085-8.504 6.693-11.564l2.922-5.564 2.636 11.032c2.808 11.755 7.136 21.508 11.632 26.213 3.531 3.694 18.377 14.549 23.581 17.241 11.261 5.825 40.323 10.353 47.469 7.396 19.803-8.195 31.316-17.437 41.88-33.621 2.735-4.188 5.912-10.526 7.061-14.083 4.041-12.507 2.163-32.053-4.819-50.157-4.912-12.738-10.395-19.84-22.591-29.264-6.926-5.351-11.807-7.651-21.587-10.172-7.115-1.834-10.264-2.092-20.413-1.673-12.208.505-18.667 2.186-29.338 7.635-15.801 8.069-31.326 27.752-34.632 43.906l-1.161 5.675-1.787-3.5c-2.674-5.236-15.293-26.588-20.094-34-2.316-3.575-7.136-11-10.711-16.5-6.048-9.302-9.777-15.741-9.777-16.881 0-.263 1.462-.031 3.25.516 4.125 1.263 21.139 1.239 30.146-.044 14.016-1.995 31.519-13.536 39.771-26.225 6.664-10.246 7.77-12.558 10.405-21.744 2.484-8.66 2.641-10.312 2.134-22.484-.672-16.126-2.409-22.686-8.821-33.317-7.016-11.632-16.54-20.176-29.369-26.345-17.937-8.626-28.073-9.844-45.157-5.427-14.965 3.87-25.142 9.213-33.864 17.778-6.439 6.323-7.784 8.319-11.351 16.842-6.505 15.542-7.391 20.215-6.984 36.831l.356 14.5 5.221 10.67c3.569 7.294 7.001 12.593 10.849 16.75l5.629 6.08h-8.58c-4.719 0-20.99.704-36.157 1.564-15.166.86-28.272 1.423-29.122 1.25-1.101-.224.147-2.231 4.341-6.977 4.623-5.231 6.66-8.668 9.485-16 7.093-18.405 8.587-32.527 4.934-46.62-2.882-11.117-6.918-19.492-13.84-28.717-8.131-10.837-10.197-12.522-21.8-17.783-12.578-5.703-19.996-7.637-31.723-8.269-7.928-.427-10.256-.161-16.253 1.862m176.628 2.313c-9.613 2.061-24.831 8.533-32.128 13.663-11.782 8.283-15.328 12.786-20.645 26.214-4.525 11.431-4.769 12.551-5.154 23.629-.707 20.34 4.029 32.768 17.801 46.712 6.94 7.026 19.518 13.856 32.56 17.679 7.763 2.275 10.056 2.537 17.438 1.993 19.045-1.403 29.277-5.075 41.668-14.953 8.115-6.469 10.482-9.668 15.665-21.171 5.06-11.232 7.086-21.681 6.281-32.389-1.091-14.521-2.519-19.727-7.387-26.928-8.579-12.691-18.204-21.015-32.787-28.353-12.72-6.401-23.063-8.294-33.312-6.096m-176.628.67c-2.75.664-6.125 1.923-7.5 2.798-1.375.876-5.819 3.517-9.875 5.869-4.393 2.549-10.527 7.459-15.169 12.145-7.191 7.26-8.102 8.661-11.787 18.131-7.877 20.246-8.805 26.583-5.453 37.264 5.818 18.54 12.588 28.686 27.393 41.054 10.246 8.56 10.981 8.91 23.093 10.995 13.095 2.254 29.316 1.647 40.798-1.527 7.988-2.207 8.945-2.776 15.883-9.435 13.572-13.026 20.633-25.33 23.682-41.26 2.695-14.088 1.054-25.643-5.515-38.827-4.674-9.382-15.371-22.436-20.765-25.34-11.214-6.038-18.407-9.258-23.785-10.646-8.075-2.085-24.706-2.74-31-1.221m182.501 12.83c-1.375.549-3.434 1.874-4.575 2.946-1.769 1.663-2.539 1.788-5.232.849-7.553-2.633-15.31 6.34-12.411 14.358 1.036 2.867.927 3.87-.79 7.237-3.553 6.971-1.832 14.068 3.997 16.483 2.56 1.06 3.718 1.03 6.798-.176 3.626-1.421 3.766-1.389 6.038 1.363 1.891 2.29 3.128 2.817 6.615 2.817 2.702 0 5.184-.704 6.708-1.903 1.581-1.243 3.353-1.724 5.116-1.387 8.714 1.666 17.554-7.759 13.327-14.209-1.496-2.284-1.445-2.557.912-4.914 1.71-1.71 2.496-3.598 2.496-5.994 0-6.935-3.688-10.926-10.093-10.926-2.307 0-3.383-.618-4.199-2.409-2.061-4.523-8.906-6.448-14.707-4.135m2.999 3.604c-.825.285-2.959 1.898-4.742 3.585l-3.243 3.066-3.662-1.747c-2.989-1.425-4.172-1.534-6.442-.594-3.724 1.542-5.338 6.141-3.723 10.607 1.071 2.962.965 3.564-.994 5.65-2.209 2.351-3.036 8.899-1.429 11.306 1.675 2.508 4.794 3.309 7.298 1.875 4.408-2.526 4.922-2.695 6.437-2.113.825.316 1.5 1.689 1.5 3.05 0 2.939 3.351 5.588 7.068 5.588 2.71 0 5.932-2.686 5.932-4.945 0-.883.708-1.061 2.25-.567 6.075 1.946 8.596 1.757 11.193-.84 2.856-2.857 3.18-5.242 1.085-8.007-1.526-2.015-.791-4.125 2.722-7.807 2.268-2.377 2.218-5.034-.149-7.958-1.528-1.886-2.801-2.324-6.5-2.234-3.773.092-4.601-.206-4.601-1.654 0-3.904-5.984-7.651-10-6.261m-176.09 3.523c-4.744 3.633-6.719 7.914-6.834 14.818-.126 7.575 2.379 14.071 7.294 18.915 4.047 3.988 4.361 4.658 3.942 8.425-.25 2.251-1.154 5.752-2.008 7.78-1.79 4.254-1.272 7.396 1.757 10.647 2.036 2.186 2.229 2.213 4.047.567 3.008-2.722 4.417-8.711 3.097-13.155-.613-2.061-1.303-5.873-1.534-8.472-.397-4.47-.241-4.831 2.893-6.68 4.697-2.771 6.696-7.285 7.232-16.33.562-9.461-.708-12.964-6.116-16.882-5.173-3.747-8.512-3.658-13.77.367m1.642 5c-4.802 4.222-5.245 15.71-.865 22.396 6.791 10.363 19.769-8.129 13.803-19.666-2.774-5.364-8.554-6.584-12.938-2.73m169.448 1.75c-2.244 2.244-2.512 3.565-.923 4.547.592.366 1.994-.32 3.116-1.524 1.54-1.652 2.318-1.906 3.174-1.032.849.868.443 1.713-1.617 3.371-2.955 2.378-3.579 5.705-1.408 7.507 1.509 1.252 2.658.53 2.658-1.671 0-.808 1.125-2.511 2.5-3.786 2.669-2.473 3.266-6.246 1.3-8.212-1.851-1.851-6.578-1.422-8.8.8m1.667 16.667c-.367.366-.667 1.523-.667 2.569 0 2.854 4.402 1.953 4.82-.986.235-1.657-.182-2.25-1.584-2.25-1.046 0-2.203.3-2.569.667m-12.352 13.34c-4.635 1.868-5.958 9.729-2.092 12.436 5.184 3.632 10.777.368 10.777-6.288 0-5.873-3.397-8.278-8.685-6.148m-.821 4.002c-.342.555-.33 1.931.027 3.058.821 2.585 4.803 2.25 5.317-.447.541-2.835-3.873-4.991-5.344-2.611m-6.923 10.562c-3.02 3.021-1.282 7.429 2.929 7.429 2.68 0 4.5-1.82 4.5-4.5 0-4.211-4.408-5.949-7.429-2.929m-146.571 2.429c0 1.1.402 2 .893 2 1.124 0 2.173-2.601 1.371-3.402-1.203-1.204-2.264-.547-2.264 1.402m148.5 0c-.34.55.11 1 1 1s1.34-.45 1-1-.79-1-1-1-.66.45-1 1m-56.5 46.102c-5.225.449-18.037 1.02-28.47 1.267-10.994.262-19.106.86-19.295 1.425-.178.535 4.983 3.904 11.47 7.485 6.487 3.582 16.736 9.293 22.774 12.692l10.979 6.181 3.521-1.655c1.937-.91 11.911-6.428 22.165-12.262l18.643-10.607-3.885-2.814c-3.789-2.745-4.185-2.811-16.143-2.671-6.743.078-16.534.51-21.759.959m-52.478 5.862c-.328.531 1.597 4.018 4.278 7.75s6.383 9.486 8.228 12.786 5.101 8.578 7.237 11.729l3.883 5.73 4.676-2.401c2.572-1.321 8.147-4.394 12.39-6.83l7.713-4.429-2.713-1.358c-1.493-.747-7.889-4.346-14.214-8-16.139-9.321-28.511-15.941-29.792-15.941-.6 0-1.358.434-1.686.964m87.978 3.962c-3.3 2.067-9.15 5.564-13 7.772-18.781 10.769-22.92 13.273-21.969 13.287.566.008 6.349 3.19 12.849 7.07 13.556 8.091 11.657 8.502 18.735-4.055 2.326-4.125 6.678-11.427 9.672-16.227 7.76-12.44 5.516-15.241-6.287-7.847m-92.077-.585c-.511 1.332-2.299 48.874-1.861 49.471.25.341 14.765-6.891 23.226-11.572l5.289-2.925-3.64-5.408c-2.002-2.974-5.463-8.557-7.691-12.407-9.043-15.623-13.848-21.004-15.323-17.159m106.916 7.141c.364 4.301.679 16.189.702 26.419l.041 18.599 6.709 4.082c3.69 2.245 13.234 7.778 21.209 12.296 7.975 4.517 15.625 9.141 17 10.274 2.243 1.848 2.089 1.828-1.5-.198-2.2-1.242-9.175-5.162-15.5-8.711s-14.977-8.431-19.227-10.848-7.962-4.395-8.25-4.395c-.729 0-.632 24.992.107 27.75l.603 2.25h24.384c13.41 0 24.383-.36 24.383-.8s-.562-1.367-1.25-2.059c-1.002-1.01-.903-1.127.5-.593 3.159 1.202 1.945-2.647-4.116-13.048-11.543-19.811-18.953-32.217-26.58-44.5-4.268-6.875-8.817-14.579-10.109-17.121-1.291-2.541-3.157-4.852-4.146-5.136-.99-.284-2.659-.868-3.71-1.298-1.816-.744-1.878-.394-1.25 7.037m-111.847-5.717c-.554.404-2.327 3.21-3.94 6.235s-4.81 8.425-7.103 12c-2.294 3.575-6.065 9.875-8.382 14-4.871 8.676-5.675 10.046-16.205 27.62-6.678 11.144-9.335 17.38-7.406 17.38.946 0 10.344-5.86 14.615-9.114 2.445-1.862 9.998-6.725 16.784-10.807 6.787-4.081 12.485-7.906 12.664-8.5.777-2.582 1.533-49.577.797-49.564003-.449.009003-1.269.346003-1.824.750003m104.103 11.792c-3.247 5.469-7.653 12.811-9.791 16.316-2.137 3.506-3.98 6.777-4.095 7.269-.115.493 4.291 3.799 9.791 7.347l10 6.451.281-12.027c.155-6.615.155-17.264 0-23.663l-.281-11.636zm-234.324 9.87c-10.034 2.655-21.798 8.313-25.906 12.459-3.931 3.968-12.185 15.589-14.84 20.894-1.298 2.596-3.636 8.995-5.193 14.22-2.393 8.029-2.822 11.204-2.767 20.5.058 9.762.368 11.652 2.757 16.795 7.238 15.58 28.984 38.029 37.941 39.168 1.23.157 5.912 1.242 10.404 2.411 4.988 1.299 11.215 2.123 16 2.118023 7.678-.007023 22.972-2.937023 24.207-4.637023.344-.473 2.62-2.209 5.057-3.858 16.331-11.046 32.09-32.904 35.509-49.251 3.332-15.932-2.915-35.143-16.416-50.481-4.282-4.865-18.593-15.11-27.199-19.471-4.797-2.43-6.566-2.728-17.825-3.004-10.703-.261-13.827.046-21.729 2.137m340.729.985c-4.675 1.758-9.625 3.792-11 4.521-5.948 3.152-16.831 11.684-19.548 15.324-10.254 13.737-12.096 16.858-13.32 22.563-1.577 7.353-1.499 22.879.118 23.472.922.338.958.77.137 1.646-2.197 2.346 3.739 23.572 8.869 31.708 2.999 4.759 14.071 14.067 24.114 20.274 4.225 2.611 22.22 7.782 32.143 9.237l8.013 1.175 9.786-4.666c5.382-2.566 10.033-4.666 10.335-4.666s4.057-2.473 8.346-5.495c14.64-10.317 25.797-25.007 28.001-36.865 2.526-13.601-.435-31.25-7.925-47.233-5.038-10.752-8.406-14.993-16.841-21.206-13.526-9.964-24.022-13.265-41.638-13.093-9.884.097-12.015.456-19.59 3.304m-163.5 5.076c-6.05 3.548-11.543 6.803-12.208 7.232-.875.565-.213 2.431 2.407 6.78 3.955 6.566 13.742 23.654 18.778 32.787l3.191 5.786 3.498-5.286c5.693-8.607 18.419-29.94 20.692-34.689 1.986-4.148 2.008-4.476.375-5.678-4.079-3.003-22.947-13.418-24.277-13.401021-.801.010021-6.406 2.921021-12.456 6.469021m156.965 7.442c-2.905 1.208-4.197 3.069-4.908 7.07-1.218 6.849 5.713 12.957 10.886 9.594 1.733-1.126 2.46-.712 6.712 3.822 3.666 3.908 4.604 5.546 4.057 7.084-.738 2.072-.803 10.514-.109 13.98.328 1.638-.437 2.189-4.43 3.191-5.983 1.502-7.388 2.639-8.575 6.937-1.937 7.013 2.722 14.392 9.087 14.392 8.305 0 13.585-8.137 10.172-15.677-.951-2.102-1.759-4.253-1.794-4.778s2.297-.829 5.19-.675c4.648.246 5.585-.054 8.143-2.612l2.891-2.891 4.537 3.361c2.899 2.148 4.765 4.402 5.171 6.247.737 3.359 1.953 4.498 5.776 5.411 6.008 1.436 10.291-7.824 5.729-12.386-2.437-2.437-3.965-2.501-7.757-.325-2.844 1.633-3.028 1.601-7.234-1.25-4.279-2.9-4.317-2.979-4.464-9.199-.185-7.783 1.383-9.834 6.143-8.038 8.266 3.121 15.218-6.667 10.802-15.208-2.931-5.668-8.665-6.582-13.604-2.17-2.742 2.451-3.177 3.539-3.398 8.506-.317 7.132-1.773 9.298-4.818 7.166-2.699-1.891-5.788-1.877-10.39.045l-3.656 1.528-4.696-4.626c-4.235-4.171-4.741-5.162-5.149-10.078-.248-2.999-1.088-6.075-1.865-6.836-1.902-1.861-5.956-2.622-8.449-1.585m-185.805 8.058c-7.062 3.804-13.362 7.348-14 7.876-.812.673-1.07 5.489-.86 16.048l.3 15.088h26.95c20.905 0 26.945-.28 26.92704-1.25-.01204-.687-1.52004-3.95-3.35104-7.25-15.274-27.531-20.773-36.735-22.202-37.156-.508-.15-6.702 2.84-13.764 6.644m67.623-1.238c-1.658 3.69-6.826 12.443-17.894 30.306-3.086 4.98-5.448 9.199-5.25 9.375.199.175 11.161.488 24.361.694l24 .375.26-6.5c.143-3.575-.082-10.716-.5-15.869l-.76-9.369-10-6.343c-5.5-3.489-10.57-6.36-11.266-6.381196-.697-.020804-2.025 1.650196-2.951 3.712196m118.757-1.298c-2.452 2.955 1.608 8.915 4.46 6.548 2.027-1.682 1.889-4.338-.329-6.345-2.235-2.023-2.606-2.041-4.131-.203m-335.04 7.03c0 4.064 1.473 7.518 3.206 7.518.625 0 2.016-.787 3.091-1.75 1.43-1.28 1.268-.733-.605 2.041-4.926 7.299-7.801 20.838-4.562 21.484 1.342.268 1.704-.828 2.045-6.186.228-3.582.69-6.788 1.027-7.124.337-.337 1.982.096 3.655.961 4.184 2.164 6.607 1.982 12.008-.899 2.549-1.361 5.872-2.925 7.385-3.476s2.75-1.35 2.7490006-1.776c-.0010006-.426-2.2970006-2.064-5.1030006-3.64-4.298-2.415-5.935-2.796-10.4-2.426-4.293.356-5.194.169-4.751-.986.378-.987-.037-1.312-1.349-1.057-1.233.239-2.596-.661-3.896-2.572-2.982-4.384-4.5-4.422-4.5-.112m377 .006c0 2.099.859 3.971 2.554 5.563 2.392 2.247 2.724 2.303 5.243.89 3.174-1.782 3.883-4.301 2.132-7.574-1.061-1.983-1.977-2.344-5.599-2.207-4.16.158-4.33.289-4.33 3.328m-391 .783c0 .816.634 2.01 1.408 2.653.774.642 2.156 2.746 3.071 4.674 1.962 4.134 5.86 6.024 9.243 4.483 3.222-1.468 2.845-3.401-1.567-8.039-2.549-2.679-4.713-4.042-6.418-4.042-1.416 0-3.285-.273-4.155-.607-1.005-.386-1.582-.065-1.582.878m16 1.611c0 1.1.45 2.278 1 2.618s1-.282 1-1.382-.45-2.278-1-2.618-1 .282-1 1.382m-10.667 4.144c2.093 3.889 5.422 5.861 7.61 4.509 1.684-1.041 1.265-2.174-2.02-5.458-1.692-1.692-4.13-3.077-5.417-3.077h-2.34zm131.167 3.609c-4.95 3.06-12.07 7.656-15.822 10.214s-9.101 6.078-11.886 7.823c-9.714 6.084-10.159 5.905 14.704 5.932l22.504.025v-14.815c0-8.147-.113-14.798-.25-14.778045-.137.020045-4.3 2.540045-9.25 5.599045m-113.162-2.636c-3.359 1.354-4.047 5.009-1.354 7.189 1.231.997 3.248 1.812 4.483 1.812 2.378 0 13.432-5.959 13.496-7.275.113-2.347-11.974-3.602-16.625-1.726m347.219 7.224c-2.15 3.068-2.003 9.063.272 11.122 2.851 2.58 7.665 2.113 10.098-.98 3.554-4.517 2.168-9.238-3.324-11.326-3.994-1.518-5.309-1.298-7.046 1.184m-321.563 2.699-8.506.578-8.729 6.821c-4.801 3.752-8.987 7.24-9.303 7.75-.316.511-4.542.929-9.393.929-10.114 0-11.364.768-10.878 6.68l.315 3.82 11.5.309c18.415.496 20.391.035 28.9-6.729l7.333-5.831 6.384.512c4.008.322 6.383.133 6.383-.507 0-1.381-3.507-2.224-9.32-2.24-5.019-.015-9.465 2.347-17.186 9.125l-3.322 2.917-14.336-.278c-13.577-.263-14.336-.384-14.336-2.278 0-1.766.937-2.095 8-2.81 5.279-.534 8.591-.449 9.736.25.955.583 2.433 1.06 3.284 1.06 2.278 0 12.183-5.242 10.799-5.716-.649-.222-2.975.784-5.17 2.236-3.849 2.547-8.887 3.16-7.373.897 1.46-2.185 18.302-14.396 20.479-14.848 1.235-.256 5.987-.642 10.561-.856l8.315-.39-.256 4.828c-.141 2.656.167 4.946.684 5.089.518.143 1.079-2.172 1.249-5.145.335-5.895-.556-7.175-4.808-6.907-1.375.086-6.328.417-11.006.734m350.256 17.328c.63 1.892 3.75 2.161 3.75.323 0-.927-.855-1.573-2.083-1.573-1.222 0-1.912.517-1.667 1.25m-297.583 1.417c-2.464 2.463.078 4.433 16.583 12.847 9.488 4.838 19.05 10.009 21.25 11.493 2.2 1.483 5.057 3.254 6.35 3.934l2.35 1.236-.627-9.838c-.345-5.412-.873-12.202-1.172-15.089l-.545-5.25h-21.761c-11.969 0-22.062.3-22.428.667m46.869 14.833.662 15 3.09 2.628c3.096 2.634 22.615 13.397 23.083 12.728.923-1.32 9.773-16.668 13.179-22.856 2.27-4.125 6.032-10.581 8.359-14.347s4.078-7 3.891-7.187-12.172-.481-26.633-.653l-26.293-.313zm209.986-14.14c-2.374 1.736-2.306 7.593.108 9.359 2.33 1.703 5.84 1.625 7.324-.164 1.87-2.252.838-5.591-2.526-8.176-2.66-2.044-3.317-2.18-4.906-1.019m-152.522-.028c0 .626 8.293 16.004 18.83 34.918 3.601 6.462 7.036 11.75 7.634 11.75s4.274-1.983 8.169-4.407c3.895-2.423 8.945-5.358 11.224-6.52l4.143-2.114v-16.479-16.48h-21.875c-12.031 0-23.281-.281-25-.625s-3.125-.363-3.125-.043m-7.619 10.442c-13.964 22.751-20.539 34.252-20.187 35.309.207.62 6.716 4.171 14.464 7.891l14.088 6.762 11.606-6.178 11.607-6.178-6.09-10.94c-3.35-6.017-8.282-15.304-10.962-20.638-2.68-5.333-5.701-11.06-6.714-12.726l-1.842-3.029zm59.619 6.214v16.022l8.75-4.705c35.688-19.19 41.502-22.755 41.039-25.165-.281-1.459-3.049-1.67-25.052-1.907l-24.737-.268zm39-2.547c-4.125 2.326-10.65 6.04-14.5 8.255s-10.962 6.151-15.805 8.748l-8.806 4.721.306 20.836c.168 11.46.545 21.075.837 21.367.293.291 2.405.055 4.694-.526 4.51-1.145 4.203-.663 24.701-38.842 2.805-5.225 6.496-11.525 8.202-14 2.72-3.945 8.859-15.181 8.138-14.894-.147.059-3.642 2.009-7.767 4.335m-147.666 29.492c.366 6.81.666 19.285.666 27.724 0 15.822.723 18.335 3.418 11.885 1.459-3.493 5.31-10.354 15.339-27.335 3.019-5.112 5.321-9.437 5.116-9.612s-4.648-2.771-9.873-5.768c-5.225-2.998-10.812-6.31-12.416-7.362l-2.915-1.912zm93.844.203-10.23 6.135 1.739 2.615c.957 1.438 4.681 7.808 8.276 14.156 3.595 6.347 7.016 12.33 7.602 13.295.886 1.459 1.538 1.574 3.871.687 2.472-.94 2.732-1.435 2.185-4.17-.342-1.707-.621-11.148-.621-20.979 0-13.971-.283-17.875-1.296-17.875-.713 0-5.899 2.761-11.526 6.136m-22.928 12.15c-5.637 2.843-10.241 5.404-10.231016 5.692.011016.287 5.973016 3.62 13.250016 7.406s15.825 8.466 18.996 10.401 6.009 3.274 6.307 2.977c.492-.493-2.169-5.519-13.24-25.007-2.108-3.71-4.057-6.721-4.332-6.692208-.275.030208-5.113 2.380208-10.75 5.223208m66.25 23.714c-.34.55-3.434 1-6.875 1-14.736 0-29.665 5.055-39.925 13.518-3.685 3.039-6.7 6.195-6.7 7.013 0 .817-1.301 3.282-2.891 5.477-3.761 5.193-10.731 21.13-12.166 27.82-.652 3.041-.982 11.434-.784 19.96.297 12.817.631 15.3 2.591 19.278 1.238 2.511 2.25 5.126 2.25 5.811 0 .686 4.163 5.42 9.25 10.521 9.442 9.467 21.934 17.982 30.25 20.618 2.2.698 4.888 1.88 5.973 2.626 3.916 2.696 29.008 1.112 37.95-2.396 7.329-2.874 18.79-9.663 23.207-13.746 3.1-2.865 6.001-7.404 10.226-16 6.956-14.152 7.52-15.852 9.688-29.19 2.822-17.36-.068-27.2-13.376-45.53-3.306-4.554-8.517-10.696-11.581-13.65-5.239-5.05-6.386-5.63-19.295-9.75-14.33-4.573-16.768-5.037-17.792-3.38m-176.5 1.954c-.825.46-4.65 1.306-8.5 1.88-5.14.766-9.75 2.455-17.349 6.355-8.526 4.376-11.623 6.643-17.581 12.873-12.896 13.485-20.918 33.815-19.179 48.608 1.245 10.593 6.12 27.75 7.621 26.823.449-.278 1.733.977 2.853 2.789 2.898 4.689 14.524 15.605 21.979 20.638 5.686 3.838 10.512 5.887 25.065 10.64 4.953 1.618 9.703 1.877 10.509.573.295-.477 2.459-1.122 4.809-1.432 16.816-2.22 25.021-5.196 35.976-13.044 11.579-8.296 16.464-14.732 21.232-27.969 2.712-7.531 2.795-8.322 2.306-22-.543-15.2-1.984-21.284-7.74-32.686-2.601-5.153-8.65-11.904-15.238-17.007-4.079-3.159-26.268-13.499-34.118-15.899-7.284-2.227-10.223-2.492-12.645-1.142m6 20.046c0 .55.45 1 1 1s1-.45 1-1-.45-1-1-1-1 .45-1 1m150.173 1.827c-2.688 2.688-3.663 8.16-2.228 12.507 1.455 4.408.465 8.666-2.014 8.666-2.784 0-5.933 3.96-5.916069 7.439.019069 3.662.725069 4.861 3.828069 6.496 3.252 1.714 6.363.68 8.417-2.798 2.428-4.111 2.174-6.83-.906-9.685-2.366-2.193-2.44-2.452-.696-2.452 1.072 0 4.246-1.144 7.052-2.543 11.292-5.627 10.62-17.876-1.053-19.192-3.559-.401-4.826-.096-6.484 1.562m-160.173.173c0 .55.45 1 1 1s1-.45 1-1-.45-1-1-1-1 .45-1 1m16.917 1.25c-.046.137-.192 1.203-.323 2.367-.132 1.165-1.22 3.363-2.417 4.885-1.572 1.998-2.177 4.147-2.177 7.732 0 4.263.438 5.373 3.106 7.865 3.486 3.256 5.688 3.576 9.841 1.428 2.929-1.514 7.053-8.602 7.053-12.12 0-4.365-6.121-9.407-11.419-9.407-1.828 0-2.36-.411-1.943-1.5.317-.825.078-1.5-.531-1.5s-1.144.113-1.19.25m143.398 3.215c-1.383 2.901-1.461 4.106-.475 7.396.648 2.161.892 4.675.542 5.585-.532 1.387-.169 1.546 2.242.976 6.64-1.568 11.376-6.161 11.376-11.033 0-2.843-4.701-6.389-8.471-6.389-3.079 0-3.785.47-5.214 3.465m-162.3-1.715c-.008.708-1.268 1.25-2.904 1.25-5.021 0-7.405 2.903-7.884 9.601-.348 4.857-.058 6.361 1.641 8.513 4.239 5.37 13.39 4.156 16.684-2.215 3.108-6.01 2.028-11.549-2.801-14.357-1.788-1.04-3.582-2.375-3.986-2.967-.495-.724-.739-.667-.75.175m188.013 2.363c-3.223 1.287-3.994 2.624-4.013084 6.963-.018916 4.405 3.198084 7.76 8.224084 8.575 3.453.561 3.498.627 2.15 3.211-1.699 3.256-1.796 8.331-.189 9.938 2.018 2.018 6.702 1.389 9.345-1.255 4.056-4.055 2.774-8.625-2.949-10.513-4.203-1.387-5.034-3.284-3.089-7.046 2.315-4.477 1.864-6.789-1.757-8.997-3.631-2.214-4.206-2.279-7.722-.876m-17.028 1.887c0 .55.45 1 1 1s1-.45 1-1-.45-1-1-1-1 .45-1 1m-176.949 1.427c-6.896 3.819-3.958 14.573 3.98 14.573 5.847 0 11.164-8.167 8.204-12.6-2.201-3.296-8.077-4.247-12.184-1.973m25.324-.442c-4.989 2.015-4.525 11.965.694 14.885 5.327 2.98 10.931-1.504 10.931-8.748 0-5.243-5.998-8.409-11.625-6.137m143.625.074c0 .582.45.781 1 .441s1-.816 1-1.059-.45-.441-1-.441-1 .477-1 1.059m3.5-.059c.34.55.816 1 1.059 1s.441-.45.441-1-.477-1-1.059-1-.781.45-.441 1m21.071.571c-2.259 2.259-1.938 5.153.884 7.974 3.445 3.446 5.889 3.157 7.344-.866 1.678-4.639 1.504-6.446-.733-7.644-2.775-1.485-5.681-1.277-7.495.536m2.429 2.488c0 .582.45.781 1 .441s1-.816 1-1.059-.45-.441-1-.441-1 .477-1 1.059m-168 1.941c0 .55.45 1 1 1s1-.45 1-1-.45-1-1-1-1 .45-1 1m151.63 6.25c-3.867 3.506-4.273 7.832-1.091 11.614 3.38 4.017 8.37 4.318 11.966.722 4.951-4.951 4.083-11.488-1.798-13.538-4.44-1.548-6.319-1.299-9.077 1.202m2.467 1.5c-1.169.962-2.528 3.18-3.02 4.927-1.102 3.908 1.036 6.323 5.597 6.323 3.382 0 5.849-2.212 6.823-6.118.522-2.091.108-3.047-2.057-4.75-3.29-2.588-4.583-2.656-7.343-.382m-19.917 3.533c-.585.705-1.512 2.461-2.06 3.901-1.824 4.798 4.651 7.937 8.225 3.987 2.171-2.399 2.1-5.458-.174-7.516-2.189-1.981-4.534-2.127-5.991-.372m39.57.797c-2.37 1.381-2.208 5.195.318 7.482 1.889 1.709 2.302 1.741 4.75.371 3.267-1.827 4.091-5.795 1.586-7.627-2.119-1.55-4.257-1.622-6.654-.226m-203.916 3.443c-2.716.866-5.746 2.772-7.25 4.559-2.18 2.592-2.584 4.056-2.584 9.372 0 3.853.486 6.681 1.25 7.278 1.756 1.373 20.75 1.666 20.75.32 0-.578-1.912-1.056-4.25-1.061-2.338-.004-6.613-.292-9.5-.639l-5.25-.631v-4.41c0-5.161 2.109-9.764 5.242-11.44 2.051-1.098 13.344-1.618 14.303-.659.232.231-.022 1.963-.562 3.848-2.362 8.233.236 17.532 2.986 10.69.834-2.074.909-2.008.968.85l.063 3.101 9.154.649c16.697 1.185 19.529.961 20.216-1.6.983-3.668.714-10.719-.498-13.066-2.509-4.857-5.957-6.61-13.075-6.648-3.687-.02-7.843.483-9.236 1.118-2.966 1.352-5.612 5.071-6.632 9.325-.66 2.751-.733 2.626-.827-1.4-.066-2.852.493-5.079 1.574-6.274 1.273-1.406 1.397-2.132.515-3.014-1.78-1.78-12.117-1.94-17.357-.268m25.474 4.45c-3.251 1.364-5.096 4.912-5.473 10.527l-.335 5 12.392.282 12.392.282-.56-6.172c-.373-4.111-1.172-6.762-2.392-7.938-2.149-2.072-12.697-3.375-16.024-1.981m135.42 4.762c-3.433.498-5.644 3.727-6.17 9.012l-.401 4.037 6.352.68c4.031.432 7.109.276 8.422-.427 1.593-.853 2.069-.812 2.069.178.001.988 3.294 1.278 14.25 1.256 7.838-.016 14.813-.38 15.5-.809 3.331-2.079-.389-12.578-4.869-13.74-1.44-.373-6.686-.391-11.657-.04-10.178.72-12.845 2.195-13.508 7.473-.289 2.292-.439 1.856-.556-1.605-.103-3.044.259-4.75 1.007-4.75.641 0 .842-.324.447-.72-.831-.831-6.839-1.132-10.886-.545m39.272.23c0 .53.9 1.446 2 2.035 1.588.85 2 2.094 2 6.035v4.965h6.878c8.172 0 9.678-1.159 8.782-6.758-.911-5.692-3.538-7.242-12.271-7.242-4.08 0-7.389.432-7.389.965m-41.429 2.36c-1.164.851-1.858 2.728-1.941 5.25l-.13 3.925 5.655.297 5.654.297.346-5.548.345-5.549-4.059.002c-2.232 0-4.874.597-5.87 1.326m16.884 1.13c-1.683 1.683-2.455 3.569-2.455 6v3.545l12.25-.015c6.738-.009 12.799-.365 13.471-.791 1.856-1.18.398-7.997-2.081-9.733-1.423-.997-4.728-1.461-10.408-1.461-7.503 0-8.565.242-10.777 2.455m29.938-.873c.334.87.607 3.058.607 4.861v3.28l5.5-.079c5.361-.078 5.5-.152 5.5-2.928 0-5.272-1.535-6.716-7.142-6.716-4.214 0-4.969.268-4.465 1.582" fill-opacity=".383"/><path d="m140.5 2.484c-18.106 4.896-33.198 14.599-42.152 27.101-2.116 2.954-4.153 5.382-4.525 5.393-1.111.036-6.714 15.44-8.835 24.29-2.75 11.47-2.551 17.706.888 27.794 4.273 12.534 7.308 18.737 12.577 25.702 4.878 6.45 16.85 17.521 23.361 21.603 8.01 5.022 37.93 7.454 52.186 4.242 10.64-2.397 12.793-3.285 18.783-7.746 10.049-7.485 17.367-16.5 21.513-26.502 11.909-28.733 9.557-51.737-7.811-76.382-5.061-7.181-12.828-15.142-14.365-14.724-.341.093-3.545-1.239-7.12-2.961-9.237-4.448-18.042-7.224-26.329-8.301-9.351-1.215-12.144-1.139-18.171.491m171.5-.391c-17.493 3.395-34.026 11.673-42.95 21.504-4.882 5.378-10.767 17.797-14.053 29.655-2.239 8.079-2.736 26.789-.923 34.748 3.65 16.027 19.167 36.105 32.926 42.602 1.925.909 4.175 2.213 5 2.897s4.425 2.277 8 3.54c7.753 2.741 23.554 3.701 34.875 2.12 14.403-2.011 31.905-13.033 39.826-25.08 2.017-3.069 4.019-5.821 4.45-6.118 1.583-1.089 6.624-13.676 8.356-20.863 3.127-12.981.845-35.519-4.714-46.555-6.829-13.557-18.506-24.842-32.758-31.658-14.58-6.973-26.31-9.068-38.035-6.792m1 3.387c-9.027 1.911-22.993 7.628-30.335 12.418-3.391 2.212-8.745 6.633-11.897 9.824-4.879 4.936-6.439 7.512-10.472 17.289-4.708 11.417-4.741 11.573-5.117 24.798-.347 12.209-.158 14.014 2.286 21.854 4.842 15.528 15.963 27.946 32.035 35.77 14.216 6.92 22.739 8.897 34.908 8.096 12.725-.838 19.735-2.556 28.309-6.937 13.944-7.125 21.805-15.183 27.589-28.28 6.656892-15.07 8.217-28.858 5.147-45.452-1.315-7.106-2.312-9.485-6.649-15.86-6.522-9.588-9.888-13.183-17.304-18.481-6.937-4.957-20.848-12.118-27.329-14.068-7.082-2.131-14.155-2.456-21.171-.971m-176.5.54c-7.638 1.53-22.337 10.834-31.596 20.001-9.157 9.065-10.768 11.807-15.865 27.021-4.903 14.635-5.473 19.787-3.077 27.829 3.444 11.566 7.714 20.86 12.351 26.884 5.807 7.543 18.345 19.392 23.829 22.52 10.998 6.273 40.743 7.601 57.431 2.564 7.598-2.293 8.541-2.905 16.008-10.388 9.438-9.459 14.281-16.509 18.229-26.539 8.007-20.344 6.208-42.19-4.836-58.705-4.433-6.629-14.689-18.207-16.128-18.207-.542 0-3.014-1.396-5.494-3.102-12.509-8.606-35.196-13.013-50.852-9.878m181.372 13.932c-1.996 1.084-3.902 2.683-4.235 3.553-.473 1.23-1.04 1.35-2.556.538-8.582-4.593-17.447 4.824-13.61 14.457 1.023 2.57.921 3.372-.713 5.596-1.049 1.429-2.149 4.402-2.445 6.609-.462 3.446-.117 4.482 2.449 7.355 2.422 2.71 3.686 3.324 6.677 3.239 2.029-.058 4.56-.893 5.625-1.857 1.2-1.086 1.936-1.295 1.936-.552 0 .661 1.105 2.305 2.455 3.655 3.22 3.221 9.597 3.403 12.639.361 1.646-1.646 2.822-1.957 5.502-1.454 3.959.743 9.66-1.552 11.939-4.805 2.717-3.879 1.259-11.647-2.187-11.647-1.18 0-1.404.571-.884 2.25 1.745 5.63 1.732 6.876-.091 8.9-2.969 3.296-6.006 4.03-9.914 2.397-3.261-1.362-3.508-1.322-4.602.757-1.557 2.957-2.794 3.663-6.452 3.681-3.488.017-5.921-2.17-6.935-6.235-.821-3.288-1.335-3.352-5.786-.726-2.73 1.611-3.969 1.818-6.075 1.018-4.963-1.888-5.723-9.118-1.44-13.708 1.802-1.931 1.887-2.538.78-5.599-1.596-4.413-.601-8.261 2.692-10.419 2.455-1.609 2.884-1.61 7.234-.02 4.613 1.686 4.63 1.684 6.625-.74 5.103-6.201 14.377-5.052 15.66 1.939.301 1.643 1.021 1.939 4.074 1.676 5.938-.511 10.223 4.869 8.159 10.247-.334.87-1.234 1.582-2 1.582s-1.393.45-1.393 1 .907 1 2.016 1c2.894 0 5.44-5.753 4.579-10.345-.872-4.651-4.691-7.655-9.73-7.655-2.543 0-3.865-.453-3.865-1.326 0-2.406-4.727-5.829-8.652-6.266-2.598-.289-5.026.213-7.476 1.544m-167.504 4.2c-4.777 1.287-9.959 7.635-10.798 13.228-1.362 9.081 3.327 21.354 9.399 24.603 2.787 1.492 2.75 8.687-.075 14.224-1.988 3.898-2.016 4.314-.501 7.491 3.029 6.352 6.483 5.192 8.665-2.913.707-2.625.689-4.389-.059-5.786-.591-1.106-1.308-4.82-1.591-8.255-.512-6.185-.486-6.263 2.739-8.244 4.812-2.957 6.921-7.357 7.557-15.77.602-7.963-.453-11.312-4.859-15.413-3.322-3.093-6.82-4.15-10.477-3.165m-3.127 7.098c-4.37 4.665-5.435 11.956-2.703 18.496 3.229 7.726 7.035 9.167 12.369 4.679 6.084-5.12 7.185-17.504 2.043-22.978-3.064-3.262-8.748-3.358-11.709-.197m170.509.805c-.962.574-1.75 2.147-1.75 3.495 0 2.969 1.084 3.146 2.768.45 1.436-2.299 4.232-2.685 4.232-.583 0 .779-1.191 2.284-2.647 3.345-2.137 1.556-2.519 2.441-1.981 4.583.371 1.479 1.37 2.655 2.254 2.655 1.015 0 1.376-.552 1-1.531-.366-.956.619-2.609 2.622-4.399 2.866-2.561 3.103-3.173 2.213-5.719-.76-2.173-1.706-2.909-3.979-3.096-1.64-.134-3.77.225-4.732.8m.917 17.612c-.367.366-.667 1.523-.667 2.569 0 2.854 4.402 1.953 4.82-.986.235-1.657-.182-2.25-1.584-2.25-1.046 0-2.203.3-2.569.667m-12.904 13.898c-4.809 2.609-4.96 10.649-.235 12.446 6.961 2.646 12.778-6.705 7.472-12.011-2.358-2.358-3.56-2.43-7.237-.435m.259 2.908c-1.906 2.297-.825 5.027 1.992 5.027 1.794 0 2.573-.608 2.797-2.182.408-2.87-3.058-4.93-4.789-2.845m-7.57 11.96c-2.012 3.07-.476 6.567 2.883 6.567 4.537 0 6.564-5.913 2.731-7.965-2.869-1.535-3.852-1.291-5.614 1.398m-146.878.234c-.851 2.219 1.029 4.13 2.559 2.6 1.224-1.224.515-4.267-.995-4.267-.508 0-1.212.75-1.564 1.667m148.576 1.283c.22.66.726 1.166 1.125 1.125 1.196-.124.964-1.495-.325-1.925-.66-.22-1.02.14-.8.8m-244.931 73.071c-11.905 3.29-20.192 7.04-27.155 12.289-3.61 2.721-6.707 5.32-6.882 5.774-.176.455-2.018 2.984-4.095 5.621-5.844 7.419-8.693 12.939-12.281 23.795-3.138 9.49-3.305 10.739-3.28 24.5.026 14.435.041 14.529 3.352 21 7.831 15.305 24.32 32.298 37.442 38.586 13.614 6.524 31.207 8.152 43.68 4.042 13.443-4.43 15.475-5.634 27-15.99 25.001-22.464 32.434-55.012 18.758-82.138-4.233-8.396-12.99-19.561-18.921-24.125-3.322-2.557-10.158-6.916-15.189-9.688l-9.148-5.039-13-.319c-10.647-.262-14.318.045-20.281 1.692m345.781-.048c-8.825 1.386-20.595 6.929-31.236 14.713-5.285 3.866-14.427 15.769-18.912 24.625-6.991 13.805-6.875 35.639.307 57.689 1.963 6.029 9.422 19 10.925 19 .363 0 4.655 2.991 9.538 6.646s10.72 7.47 12.971 8.477c8.063 3.608 22.777 7.04 31.613 7.375 4.788.181 9.099.572 9.579.869 1.512.934 19.935-7.964 26.465-12.782 12.298-9.075 23.473-24.198 27.732-37.53 5.753-18.007-2.574-52.893-16.136-67.606-5.99-6.499-17.597-15.014-23.75-17.424-11.519-4.513-26.36-6.05-39.096-4.052m-338.5 3.035c-14.673 2.227-29.879 8.446-36.245 14.825-5.4 5.411-13.004 16.351-15.871 22.833-1.358 3.071-3.625 10.072-5.039 15.559-3.334 12.943-3.039 26.396.751 34.275 7.553 15.703 29.364 38.263 37.796 39.096 1.434.142 5.983 1.183 10.108 2.314 9.161 2.511 22.278 2.733 31.922.54 18.641-4.24 44.962-33.795 49.687-55.791 2.839-13.218-1.117-29.308-10.745-43.702-6.145-9.186-8.433-11.342-20.864-19.655-10.498-7.02-14.532-8.879-22.082-10.173-7.234-1.241-11.848-1.27-19.418-.121m335 1.243c-18.47 7.579-29.729 14.427-34.93 21.246-1.53 2.006-5.147 7.16-8.037 11.454-4.977 7.393-5.32 8.32-6.473 17.481-.67 5.321-.938 11.338-.596 13.371.343 2.033.798 5.722 1.012 8.197.612 7.067 5.313 21.901 9.08 28.652 3.436 6.159 5.744 8.267 19.834 18.121 11.257 7.872 44.005 16.256 48.16 12.329.523-.493 4.49-2.357 8.816-4.141 10.86-4.479 21.416-11.879 29.935-20.986 13.255-14.17 16.368-22.251 15.398-39.975-.989-18.089-8.744-38.377-18.538-48.5-4.613-4.768-14.553-11.393-21.06-14.037-13.263-5.389-33.564-6.92-42.601-3.212m-13.5 16.749c-2.923 2.923-2.751 9.946.314 12.826 2.482 2.331 5.695 2.775 8.648 1.194 1.522-.814 2.628-.045 6.566 4.564 4.278 5.007 4.626 5.783 3.604 8.027-1.597 3.505-1.405 8.555.426 11.168 2.104 3.004 1.239 3.979-4.259 4.803-6.456.969-9.299 4.181-9.299 10.508 0 6.338 2.86 9.813 8.724 10.6 3.842.515 4.536.25 7.748-2.962 2.97-2.97 3.528-4.225 3.528-7.937 0-2.425-.661-5.282-1.468-6.35-2.575-3.403-1.873-4.18 3.325-3.681 4.322.416 5.228.136 8.224-2.541l3.366-3.008 4.526 3.079c5.301 3.604 5.991 4.457 6.012 7.425.018 2.621 2.706 4.285 6.924 4.285 2.355 0 3.383-.665 4.565-2.95 2.189-4.232 1.894-6.615-1.109-8.977-3.215-2.529-4.185-2.551-7.288-.166-2.394 1.841-2.477 1.829-7.125-1.031l-4.702-2.894v-6.449c0-8.013 1.669-10.155 6.579-8.443 2.626.916 3.708.782 6.415-.795 8.401-4.892 6.841-17.462-2.35-18.933-3.084-.493-4.06-.132-6.75 2.497-3.108 3.038-3.625 4.747-3.235 10.686.13 1.964-.507 3.686-1.793 4.85-1.843 1.668-2.166 1.683-4.277.205-2.505-1.755-5.904-2.09-7.389-.729-.522.479-2.103 1.141-3.512 1.472-2.137.501-3.415-.265-7.711-4.621-4.667-4.733-5.133-5.615-4.978-9.411.117-2.869-.417-4.839-1.694-6.25-2.446-2.703-7.881-2.735-10.555-.061m2.986 3.517c-1.875 2.259-.132 6.884 2.749 7.298 1.676.24 2.355-.327 2.877-2.405 1.189-4.737-2.844-8.245-5.626-4.893m44.866 3.189c-5.13.788-4.107 8.777 1.37 10.703 5.476 1.926 9.058-5.129 4.778-9.409-1.1-1.1-2.337-1.933-2.75-1.85-.413.082-1.942.333-3.398.556m-379.852 3.683c0 1.864.842 4.429 1.871 5.7 1.762 2.175 1.972 2.211 3.572.611.935-.935 1.841-1.7 2.013-1.7s-1.255 2.954-3.172 6.563c-3.715 6.996-5.944 19.157-3.354 18.294.705-.235 1.348-2.555 1.502-5.421.148-2.756.823-6.044 1.499-7.306 1.089-2.037 1.417-2.133 2.899-.854 3.41 2.944 6.297 2.738 14.853-1.059 4.574-2.03 8.317-4.084 8.317-4.563 0-1.456-5.23.315-10.088 3.417-5.1 3.257-9.343 3.716-12.687 1.374-2.064-1.446-2.118-1.751-.771-4.356 2.181-4.217 8.839-5.844 15.238-3.723 3.992 1.324 4.481 1.345 2.884.127-2.538-1.936-7.837-2.875-12.22-2.163-2.885.468-3.426.295-2.951-.944.441-1.149.098-1.363-1.416-.882-1.404.445-2.192.092-2.646-1.185-.812-2.282-3.38-5.319-4.498-5.319-.465 0-.845 1.525-.845 3.389m-14 1.118c0 .686.705 1.833 1.566 2.548s2.274 2.682 3.139 4.372c.866 1.69 2.074 3.404 2.685 3.808 1.655 1.095 7.399.916 8.121-.253.661-1.07-2.581-6.965-4.88-8.873-2.195-1.822-10.631-3.093-10.631-1.602m15.507.625c1.158 3.821 2.693 4.777 2.32 1.445-.18-1.607-.937-3.123-1.682-3.368-1.006-.331-1.17.164-.638 1.923m-10.293 4.906c3.091 4.972 5.464 6.086 8.656 4.063 2.038-1.29-4.49-7.748-8.555-8.464l-3.185-.561zm366.271 7.244c-3.576 3.107-4.296 8.523-1.525 11.468 4.57 4.855 13.04 1.341 13.04-5.409 0-3.308-1.999-5.63-6.233-7.24-2.288-.869-3.142-.679-5.282 1.181m-332.95 6.259c-2.059 1.397-6.823 4.997-10.586 8l-6.842 5.459h-7.619c-9.725 0-11.488.91-11.488 5.928 0 2.596.518 4.057 1.582 4.465 2.271.872 23.161.667 28.019-.275 2.736-.53 6.506-2.714 11.329-6.562 7.168-5.719 7.27-5.762 12.399-5.153 2.844.337 5.78.217 6.524-.267.893-.582-.859-1.118-5.164-1.579-7.657-.82-9.773.016-17.399 6.872l-5.084 4.571h-15.103c-14.498 0-15.103-.081-15.103-2.025 0-1.253.977-2.396 2.565-3 3.701-1.407 14.786-1.22 16.306.275.7.688 1.186.8 1.082.25-.489-2.576.68-3.83 9.735-10.434 9.467-6.905 9.827-7.066 15.75-7.077 3.334-.006 7.75-.29 9.812-.631l3.75-.62.102 5.881c.095 5.444.168 5.621.975 2.381.48-1.925.623-4.738.318-6.25l-.554-2.75h-10.781c-9.897 0-11.088.208-14.525 2.541m-7.035 14.073-3 2.542 4.25-2.099c4.312-2.128 5.263-3.086 3-3.021-.687.02-2.6 1.18-4.25 2.578m367.5-.236c0 .757.709 1.966 1.576 2.685 1.307 1.084 1.731 1.063 2.482-.127.617-.979.372-1.834-.768-2.686-2.177-1.627-3.29-1.584-3.29.128m-41.464 3.582c-1.839 2.032-1.527 6.141.667 8.784 1.676 2.02 6.504 1.512 8.165-.859 1.929-2.753.791-5.828-2.974-8.039-3.737-2.195-3.769-2.194-5.858.114m-81.036 74.622c-8.721 1.225-14.827 2.751-22.872 5.717-4.713 1.737-14.864 9.004-18.328 13.121-1.394 1.657-3.485 3.486-4.646 4.065-1.162.579-3.124 2.844-4.361 5.034-4.128 7.306-10.28 24.33-11.272 31.196-1.352 9.347-1.265 26.101.169 32.486.654 2.914 1.094 5.82.977 6.457-.414 2.256 7.119 13.607 13.561 20.437 9.722 10.305 25.415 20.067 34.274 21.319 1.924.272 6.397.989 9.94 1.593 7.336 1.251 25.257-.108 31.782-2.41 9.512-3.356 26.276-13.268 26.276-15.536 0-.51 2.275-4.67 5.056-9.244 8.771-14.428 10.775-19.41 12.936-32.166 2.411-14.226 2.486-18.394.475-26.117-5.906-22.675-20.73-42.21-38.003-50.082-13.276-6.05-23.177-7.666-35.964-5.87m-178.842 2.999c-13.378 3.239-30.113 15.085-38.418 27.196-7.4 10.79-8.144 12.056-10.79 18.341-2.243 5.329-2.767 8.342-3.197 18.378-.439 10.227-.1850187 13.336 1.721 21.004 3.662 14.742 5.478 18.037 15.482 28.083 19.487 19.572 41.483 28.717 59.947 24.925 3.353-.688 8.173-1.553 10.71-1.921 6.239-.904 17.052-6.268 24.599-12.202 6.153-4.839 14.623-14.714 15.8-18.421.335-1.058 1.066-1.82 1.623-1.694 1.443.327 5.667-11.546 6.938-19.5 1.342-8.403-.214-25.739-3.188-35.498-3.316-10.885-10.103-22.415-16.607-28.212-8.883-7.918-29.243-17.769-42.593-20.61-8.306-1.767-14.335-1.731-22.027.131m188.645 1.073c-.452 1.178-1.489 1.412-4.276.966-6.881-1.1-24.684 3.103-34.627 8.176-4.674 2.384-14.4 10.861-14.4 12.55 0 .638-1.52 3.298-3.378 5.912-5.539 7.79-11.547 23.549-12.782 33.526-1.621 13.1-.502 24.642 3.33 34.34 2.678 6.777 4.329 9.219 10.323 15.272 7.805 7.881 16.454 13.997 26.507 18.742 3.575 1.687 7.724 3.714 9.219 4.503 3.363 1.775 18.185 1.99 28.781.417 10.834-1.608 28.355-10.307 35.056-17.404 1.638-1.735 5.922-9.004 9.519-16.154 5.621-11.171 6.824-14.548 8.554-24 2.627-14.357 2.035-23.415-2.108-32.269-4.648-9.933-13.57-22.457-21.377-30.009-7.597-7.349-10.54-8.715-30.444-14.135-6.5-1.769-7.366-1.817-7.897-.433m-176.284 1.823c-.695.838-2.689 1.523-4.431 1.523-14.814 0-37.422 14.175-46.889 29.4-7.812 12.563-10.552 20.034-11.274 30.733-.537 7.96-.258 10.944 1.858 19.867 2.95 12.441 4.371 16.332 5.673 15.527.527-.326 1.607.66 2.4 2.19 3.759 7.26 23.718 23.731 32.564 26.875 2.519.895 6.605 2.44 9.08 3.432 6.137 2.461 14.645 3.931 15.839 2.737.52-.52 5.787-1.786 11.703-2.813 12.449-2.161 21.567-6.076 32.057-13.763 9.746-7.143 14.394-13.501 18.803-25.724 3.351-9.29 3.986-15.888 2.706-28.096-2.013-19.199-9.202-33.581-21.453-42.923-7.499-5.718-28.024-15.467-37.738-17.924-3.529-.893-7.141-1.835-8.026-2.093-.885-.259-2.177.215-2.872 1.052m6.481 20.523c-.34.55-.141 1 .441 1s1.059-.45 1.059-1-.198-1-.441-1-.719.45-1.059 1m150.752 1.536c-3.422 2.397-4.78 8.25-2.9 12.494l1.538 3.47-.525-4c-1.026-7.827 2.796-12.168 9.126-10.365 5.708 1.627 7.237 7.219 3.411 12.48l-2.097 2.885 2.597-2.806c1.771-1.912 2.598-3.923 2.598-6.316 0-4.761-1.364-6.96-5.128-8.273-4.251-1.482-6.015-1.394-8.62.431m-144.252 2.464c0 .55.477 1 1.059 1s.781-.45.441-1-.816-1-1.059-1-.441.45-.441 1m-25.775 2.671c-1.834.737-4.225 6.988-4.225 11.047 0 1.91.931 4.78 2.068 6.378 1.675 2.352 2.806 2.904 5.953 2.904 5.559 0 8.537-1.694 10.455-5.946 2.537-5.627 1.72-10.023-2.374-12.772-3.199-2.148-8.689-2.893-11.877-1.611m26.227.094c-2.63 1.843-5.452 7.326-5.452 10.592 0 5.044 1.718 8.176 5.643 10.29 3.101 1.67 3.65 1.699 6.11.318 4.22-2.368 7.247-7.622 7.247-12.577 0-3.864-.391-4.581-3.732-6.852-3.663-2.489-7.742-3.225-9.816-1.771m166.548 2.235c-2.18 2.18-2.592 6.026-.97 9.055 1.31 2.449 6.099 4.945 9.488 4.945 2.182 0 2.509-.34 1.967-2.048-.358-1.126-.225-2.589.294-3.25.52-.661 1.236-2.419 1.591-3.906 1.361-5.705-7.879-9.287-12.37-4.796m-15 0c0 .55.477 1 1.059 1s.781-.45.441-1-.816-1-1.059-1-.441.45-.441 1m-177.146 1.128c-4.38 1.605-5.297 9.168-1.54 12.698 5.524 5.188 14.686.995 14.686-6.722 0-6.252-5.531-8.767-13.146-5.976m24.483.349c-4.904 3.434-3.615 12.214 2.199 14.973 4.128 1.959 6.671.984 8.954-3.43 2.375-4.593 1.965-9.492-.955-11.405-3.075-2.015-7.435-2.074-10.198-.138m169.327-.222c-2.914 2.133-1.828 6.734 2.234 9.463 1.869 1.255 3.683 2.282 4.032 2.282 1.367 0 3.387-9.274 2.372-10.895-1.301-2.08-6.287-2.57-8.638-.85m-26.861 9.495c-.678 2.477 1.026 2.899 4.697 1.164 1.682-.795 1.575-.863-.677-.429-2.003.386-2.768.076-3.04-1.234-.296-1.425-.479-1.331-.98.499m13.971.769c-2.778 1.549-4.813 6.465-4.002 9.666.634 2.502 3.464 4.712 6.916 5.403 2.464.492 3.657.058 6.149-2.238 4.282-3.948 4.918-7.376 1.986-10.71-2.878-3.274-7.419-4.145-11.049-2.121m1.015 1.539c-.94.549-2.166 2.65-2.724 4.669-1.266 4.585.718 7.281 5.34 7.258 3.655-.018 4.895-.725 6.445-3.669 1.65-3.134 1.428-5.038-.85-7.316-2.157-2.157-5.473-2.538-8.211-.942m-21.716 3.577c-3.051 3.878-2.7 7.783.933 10.369 3.623 2.58 5.697 2.321 8.056-1.004 3.17-4.469 3.3-6.729.546-9.483-3.282-3.282-6.897-3.237-9.535.118m39.902.93c-2.203 5.795-.208 10.435 4.486 10.435 2.773 0 6.133-2.696 6.97-5.593 1.712-5.929-9.277-10.573-11.456-4.842m-38.186.185c-2.656 3.057-3.074 7.027-.864 8.21 4.445 2.379 9.075.104 9.075-4.46 0-4.783-5.235-7.174-8.211-3.75m39.411.45c-2.592 2.592-.545 8.8 2.901 8.8 3.663 0 5.899-1.895 5.899-5 0-4.273-5.815-6.785-8.8-3.8m-201.7 3.162c-9.065 2.92-11.5 6.101-11.5 15.021 0 6.411-.382 6.188 12.25 7.172 6.19.482 8.75.354 8.75-.437 0-.747-3.194-1.118-9.617-1.118-9.484 0-9.608-.031-9.013-2.25.331-1.238.609-3.93.616-5.984.01-2.684.819-4.636 2.876-6.938 2.675-2.993 3.296-3.203 9.479-3.203 3.64 0 6.842.225 7.116.499.275.275.09 3.015-.411 6.09-1.004 6.17-.475 9.786 1.431 9.786.863 0 1.21-1.791 1.134-5.839-.064-3.355.497-6.98 1.319-8.52.874-1.64 1.068-3.023.5-3.559-1.707-1.612-10.801-2.05-14.93-.72m20.412 2.918c-4.589 3.093-5.977 6.207-5.671 12.72l.259 5.5 13.865.802c7.626.44 14.151.514 14.5.164.349-.351.632-3.803.628042-7.672-.006042-6.934-.062042-7.083-3.916042-10.414-3.533-3.054-4.506-3.38-10.096-3.38-4.783 0-6.952.517-9.569 2.28m2.452 1.89c-2.691 1.303-4.102 4.377-4.953 10.79l-.669 5.04h12.629 12.629v-5.05c0-6.71-2.041-10.508-6.082-11.316-4.584-.917-11.085-.66-13.554.536m175.636 4.291c0 .395 1.012 1.538 2.25 2.54 1.742 1.411 2.25 2.859 2.25 6.411v4.588h6.509c5.271 0 6.732-.355 7.675-1.866 1.2-1.921.314-8.563-1.356-10.179-1.073-1.038-17.328-2.44-17.328-1.494m-43 2.539c-1.407 1.407-2 3.333-2 6.5 0 4.441.043 4.498 3.25 4.35 3.025-.139 3.06-.179.5-.566-2.343-.355-2.75-.893-2.75-3.628 0-4.195 2.341-7.422 5.761-7.941l2.739-.415-2.75-.15c-1.58-.086-3.601.701-4.75 1.85m11.607-.418c-1.05 2.737-.68 11.418.487 11.418.738 0 .869-1.634.402-5.03-.469-3.412-.299-5.502.529-6.5.714-.86.799-1.47.204-1.47-.558 0-1.288.712-1.622 1.582m4.848.873c-1.887 1.886-2.455 3.507-2.455 7 0 2.5.45 4.545 1 4.545s1-1.992 1-4.427c0-6.813 2.863-8.577 13.885-8.558 4.738.009 9.2.387 9.915.84 2.015 1.278 4.431 10.125 2.916 10.677-.669.244-6.841.577-13.716.739l-12.5.297 13.731.216c13.671.215 13.733.206 14.323-2.142.637-2.538-1.859-9.581-3.843-10.842-.666-.423-5.844-.776-11.506-.785-9.608-.014-10.46.149-12.75 2.44m31.552-1.459c-.531.328-.519 1.161.03 2.03.513.811.939 2.936.948 4.724l.015 3.25h5.5 5.5v-3.878c0-2.132-.562-4.332-1.25-4.887-1.432-1.157-9.391-2.075-10.743-1.239" fill-opacity=".636"/></g></svg>