<svg height="558" viewBox="0 0 910 558" width="910" xmlns="http://www.w3.org/2000/svg"><path d="m391.769 1.141c-3.705 1.041-11.658 8.331-17.342 15.893-7.715 10.267-12.175 27.541-10.511 40.713.993 7.859 2.629 13.539 5.497 19.086 1.489 2.878 1.454 3.285-.581 6.863-4.04 7.099-6.517 9.034-12.532 9.786-9.319 1.164-31.916 14.054-30.971 17.667.266 1.018.127 1.851-.309 1.851-1.672 0-4.054 7.174-6.998 21.067-1.681 7.938-4.209 18.211-5.616 22.829-4.742 15.557-5.703 36.537-2.329 50.815 2.751 11.637 2.869 29.41.275 41.225l-1.852 8.437-8 1.743c-4.4.958-12.027 2.041-16.95 2.406-7.415.55-8.766.434-7.884-.679.586-.739 1.293-2.468 1.571-3.843s.837-3.287 1.241-4.25c.51-1.213.279-1.75-.754-1.75-.82 0-1.728.908-2.018 2.017-.671 2.565-7.523 5.629-14.706 6.577-4.839.638-5.35.544-4.251-.786.687-.831 4.108-2.285 7.602-3.23 8.031-2.174 12.649-4.935 12.649-7.563 0-1.124-.663-2.015-1.5-2.015-.825 0-1.5.883-1.5 1.961 0 2.111-5.827 4.385-15.25 5.951-5.218.867-6.324-.076-2-1.706 1.512-.569 5.994-2.263 9.959-3.763 6.833-2.584 12.393-6.674 10.987-8.081-.355-.355-1.445.271-2.421 1.391-.976 1.119-5.343 3.204-9.704 4.633l-7.929 2.597 2.866-2.992c1.576-1.645 3.457-2.991 4.179-2.991s1.313-.438 1.313-.974c0-1.842 5.752-4.026 8.929-3.39 1.925.385 3.071.207 3.071-.476 0-1.598-3.905-3.418-6.102-2.844-2.344.613-2.344.479.008-4.132 2.341-4.589 3.061-10.324 1.37-10.909-1.628-.564-8.754 10.589-11.398 17.84-1.16 3.181-2.957 6.552-3.994 7.49-1.036.938-1.884 2.065-1.884 2.505 0 .439-1.125 1.924-2.5 3.299-2.985 2.985-3.172 4.602-.61 5.272 1.505.394 1.745 1.037 1.181 3.157-.673 2.523-1.149 2.705-9.099 3.485-7.6.746-8.841.612-13.181-1.421-2.635-1.234-4.791-2.802-4.791-3.483 0-1.383 7.19-10.8 9.189-12.036.705-.435 3.988-.812 7.296-.837 5.531-.042 6.042-.234 6.347-2.388.218-1.54 2.016-3.389 5.25-5.4 5.144-3.197 6.518-5.371 2.668-4.22-4.127 1.233-8.239 4.016-9.237 6.251-1.276 2.858-4.751 2.856-6.026-.004-.543-1.218-4.475-4.871-8.738-8.118l-7.752-5.904-3.086-10.132c-5.813-19.082-8.06-25.137-11.367-30.631-1.82-3.025-4.92-8.65-6.888-12.5-2.207-4.317-6.477-10.066-11.142-15-4.16-4.4-8.112-9.237-8.783-10.75-.67-1.512-1.784-2.75-2.475-2.75-.765 0-1.256-1.348-1.256-3.45 0-2.18-.613-3.794-1.666-4.383-1.487-.832-1.541-1.69-.5-7.992 1.64-9.932 1.484-22.478-.334-26.829-.825-1.975-1.5-4.501-1.5-5.613 0-3.827-6.875-16.213-11.699-21.077-4.333-4.368-12.301-8.647-12.301-6.606 0 .449.907 1.103 2.015 1.455 1.108.351 1.775 1.026 1.483 1.499-.293.473-1.762.218-3.265-.566s-3.322-1.428-4.042-1.432c-.72-.003-1.066-.4-.768-.881.596-.965-4.963-.625-16.423 1.005-12.866 1.829-30.436 12.464-37.458 22.673-3.754 5.458-10.895 25.894-13.87 39.697-2.19 10.161-3.952 25.25-3.267 27.979.545 2.169.024 2.545-6.576 4.745-6.682 2.227-7.257 2.651-8.508 6.261-.737 2.13-1.609 7.055-1.937 10.944-1.2 14.221-4.705 24.682-16.272 48.571-4.339 8.961-5.016 9.914-4.618 6.5 2.94-25.242 3.215-26.073 9.945-30.017 3.007-1.762 4.381-3.219 4.282-4.539-.177-2.349-.471-2.363-7.346-.365-3.609 1.049-5.992 2.433-7.098 4.122-4.076 6.219-6.004 31.734-2.676 35.41 1.48 1.636 1.298 2.431-2.414 10.579-6.279 13.777-9.068 29.81-5.187 29.81 1.076 0 1.413-.873 1.191-3.091-.77-7.718 2.549-16.96 17.566-48.909 10.702-22.77 13.119-30.174 14.799-45.336.763-6.879 1.737-12.805 2.165-13.17.429-.365 3.029-1.465 5.779-2.445s7.837-3.309 11.304-5.176l6.304-3.394 4.345 2.546c4.795 2.81 15.407 5.015 16.909 3.513.944-.944-.261-1.342-7.668-2.536-2.094-.338-6.97-2.201-10.836-4.142-5.65-2.835-7.319-4.22-8.503-7.052-1.819-4.353-1.09-11.666 2.224-22.308 1.285-4.125 3.227-11.335 4.316-16.022 4.197-18.059 10.444-26.407 26.464-35.36 11.665-6.519 24.85-9.276 33.401-6.985 2.121.568 1.935.921-3.029 5.736-3.952 3.833-5.734 6.522-7.043 10.631-.965 3.025-3.314 10.282-5.221 16.127-2.821 8.646-3.467 12.169-3.467 18.904 0 7.572.292 8.796 3.426 14.373 4.495 7.999 11.07 14.516 12.823 12.708 1.01-1.042.347-2.094-3.432-5.451-2.575-2.289-5.163-5.428-5.75-6.976-1.513-3.992-1.296-16.089.42-23.365.801-3.399 2.123-9.373 2.937-13.276 2.39-11.466 10.154-23.044 15.452-23.044 2.816 0 13.872 12.207 16.75 18.493 2.355 5.146 2.609 7.053 3.102 23.306.366 12.059.148 19.562-.684 23.539-1.093 5.222-1.579 5.988-4.601 7.25-4.465 1.866-5.889 1.794-13.825-.697-6.426-2.017-6.805-2.032-8.665-.348-1.336 1.209-1.638 2.131-.965 2.943 1.542 1.857-3.514 10.926-8.572 15.379-4.754 4.184-5.412 5.392-2.686 4.929 2.384-.405 10.315-9.592 13.108-15.185 1.266-2.535 2.539-4.609 2.828-4.609.29 0 3.004.72 6.033 1.601 4.503 1.309 6.266 1.389 9.66.438 6.201-1.736 8.349-3.894 9.99-10.039.905-3.389 1.504-4.53 1.56-2.973.05 1.391.752 3.471 1.559 4.624 1.151 1.643 1.275 3.26.577 7.473-3.242 19.557-8.992 32.807-19.733 45.467-2.991 3.525-5.006 6.409-4.48 6.409.527 0 3.738-3.262 7.135-7.25 7.69-9.026 14.2-22.07 17.176-34.414 2.934-12.172 4.151-10.066 2.773 4.798-1.767 19.057-6.994 30.652-18.094 40.135-8.753 7.478-14.321 9.077-21.822 6.268-3.667-1.373-3.617-1.429 3.103-3.49 4.648-1.426 8.746-5.598 7.107-7.237-.884-.884-1.588-.792-2.936.385-3.949 3.446-12.048 5.077-22.828 4.598-11.794-.525-12.895-1.03-21.631-9.923-10.358-10.546-19.813-26.826-19.814-34.12-.001-2.118-.492-3.75-1.13-3.75-2.359 0 .216 10.35 4.768 19.164 8.27 16.013 20.456 29.707 28.318 31.824 2.306.621 7.938 1.215 12.515 1.321 4.578.105 8.132.506 7.898.891-.902 1.482 4.393 3.153 10.13 3.196 4.856.036 6.796-.467 10.177-2.642 17.142-11.027 27.263-29.889 27.338-50.946.027-7.419 1.248-7.947 6.489-2.804 6.546 6.423 18.171 29.024 23.345 45.387 2.218 7.014 3.791 13.383 3.495 14.154-.624 1.626 9.367 12.495 14.274 15.528l3.256 2.012-5.38 5.644c-2.959 3.104-6.147 7.068-7.084 8.808l-1.704 3.164-5.853-2.586-5.853-2.587-.035-9.014c-.058-14.928-1.94-22.476-8.829-35.397-3.337-6.26-6.289-11.603-6.559-11.873s-1.188-.223-2.04.104c-1.256.481-.818 1.561 2.304 5.686 2.12 2.801 5.782 8.843 8.139 13.427l4.285 8.336.513 14.264c.493 13.709.44 14.235-1.382 13.498-1.043-.422-3.104-1.131-4.581-1.575-2.583-.776-19.306.019-40.315 1.917-27.133 2.452-48.738 3.431-50.562 2.292-1.015-.633-2.026-.824-2.246-.423-.542.987-7.347 23.672-8.687 28.963-.59 2.328-1.902 4.677-2.916 5.219-1.013.543-7.636 2.195-14.716 3.672-10.949 2.285-15.488 2.7-30.373 2.781-9.625.052-19.166-.259-21.202-.691-3.326-.707-3.849-1.266-5.146-5.5-1.343-4.385-1.451-4.492-1.548-1.529-.233 7.124 1.838 8.942 12.396 10.881l4 .735-3 .71c-1.65.391-10.65 2.373-20 4.404s-17.423 4.114-17.94 4.629c-1.511 1.504-1.518 4.035-.012 4.613.764.293 3.315-.162 5.67-1.011 2.355-.85 7.657-2.047 11.782-2.662 8.961-1.334 24.097-4.89 25.5-5.99 1.709-1.34 16.24-3.874 34.5-6.016 19.321-2.266 24.549-3.36 25.291-5.294.273-.711 2.232-1.81 4.353-2.441 15.42-4.586 28.317-8.25 30.856-8.764 5.972-1.212 20.675-2.005 21.206-1.145.303.49.821.457 1.169-.076.634-.968 16.585.869 17.762 2.046.771.771 5.669 18.333 7.793 27.946.335 1.512 1.101 2.75 1.704 2.75 1.335 0 .384-8.804-1.768-16.365-.804-2.824-1.716-7.201-2.026-9.726l-.564-4.591 8.362.375c4.599.207 10.295.616 12.658.91 4.7.584 4.823 1.22 1.489 7.768-2.267 4.453-2.509 7.638-.781 10.275.871 1.33 1.926 2.206 2.345 1.947s2.537-.004 4.706.566c2.17.57 9.345 1.33 15.945 1.689l12 .652-15.5 4.722c-23.166 7.058-25.398 7.525-31.806 6.655-6.314-.856-7.615-.39-4.751 1.705 1.363.996 1.511 1.412.498 1.398-3.491-.048-25.913-2.966-29.967-3.9-4.849-1.117-10.653-1.425-9.744-.517 1.349 1.349 44.466 7.737 67.157 9.949 14.24 1.388 17.862 1.403 16.529.071-.229-.23-9.867-1.462-21.417-2.739-18.743-2.073-20.354-2.39-14.999-2.952 6.522-.684 16.55-3.139 34.59-8.468 6.375-1.883 13.125-3.431 15-3.44 1.876-.008 6.11-.667 9.41-1.464 3.405-.822 11.033-1.464 17.639-1.484 9.571-.03 12.018-.347 13.771-1.786 2.078-1.706 11.09-22.583 11.09-25.69 0-3.126-1.996-1.44-4.108 3.47-1.191 2.767-2.374 4.821-2.631 4.564-.256-.256.705-3.024 2.136-6.151 1.432-3.126 2.603-6.305 2.603-7.064 0-1.976-1.952-1.704-2.657.371-.327.962-2.563 6.215-4.969 11.673s-4.374 10.453-4.374 11.1c0 1.72-13.912 2.477-45.519 2.477-25.928 0-27.334-.097-29.82-2.052l-2.609-2.052 1.974-3.683c1.086-2.026 1.974-4.15 1.974-4.721 0-1.191 9.031-3.492 13.708-3.492 1.732 0 3.748-.599 4.48-1.331.733-.733 2.592-1.648 4.131-2.034 2.283-.573 2.763-1.204 2.598-3.419-.422-5.693.787-6.985 7.238-7.734 3.282-.381 6.178-.483 6.434-.226.257.257.004 1.683-.561 3.17-1.229 3.233-1.352 7.574-.215 7.574 1.63 0 5.85-5.564 5.963-7.863.156-3.152 1.129-3.966 2.556-2.135.965 1.237 4.389 1.492 19.668 1.462 10.175-.019 19.018-.356 19.651-.747 1.236-.765 20.255-3.177 37.349-4.737 5.775-.527 16.8-1.836 24.5-2.908s17.825-2.244 22.5-2.604c4.675-.361 15.925-1.489 25-2.509 15.619-1.755 39.471-3.72 72-5.933 17.197-1.17 47.357-1.968 80.5-2.13 19.043-.093 25.239.212 30 1.473 13.329 3.533 25.523 5.529 35.125 5.751l10.125.234 3.12-3.554 3.121-3.554 43.754.231c24.065.127 48.705.73 54.755 1.34s23.6 2.04 39 3.178c35.596 2.629 59.488 5.647 107.112 13.529 2.044.338 3.531.009 4.336-.961 1.737-2.094.615-3.299-3.703-3.976-2.06-.322-13.42-2.153-25.245-4.069s-30.943-4.646-42.483-6.067c-11.541-1.422-21.123-2.723-21.292-2.893-.423-.423 1.379-10.304 3.748-20.558 3.202-13.857 4.5-32.649 3.071-44.453-1.241-10.248-3.508-20.611-5.219-23.851-2.071-3.921-6.891-5.688-15.526-5.692-4.51-.002-10.493-.496-13.295-1.097-4.527-.97-4.953-1.277-3.817-2.75 1.186-1.537 1.135-1.539-.704-.029-1.412 1.16-4.743 1.765-11.57 2.103-7.503.37-10.818 1.037-15.25 3.066-5.752 2.633-6.262 3.211-4.825 5.475.63.993 1.891.78 5.735-.967 4.556-2.07 6.402-2.242 24.519-2.272 21.674-.037 21.989.046 24.691 6.467 3.663 8.705 4.412 81.138.876 84.675-1.167 1.166-4.659-.942-4.659-2.812 0-3.254-5.904-16.593-12.334-27.863-9.313-16.325-15.75-25.575-26.094-37.5-7.188-8.286-11.194-14.084-16.234-23.5-9.889-18.472-12.671-22.484-21.888-31.578-5.014-4.947-8.635-9.394-9.029-11.09-.363-1.558-1.257-3.793-1.988-4.967-1.228-1.974-1.106-2.18 1.619-2.725 4.835-.967 3.992-4.663-2.244-9.835-11.791-9.776-15.878-15.365-28.026-38.326-4.65-8.788-11.217-20.441-14.595-25.894-3.378-5.454-6.67-11.529-7.316-13.5-2.767-8.445-6.993-11.085-17.745-11.085-11.103 0-34.238 4.976-42.331 9.105-4.949 2.525-6.835 5.604-7.398 12.077-.254 2.925-1.88 8.583-3.612 12.573-3.102 7.143-3.125 7.309-1.46 10.801 1.938 4.064 1.904 4.159-4.962 13.982-4.732 6.769-5.04 9.211-1.284 10.193 1.695.443 1.935 1.014 1.327 3.155-.803 2.826-.802 3.412.029 13.004.304 3.515 1.061 7.002 1.681 7.75.727.876 3.31 1.36 7.256 1.359h6.128l-.222 5.25c-.199 4.694-.116 4.933.78 2.251.551-1.65 2.096-8.175 3.431-14.5 1.336-6.325 2.9-13.075 3.476-15 1.3-4.347 4.027-19.719 4.032-22.728.002-1.349-2.09-4.354-5.303-7.618-5.79-5.884-8.712-12.627-8.672-20.019.048-8.79 6.546-12.051 33.349-16.735 12.525-2.189 17.04-2.35 21.573-.77 2.776.968 3.854 2.444 7.487 10.25 2.335 5.016 5.83 11.595 7.766 14.62s7.845 14.05 13.132 24.5c10.637 21.028 17.235 30.596 25.288 36.676 2.949 2.227 5.136 4.414 4.86 4.861s-3.188-.278-6.47-1.612-7.985-2.425-10.452-2.425c-5.783 0-12.592-2.322-19.814-6.758-5.344-3.283-5.893-3.974-7.619-9.596-1.023-3.332-2.256-6.191-2.741-6.352s-.944 4.769-1.022 10.956c-.196 15.652-3.155 22.055-12.367 26.754-9.178 4.682-23.029 6.207-36.441 4.01-6.173-1.011-13.551-.404-13.551 1.114 0 .48 2.888.872 6.418.872 9.655 0 10.052.368 6.055 5.604-1.865 2.443-3.687 6.022-4.05 7.954-.362 1.932-.205 13.06.35 24.727.573 12.042.65 24.458.18 28.715-.456 4.125-.857 11.662-.891 16.75-.057 8.474-.225 9.25-2.006 9.25-7.359 0-36.628-3.512-42.454-5.094-11.936-3.241-37.952-7.975-40.602-7.388-1.375.304-4.75 1.4-7.5 2.435s-6.125 2.131-7.5 2.436c-2.779.616-5.714 5.552-3.95 6.642 1.627 1.005-1.014 2.617-5.55 3.388-7.478 1.27-13.469 3.726-15.627 6.407l-2.151 2.674.653-2.729c.359-1.501 1.061-8.861 1.559-16.355.704-10.564.61-14.614-.417-18.026-1.294-4.298-1.269-4.414 1.079-5.004 2.493-.625 3.35-2.392 1.154-2.378-.687.005-6.381.686-12.652 1.514-6.272.829-11.546 1.364-11.721 1.189-.175-.176 1.709-2.526 4.186-5.225 2.477-2.698 4.763-5.936 5.079-7.196.316-1.259.885-2.29 1.263-2.29.379 0 2.447 1.8 4.595 4 3.177 3.254 4.602 4 7.637 4 3.318 0 3.765.302 4.047 2.727.681 5.874 9.681 6.605 23.45 1.906 10.006-3.415 12.366-5.143 12.366-9.052 0-3.988-4.173-12.495-8.246-16.81-1.955-2.071-3.118-4.371-3.171-6.271l-.083-3-9.5-.5c-7.062-.372-10.217-.986-12.295-2.394-2.505-1.699-9.911-11.366-23.994-31.32-9.215-13.057-13.775-18.349-17.229-19.996-3.047-1.453-3.482-2.121-3.482-5.353 0-2.062.662-4.242 1.5-4.937 1.719-1.426 1.962-5.268.506-7.988-.825-1.543-.396-2.226 2.535-4.037 3.565-2.204 3.809-3.515 1.462-7.879-.441-.821.099-2.849 1.303-4.889 1.336-2.265 2.081-5.336 2.125-8.764.038-2.902.406-5.615.819-6.027 3.59-3.588-4.498-23.001-12.783-30.683-6.714-6.226-26.065-11.018-34.698-8.592m-.269 6.744c-4.729 2.177-15.028 12.693-18.853 19.251-5.701 9.775-7.353 29.068-3.553 41.509 2.322 7.605 2.916 8.597 4.525 7.563 1.874-1.204 4.457-7.043 3.404-7.694-.533-.329-1.714-2.167-2.623-4.084-2.205-4.647-1.395-11.327 1.993-16.448 3.035-4.586 6.018-5.467 5.018-1.482-.345 1.375-.35 2.5-.01 2.5s3.876-2.426 7.859-5.392c9.921-7.389 16.271-14.311 17.796-19.4 1.385-4.623 3.377-5.87 2.329-1.458-.359 1.512-1.718 5.415-3.019 8.672-1.301 3.258-2.366 6.097-2.366 6.309 0 1.228 2.517-1.602 6.042-6.793 5.322-7.837 7.122-8.013 4.49-.438-.691 1.988-.685 1.988.91.026.883-1.086 1.874-3.647 2.201-5.692.579-3.625.699-3.715 4.726-3.581 2.272.075 4.356.387 4.631.692 1.576 1.749 5.299 4.312 4.439 3.055-7.085-10.348-12.934-14.592-24.132-17.508-7.453-1.942-10.922-1.855-15.807.393m35.5 23.973c0 5.068-1.393 5.997-3.704 2.471l-1.793-2.736-.501 2.871c-.785 4.492-3.002 4.412-3.002-.109v-3.811l-3.08 3.737c-3.007 3.648-5.645 4.161-4.466.868.325-.907-.917.113-2.759 2.267-3.474 4.06-6.363 4.245-5.342.341.48-1.833.283-1.791-2.163.46-1.479 1.363-6.412 5.274-10.961 8.691-5.824 4.375-8.83 6.036-10.162 5.613-1.48-.47-2.027.022-2.52 2.266-1.512 6.882 4.131 11.445 6.335 5.123 1.304-3.742 3.703-3.345 3.414.565-.219 2.951-6.036 12.754-10.538 17.758-1.509 1.676-4.302 5.836-6.208 9.244l-3.465 6.196-7.591 1.668c-8.158 1.792-11.958 3.474-21.54 9.533-8.566 5.416-13.542 11.72-14.926 18.907-.606 3.145-1.268 6.506-1.471 7.469s-.061 1.75.317 1.75.783 4.157.9 9.239c.351 15.262 4.474 30.51 19.907 73.619 5.19 14.497 9.174 26.62 8.854 26.94-.32.321-1.22-.065-1.998-.858-1.437-1.461-14.799-37.574-20.329-54.94-3.96-12.435-8.19-33.198-8.276-40.615-.082-7.156-.601-6.165-5.033 9.615-2.81 10.005-3.289 13.463-3.682 26.595-.38 12.687-.124 16.595 1.606 24.5 3.766 17.214 3.708 24.395-.38 46.975l-.646 3.571 7.851-.837c4.319-.461 11.677-1.479 16.352-2.263 4.675-.783 10.975-1.666 14-1.962s10.45-1.007 16.5-1.58c11.468-1.086 25.385-2.789 29.25-3.578 2.041-.416 2.251-1.037 2.266-6.69.008-3.427.667-8.931 1.464-12.231s1.446-8.475 1.443-11.5l-.005-5.5-3.923 4.5c-2.158 2.475-4.702 5.175-5.653 6s-2.872 2.85-4.269 4.5-7.141 7.613-12.763 13.25c-10.17 10.197-10.248 10.25-15.092 10.25-3.899 0-5.337-.497-7.214-2.496-3.028-3.223-1.914-4.365 1.578-1.618 1.478 1.163 3.579 2.114 4.669 2.114 3.054 0 10.6-6.045 20.589-16.495 4.998-5.228 9.499-9.505 10.002-9.505.936 0 8.395-8.505 11.401-13 .92-1.375 3.942-5.824 6.715-9.886 2.894-4.241 5.042-8.503 5.042-10.008 0-1.626-1.707-4.701-4.5-8.106-4.815-5.87-5.548-8-2.75-8 1.745.001 8.856 7.506 11.103 11.718 1.027 1.925 1.545 2.081 3.915 1.179 1.503-.572 7.411-2.355 13.13-3.962 9.41-2.643 10.734-3.314 13.941-7.059 1.948-2.277 4.411-5.896 5.474-8.044 1.802-3.641 1.82-4.027.276-5.734-1.242-1.372-1.494-2.837-1.011-5.861.57-3.565.39-4.113-1.56-4.731-1.902-.604-2.115-1.176-1.552-4.174.358-1.911.93-4.23 1.27-5.153s-2.774 1.523-6.921 5.437c-6.613 6.242-8.138 7.2-12.427 7.806-9.182 1.297-13.95 4.591-30.888 21.337-8.8 8.7-19.038 17.978-22.75 20.617-3.712 2.64-6.75 5.21-6.75 5.712 0 .501-.414.912-.92.912-1.212 0-1.939-7.95-3.107-34-1.133-25.236-2.495-32.701-7.928-43.431-2.208-4.363-3.817-8.131-3.573-8.374 2.131-2.132 9.187 10.316 12.075 21.305 1.348 5.13 3.187 34.955 3.407 55.273l.046 4.273 2.75-1.722c5.953-3.73 19.276-15.727 29.612-26.668 12.196-12.909 19.359-17.656 26.643-17.656 3.91 0 4.805-.565 12.024-7.59 8.609-8.378 11.248-9.196 11.784-3.652l.314 3.242h8.377c4.608 0 8.632-.412 8.943-.915s.201-1.065-.244-1.25c-.445-.184-3.663-4.385-7.151-9.335-3.487-4.95-8.002-11.025-10.031-13.5-2.03-2.475-5.514-7.212-7.742-10.528-2.228-3.315-6.015-8.113-8.415-10.662-3.985-4.233-4.684-4.591-8.044-4.122-2.437.341-3.514.945-3.19 1.791.558 1.452-7.209 3.004-9.889 1.975-1.101-.422-2.071.273-3.088 2.215-1.895 3.62-7.168 8.583-11.653 10.969-4.898 2.606-21.042 2.659-25.754.084-3.547-1.937-7.654-7.62-8.653-11.972-.754-3.285.981-3.732 1.94-.5 1.254 4.23 5.644 9.616 8.706 10.684 1.683.586 6.555 1.066 10.827 1.066 11.499 0 17.7-3.245 23.205-12.143l1.635-2.644-4.267-.64c-3.48-.522-5.343-1.726-10.092-6.525-3.912-3.953-5.624-6.404-5.217-7.467 1.043-2.716 2.875-1.783 9.121 4.641l6.049 6.222 7.979.028 7.978.028 1.022-6.685c.561-3.677 1.337-6.993 1.722-7.368.386-.376.463-1.876.172-3.334-.539-2.691 2.568-7.26 5.629-8.28 1.136-.379 1.112-1.083-.142-4.227-1.419-3.559-1.372-4.033.839-8.401 3.036-5.995 2.559-12.32-1.465-19.443-3.728-6.598-5.234-7.146-5.234-1.904m149.172 10.552c-2.191 5.067-2.236 5.566-.75 8.438.868 1.679 1.578 3.468 1.578 3.976s-2.475 4.558-5.5 9-5.5 8.44-5.5 8.885c0 .446.896 1.369 1.991 2.053 1.56.975 1.971 2.271 1.899 5.991-.116 5.967.825 15.977 1.624 17.269.332.538 3.269.978 6.526.978 5.32 0 5.975-.229 6.445-2.25.288-1.237 1.151-5.175 1.919-8.75s2.356-10.1 3.529-14.5c2.976-11.165 3.795-19.5 1.918-19.5-2.204 0-9.419-7.994-11.496-12.738l-1.855-4.238zm-425.226 34.37c-2.413 1.204-4.281 3.369-6.231 7.22-1.532 3.025-2.207 4.602-1.5 3.504 1.966-3.054 9.098-10.141 10.785-10.718.825-.282 1.251-.785.946-1.119-.304-.334-2.104.167-4 1.113m497.82 17.552c-.541 6.737-3.283 13.16-7.858 18.405-3.081 3.532-3.661 5.274-8.385 25.207-1.752 7.394-3.712 13.619-4.355 13.833-.642.214-1.168-.154-1.168-.818s-1.992-2.96-4.426-5.103c-3.089-2.719-4.932-5.417-6.098-8.928-.919-2.768-3.427-7.061-5.574-9.541-2.146-2.48-3.902-4.958-3.902-5.507s-.359-.776-.798-.505-1.409.115-2.157-.347c-1.904-1.177-7.7 5.977-9.123 11.262-.809 3.003-.826 7.048-.06 14.678.58 5.793 1.361 15.835 1.735 22.316l.679 11.784 6.112-.666c3.362-.367 6.257-.79 6.434-.94s-1.038-4.703-2.701-10.117c-5.186-16.886-6.206-27.886-3.742-40.345l1.286-6.5-.47 10.623c-.285 6.449.033 13.326.809 17.5 1.411 7.593 7.528 25.503 11.285 33.04 2.113 4.237 6.361 15.029 8.186 20.791.471 1.489 1.401.155 3.904-5.604 6.094-14.018 13.347-25.85 15.846-25.85.482 0-.234 1.463-1.591 3.25-3.554 4.68-12.461 23.3-14.232 29.75-3 10.93-4.675 12.738-5.792 6.25-.354-2.062-2.774-9.375-5.377-16.25l-4.733-12.5-6.976-.301c-8.252-.356-9.525.679-9.523 7.742.001 2.508-.518 8.277-1.153 12.822s-.968 8.45-.74 8.679c.229.228 4.46.694 9.404 1.035 12.169.839 15.654 1.445 14.942 2.598-.332.536-2.707.737-5.278.447-5.734-.646-43.239-4.286-52.176-5.064-3.575-.312-10.775-1.638-16-2.948s-15.568-3.537-22.984-4.949c-12.956-2.466-13.68-2.503-18.5-.941-2.759.894-5.444 2.021-5.966 2.503s-1.71.877-2.639.877-2.752.931-4.05 2.069l-2.361 2.068 4.5-.576c2.475-.317 6.637-.861 9.25-1.208 5.594-.744 6.332.691 1.5 2.915-5.1 2.348-9.619 3.526-18.25 4.761-4.4.629-9.8 1.932-12 2.895-4.251 1.861-7.227 4.683-6.112 5.797.544.545 23.174-2.341 33.612-4.286 5.103-.951-.693 2.178-6.401 3.455-4.189.938-6.896 2.447-11.516 6.418-3.321 2.856-7.286 6.225-8.811 7.488l-2.772 2.297 3.25-.626c2.046-.394 3.25-.226 3.25.454 0 1.693 1.608 1.285 5.595-1.421l3.684-2.5h-3.139c-1.727 0-3.14-.45-3.14-1s1.849-1 4.109-1 7.885-.99 12.499-2.201c6.529-1.712 8.657-1.934 9.591-1 .935.935.412 1.201-2.355 1.201-3.28 0-3.549.225-3.45 2.888.101 2.763.302 2.883 4.606 2.75 3.823-.117 4.476.142 4.342 1.725-.137 1.626.348 1.782 3.809 1.229 2.181-.349 6.527-2.021 9.658-3.715l5.691-3.081 12.771.64c16.316.817 21.882 1.88 34.332 6.557 13.363 5.019 31.458 9.003 44.184 9.727l10.288.586 8.471-8.903c4.66-4.897 11.28-13.315 14.713-18.706 7.722-12.131 20.678-30.903 24.875-36.043l3.14-3.846-3.387-3.367c-4.651-4.624-18.714-8.435-31.137-8.438-4.812-.002-8.75-.405-8.75-.896 0-4.698 32.059-.761 40.032 4.916 4.518 3.217 11.475 13.875 10.002 15.324-.89.874-1.749.488-3.556-1.597-1.31-1.512-2.599-2.75-2.864-2.75-.736 0-16.575 23.525-21.544 32-2.419 4.125-6.103 10.031-8.186 13.124-3.36 4.989-3.633 5.837-2.418 7.5 1.284 1.758 3.814 1.918 40.202 2.544 25.104.433 47.493 1.402 63.332 2.742 30.902 2.615 28.18 2.681 27.378-.66-1.151-4.793-9.956-22.303-17.727-35.25-7.026-11.706-10.728-16.696-24.761-33.381-3.09-3.673-8.887-12.836-12.903-20.394-4.01-7.549-8.664-15.75-10.342-18.225-4.161-6.14-12.702-15.083-13.772-14.422-.48.297-.873-.237-.873-1.186s-.243-1.482-.54-1.186c-.296.297-.016 4.621.624 9.609 1.376 10.731.308 20.09-4.001 35.063-3.584 12.452-6.558 19.122-8.527 19.122-2.035 0-1.967-.879.521-6.667 2.972-6.914 7.6-25.625 8.369-33.833.825-8.798-1.819-29.736-4.291-33.985-1.565-2.689-2.388-3.069-7.627-3.515-6.043-.515-9.284-3-3.911-3 2.139 0 2.51-.273 1.602-1.181-.896-.896-2.91-.913-8.368-.068-6.499 1.006-7.601 1.528-11.482 5.431-6.077 6.111-13.983 19.811-16.891 29.266-1.362 4.428-3.199 13.002-4.082 19.052s-1.79 11.195-2.017 11.433c-3.115 3.275-1.209-17.785 2.779-30.721 3.885-12.599 9.984-22.7 18.641-30.874l5.467-5.162-4.383-2.196c-2.411-1.208-6.461-3.924-9-6.036l-4.618-3.839zm-511.076 4.192c-2.891 6.063-5.691 18.6-5.675068 25.414.025068 10.44 1.605068 10.355 2.311068-.123.345-5.123 1.719-13.59 3.054-18.815 1.334-5.225 2.326-9.607 2.202-9.737-.123-.131-.974 1.337-1.892 3.261m491.31 19.588c-3.025 1.08-8.639 2.285-12.476 2.676l-6.975.712 3.639 4.025c2.001 2.214 4.744 6.489 6.096 9.5s3.808 6.742 5.459 8.29l3.001 2.814 2.285-9.314c1.257-5.123 3.115-11.748 4.128-14.722 1.014-2.973 1.843-5.561 1.843-5.75 0-.593-1.337-.255-7 1.769m-206.23 20.557c-.246.457-.407 3.081-.359 5.831.098 5.516 1.898 7.752 2.416 3 .508-4.665 1.692-5.084 6.111-2.16 4.655 3.081 6.342 3.354 5.88.954-.646-3.357-12.795-9.951-14.048-7.625m29.23 8.308c0 .429.996 1.441 2.214 2.249 2.039 1.354 2.121 1.776 1.033 5.321-1.287 4.193-.704 5.359 6.61 13.203 3.444 3.693 6.895 4.11 17.583 2.123 9.191-1.708 9.605-2.137 2.87-2.972-7.848-.972-10.31-2.277-10.31-5.461 0-1.97.63-2.616 3.016-3.093 2.619-.524 2.802-.76 1.391-1.791-.893-.654-1.458-2.058-1.255-3.122.325-1.696 1.384-1.97 8.609-2.224 7.747-.274 8.239-.423 8.235024-2.5-.004024-2.201-.085024-2.211-20.000024-2.361-10.998-.083-19.996.2-19.996.628m299 6.045c-6.698.664-16.705 3.607-15.695 4.616.213.214 1.928-.255 3.81-1.041 1.882-.787 6.788-1.75 10.903-2.14s8.157-1.089 8.982-1.553 1.05-.794.5-.734-4.375.444-8.5.852m10.813-.339c.721.289 1.584.253 1.916-.079s-.258-.568-1.312-.525c-1.165.048-1.402.285-.604.604m-681.618 2.817c.02 1.65.244 2.204.498 1.231s.237-2.323-.037-3-.481.119-.461 1.769m397.569-1.336c.622.622 2.616 1.205 4.433 1.297 7.785.392 9.383.622 10.803 1.554 2.524 1.658-.727 2.951-7.5 2.983-6.515.032-10.5.792-10.5 2.003 0 .906 10.392 2.572 14 2.245 4.714-.428 5.272.556 2.081 3.675-2.023 1.977-4.491 3.168-7.503 3.62-2.468.37-5.28 1.252-6.249 1.96-1.514 1.107-.682 1.389 5.929 2.008 4.229.397 8.82.437 10.203.09 7.248-1.819 8.565-16.951 1.779-20.432-2.813-1.443-18.835-2.362-17.476-1.003m308.645 2.89c4.94 4.337 6.263 11.835 7.491 42.446.814 20.293.734 27.154-.423 36.442-1.294 10.383-1.303 13.217-.037 11.951.475-.475 2.315-13.647 3.268-23.393.322-3.3.988-6.263 1.48-6.584 4.419-2.889 2.823-48.552-2.013-57.589-1.913-3.574-6.197-6.327-9.845-6.327h-3.4zm-704.409.946c0 .55.45 1 1 1s1-.45 1-1-.45-1-1-1-1 .45-1 1m79.671 9.75c-6.433 9.274-21.727 21.607-28.331 22.846-3.656.686-11.34-1.028-11.34-2.529 0-.469-.675-1.112-1.5-1.429-2.264-.868-1.835 1.972.646 4.284 2.475 2.306 9.263 3.586 13.767 2.597 6.777-1.488 22.253-14.474 28.133-23.607 1.625-2.523 2.954-4.885 2.954-5.25 0-1.717-1.972-.31-4.329 3.088m-49.671-1.75c0 1.253 1.061 1.253 3 0 1.213-.784 1.069-.972-.75-.985-1.237-.008-2.25.435-2.25.985m363.5 12c.34.55 3.404.947 6.809.882 4.946-.095 5.588-.272 3.191-.882-4.556-1.159-10.717-1.159-10 0m-16.119 4.619c-.789.325-.654 1.703.457 4.671 1.198 3.199 1.614 8.6 1.732 22.49.086 10.054.384 18.507.661 18.785.278.277 1.073-5.924 1.768-13.78 1.037-11.72.981-24.237-.14-31.535-.19-1.233-2.296-1.53-4.478-.631m-16.381 3.518c0 .549-.825.736-1.833.416-1.009-.32-3.821.139-6.25 1.021-2.429.881-7.209 1.647-10.622 1.7-5.469.087-6.24.343-6.5 2.162-.162 1.135-1.022 2.071-1.909 2.079-2.373.022-4.672 2.247-8.487 8.211-3.549 5.547-4.089 8.116-2.38 11.31.723 1.351.568 4.023-.532 9.185-2.19 10.271-4.597 24.002-4.266 24.333.154.154 5.537-.332 11.963-1.079 6.426-.748 19.251-1.839 28.5-2.424 27.839-1.764 28.568-1.841 29.364-3.129.423-.684.287-2.013-.3-2.955-.824-1.318-.556-2.542 1.169-5.333 1.231-1.992 2.847-3.962 3.591-4.378.743-.416-1.079-.756-4.05-.756-6.004 0-5.624-.527-7.034 9.75-1.658 12.09-3.527.592-3.942-24.25-.152-9.075-.805-18.841-1.451-21.702l-1.176-5.202-6.928.022c-3.925.012-6.927.454-6.927 1.019m-12 4.863c0 .55.45 1 1 1s1-.45 1-1-.45-1-1-1-1 .45-1 1m-9 1.969c0 .532.675.709 1.5.393.825-.317 1.5-.753 1.5-.969s-.675-.393-1.5-.393-1.5.436-1.5.969m-377.685 12.038c-2.446.986-4.335 3.937-4.275 6.677.031 1.397.371 1.208 1.471-.817.787-1.449 2.906-3.579 4.71-4.733 3.293-2.109 2.174-2.771-1.906-1.127m448.685 6.993c-1.333.862-1.333.963 0 .914.825-.03 2.4-.441 3.5-.914l2-.859-2-.055c-1.1-.031-2.675.381-3.5.914m-392.465 8.841c-.343 1.563-3.774 7.935-7.624 14.162-4.17 6.743-6.762 11.942-6.412 12.856.434 1.13 1.201.522 2.907-2.305l2.318-3.841.702 3.746c.387 2.06.561 3.865.388 4.01-.691.583-20.164 3.531-23.32 3.531-1.857 0-3.656.453-3.998 1.007-1.274 2.062 3.099 2.27 13.896.662 6.11-.909 15.311-1.943 20.447-2.297 9.859-.68 10.86-2.329 1.43-2.357-4.618-.013-5.284-.279-5.684-2.265-1.682-8.353-1.624-8.697 2.932-17.335 4.302-8.158 5.524-12.415 3.562-12.415-.506 0-1.201 1.278-1.544 2.841m378.277 6.195c-3.333 1.76-6.812 5.371-6.812 7.069 0 1.563 6.819-2.004 10.321-5.4 4.374-4.241 2.788-4.995-3.509-1.669m-213.812 9.964c-.589 1.1-.845 2-.57 2s.981-.9 1.57-2 .845-2 .57-2-.981.9-1.57 2m228.556 1.366-2.945 2.356 2.215 1.185c2.532 1.355 4.335.677 3.562-1.338-.288-.752-.044-1.664.544-2.027 1.22-.754 1.444-2.544.318-2.53702-.413.00302-2.075 1.06502-3.694 2.36102m35.944-1.026c-2.2.724-5.35 2.061-7 2.971-2.852 1.572-1.8 1.645 21.286 1.481 13.743-.098 23.633-.538 22.783-1.013-.826-.463-3.655-1.022-6.285-1.243-2.631-.221-6.249-.851-8.039-1.401-5.8-1.779-18.415-2.221-22.745-.795m-44.5 2.66c-1.213.784-1.069.972.75.985 1.238.008 2.25-.435 2.25-.985 0-1.253-1.061-1.253-3 0m18 .5-2.5 1.429 2.628.036c1.445.019 3.187-.64 3.872-1.465 1.656-1.996-.509-1.996-4 0m-72.731 6.193c.973.254 2.323.237 3-.037s-.119-.481-1.769-.461-2.204.244-1.231.498m-10.019.996c.962.252 2.538.252 3.5 0 .962-.251.175-.457-1.75-.457s-2.712.206-1.75.457m-8.437.994c.721.289 1.584.253 1.916-.079s-.258-.568-1.312-.525c-1.165.048-1.402.285-.604.604m-228.813 4.533c-3.575.58-10.1 1.151-14.5 1.269s-14.75.782-23 1.475c-8.25.692-18.471 1-22.713.684-5.843-.436-8.048-.24-9.096.808-1.112 1.112-4.294 10.948-8.308 25.683-.393 1.444.115 1.521 4.336.653 2.63-.54 10.094-2.509 16.587-4.375 20.261-5.822 28.896-6.567 46.995-4.052 6.491.901 14.816 1.658 18.5 1.681 3.685.023 10.067.853 14.183 1.845 7.37 1.776 12.702 1.779 9.851.006-.734-.456-5.048-1.812-9.585-3.013s-8.25-2.538-8.25-2.972c0-1.424 2.062-2.102 3.294-1.083.663.548 4.131 1.75 7.706 2.672s8.604 2.578 11.176 3.68c3.073 1.318 5.215 1.704 6.249 1.125 1.252-.701.469-1.55-3.842-4.163-3.902-2.364-7.955-3.732-14.499-4.892-4.996-.885-9.084-1.978-9.084-2.428 0-2.376 15.513 1.006 23.433 5.108 5.631 2.917 11.567 4.06 11.567 2.228 0-1.367-3.311-3.969-7.037-5.53-1.904-.798-4.757-2.565-6.338-3.927-2.947-2.539-7.214-3.668-13.934-3.687-2.381-.007-3.568-.401-3.166-1.051 1.443-2.336 12.718.109 21.804 4.728 4.856 2.468 9.091 4.225 9.412 3.904 1.6-1.6-2.109-5.405-8.233-8.446-16.46-8.173-28.494-10.366-43.508-7.93m87 6.91c-1.375.549-4.633 1.457-7.241 2.017-4.842 1.041-7.385 2.857-4 2.857 3.117 0 12.64-3.074 14.205-4.586 1.681-1.623.633-1.725-2.964-.288m-2.187 5.557c.721.289 1.584.253 1.916-.079s-.258-.568-1.312-.525c-1.165.048-1.402.285-.604.604m6.456.01c.973.254 2.323.237 3-.037s-.119-.481-1.769-.461-2.204.244-1.231.498m-16.822 7.221c.369.597 3.194 1.086 6.279 1.086 6.965 0 6.569-.532-1.088-1.461-4.123-.5-5.663-.389-5.191.375m23.053.086c-.34.55-.141 1 .441 1s1.059-.45 1.059-1-.198-1-.441-1-.719.45-1.059 1m5.729.188c.618 1.854 2.771 2.161 2.771.395 0-.871-.712-1.583-1.583-1.583s-1.406.534-1.188 1.188m-33.729 3.812c-.399.646-.276 1.624.274 2.174.667.667 1.242.609 1.726-.174.399-.646.276-1.624-.274-2.174-.667-.667-1.242-.609-1.726.174m12.092 1.85c-.901 1.459 4.382 2.23 8.408 1.227l3.5-.872-4.168-.103c-2.293-.056-4.835-.358-5.649-.67-.814-.313-1.755-.124-2.091.418m-20.092 3.15c-1.183 1.915.647 3 5.059 3 3.114 0 4.441-.413 4.441-1.383 0-2.279-8.226-3.679-9.5-1.617m19.5 1.79c0 1.165 10.705 2.838 11.712 1.831 1.08-1.08-.157-1.538-6.013-2.227-3.786-.445-5.699-.312-5.699.396m18 1.21c0 .55.45 1 1 1s1-.45 1-1-.45-1-1-1-1 .45-1 1m7.133 6.133c-1.268 2.765-2.103 5.23-1.856 5.478.248.247 1.443-1.858 2.656-4.678 1.214-2.82 2.049-5.285 1.856-5.477-.192-.192-1.387 1.912-2.656 4.677m-55.133-2.133c1.965 1.27 5 1.27 5 0 0-.55-1.463-.993-3.25-.985-2.466.012-2.888.249-1.75.985m15-.437c3.199.705 27.1.994 25.352.306-1.019-.401-7.477-.708-14.352-.683s-11.825.195-11 .377m32 11.437c3.575 1.145 5 1.145 5 0 0-.55-1.687-.955-3.75-.9-3.347.089-3.481.185-1.25.9m-52.75.746c5.912.177 15.588.177 21.5 0s1.075-.321-10.75-.321-16.662.144-10.75.321m38.526-.013c2.352.212 5.952.209 8-.006s.124-.388-4.276-.384c-4.4.003-6.076.179-3.724.39m-22.014 3.974c1.244.239 3.044.23 4-.02s-.062-.446-2.262-.435-2.982.216-1.738.455m63.738 2.876c-2.75.796-9.204 2.341-14.341 3.431-5.138 1.091-17.288 3.977-27 6.412-9.713 2.436-19.346 4.707-21.409 5.047-2.062.339-3.75 1.109-3.75 1.71 0 1.839 8.919.166 36-6.75 36.803-9.4 38-9.735 38-10.625 0-1.097-1.609-.931-7.5.775m8.958 1.167c1.041 2.712 3.399 12.164 4.553 18.25 1.13 5.963 2.47 8.852 3.587 7.735 1.607-1.607-5.767-27.735-7.827-27.735-.542 0-.683.788-.313 1.75m-172.372 9.271c-2.804 6.518-5.693 17.781-6.54 25.492-.582 5.297-.493 5.783.775 4.214.788-.975 2.174-5.82 3.079-10.767.905-4.946 2.743-12.018 4.085-15.714 2.899-7.989 1.77-10.591-1.399-3.225m95.285 11.229c.577 2.15 6.264 27.757 7.227 32.541.253 1.26.844 2.054 1.312 1.764 1.477-.912-6.523-36.555-8.205-36.555-.516 0-.666 1.012-.334 2.25m57.629-.662c-3.025.774-10.113 2.591-15.75 4.039s-10.25 3.077-10.25 3.619c0 .555.986.695 2.25.32 1.238-.366 8.748-2.139 16.691-3.938 7.942-1.799 14.617-3.802 14.833-4.45.483-1.45-.757-1.384-7.774.41m-65.743 6.162c-5.267 11.808-6.915 17.225-5.506 18.096.968.598.778 2.159-.844 6.962l-2.091 6.192h-5.34c-2.937 0-13.133-1.334-22.658-2.964s-24.968-3.931-34.318-5.114c-9.35-1.182-18.782-2.754-20.961-3.492-4.37-1.48-5.43-1.209-3.651.935 1.624 1.957 7.046 3.154 25.612 5.655 8.8 1.186 24.094 3.466 33.986 5.068 17.042 2.759 30.389 3.704 31.839 2.254.362-.362.222-1.183-.31-1.824-.65-.783.653-5.86 3.97-15.474 4.552-13.193 6.271-23.044 4.022-23.044-.407 0-2.094 3.038-3.75 6.75m-57.257.562c0 .855 1.212 1.794 2.75 2.131 10.263 2.246 35.538 4.319 31.75 2.603-1.1-.498-3.717-.937-5.816-.976-2.098-.038-4.78-.586-5.958-1.217-1.179-.63-5.537-1.491-9.684-1.912-4.148-.421-8.78-1.079-10.292-1.462-2.104-.532-2.75-.337-2.75.833m57.571 4.759c-2.19 6.696-1.492 7.393.858.858.994-2.765 1.586-5.247 1.317-5.517-.27-.269-1.248 1.827-2.175 4.659m64.429-2.089c-8.691 1.64-20.42 4.383-23.917 5.593-.857.297-1.055.849-.5 1.397.549.544 6.127-.234 13.917-1.941 7.15-1.567 15.137-3.143 17.75-3.501 3.163-.435 4.75-1.133 4.75-2.091 0-1.723.003-1.723-12 .543m28.835 4.002c-.235 1.551-1.533 2.638-4.335 3.627-9.68 3.418-46.681 14.342-53.5 15.796-14.851 3.166-25.194 6.694-15.5 5.288 14.593-2.118 50.989-11.653 68.067-17.833 7.667-2.774 8.437-3.285 7.854-5.219-1.001-3.322-2.217-4.102-2.586-1.659m-155.835 5.837c0 1.821 19.836 5.225 29.417 5.049l7.083-.131-9.5-1.278c-15.653-2.107-23.617-3.377-25.355-4.044-.905-.347-1.645-.165-1.645.404m96.096 2.12c-1.511.934-.815 4.059.904 4.059 1.464 0 2.466-2.934 1.374-4.026-.501-.501-1.497-.516-2.278-.033m-69.472 182.597c-.342.891.062 1.788.96 2.133 1.867.716 3.911-1.061 2.97-2.584-.981-1.588-3.248-1.328-3.93.451m708.712 22.029c-.834 2.172 1.282 4.215 2.797 2.7 1.28-1.28.487-4.267-1.133-4.267-.585 0-1.333.705-1.664 1.567" fill-rule="evenodd" transform="translate(.5)"/></svg>