<svg height="2920" viewBox="0 0 1852 2920" width="1852" xmlns="http://www.w3.org/2000/svg"><path d="m1726 2c-1.1 1.1-2 2.518-2 3.15 0 .633 2.173 4.57 4.828 8.75 8.184 12.882 10.943 18.348 12.673 25.1.916 3.575 3.599 13.254 5.964 21.508 3.902 13.627 5.978 23.957 8.538 42.492.494 3.575 1.836 12.125 2.982 19 2.417 14.5 3.595 24.858 5.112 44.956.971 12.863.911 14.761-.548 17.231-1.139 1.928-1.355 3.315-.709 4.544.512.973 1.228 4.694 1.592 8.269 2.509 24.676 5.107 35.994 13.77 60 1.687 4.675 4.103 11.425 5.368 15 3.112 8.792 11.036 50.66 12.397 65.5 1.005 10.954 2.571 19.422 12.01 64.947 4.575 22.064 8.787 49.551 9.509 62.053.349 6.05 1.28 15.37 2.069 20.711.79 5.341 1.907 17.491 2.483 27 1.12 18.479 1.577 21.611 7.994 54.789 4.523 23.385 6.339 29.712 11.701 40.771 3.925 8.094 4.43 8.63 7.276 7.726 2.862-.908 2.503-3.127-2.087-12.923-4.297-9.17-6.168-16.703-12.405-49.958-2.842-15.152-3.739-23.056-4.541-40-.549-11.614-1.429-24.041-1.956-27.616s-1.228-13.025-1.558-21c-.688-16.607-6.203-52.415-12.416-80.61-4.665-21.171-7.626-38.664-8.53-50.39-.681-8.833-8.402-50.424-11.13-59.957-.86-3.002-2.606-7.518-3.882-10.036s-5.061-12.662-8.41-22.543c-6.894-20.338-10.698-39.855-8.083-41.471 1.194-.738 1.154-2.168-.274-9.679-.922-4.848-2.16-19.164-2.751-31.814-.592-12.65-1.972-29.075-3.068-36.5s-2.404-16.425-2.908-20c-2.566-18.214-4.518-27.867-8.495-42-2.398-8.525-5.086-18.633-5.973-22.463-2.305-9.956-15.924-34.318-20.076-35.912-2.247-.862-2.222-.869-4.466 1.375m-1671.291 75.624c-.39.39-.709 2.437-.709 4.549s-.655 8.225-1.455 13.584c-2.687 17.991-7.35 57.58-8.98 76.243-2.926 33.488-3.482 37.325-8.107 56-2.521 10.175-7.51 33.125-11.087 51-5.925 29.603-6.582 34.149-7.373 51-1.108 23.611-5.207 43.129-9.87 47-2.427 2.014-4.954 26.588-3.093 30.066.873 1.631 1.201 21.209 1.262 75.319.093 82.32-.764 118.615-2.799 118.615-2.437 0-2.258 2.583.617 8.917 1.587 3.495 2.885 7.176 2.885 8.18s.843 2.63 1.873 3.614 2.651 3.364 3.603 5.289c7.843 15.87 32.262 49.386 54.928 75.393 2.928 3.359 8.076 9.932 11.44 14.607s8.794 11.875 12.065 16c5.89 7.426 12.787 18.307 17.114 27 2.995 6.016 12.055 21.043 17.266 28.636 2.316 3.374 7.361 11.402 11.211 17.839s10.375 16.383 14.5 22.102c9.126 12.651 19.782 31.063 24.368 42.105 1.87 4.5 4.286 9.45 5.37 11s7.304 12.943 13.821 25.318c13.168 25.003 29.356 50.323 43.793 68.5 12.68 15.964 37.75 50.947 68.222 95.198 13.709 19.91 27.899 40.477 31.533 45.707 8.085 11.636 18.58 34.716 22.78 50.095 8.423 30.846 11.705 38.5 16.505 38.5 1.3 0 2.946-.703 3.659-1.561 1.086-1.309.792-2.564-1.814-7.75-1.71-3.404-4.256-10.464-5.658-15.689-6.935-25.843-6.993-26.009-16.261-46.293-4.676-10.235-8.856-17.036-20.897-34-8.279-11.664-23.32-33.357-33.426-48.207-20.338-29.887-38.737-55.988-47.656-67.607-19.979-26.027-25.01-32.958-34.042-46.893-5.524-8.525-11.511-18.425-13.304-22s-7.193-13.7-12-22.5-9.463-17.35-10.348-19-3.031-6.37-4.768-10.488c-3.995-9.472-15.887-29.494-23.573-39.688-5.4-7.162-11.861-17.196-21.099-32.765-1.938-3.267-5.187-8.138-7.22-10.823-2.033-2.686-6.574-10.042-10.091-16.346-11.397-20.432-15.542-26.993-23.07-36.523-4.069-5.152-9.468-12.292-11.998-15.867-2.529-3.575-7.257-9.425-10.506-13-3.248-3.575-10.227-11.675-15.508-18s-12.331-14.65-15.668-18.5c-6.206-7.161-21.48-29.294-24.961-36.171-1.474-2.91-1.71-4.429-.984-6.329.626-1.639.537-6.29-.257-13.505-.861-7.817-.966-16.799-.364-31 1.416-33.406.67-113.576-1.215-130.495-1.782-15.999-1.443-45.32.547-47.31.599-.599 1.09-3.153 1.09-5.675 0-2.936 1.256-7.665 3.492-13.149 4.766-11.692 7.469-25.526 8.472-43.366.464-8.25 1.34-16.575 1.946-18.5.607-1.925 2.71-12.5 4.673-23.5 1.964-11 4.836-25.85 6.383-33 3.66-16.921 6.772-36.252 8.049-50 .562-6.05 1.221-12.125 1.465-13.5 10.738-60.528 13.173-86.131 10.653-112-.539-5.531-.937-6.544-2.674-6.792-1.123-.161-2.36.027-2.75.416m1429.491 55.576c-1.831 1.831-1.463 9.467 1.467 30.467l2.674 19.167-2.172 7.333c-3.442 11.625-4.105 20.251-4.138 53.84-.019 19.022-.447 32.89-1.081 35-.577 1.921-1.264 9.568-1.527 16.993-.518 14.674-1.533 24.716-4.446 44-1.039 6.875-2.579 17.675-3.423 24s-2.433 16.675-3.53 23c-2.09 12.047-8.431 54.545-9.548 64-.358 3.025-1.327 8.56-2.154 12.299-1.389 6.276-1.889 7.102-6.503 10.75-2.749 2.173-5.353 3.951-5.787 3.951-.433 0-2.403.675-4.376 1.499l-3.589 1.5 1.987 3.368 1.988 3.369-5.271 2.228c-2.899 1.226-8.686 3.753-12.859 5.615-11.709 5.226-44.282 14.784-55.912 16.407-7.98 1.113-28.611 5.706-54 12.022-49.47 12.305-105.947 23.7-139 28.045-12.925 1.7-29.8 3.912-37.5 4.916-31.314 4.085-41.931 4.453-75.19 2.603-16.946-.942-34.86-2.139-39.81-2.66s-25.425-1.585-45.5-2.365c-21.095-.82-43.675-2.279-53.5-3.457-9.35-1.121-25.1-2.935-35-4.032-23.815-2.637-56.857-7.472-71.889-10.518-17.453-3.538-26.06-6.638-43.048-15.504-8.284-4.324-17.991-8.752-21.569-9.841-8.577-2.609-23.251-4.848-40.494-6.179-17.8-1.373-42.036-5.141-57.547-8.947-8.971-2.201-14.491-4.265-21.458-8.02-11.5-6.2-22.93-10.493-33.213-12.475-4.28-.826-12.507-2.416-18.282-3.536-5.775-1.119-15-2.465-20.5-2.991s-13.15-1.627-17-2.448-9.644-2.052-12.876-2.736c-4.762-1.007-9.504-.975-25 .171-18.948 1.401-24.7 1.52-42.124.87-4.95-.184-10.644-.001-12.652.407l-3.653.743-.697-5.277c-.383-2.902-1.321-7.977-2.083-11.277-.783-3.391-1.406-11.652-1.432-19-.041-11.538-.209-12.786-1.487-11.097-1.725 2.28-1.799 2.124-4.02-8.403-1.619-7.675-3.317-19.815-5.565-39.771-.974-8.655-.995-11.545-.09-12.45 1.483-1.483 1.543-13.441.107-21.211-.59-3.189-2.575-9.234-4.412-13.433-4.713-10.775-13.403-37.098-15.484-46.904-1.833-8.633-4.261-12.666-7.168-11.906-1.472.385-1.801-.63-2.328-7.188-.337-4.2-1.09-11.237-1.673-15.637-1.981-14.97-2.955-24.983-3.45-35.5-.272-5.775-.703-11.483-.956-12.683-.637-3.012-4.108-3.943-6.529-1.752-1.658 1.501-1.928 3.138-1.928 11.697 0 5.473.657 12.941 1.459 16.595 2.527 11.499 3.296 17.176 2.402 17.729-.473.292-.861 5.172-.861 10.844 0 5.671-.705 17.007-1.566 25.191-.861 8.183-1.329 16.004-1.041 17.379.289 1.375-.145 6.1-.965 10.5-4.691 25.185-8.868 55.992-10.382 76.579-1.266 17.215-3.989 42.019-4.747 43.246-1.125 1.82-2.744 64.727-2.775531 107.675-.024469 45.015-.051469 44.618 4.598531 67.909 1.033 5.175 1.878 11.075 1.878 13.111 0 4.16 3.657 16.412 6.709 22.48 1.107 2.2 3.01 7.128 4.23 10.95 1.219 3.823 3.982 10.551 6.139 14.952 2.644 5.395 3.922 9.352 3.922 12.145 0 4.383 1.851 6.945 5.5 7.612 1.413.259 4.136 4.415 9.279 14.168 6.642 12.594 7.198 14.096 6.352 17.161-1.187 4.299.978 7.915 4.353 7.27 2.657-.508 2.971-.061 10.146 14.426 7.335 14.809 18.777 44.06 27.8 71.069 4.181 12.515 11.029 30.965 15.217 41 4.189 10.036 9.347 22.898 11.463 28.582 2.117 5.684 6.957 16.934 10.756 25 10.74 22.802 19.504 41.921 23.162 50.53 1.838 4.325 5.578 11.75 8.311 16.5 6.889 11.97 10.694 20.569 16.493 37.269 12.205 35.148 16.991 46.682 25.997 62.658 7.499 13.303 16.512 36.721 15.806 41.069-.31 1.913-.928 3.739-1.372 4.058-.444.32-3.048 3.245-5.785 6.501-6.165 7.332-10.619 9.488-41.372 20.025-40.776 13.972-45.528 16.022-69.606 30.038-4.95 2.882-13.996 7.954-20.102 11.273-6.107 3.318-17.541 10.134-25.41 15.147-14.94 9.518-20.04 11.637-30.613 12.72-6.848.702-8.916 2.098-7.89 5.329.547 1.725 1.467 2.041 5.832 2.004 4.887-.041 9.861-.795 15.768-2.391 2.363-.639 3.125.046 8.895 7.987 3.471 4.777 8.855 11.445 11.965 14.817 3.109 3.372 7.713 9.056 10.229 12.631s8.119 10.328 12.451 15.006c9.285 10.028 12.653 14.345 17.652 22.629 7.004 11.603 10.294 19.897 14.657 36.943.996 3.893 2.395 8.168 3.109 9.5s6.578 14.689 13.031 29.681c18.506 42.99 39.893 80.141 61.447 106.738 4.596 5.671 13.743 17.892 20.327 27.157 6.584 9.266 17.181 22.696 23.55 29.846 6.368 7.15 15.214 17.612 19.656 23.25 5.347 6.785 8.742 10.25 10.043 10.25 2.49 0 3.477-2.481 2.115-5.314-1.609-3.346-14.606-19.345-22.085-27.186-10.786-11.309-17.145-19.105-28.142-34.5-5.697-7.975-14.31-19.402-19.14-25.393-15.175-18.823-27.174-37.354-44.156-68.196-8.896-16.156-31.755-69.532-34.651-80.911-5.229-20.549-15.733-40.041-30.177-56-4.977-5.5-11.134-12.925-13.681-16.5s-7.806-10.1-11.687-14.5c-8.714-9.879-17.253-21.746-15.958-22.179.531-.178 6.815-3.958 13.965-8.401 7.15-4.442 17.92-10.562 23.933-13.599 6.014-3.037 16.139-8.477 22.5-12.089 16.305-9.257 26.93-13.739 56.067-23.65 36.329-12.357 46.447-16.413 49.964-20.027 10.41-10.7 15.015-18.561 15.03-25.659.009-4.148-11.516-33.186-17.365-43.751-2.936-5.305-6.719-12.795-8.407-16.645-3.496-7.976-13.822-35.541-17.232-46-3.534-10.842-10.537-26.719-16.1-36.502-2.778-4.887-6.981-13.747-9.34-19.691-4.994-12.582-16.088-37.434-21.651-48.505-2.128-4.234-7.75-17.489-12.494-29.456s-10.419-25.828-12.611-30.802-7.281-18.719-11.31-30.544-11.443-31.842-16.477-44.481c-8.813-22.132-12.952-30.83-25.468-53.519-3.186-5.775-7.833-14.325-10.327-19s-5.587-10.067-6.874-11.982c-1.286-1.915-2.338-4.946-2.338-6.735 0-3.354 5.266-20.126 9.057-28.847 1.999-4.596 5.889-14.843 9.659-25.436 1.235-3.47 1.771-10.796 2.34-32 .844-31.402 2.1-48.294 4.377-58.861.872-4.049 1.779-7.673 2.014-8.054.236-.381.02-2.512-.48-4.737-.773-3.438-.496-5.003 1.848-10.446 4.391-10.201 6.072-12.845 8.453-13.297 1.228-.233 6.661-1.314 12.073-2.402l9.842-1.978 1.006 2.888c.554 1.588 1.638 2.887 2.409 2.887 1.658 0 1.678-.143.479-3.297l-.923-2.428 16.173-.577c8.903-.317 18.87-1.247 22.173-2.067 19.23-4.777 42.089-4.179 74.846 1.959 21.038 3.942 29.315 6.659 45.244 14.855 8.126 4.181 13.978 6.358 22.934 8.532 15.415 3.743 40.138 7.578 57.976 8.995 26.429 2.099 41.623 5.615 54 12.496 18.728 10.413 29.358 14.72 45.5 18.438 12.381 2.851 58.06 9.77 83.5 12.647 12.1 1.369 27.4 3.171 34 4.006s28.2 2.172 48 2.97 39.825 1.892 44.5 2.43c11.285 1.299 40.221 3.022 62.5 3.723 19.29.606 34.801-.57 68.5-5.195 9.625-1.321 24.925-3.342 34-4.491 26.966-3.413 77.929-13.895 133.5-27.457 34.131-8.329 43.444-10.446 51-11.591 6.953-1.054 15.371-3.2 35.5-9.051 10.842-3.151 18.243-6.061 40.474-15.914l12.973-5.75 4.362 13.633c7.508 23.472 9.191 29.438 9.193 32.583.005 7.081 5.414 34.437 10.39 52.551 2.946 10.725 6.615 24.225 8.153 30 1.537 5.775 4.744 15.084 7.125 20.686 2.382 5.603 4.33 10.712 4.33 11.353s1.392 5.282 3.094 10.313c2.893 8.555 3.056 9.796 2.511 19.148-1.055 18.119-2.534 36.888-3.467 44-2.481 18.913-8.382 51.421-10.166 56-3.288 8.441-10.997 31.802-12.376 37.5-.865 3.575-2.29 10.739-3.167 15.92s-3.605 15.081-6.062 22c-2.458 6.919-6.316 17.868-8.573 24.33-2.257 6.463-4.372 11.744-4.699 11.737s-3.745-2.548-7.595-5.647-12.4-9.242-19-13.651c-6.6-4.41-21.225-14.6-32.5-22.646-24.535-17.508-29.999-20.98-46.699-29.672-7.04-3.665-19.326-10.605-27.301-15.422-7.975-4.816-21.7-12.618-30.5-17.335-26.942-14.443-85.883-42.067-106.986-50.141-10.993-4.206-20.359-7.878-20.815-8.159-.456-.282-.121-1.295.744-2.251 1.439-1.59 1.4-1.895-.452-3.571-1.976-1.788-2.095-1.766-4.871.893l-2.845 2.726-12.888-4.661c-7.088-2.564-18.737-7.054-25.887-9.978-28.875-11.806-70.822-22.473-133.259-33.888-52.842-9.661-62.748-10.559-116.241-10.545-44.842.013-77.957 1.381-94 3.885-6.875 1.073-20.15 2.892-29.5 4.041-19.651 2.415-29.814 4.077-71 11.608-40.688 7.44-69.436 14.857-89.363 23.056-4.75 1.954-26.016 9.545-47.257 16.868-36.839 12.701-50.886 18.398-69.88 28.339-11.553 6.048-13.376 8.561-8.516 11.745 2.401 1.573 2.744 1.476 10.25-2.919 13.89-8.134 29.461-14.283 66.369-26.209 19.95-6.447 39.358-12.994 43.129-14.549 11.179-4.61 30.055-10.459 49.498-15.339 21.783-5.467 91.178-17.526 121.27-21.074 11.825-1.394 24.328-2.986 27.783-3.537 11.244-1.795 44.848-2.918 87.717-2.932 58.877-.019 68.138.837 124.993 11.558 56.291 10.615 94.122 20.565 126.766 33.339 11.132 4.357 25.416 9.705 31.741 11.886 38.867 13.401 72.157 28.244 125 55.733 22.901 11.913 29.242 15.479 43.5 24.467 4.95 3.12 16.212 9.512 25.026 14.203 19.13 10.183 23.161 12.717 43.974 27.649 8.8 6.314 23.2 16.418 32 22.454s19.825 14.14 24.5 18.01 8.65 7.144 8.833 7.275c.184.13-.354 5.337-1.195 11.571-.841 6.233-1.793 14.382-2.114 18.108-.322 3.727-1.658 10.927-2.97 16-1.312 5.074-2.673 11.475-3.024 14.225-1.168 9.141-4.389 19.103-11.846 36.638-4.06 9.549-9.315 23.212-11.676 30.362-2.362 7.15-7.778 21.775-12.036 32.5s-9.442 24.45-11.519 30.5-8.707 21.575-14.734 34.5-12.78 27.55-15.006 32.5-5.594 11.338-7.485 14.195l-3.438 5.195 3.305 5.805c7.621 13.386 8.862 14.608 32.405 31.903 4.4 3.232 9.944 7.183 12.32 8.78s8.332 6.601 13.236 11.12c7.504 6.916 11.323 9.467 24.118 16.11 12.255 6.362 16.65 9.249 22.668 14.892 11.234 10.534 27.084 28.205 33.462 37.307 3.12 4.452 8.831 11.604 12.692 15.894 3.861 4.289 6.847 8.249 6.635 8.799-.361.939-8.3 11.899-22.131 30.554-15.856 21.386-20.187 27.461-28.932 40.585-5.182 7.777-12.061 17.227-15.288 21-8.97 10.49-10.944 13.366-15.316 22.313-3.22 6.59-5.574 9.72-11.587 15.409-4.812 4.553-9.559 10.389-13.106 16.113-3.059 4.935-7.304 11.527-9.434 14.648-4.525 6.628-16.09 29.566-21.233 42.11-7.045 17.186-18.096 36.739-26.54 46.957-8.46 10.24-19.024 19.81-21.866 19.812-.934 0-4.449 1.302-7.812 2.893-3.362 1.591-16.637 6.288-29.5 10.439-19.958 6.44-31.831 9.767-59.886 16.779-2.475.619-8.103 2.177-12.508 3.463-26.421 7.715-36.281 8.782-53.216 5.757-7.155-1.278-9.615-1.393-10.515-.493-2.106 2.106 1.283 3.857 10.739 5.552 15.825 2.836 23.679 2.262 46.663-3.411 11.185-2.761 22.587-5.67 25.337-6.465 2.75-.796 11.055-2.809 18.457-4.474 16.718-3.762 56.155-16.109 65.543-20.521 3.85-1.809 8.127-3.547 9.504-3.862 5.597-1.28 25.073-20.486 33.821-33.354 4.18-6.147 13.863-23.705 21.675-39.304 8.162-16.298 17.639-33.402 22.325-40.296 1.572-2.312 4.691-7.354 6.931-11.204 2.568-4.414 7.039-9.803 12.104-14.587 6.868-6.488 8.688-8.95 12.564-17 3.301-6.857 6.875-12.129 13.161-19.413 4.746-5.5 11.584-14.275 15.196-19.5 8.408-12.161 23.558-33.304 30.96-43.205 3.167-4.237 8.459-11.638 11.759-16.447 9.694-14.124 9.866-14.285 14.25-13.266 4.988 1.158 11.533 1.141 14.633-.037 6.78-2.578 17.796-17.288 30.362-40.545 3.269-6.05 8.876-15.95 12.459-22 3.584-6.05 10.234-17.525 14.778-25.5 8.456-14.839 17.529-28.821 33.177-51.122 4.87-6.942 10.923-16.839 13.451-21.993 2.527-5.154 6.967-12.749 9.867-16.878s6.74-10.432 8.533-14.007 7.284-12.8 12.201-20.5c25.907-40.57 35.027-55.614 37.283-61.5 3.495-9.118 15.597-33.675 19.944-40.47 1.999-3.126 5.235-9.547 7.19-14.271 3.205-7.742 9.107-19.492 22.907-45.607 5.846-11.062 9.983-22.262 12.983-35.152 3.421-14.696 5.335-22.498 9.077-37 4.631-17.947 6.376-31.333 7.431-57 .537-13.096 1.525-24.631 2.44-28.5 1.346-5.688 3.814-20.122 6.5-38 .454-3.025 1.804-8.2 3-11.5s2.639-7.8 3.206-10c3.651-14.149 5.611-20.033 9.379-28.156 3.2-6.901 4.777-12.152 6.403-21.313 1.186-6.686 2.354-12.69 2.595-13.343.242-.654 1.113-4.788 1.936-9.188 1.272-6.798 5.858-24.293 12.161-46.399 1.956-6.858.767-10.402-3.327-9.917-1.838.218-2.891 1.092-3.394 2.816-.402 1.375-1.659 5.65-2.795 9.5-5.162 17.507-11.85 45.92-15.568 66.139-1.419 7.718-3.426 15.144-4.865 18-3.506 6.959-7.621 18.807-9.155 26.361-.726 3.575-2.278 9.097-3.447 12.271-1.838 4.985-5.331 21.836-7.614 36.729-.379 2.475-1.329 6.975-2.111 10-2.445 9.465-3.437 17.894-4.354 37-1.057 22.041-2.609 32.195-8.002 52.369-2.225 8.322-5.225 19.631-6.667 25.131-6.344 24.194-8.689 31.301-12.999 39.4-2.517 4.73-5.598 9.964-6.845 11.63-3.079 4.111-16.004 30.046-19.503 39.133-1.557 4.045-4.706 10.322-6.997 13.949-4.15 6.571-8.584 15.558-18.447 37.388-2.858 6.325-10.738 20.275-17.51 31s-16.017 25.35-20.544 32.5c-4.526 7.15-9.467 15.475-10.978 18.5-1.512 3.025-6.088 10.538-10.168 16.695-4.081 6.157-8.928 14.482-10.771 18.5s-7.536 13.155-12.651 20.305c-18.015 25.183-35.902 54.555-60.901 100-8.557 15.557-15.34 26.072-19.835 30.75-3.155 3.282-4.171 3.743-8.151 3.696-4.46-.052-4.709-.234-13.047-9.558-4.675-5.227-11.637-13.641-15.47-18.696-3.834-5.056-11.484-13.705-17-19.221-21.718-21.715-28.653-26.928-49.275-37.039-6.56-3.216-11.406-6.537-16.682-11.429-4.09-3.792-14.78-11.74-23.755-17.661-24.687-16.288-26.459-17.725-31.539-25.577-4.463-6.899-4.528-7.115-2.911-9.661 1.727-2.718 22.761-45.008 30.143-60.604 2.343-4.95 6.519-15.3 9.28-23 2.76-7.7 8.272-22.1 12.247-32 3.976-9.9 9.191-24.002 11.589-31.339 2.398-7.336 7.464-20.627 11.26-29.534 7.455-17.498 10.285-26.194 12.083-37.127.633-3.85 2.216-11.275 3.518-16.5 1.303-5.225 2.664-13.1 3.026-17.5.82-9.98 3.102-25.612 4.353-29.822 4.507-15.165 8.091-26.127 12.155-37.178 5.347-14.542 7.897-23.845 10.964-40 1.149-6.05 4.984-19.775 8.523-30.5 6.077-18.414 9.265-31.1 11.561-46 .551-3.575 1.442-9.2 1.982-12.5 2.527-15.467 3.581-26.544 6.044-63.5.532-7.975 1.35-39.475 1.818-70 .909-59.275 2.276-87.539 4.739-98 .842-3.575 1.908-9.674 2.368-13.553.461-3.879 2.041-11.304 3.513-16.5 2.351-8.306 2.604-10.595 2.095-18.947-1.199-19.645-2.502-31.818-4.494-42-1.13-5.775-2.294-12.975-2.586-16-.509-5.279-.457-5.195 1.308 2.098 1.012 4.179 3.294 11.829 5.073 17 2.384 6.931 3.41 12.031 3.902 19.402.609 9.111.846 10 2.668 10 1.8 0 2.024-.748 2.245-7.5.134-4.125-.466-12.45-1.334-18.5-.869-6.05-1.796-12.509-2.06-14.354-.419-2.926-.792-3.295-2.916-2.889-1.339.256-2.439.191-2.443-.146-.068-5.043-2.702-20.882-5.434-32.663-1.905-8.222-4.246-19.223-5.2-24.448-1.27-6.95-1.906-8.829-2.372-7-.495 1.947-.798 1.253-1.369-3.139-.403-3.102-1.604-8.502-2.667-12-1.064-3.499-1.902-7.036-1.861-7.861s.938 1.2 1.994 4.5l1.92 6-.423-6c-.233-3.3-1.348-8.7-2.477-12l-2.053-6 .453 6 .454 6-1.959-7.5c-1.078-4.125-3.068-12.9-4.423-19.5-1.356-6.6-3.144-13.913-3.975-16.25s-1.322-4.25-1.092-4.25c.231 0 1.561 1.679 2.956 3.732 3.091 4.549 3.104 4.172.469-13.427-1.903-12.708-2.042-17.452-1.751-59.697.289-41.939.173-45.982-1.349-46.942-2.112-1.332-4.784.669-4.948 3.706-.234 4.333-1.772-6.1-1.827-12.399-.038-4.209-.611-7.318-1.615-8.75-1.712-2.446-4.383-2.883-6.243-1.023m4.524 68.675c-.398 1.856-.651 11.756-.562 22 .139 16.053.28 17.589 1.018 11.125 1.742-15.245 1.878-18.694 1.082-27.5-.666-7.36-.946-8.385-1.538-5.625m-1.041 72.375c-.312 6.188-1.021 20.25-1.574 31.25s-1.891 26.075-2.972 33.5c-1.082 7.425-2.485 18.45-3.118 24.5s-1.996 16.4-3.027 23c-1.032 6.6-2.829 19.425-3.994 28.5-2.693 20.989-4.744 36.478-6.092 46-.584 4.125-.835 12.225-.558 18 .461 9.629 1.011 11.951 6.623 28 4.739 13.553 6.552 20.432 8.038 30.5 2.806 19.009 5.179 29.899 10.788 49.5 2.755 9.625 6.481 22.9 8.281 29.5 3.08 11.297 7.267 22.5 8.409 22.5.282 0 .478-9.337.436-20.75-.066-17.792-.248-20.181-1.28-16.758-1.231 4.088-3.02 5.227-5.602 3.569-1.246-.801-.77-4.041 3.268-22.249 5.105-23.022 5.294-25.04 3.502-37.431-1.373-9.495-.239-21.147 3.685-37.881 1.29-5.5 2.625-12.7 2.968-16s1.809-11.133 3.258-17.407c2.496-10.811 2.571-11.908 1.446-21-.653-5.276-1.183-11.299-1.178-13.385.006-2.086-.625-7.036-1.401-11s-2.161-11.033-3.076-15.708c-.916-4.675-2.071-14.575-2.566-22-1.783-26.726-4.526-46.724-8.985-65.5-2.419-10.188-4.688-21.573-6.577-33-2.531-15.316-6.04-29.5-7.298-29.5-.459 0-1.091 5.063-1.404 11.25m-1093.531-2.288c-1.197 7.197-1.164 7.52.909 9.084 2.403 1.812 2.56-.476-1.961 28.454-5.278 33.764-6.27 41.601-8.104 64-2.687 32.804-3.809 43.963-5.131 51-1.183 6.297-1.887 24.264-3.917 100-1.312 48.952-1.163 52.022 3.635 74.697.779 3.684 1.425 8.409 1.434 10.5.021 4.581 2.523 14.04 7.584 28.667 4.113 11.89 4.39 12.013 8.208 3.636 1.521-3.339 1.61-3.385 1.923-1 1.033 7.872 1.282 7.78 5.445-2.023 2.214-5.212 5.992-15.102 8.395-21.977l4.37-12.5.1-18.5c.055-10.175.521-22.55 1.034-27.5.514-4.95 1.348-14.175 1.852-20.5 1.146-14.346 2.955-22.851 8.512-40 6.594-20.352 7.053-23.437 5.5-36.972-1.092-9.519-1.69-11.818-3.514-13.509-1.945-1.803-2.272-3.419-2.835-14.028-1.028-19.388-2.685-34.719-4.189-38.761-.8-2.151-1.411-7.519-1.422-12.5-.011-4.802-.426-11.655-.924-15.23-.497-3.575-1.212-10.825-1.588-16.11-.649-9.102-.567-9.72 1.544-11.686l2.228-2.076-5.509-11.314c-3.03-6.223-6.064-13.114-6.743-15.314-.678-2.2-2.569-7.509-4.202-11.797-2.494-6.553-3.199-7.605-4.419-6.592-2.504 2.078-3.568-.431-4.573-10.787-.524-5.403-1.279-11.399-1.677-13.324-.672-3.248-.813-2.962-1.965 3.962m1121.927 72.621c.048 1.165.285 1.402.604.605.289-.722.253-1.585-.079-1.917s-.568.258-.525 1.312m-1067.385 112.056c-.799.799.104 2.361 1.365 2.361.518 0 .941-.675.941-1.5 0-1.546-1.18-1.987-2.306-.861m52.806 12.316c-7.221.462-8.432.749-6.129 1.449 3.413 1.038 17.975.078 20.417-1.345 1.903-1.109 1.447-1.113-14.288-.104m-30.687 2.728c.721.289 1.584.253 1.916-.079s-.258-.568-1.312-.525c-1.165.048-1.402.285-.604.604m4.187.317c-1.02.659 1.54.932 8 .851 8.389-.104 8.915-.209 4.5-.897-7.021-1.094-10.758-1.08-12.5.046m-30 2.861c0 2.558.292 2.817 2.75 2.437 3.651-.564 12.246-2.331 14.75-3.033l2-.561-2-.782c-1.1-.43-5.488-.813-9.75-.852l-7.75-.07zm-240.728 482.24c-4.139 2.651-18.173 23.489-30.238 44.899-11.463 20.342-19.383 33.103-32.582 52.5-10.361 15.227-22.466 36.468-31.628 55.5-4.985 10.356-14.04 29.37-33.573 70.5-14.663 30.874-30.267 72.089-38.049 100.5-8.618 31.464-11.169 44.739-21.709 113-6.237 40.387-7.974 77.087-7.123 150.5.601 51.876 1.654 71.808 4.618 87.439.53 2.794 1.891 12.389 3.024 21.321s2.753 20.065 3.599 24.74c2.886 15.946 13.471 63.944 16.481 74.735 5.353 19.194 19.935 58.956 29.618 80.765 2.442 5.5 7.304 18.394 10.805 28.653s8.136 22.184 10.301 26.5c2.164 4.316 6.196 13.022 8.959 19.347 14.609 33.443 30.788 63.782 41.456 77.739 2.842 3.718 9.194 12.161 14.114 18.761s11.498 14.925 14.619 18.5c3.12 3.575 8.089 9.65 11.042 13.5s7.916 9.925 11.029 13.5 9.293 11.528 13.734 17.674c13.958 19.316 33.108 42.256 48.696 58.333 8.269 8.528 22.235 23.593 31.035 33.477s19.375 21.379 23.5 25.544c7.131 7.2 29.225 26.655 41.703 36.722 3.188 2.572 9.847 8.24 14.797 12.597 6.978 6.141 21.558 17.813 35.45 28.378.248.188-.369 3.364-1.37 7.059-1.001 3.694-3.525 14.591-5.609 24.216-2.083 9.625-4.874 21.637-6.202 26.692-1.546 5.889-2.098 9.755-1.537 10.758.482.861.603 2.008.27 2.547-2.94 4.758-22.645 80.981-27.532 106.503-1.463 7.639-5.673 22.854-7.598 27.46-2.118 5.064-5.738 18.354-9.41 34.54-1.747 7.7-5.638 21.425-8.648 30.5s-5.822 18.525-6.25 21c-.427 2.475-3.094 16.2-5.926 30.5-2.831 14.3-6.061 30.887-7.178 36.86s-4.298 17.889-7.07 26.481-6.139 20.355-7.482 26.14c-5.56 23.946-9.923 41.308-13.7 54.519-2.202 7.7-5.465 19.625-7.251 26.5s-4.208 14.915-5.383 17.866-4.17 12.401-6.655 21-6.777 20.738-9.539 26.976c-2.761 6.238-5.463 14.113-6.003 17.5s-2.144 10.433-3.563 15.658c-2.198 8.086-2.653 12.217-3.058 27.758-.41 15.742-.251 18.601 1.157 20.75.898 1.371 2.468 2.492 3.488 2.492 3.964 0 4.575-2.53 5.17-21.399.411-13.017 1.063-19.717 2.322-23.856.964-3.165 2.792-10.59 4.064-16.5 1.446-6.721 4.025-14.49 6.885-20.745 2.516-5.5 5.732-14.275 7.147-19.5s4.8-16.25 7.523-24.5c2.722-8.25 5.877-19.05 7.009-24 1.133-4.95 3.581-13.725 5.441-19.5s4.125-14.325 5.034-19 2.278-10.525 3.044-13c.765-2.475 2.974-11.7 4.91-20.5 1.935-8.8 5.34-21.4 7.565-28 5.386-15.969 8.495-28.571 10.485-42.5.903-6.325 3.429-19.952 5.611-30.282 2.183-10.329 4.434-21.354 5.004-24.5.569-3.145 3.006-11.793 5.415-19.218 4.582-14.119 6.665-22.224 11.05-43 1.452-6.875 4.553-18.575 6.891-26s5.034-17.775 5.991-23c3.193-17.443 14.716-68.333 18.567-82 2.092-7.425 4.55-16.425 5.462-20 .913-3.575 3.504-10.314 5.76-14.975s4.186-10.061 4.29-12c.318-5.943 7.451-37.905 10.94-49.023 1.812-5.776 5.36-15.511 7.884-21.634 2.619-6.355 6.137-17.726 8.197-26.5 1.985-8.452 5.314-19.418 7.398-24.368 3.834-9.108 6.549-17.082 9.533-28 .902-3.3 3.83-11.85 6.506-19 4.697-12.547 10.913-33.62 16.373-55.5 1.441-5.775 3.71-14.134 5.041-18.575 1.331-4.442 3.624-15.467 5.096-24.5 1.471-9.034 4.634-24.075 7.028-33.425 2.395-9.35 5.047-21.95 5.894-28 4.028-28.751 8.708-53.61 16.57-88 5.21-22.792 6.588-30.635 8.436-48 2.543-23.911 5.337-44.718 6.92-51.544 6.339-27.318 17.042-45.433 37.835-64.031 5.119-4.58 16.964-15.998 26.321-25.376 14.923-14.953 18.426-19.123 28.5-33.921 14.635-21.496 22.855-30.944 31.431-36.128 21.185-12.806 37.401-23.339 41.29-26.82 1.762-1.577 2.707-1.789 4.469-1.003 1.624.725 3.882.521 8.266-.745 6.298-1.82 13.56-3.136 27.031-4.899 9.765-1.277 46.507-1.331 51.92-.076 2.545.59 5.475 2.464 8.355 5.345 3.905 3.904 4.299 4.69 3.295 6.567-.707 1.322-2.111 2.131-3.699 2.131-1.695 0-2.73.658-3.068 1.949-.709 2.712-23.577 11.576-31.988 12.401-6.843.67-42.604 12.082-44.826 14.304-.772.772-1.167 2.022-.877 2.777.38.991-1.235 1.809-5.792 2.933-15.299 3.776-16.645 4.366-21.862 9.583-2.787 2.787-5.501 6.311-6.031 7.832-.71 2.036-2.474 3.434-6.695 5.303-10.764 4.766-31.056 17.942-38.87 25.24-4.212 3.934-11.631 12.412-16.485 18.841-4.854 6.428-9.341 12.006-9.972 12.396-1.653 1.021-17.205 25.111-20.767 32.167-6.861 13.593-7.442 16.73-7.245 39.104.134 15.102.695 23.332 2.181 32 3.404 19.852 10.297 42.069 15.095 48.658 6.581 9.036 18.059 21.399 29.291 31.547l12.688 11.465-.573 4c-.315 2.2-1.045 10.525-1.622 18.5-1.072 14.814-5.297 39.462-9.08 52.965-3.531 12.607-8.753 21.711-17.558 30.613-9.357 9.461-20.474 26.811-23.339 36.422-2.334 7.833-5.603 29.747-6.49 43.5-.354 5.5-1.483 18.1-2.507 28-1.025 9.9-2.148 22.05-2.496 27s-1.032 11.925-1.519 15.5c-4.725 34.669-8.54 68.385-12.956 114.5-1.106 11.55-3.153 32.025-4.549 45.5-3.539 34.178-5.226 53.44-5.955 68-.829 16.539-4.456 64.161-5.008 65.753-.239.688-.917 11.038-1.506 23-1.152 23.411-3.145 39.527-8.006 64.747-6.908 35.843-7.866 41.679-9.434 57.5-2.325 23.442-3.253 28.461-6.446 34.847-6.018 12.039-8.774 25.239-7.235 34.653 1.212 7.409-.068 25.568-3.419 48.5-1.326 9.075-2.718 20.979-3.092 26.453l-.682 9.952-5.925 5.486c-4.915 4.551-6.82 7.369-11.182 16.547-2.891 6.084-6.737 14.797-8.545 19.361-4.65 11.737-18.507 31.925-39.603 57.701-7.163 8.752-16.043 25.489-17.018 32.078-.691 4.671 1.179 7.422 5.046 7.422 2.946 0 3.886-1.244 6.042-8 3.089-9.679 8.227-18.172 19.757-32.654 6.188-7.774 12.827-16.687 14.752-19.806s6.284-9.946 9.687-15.171c3.404-5.225 7.588-13.183 9.3-17.685 7.617-20.03 10.551-26.034 15.265-31.23 5.407-5.961 9.254-7.786 22.247-10.556 12.425-2.649 17.673-5.505 28.745-15.645 12.061-11.044 18.557-15.005 26.86-16.377 11.593-1.916 11.053-1.681 10.709-4.661-.262-2.277-.858-2.767-3.688-3.038-1.856-.177-6.705.419-10.777 1.325-8.521 1.895-17.194 7.24-29.154 17.964-4.018 3.603-9.095 7.463-11.281 8.578-3.329 1.698-24.784 6.418-25.576 5.627-.653-.653 1.994-21.497 4.148-32.671 1.326-6.875 2.725-16.686 3.11-21.803.385-5.116 1.012-8.941 1.394-8.5 1.267 1.466 10.976 29.695 12.454 36.212 1.394 6.145 2.633 8.042 5.272 8.076 2.686.034 3.379-3.771 1.86-10.218-2.665-11.308-13.62-40.283-16.723-44.227-2.618-3.329-2.309-5.766 3.904-30.834l4.657-18.794 7.527-4.155c4.14-2.285 8.574-4.068 9.855-3.962 1.28.106 3.552-.44 5.048-1.214 4.899-2.533 27.608-18.111 38.442-26.371 5.834-4.448 17.269-12 25.411-16.784 19.328-11.355 27.324-17.403 41.288-31.225 6.334-6.27 14.441-13.598 18.016-16.285 8.767-6.59 25.535-15.572 42.5-22.767 7.7-3.265 16.997-7.321 20.661-9.012 9.502-4.388 28.457-9.933 41.688-12.196 16.693-2.855 80.313-2.833 103.308.036 33.34 4.159 53.609 8.126 94.081 18.415 39.332 9.998 45.721 12.42 77.273 29.287 9.355 5.002 23.755 12.108 32 15.791 8.244 3.683 23.314 11.112 33.489 16.508s26.767 14.131 36.871 19.412c20.065 10.486 38.611 22.193 45.944 29.001 2.577 2.392 9.607 8.485 15.622 13.54 6.016 5.054 21.907 20.52 35.313 34.368 27.086 27.977 28.366 29.819 32.758 47.134 4.447 17.532 5.588 28.531 6.178 59.567.622 32.738-.103 42.148-4.198 54.523-3.902 11.795-8.554 32.92-9.133 41.477-.279 4.125-.983 8.482-1.564 9.683-1.561 3.224-.325 5.317 3.142 5.317 3.982 0 4.699-1.676 5.348-12.5.529-8.824 5.994-35.543 7.875-38.5 1.084-1.705.283 25.361-1.229 41.5-.835 8.918-.753 10.135.759 11.25 2.354 1.735 3.999 1.565 6.205-.641 3.589-3.589 4.446-41.105 2.345-102.609-1.326-38.784-2.056-47.546-5.263-63.129-3.191-15.511-4.754-19.749-13.724-37.214-16.502-32.128-24.832-51.501-46.758-108.745-4.022-10.499-9.896-24.224-13.054-30.5-3.157-6.277-8.777-18.162-12.487-26.412-13.562-30.157-17.829-39.3-25.27-54.15-4.176-8.333-9.368-19.358-11.538-24.5-2.169-5.143-6.865-15.875-10.434-23.85s-9.655-24.4-13.525-36.5c-9.419-29.453-18.556-59.204-21.19-69-3.372-12.536-18.636-58.291-25.521-76.5-12.937-34.218-35.197-81.327-48.433-102.5-9.456-15.126-38.2-52.772-56.886-74.5-12.044-14.006-19.153-23.949-19.153-26.79 0-1.045-.946-2.756-2.102-3.803-1.157-1.046-2.743-3.141-3.526-4.655-.964-1.864-2.212-2.752-3.867-2.752-1.344 0-6.395-2.337-11.224-5.193-15.884-9.393-35.914-16.416-59.494-20.86-6.208-1.17-15.787-3.175-21.287-4.456-25.677-5.98-71.197-13.088-99-15.459-6.6-.562-15.15-1.477-19-2.033-3.85-.555-10.161-1.396-14.024-1.869-11.398-1.393-23.769-8.968-27.455-16.808-1.112-2.365-2.021-4.545-2.021-4.844 0-.3 14.063-.417 31.25-.261 32.758.297 36.372-.035 53.75-4.929 10.099-2.845 37.666-17.564 48.074-25.669 7.219-5.622 15.694-15.056 23.911-26.619 2.932-4.125 7.748-10.6 10.702-14.389 8.682-11.136 16.313-26.271 16.313-32.354 0-1.25 1.409-7.048 3.13-12.884 2.82-9.56 3.076-11.518 2.581-19.743-.346-5.742-1.322-11.082-2.63-14.391-1.145-2.893-2.101-6.943-2.125-9-.024-2.056-.642-5.314-1.373-7.239s-2.893-7.775-4.805-13c-4.738-12.952-6.855-16.892-15.309-28.5-7.956-10.924-22.437-26.036-34.969-36.493-14.352-11.976-14.637-12.129-42.555-22.901-29.639-11.436-42.023-14.106-65.422-14.106h-16.256l-9.384-4.981c-8.34-4.427-10.077-4.983-15.633-5l-6.25-.019v-3.356c0-3.302.111-3.386 6.75-5.135 13.033-3.433 23.9-5.476 40.25-7.565 15.122-1.932 19.591-2.058 53.5-1.505 20.35.332 43.504.931 51.453 1.332l14.453.729 3.261 4.5c6.46 8.913 6.924 9.371 8.781 8.658 1.189-.456 1.603-1.355 1.248-2.711-.443-1.697-.176-1.924 1.637-1.387 5.176 1.534 22.174 9.139 34.152 15.282 10.428 5.347 14.563 8.138 21 14.174 4.408 4.134 15.968 14.135 25.688 22.225 19.167 15.951 26.845 24.192 45.892 49.259 6.269 8.25 14.168 18.436 17.554 22.636 7.341 9.106 12.699 18.558 14.299 25.227.642 2.674 3.442 10.999 6.222 18.5 2.78 7.5 6.408 19.262 8.062 26.137 3.84 15.965 9.949 33.745 14.36 41.795 6.369 11.623 26.23 40.629 33.35 48.705 14.077 15.967 18.073 22.469 37.185 60.5 17.243 34.312 28.908 50.998 66.697 95.404 14.313 16.819 53.299 75.271 63.427 95.096 4.215 8.25 11.083 19.95 15.262 26 16.837 24.375 35.522 52.632 41.989 63.5 3.764 6.325 9.701 15.847 13.194 21.16s9.869 16.338 14.17 24.5c4.3 8.162 11.78 21.365 16.622 29.34 16.469 27.127 18.967 32.21 56.515 115 8.107 17.875 18.343 39.7 22.747 48.5 10.135 20.251 18.022 38.729 40.763 95.5 17.98 44.885 23.421 59.907 29.52 81.5 1.709 6.05 6.206 20.675 9.994 32.5 9.855 30.76 13.458 48.243 15.004 72.788.51 8.092 1.657 22.362 2.55 31.712 1.06 11.112 1.474 22.715 1.195 33.5-.39 15.065-.692 17.302-3.472 25.723-2.647 8.016-2.853 9.382-1.576 10.442 2.579 2.139 4.628-.435 7.775-9.765l3.002-8.9.002-25c.001-13.75-.555-30.625-1.234-37.5s-1.707-18.8-2.284-26.5c-1.447-19.3-5.892-40.864-13.575-65.85-3.577-11.633-8.302-27.675-10.5-35.65-5.924-21.491-16.917-52.688-25.914-73.538-1.178-2.729-5.991-15.087-10.696-27.462-11.591-30.487-23.198-57.712-34.321-80.5-5.101-10.45-15.005-31.6-22.008-47-36.044-79.256-40.728-88.763-57.734-117.178-4.879-8.152-12.144-21.122-16.144-28.822-4.001-7.7-10.088-18.275-13.527-23.5s-9.156-14.45-12.704-20.5c-3.549-6.05-7.219-12.166-8.155-13.591l-1.703-2.592 6.862-3.595c3.774-1.977 12.666-7.36 19.761-11.963 7.094-4.602 17.849-11.489 23.899-15.303 24.276-15.307 42.402-29.25 69.5-53.463 4.675-4.177 14.575-12.809 22-19.182 15.196-13.043 34.195-32.166 47.502-47.811 4.912-5.775 14.653-16.67 21.646-24.211 22.875-24.664 37.299-43.158 50.921-65.289 12.071-19.611 24.399-43.987 35.402-70 4.885-11.55 18.367-40.125 29.96-63.5 25.729-51.878 37.188-81.318 48.069-123.5 2.554-9.9 6.858-26.1 9.566-36 4.609-16.855 15.309-63.212 21.926-95 11.286-54.21 12.746-107.093 5.067-183.5-1.078-10.725-2.445-27.825-3.039-38s-1.499-23.675-2.011-30-1.199-15.55-1.526-20.5c-.971-14.677-3.326-29.592-8.594-54.409-2.732-12.876-5.175-23.745-5.429-24.155-.253-.41-3.19-11.476-6.526-24.591s-7.857-30.145-10.048-37.845c-5.055-17.771-17.827-56.587-19.183-58.298-1.358-1.715-4.722-1.144-6.087 1.034-.856 1.366.335 6.059 5.587 22 7.102 21.556 11.706 37.903 16.835 59.764 1.742 7.425 4.907 20.7 7.033 29.5 8.083 33.459 14.134 68.624 15.399 89.5.317 5.225 1.003 15.575 1.526 23s1.436 21.825 2.028 32c.593 10.175 1.74 24.756 2.549 32.401 3.809 36.019 5.003 98.998 2.391 126.099-1.816 18.839-6.755 47.988-11.937 70.447-2.734 11.854-6.794 29.878-9.021 40.053s-6.482 27.275-9.455 38-7.258 26.7-9.521 35.5c-10.231 39.78-22.255 70.515-46.333 118.43-10.897 21.686-23.859 48.911-28.805 60.5-12.239 28.681-22.736 49.703-35.408 70.907-14.106 23.604-29.601 43.715-52.132 67.663-4.916 5.225-14.383 15.8-21.038 23.5s-19.011 20.763-27.457 29.03c-14.174 13.871-20.954 19.965-58.381 52.47-15.27 13.261-29.941 24.011-50.476 36.983-7.975 5.038-19.45 12.437-25.5 16.443-6.05 4.005-13.117 8.48-15.704 9.943-2.587 1.464-5.326 3.549-6.086 4.635-1.289 1.84-2.006 1.044-10.607-11.765-5.074-7.557-12.388-18.239-16.254-23.739s-9.64-15.175-12.831-21.5c-7.426-14.722-12.454-23.174-24.747-41.598-23.039-34.53-32.789-48.191-41.573-58.25-16.895-19.349-35.233-41.557-39.446-47.77-9.441-13.926-18.93-30.864-31.997-57.117-15.759-31.661-17.775-34.945-30.272-49.317-8.457-9.726-27.626-37.255-34.823-50.01-3.285-5.821-11.16-27.63-11.16-30.905 0-3.604-5.965-25.017-9.544-34.261-1.974-5.099-4.872-13.683-6.439-19.073-3.202-11.014-8.241-20.082-16.887-30.387-3.143-3.746-11.15-14.012-17.793-22.812-21.272-28.181-26.15-33.319-49.337-51.973-7.425-5.973-17.447-14.433-22.272-18.799-12.741-11.531-33.755-22.387-61.228-31.629-6.05-2.035-12.125-4.341-13.5-5.123-1.653-.941-7.411-1.652-17-2.098-7.975-.371-19.675-1.131-26-1.69s-23.875-.929-39-.822c-23.749.167-34.14.837-48.5 3.128-1.65.264 2.4-1.326 9-3.533 7.674-2.565 15.391-4.381 21.407-5.038 5.174-.565 11.024-1.719 13-2.565s8.618-3.447 14.76-5.781l11.166-4.244 1.191 4.584c.654 2.521 1.405 5.397 1.669 6.391.313 1.181 1.229 1.702 2.643 1.5 1.914-.272 2.136-.858 1.92-5.077-.135-2.622-.912-6.366-1.728-8.319-1.269-3.035-1.284-3.866-.104-5.731.759-1.2 1.684-3.64 2.056-5.424.617-2.959.167-3.779-5.152-9.393-9.22-9.73-10.938-10.237-36.328-10.705-22.679-.417-39.03.78-51.731 3.788-5.527 1.309-6.974 1.403-6.139.396 1.388-1.672.409-4.343-1.591-4.343-.839 0-5.069 3.263-9.4 7.25-7.911 7.282-19.273 14.579-39.571 25.414-16.549 8.834-24.418 16.965-46.297 47.836-7.18 10.131-19.875 23.078-57.855 59-16.675 15.772-19.008 18.876-16.48 21.923.806.971.069 3.31-2.898 9.19-4.449 8.818-10.26 27.986-11.941 39.387-.609 4.125-2.201 14.7-3.538 23.5-1.338 8.8-2.945 20.5-3.571 26-1.135 9.972-2.118 14.957-7.987 40.5-4.763 20.73-11.517 55.638-14.414 74.5-3.903 25.417-4.368 27.776-8.57 43.5-2.131 7.975-5.031 21.547-6.443 30.16-1.413 8.613-4.181 21.213-6.153 28s-5.308 19.135-7.414 27.44c-5.004 19.736-9.033 32.676-13.892 44.617-2.174 5.343-5.139 13.892-6.59 18.998-3.118 10.975-5.492 17.589-9.985 27.82-1.82 4.145-4.933 14.27-6.919 22.5-3.319 13.756-12.04 38.465-13.575 38.465-1.217 0-19.488-15.027-32.046-26.356-6.875-6.202-21.5-19.172-32.5-28.822-23.695-20.786-33.495-30.805-59.494-60.822-4.05-4.675-13.261-14.575-20.469-22-13.621-14.029-27.81-31.457-43.619-53.574-5.081-7.109-12.544-16.976-16.584-21.926-17.479-21.417-21.075-25.985-34.638-44-22.965-30.505-29.034-40.493-44.665-73.5-5.6-11.825-13.054-27.575-16.565-35s-9.115-21.527-12.454-31.338c-3.34-9.81-7.444-20.556-9.122-23.879-3.066-6.075-8.772-20.301-15.956-39.783-12.995-35.24-15.363-43.463-24.33-84.5-6.4-29.289-8.097-38.708-10.635-59-1.032-8.25-2.551-19.5-3.375-25-2.955-19.714-3.594-37.708-3.584-100.95.014-88.311.506-94.117 15.522-183.05 3.503-20.744 11.498-52.642 18.423-73.5 11.442-34.464 18.93-52.484 41.55-100 5.368-11.275 13.492-28.6 18.054-38.5 10.863-23.57 26.896-52.803 38.154-69.565 12.361-18.404 22.502-34.794 32.818-53.036 11.639-20.586 23.746-38.988 27.45-41.727 3.37-2.492 3.973-6.075 1.448-8.601-2.158-2.157-6.298-1.942-10.157.53m362.679 181.458c-1.398 1.685-1.594 1.369 8.732 14.091 8.408 10.359 14.066 15.003 19.153 15.72 2.015.284 7.489 1.048 12.164 1.698 4.675.651 13.45 2.064 19.5 3.142s16.85 2.366 24 2.863c26.769 1.859 31.866 2.568 41 5.698 17.161 5.882 23.989 7.229 36.639 7.229 14.756 0 19.07.935 33.088 7.17 6.2 2.758 26.031 9.909 44.07 15.892 36.818 12.212 47.181 17.126 60.703 28.785 4.125 3.557 7.673 6.607 7.885 6.778.815.659-12.569-3.505-15.952-4.963-6.013-2.59-26.297-7.01-38.433-8.375-10.119-1.138-36.133-.71-43.064.709-7.714 1.579-20.757 7.541-20.194 9.231.774 2.323 3.743 1.967 11.541-1.386l7.717-3.318 18-.012c17.586-.011 24.816.502 37 2.623 9.606 1.672 22.568 4.865 26.433 6.511 1.962.836 6.492 2.433 10.067 3.548 16.065 5.013 23.387 9.549 38.78 24.027 5.896 5.545 12.97 11.754 15.72 13.798 2.75 2.043 5.754 4.563 6.675 5.599 3.534 3.974 10.923 21.395 13.947 32.883 3.069 11.66 3.171 12.736 3.61 38 .427 24.588.312 26.792-2.119 40.579-2.681 15.2-8.385 33.534-13.777 44.284-10.786 21.505-30.877 41.202-53.253 52.21-6.067 2.985-11.75 5.427-12.63 5.427-.881 0-5.392 1.18-10.027 2.622-7.961 2.478-9.529 2.618-28.426 2.541l-20-.082-15.5-4.989c-8.525-2.744-20-6.191-25.5-7.66-12.164-3.249-14.833-4.562-29.624-14.57-17.709-11.983-21.679-17.149-25.975-33.809-2.334-9.052-4.673-11.139-8.356-7.455-1.148 1.148-1.419 2.558-.961 5 .807 4.299-.579 4.385-4.056.253-4.201-4.992-8.15-13.672-12.049-26.481-7.332-24.088-6.967-21.366-6.94-51.87.024-25.597.211-28.659 2.184-35.675 3.352-11.929 7.679-21.435 15.42-33.879 15.411-24.775 34.719-43.41 51.207-49.424 8.324-3.036 10.016-4.312 8.647-6.526-1.097-1.775-4.616-.689-16.497 5.093-26.886 13.083-57.116 54.17-64.533 87.711-1.6 7.238-1.927 12.757-1.945 32.84-.022 24.512 1.111 35.649 4.44 43.616.774 1.85 2.089 6.308 2.923 9.905 2.019 8.703 7.021 21.124 10.559 26.219 1.574 2.266 5.356 6.145 8.404 8.62 3.573 2.902 6.412 6.295 7.991 9.553 3.953 8.158 11.829 15.797 26.153 25.369 14.434 9.645 19.317 11.808 36.431 16.138 6.283 1.59 16.408 4.589 22.5 6.665l11.077 3.775 22-.052c21.385-.05 22.328-.139 33.724-3.175 6.447-1.717 12.185-3.408 12.75-3.757 1.532-.947 1.298-.071-1.826 6.818-3.747 8.264-8.176 11.786-25.564 20.329l-13.916 6.837-10.584-.187c-26.845-.473-73.882-2.173-76.584-2.768-21.361-4.698-24.058-5.638-31.056-10.821-7.45-5.517-21.943-19.669-32.372-31.61-3.535-4.048-9.276-9.598-12.758-12.335-3.482-2.736-11.088-10.806-16.902-17.933-9.878-12.108-12.912-14.578-12.912-10.51 0 2.701 13.904 19.228 27.059 32.164 6.712 6.6 15.356 15.825 19.21 20.5 8.101 9.828 10.734 12.36 21.942 21.098 11.049 8.615 15.159 11.078 17.335 10.387.998-.316 4.434.096 7.635.918 17.034 4.373 21.194 4.869 48.319 5.766 15.125.5 32.45 1.151 38.5 1.446 13.255.647 14.829.244 32.282-8.266 17.863-8.711 24.477-14.727 28.576-25.993 1.573-4.321 2.996-8.353 3.164-8.962.167-.608 2.728-2.473 5.691-4.145 14.383-8.117 32.283-24.575 42.757-39.311 10.547-14.838 18.413-35.845 22.534-60.179 2.109-12.456 2.493017-17.961 2.493017-35.5 0-11.418-.497017-24.809-1.101017-29.759-2.12-17.374-10.186-40.475-17.542-50.24-1.342-1.782-6.584-6.558-11.647-10.613-5.064-4.055-10.294-8.555-11.621-9.999-2.314-2.518-2.342-2.708-.66-4.566 1.115-1.233 1.517-2.687 1.102-3.994-.907-2.859-7.809-8.244-15.509-12.103-6.441-3.227-17.492-11.125-28.019-20.023-8.435-7.129-24.769-15.275-38.049-18.974-6.298-1.755-15.276-4.467-19.951-6.027s-13.45-4.279-19.5-6.041c-9.855-2.87-15.489-5.067-34.5-13.449-7.416-3.269-15.155-4.471-28.797-4.471-10.142 0-12.852-.408-24.066-3.622-6.95-1.992-13.762-4.073-15.137-4.625-2.618-1.051-11.566-2.042-33.772-3.741-7.3-.559-17.558-1.705-22.796-2.548s-16.323-2.185-24.632-2.983c-16.978-1.63-17.094-1.685-21.471-10.062-1.556-2.978-3.362-5.415-4.013-5.417-.651-.001-3.279-2.67-5.841-5.93-5.185-6.601-6.77-7.626-8.524-5.513m-89.759 51.516c.197.591.786 1.075 1.308 1.075s1.111-.484 1.308-1.075-.391-1.075-1.308-1.075-1.505.484-1.308 1.075m900.551 32.175c-1.982 1.512-16.128 41.466-19.385 54.75-1.281 5.225-2.336 11.537-2.344 14.027-.008 2.491-.67 5.464-1.472 6.609-1.995 2.849-23.417 13.203-29.83 14.418-8.216 1.556-35.236 7.673-46.09 10.433-5.433 1.382-11.583 2.513-13.667 2.513-5.925 0-37.894 4.848-43.455 6.589-8.17 2.559-18.567 7.924-25.5 13.159-9.815 7.411-28.689 19.816-46 30.234-8.525 5.131-20.019 12.356-25.543 16.057-9.754 6.534-35.991 22.634-41.682 25.577-1.55.802-8.545 2.569-15.546 3.927-21.658 4.203-23.25 4.578-28.564 6.736-10.562 4.289-19.048 11.097-25.068 20.111-2.395 3.587-2.597 4.727-2.597 14.673 0 10.076.166 10.981 2.528 13.788 1.646 1.957 4.699 3.722 8.75 5.06 7.727 2.553 28.034 5.441 32.443 4.614 3.85-.723 3.864-.642 1.329 7.62-2.463 8.028-4.033 17.733-4.042 25-.017 12.416 13.015 44.855 18.019 44.855.95 0 2.332-.728 3.07-1.617 1.149-1.385.88-2.451-1.872-7.42-1.768-3.191-5.242-11.517-7.72-18.502-4.032-11.367-4.505-13.621-4.505-21.469 0-6.386.679-11.113 2.5-17.395 1.375-4.745 2.5-9.448 2.5-10.45 0-1.564 1.461-2.004 10.25-3.089 19.18-2.369 41.661-7.468 52.25-11.852 3.85-1.593 14.2-6.55 23-11.014 12.462-6.322 20.976-9.745 38.5-15.476 12.375-4.047 26.451-8.323 31.28-9.501 9.971-2.432 30.131-10.626 32.86-13.355 2.124-2.124 1.449-4.86-1.2-4.86-1.015 0-6.802 2.03-12.861 4.512-6.058 2.481-15.842 5.675-21.742 7.096-22.718 5.475-51.739 15.97-72.837 26.341-11 5.407-21.35 10.317-23 10.911-8.047 2.898-30.746 7.393-49.326 9.767-17.913 2.289-21.578 2.49-27.443 1.508-3.722-.624-8.039-1.135-9.593-1.135-3.648 0-14.305-3.662-15.323-5.265-1.445-2.275-.896-14.763.807-18.351.892-1.88 3.909-5.475 6.705-7.988 8.393-7.546 17.088-11.125 33.673-13.86 21.563-3.556 22.64-3.954 41.706-15.395 9.787-5.872 22.069-13.643 27.294-17.268s16.002-10.53 23.948-15.345c16.62-10.07 34.936-22.214 46.52-30.843 8.022-5.975 18.993-11.663 26.211-13.589 5.211-1.39 36.619-6.098 40.605-6.087 1.769.005 15.591-2.93 30.716-6.523s29.525-6.999 32-7.569c3.81-.877 9.451-3.325 25.964-11.268 3.848-1.851 7.964-8.542 8.003-13.008.046-5.317 4.312-22.566 8.093-32.72 5.84-15.685 11.94-33.941 11.94-35.735 0-1.729-1.766-4.186-3.009-4.186-.335 0-1.346.563-2.248 1.25m-601.743 41.792c-13.342 1.45-16.611 2.576-31 10.676-17.796 10.018-20 11.531-25.952 17.825-5.285 5.588-6.185 8.543-3.505 11.504 1.411 1.56 1.026 2.418-4.521 10.079-7.076 9.773-11.883 19.377-14.952 29.874-2.094 7.163-2.179 8.982-1.881 40.5l.311 33 3.257 6c4.355 8.023 28.317 40.157 33.011 44.269 2.053 1.798 7.107 4.987 11.232 7.086s11.015 6.121 15.312 8.937c13.497 8.848 17.22 10.195 31.505 11.399 25.795 2.173 35.677 2.142 41.754-.132 3.642-1.362 7.885-2.059 12.54-2.059 8.952 0 17.751-2.893 36.545-12.014 15.71-7.624 16.985-8.774 25.027-22.57 10.451-17.93 14.906-28.767 21.345-51.916 8.594-30.898-2.795-79.632-24.964-106.824-11.186-13.719-28.862-24.333-48.564-29.161-6.05-1.483-13.925-3.584-17.5-4.669-5.403-1.64-10.213-2.037-28.5-2.351-12.1-.208-25.825.038-30.5.547m-5.821 11.01c-4.143.552-8.45 2.025-12.5 4.275-16.077 8.932-19.661 11.264-19.67 12.8-.005.896-3.388 4.652-7.517 8.347-5.015 4.489-9.875 10.257-14.637 17.373-13.488 20.153-14.525 24.438-15.41 63.658-.655 29.019-.608 30.174 1.443 35.495 1.34 3.476 7.914 13.218 17.866 26.472l15.746 20.972 9 4.6c4.95 2.53 12.375 6.515 16.5 8.855 12.058 6.84 13.722 7.36 26.5 8.279 28.014 2.015 36.229 2.102 41.121.435 2.568-.874 8.316-1.86 12.774-2.189 10.085-.744 17.712-3.152 33.078-10.44 12.256-5.813 15.842-8.363 19.067-13.558.998-1.609 4.246-6.609 7.216-11.111 9.954-15.088 20.482-45.405 21.64-62.315 1.953-28.527-10.928-66.198-28.896-84.503-7.849-7.996-18.901-15.68-27.618-19.201-3.199-1.292-12.018-3.77-19.599-5.506-13.524-3.098-14.309-3.161-41.783-3.368-15.4-.116-30.844.167-34.321.63m441.047 175.198c-.7.858-.535 4.072.526 10.25 1.279 7.445 1.36 11.074.467 21-.594 6.6-1.587 14.025-2.205 16.5-.619 2.475-1.444 7.875-1.834 12-.389 4.125-1.064 8.06-1.5 8.745-1.084 1.704-25.279 20.255-26.418 20.255-1.437 0-4.816-4.189-6.191-7.675-1.236-3.137-1.161-8.288.502-34.444.336-5.29.127-13.577-.465-18.416-.798-6.52-.781-9.155.065-10.174 1.727-2.081-.037-3.066-6.173-3.448-4.948-.309-5.5-.142-5.5 1.657 0 1.259.624 1.953 1.683 1.872 3.161-.24 4.057 18.185 2.323 47.786-.854 14.574.476 20.118 5.828 24.306l3.025 2.368-4.77 2.834c-2.623 1.559-9.114 5.618-14.424 9.022-8.47 5.428-9.771 5.981-10.597 4.505-.518-.926-3.445-4.163-6.505-7.195-3.06-3.031-7.25-8.53-9.313-12.218-3.497-6.253-3.749-7.265-3.738-14.993.007-5.108 1.126-13.849 2.917-22.787 2.451-12.23 3.627-15.854 7.517-23.15 4.175-7.831 4.464-8.797 3.054-10.207-.857-.857-2.164-1.325-2.904-1.041-1.164.446-10.353 16.138-11.946 20.398-.309.825-.299-.855.021-3.733.482-4.337.292-5.344-1.112-5.883-.931-.357-2.091-.252-2.576.233-.485.486-1.375 6.058-1.976 12.383-.602 6.325-1.749 15.364-2.55 20.086-1.947 11.472-1.92 26.118.054 29.935.831 1.607 3.004 3.947 4.83 5.2 4.366 2.998 8.884 8.281 11.51 13.461 1.166 2.3 2.577 4.464 3.135 4.809 2.614 1.616.111 3.637-11.032 8.908-9.59 4.537-13.618 5.888-19.75 6.627-4.237.51-8.613 1.188-9.724 1.507-2.056.59-3.623.292-18.25-3.468-24.958-6.415-57.208 1.065-62.854 14.578-.757 1.811-1.376 6.391-1.376 10.177 0 5.503.457 7.566 2.278 10.282 2.484 3.705 14.422 13.254 19.222 15.375 6.28 2.774 39.226 6.474 57.91 6.503 7.1.011 19.7.804 28 1.763 8.59.992 22.413 1.746 32.09 1.75026 16.443.00674 17.36-.10326 28-3.34626 6.05-1.845 15.275-4.639 20.5-6.21 33.837-10.176 62.54-20.048 64.771-22.279 1.942-1.943.828-5.086-1.533-4.326-7.084 2.281-13.337 4.461-23.738 8.279-6.6 2.423-16.5 5.693-22 7.268s-14.5 4.235-20 5.912c-28.518 8.694-27.036 8.453-48.513 7.883-10.718-.284-24.437-1.244-30.487-2.133-6.05-.888-20.675-2.048-32.5-2.576s-24.65-1.388-28.5-1.91c-21.749-2.952-19.739-2.295-28.897-9.446-6.282-4.905-8.61-7.365-9.106-9.621-1.036-4.718.44-11.025 3.172-13.557 2.966-2.749 14.333-7.431 18.04-7.431 1.478 0 6.328-.526 10.779-1.17 8.338-1.205 14.856-.501 33.282 3.596 5.385 1.197 7.504 1.193 15-.032 4.802-.785 10.152-1.657 11.89-1.939 5.493-.89 25.272-11.275 38.8-20.372 7.172-4.823 17.54-11.589 23.04-15.036 5.5-3.446 13.998-9.479 18.884-13.407 4.887-3.927 9.317-7.013 9.845-6.858.529.155 4.076-2.658 7.885-6.25 3.808-3.593 7.365-6.532 7.905-6.532 1.436 0 1.2-3.755-.269-4.282-.687-.246-2.037-.043-3 .452-1.465.754-1.747.446-1.733-1.885.01-1.532.933-6.16 2.053-10.285 3.251-11.982 4.512-28.582 2.99-39.401-.703-5.005-1.695-9.886-2.205-10.849-1.076-2.034-4.155-2.308-5.629-.5m-594.594 33.536c-.267.432 2.194 4.145 5.47 8.25 3.275 4.105 9.573 12.533 13.996 18.729 7.402 10.371 11.617 15.355 26.902 31.813 3.025 3.257 10.45 9.972 16.5 14.922l11 9-14.479.279c-12.994.25-15.382.019-23.294-2.25-10.101-2.898-12.299-3.087-13.051-1.126-1.011 2.634 1.822 4.508 10.824 7.158 8.05 2.369 11.375 2.727 31.5 3.385 19.361.632 22.988 1.001 26 2.645 3.102 1.692 5.659 1.906 22.5 1.883 17.689-.023 19.519-.201 26.53-2.574l7.53-2.548 1.634 2.074c1.233 1.566 1.922 1.794 2.813.93.649-.629 1.014-1.979.809-3-.278-1.391.636-2.238 3.648-3.381 4.233-1.607 5.539-4.062 3.48-6.542-1.51-1.819-5.796-1.166-14.944 2.277-3.575 1.345-9.409 3.067-12.965 3.825-6.102 1.302-6.569 1.269-8.289-.578-1.682-1.805-3.277-1.96-20.535-1.998l-18.711-.041-3.641-2.709c-23.297-17.334-43.525-36.349-56.069-52.709-21.965-28.644-23.522-30.36-25.158-27.714m531.368 8.214c-1.925 1.054-3.05 1.916-2.5 1.916s2.575-.862 4.5-1.916 3.05-1.916 2.5-1.916-2.575.862-4.5 1.916m-53 3.5c0 .917.484 1.505 1.075 1.308s1.075-.785 1.075-1.308-.484-1.111-1.075-1.308-1.075.391-1.075 1.308m42 1.081c-3.025 1.297-4.708 2.371-3.739 2.388 1.727.03 10.739-3.813 10.739-4.579 0-.66-1.293-.256-7 2.191m-462.586 173.369c-3.213 4.855-2.905 5.975 1.336 4.853 2.977-.788 3.25-1.194 3.25-4.832 0-2.184-.444-3.971-.986-3.971s-2.162 1.778-3.6 3.95m9.336 14.756c1.237.238 3.263.238 4.5 0 1.237-.239.225-.434-2.25-.434s-3.487.195-2.25.434m-20.75 5.658c-20.967 11.389-36.109 23.932-46.381 38.421-3.009 4.243-7.641 10.273-10.295 13.399-6.873 8.099-21.124 31.702-23.916 39.613-2.188 6.199-2.367 8.237-2.387193 27.092-.027807 26.82 2.988193 45.023 11.010193 66.464 3.284 8.777 14.705 22.153 34.278 40.147 24.738 22.742 27.887 25.18 40.191 31.111 17.261 8.323 18.471 8.527 54 9.107 48.146.786 61.868-1.415 86-13.792 26.787-13.739 35.004-20.616 49.498-41.426 3.448-4.95 7.991-11.067 10.097-13.593 6.658-7.988 12.747-18.814 13.943-24.791.618-3.089 2.496-10.298 4.173-16.021 3.475-11.859 3.439-18.26-.163-28.953-1.126-3.343-2.048-7.682-2.048-9.641s-1.067-6.135-2.37-9.281c-1.304-3.146-3.35-8.711-4.547-12.367-4.436-13.543-16.693-30.395-34.89-47.967-7.352-7.1-16.172-14.91-19.6-17.357-10.955-7.817-43.314-21.429-63.024-26.511-9.661-2.491-14.443-3.107-28.383-3.655-12.118-.476-17.377-.331-18.975.524-1.428.764-2.831.858-3.961.266-.962-.504-8.725-1.187-17.25-1.517s-16.625-.852-18-1.158c-1.615-.361-4.093.307-7 1.886m17 32.29c-1.375.252-3.93.907-5.678 1.455-2.268.713-3.721.659-5.079-.189-1.646-1.028-3.574-.071-14.322 7.108-12.475 8.332-18.272 13.646-33.452 30.667-18.798 21.076-22.469 30.833-22.469 59.726v15.504l4.568 12.788c9.022 25.259 23.25 50.21 34.78 60.996 26.188 24.497 41.483 29.236 94.487 29.272l27.334.019 9.656-4.035c5.311-2.219 13.205-4.917 17.542-5.997 9.577-2.383 23.718-10.194 29.375-16.225 15.481-16.504 20.278-22.367 24.626-30.1 8.974-15.961 12.097-28.809 11.403-46.907-.403-10.515-.902-13.395-3.547-20.476-8.433-22.582-26.914-50.215-40.587-60.688-3.946-3.022-10.315-6.791-14.155-8.376s-16.832-7.79-28.87-13.789l-21.888-10.907-30.612-.151c-16.837-.083-31.737.054-33.112.305m5.5 8.387c-9.777 2.29-12.918 3.44-15.634 5.725-3.35 2.819-7.483 2.443-8.679-.79-.676-1.828-1.176-1.662-7.207 2.393-6.68 4.491-16.427 14.171-28.328 28.131-16.089 18.873-19.633 28.657-19.645 54.236l-.007 15.237 4.034 10.763c7.952 21.217 20.806 44.137 30.33 54.083 2.275 2.376 7.061 6.72 10.636 9.654 20.934 17.181 29.037 19.333 76.037 20.192l30.537.558 8.79-3.638c4.834-2.001 12.599-4.527 17.255-5.613 13.293-3.099 22.021-8.341 34.676-20.824 10.442-10.3 20.295-23.978 23.518-32.648 3.126-8.411 5.187-19.88 5.187-28.865 0-12.39-2.716-21.059-11.73-37.431-7.581-13.77-15.356-24.254-25.851-34.86-5.993-6.057-8.757-7.949-18-12.326-6.005-2.843-19.651-9.523-30.324-14.844l-19.405-9.674-26.095-.198c-14.352-.108-27.895.224-30.095.739m-49.985 208.724c-.379.954-.912 7.135-1.185 13.735-.61 14.731-6.215 46.908-10.405 59.729-4.313 13.2-8.866 20.722-17.602 29.084-8.023 7.679-19.374 23.685-22.348 31.512-2.163 5.692-5.603 30.341-6.429 46.068-.33 6.266-1.224 17.291-1.989 24.5-.764 7.209-1.669 17.832-2.011 23.607-.591 9.977-2.151 22.961-6.546 54.5-1.073 7.7-2.426 18.95-3.006 25-.581 6.05-1.274 12.35-1.54 14s-1.144 10.65-1.949 20c-1.636 18.981-2.346 26.229-6.027 61.5-4.409 42.236-5.338 52.916-6.441 74-1.085 20.725-1.861 31.066-4.578 61-.824 9.075-1.92 24.6-2.437 34.5-1.218 23.364-4.269 42.701-13.409 85-.832 3.85-2.438 15.55-3.568 26-1.131 10.45-2.321 20.264-2.643 21.809l-.587 2.809 7.093-3.571c3.9-1.965 7.092-4.026 7.092-4.582 0-.555 1.913-2.244 4.25-3.754 5.219-3.37 23.942-17.283 37.095-27.564 5.376-4.203 15.26-10.865 21.965-14.804 19.414-11.408 23.222-14.327 40.31-30.9 21.898-21.237 33.507-28.664 66.549-42.576 7.332-3.087 17.486-7.369 22.565-9.515 11.041-4.665 32.924-10.435 45.697-12.048l9.225-1.165 5.705-22.57c9.638-38.121 10.343-41.176 12.472-54.069 1.136-6.875 2.77-15.425 3.631-19s1.929-8.555 2.372-11.067c.772-4.369 6.423-15.688 8.544-17.113 1.5-1.009 4.619.991 4.625 2.965.002.943-1.075 4.865-2.394 8.715-3.023 8.822-7.993 29.939-10.121 43-.897 5.5-3.135 14.95-4.975 21s-5.176 18.2-7.413 27c-2.236 8.8-4.334 16.943-4.661 18.097-.593 2.091-.507 2.098 33.732 2.71 36.092.645 49.813 1.864 81.327 7.224 21.357 3.633 30.513 5.674 61 13.598 40.16 10.437 52.167 14.776 73 26.378 13.913 7.748 27.858 14.897 52.5 26.914 21.397 10.434 67.726 34.822 78 41.059 11.603 7.045 23.357 15.62 30 21.887 3.576 3.373 11.294 10.337 17.152 15.475s13.817 13.013 17.687 17.5c3.869 4.487 10.476 11.533 14.682 15.658 8.711 8.544 8.828 9.559-1.465-12.718-5.977-12.933-9.641-22.032-28.508-70.782-5.109-13.2-10.888-26.925-12.844-30.5-1.955-3.575-6.557-13.25-10.227-21.5-11.37-25.558-18.257-40.35-27.005-58-13.384-27.003-27.74-60.566-33.79-79-8.411-25.629-18.998-60.015-24.169-78.5-14.457-51.681-38.669-113.811-61.044-156.646-10.332-19.78-14.05-25.741-28.597-45.854-20.375-28.169-23.263-32.014-36.433-48.5-7.249-9.075-14.571-18.698-16.271-21.384-3.357-5.306-9.962-10.208-26.168-19.421-20.149-11.453-30.703-14.527-98.552-28.699-20.554-4.293-49.867-9.12-69.948-11.518-8.99-1.074-23.44-3.271-39.862-6.062-7.078-1.202-14.209-4.678-21.779-10.616-4.372-3.429-6.262-5.817-8.4-10.612-1.518-3.403-3.181-6.464-3.697-6.802-.516-.337-4.559-.915-8.985-1.284-4.425-.369-10.798-1.595-14.161-2.724-10.967-3.682-26.934-12.09-34.265-18.044-6.071-4.93-7.252-5.543-7.836-4.069m-74.469 378.68c-4.363 5.257 5.12 11.427 26.788 17.431 8.066 2.235 19.166 4.771 24.666 5.635s14.05 2.636 19 3.937c10.154 2.669 63.286 12.834 89 17.027 1.65.269 10.875 1.184 20.5 2.034s28.525 2.659 42 4.019c47.256 4.772 61.236 5.472 109.33 5.472 34.553 0 48.701-.364 57.5-1.481 6.418-.814 19.095-2.123 28.17-2.908 20.03-1.732 53.324-8.49 76.5-15.527 19.637-5.962 27.629-8.129 42.77-11.595 9.085-2.079 12.016-3.154 12.85-4.713.863-1.613.693-2.408-.846-3.946-1.902-1.903-2.186-1.864-22.35 3.069-11.233 2.748-26.472 6.817-33.864 9.043-7.392 2.225-22.017 5.643-32.5 7.595-10.483 1.953-21.31 4.009-24.06 4.57-2.75.56-11.525 1.419-19.5 1.908s-20.947 1.629-28.826 2.533c-19.232 2.207-109.577 1.605-135.174-.901-9.075-.888-33.533-3.197-54.35-5.131-20.818-1.934-44.218-4.658-52-6.053-27.456-4.923-60.279-11.576-71.15-14.422-6.05-1.584-14.6-3.406-19-4.05-12.445-1.819-38.229-8.692-45.022-12.002-6.896-3.359-8.704-3.627-10.432-1.544m-180.379 152.222c-.367.366-.667 1.758-.667 3.093 0 1.642-.695 2.609-2.148 2.989-2.012.526-2.036.643-.385 1.85 1.674 1.225 1.653 1.646-.417 8.462-1.198 3.945-3.246 9.586-4.551 12.536-1.304 2.95-1.967 5.613-1.474 5.919 2.156 1.332 9.566-19.314 10.648-29.666.591-5.654.408-6.598-1.006-5.183m882.333 261.333c0 .55.675 1 1.5 1s1.5-.45 1.5-1-.675-1-1.5-1-1.5.45-1.5 1" fill-rule="evenodd" transform="translate(.5 .5)"/></svg>