<svg width="492" height="551" viewBox="0 0 492 551" fill="none" xmlns="http://www.w3.org/2000/svg">
<g opacity="0.1">
<g clip-path="url(#clip0)">
<path fill-rule="evenodd" clip-rule="evenodd" d="M362.971 56.291C365.972 53.254 366.826 53.134 364.033 56.1414L362.004 58.3269L365.406 59.4432C367.278 60.0568 373.901 61.5232 380.125 62.7022C389.832 64.5406 391.514 65.0346 391.954 66.1799C392.969 68.8193 390.436 69.2297 381.549 67.8652C373.977 66.7021 373.072 66.7133 371.747 67.9858L370.286 69.3875L345.024 64.1823C331.129 61.3192 315.112 58.2945 309.43 57.4606C298.252 55.8199 290.467 54.6446 273.299 52.0055C267.218 51.0709 261.069 50.2008 259.632 50.0717C257.201 49.8535 248.108 48.2901 203.817 40.4756C194.523 38.8356 167.52 33.6598 143.25 28.8679L141.768 28.5751C108.89 22.0753 97.054 19.9622 97.3062 20.637C97.4955 21.1428 94.8076 36.4321 91.3332 54.6142C87.8589 72.7955 82.4351 102.726 79.2791 121.125C75.2572 144.573 72.0692 160.882 68.62 175.651C62.8803 200.227 55.55 238.765 54.4759 250.012C52.4933 270.768 50.828 284.585 48.4357 300.13C46.9993 309.462 45.344 321.279 44.7559 326.389C44.1679 331.499 43.1117 339.842 42.4082 344.929C40.6687 357.505 29.1488 415.422 25.0961 431.967C18.1913 460.155 14.7414 473.542 14.2371 474.099C13.4111 475.012 10.916 474.013 10.6858 472.678C10.5592 471.943 14.9375 452.712 20.4157 429.941C28.0467 398.22 31.1388 384.07 33.6393 369.421C35.4336 358.905 37.0102 349.125 37.1419 347.688C37.2744 346.251 37.7908 341.906 38.2899 338.033C38.7889 334.159 39.3687 329.314 39.5782 327.265C39.7825 325.266 41.1854 315.731 42.7274 305.856L42.8448 305.105C44.4323 294.967 45.7884 285.657 45.8577 284.416C46.0067 281.748 46.7618 274.791 47.7976 266.555C48.2079 263.292 48.6453 259.273 48.7701 257.625C49.924 242.39 55.5117 212.314 64.2591 174.26C68.4907 155.847 71.2862 141.718 74.1451 124.291C76.3366 110.927 81.4087 82.4478 85.4161 61.0036C92.4413 23.4135 92.7224 22.036 94.3608 20.9032L94.4628 20.8339L96.2218 19.6547L93.2003 18.825C90.5159 18.0878 90.2192 17.7912 90.5406 16.1664L90.9025 14.3375L159.695 27.4302C204.85 36.0239 236.35 41.6709 251.368 43.8647C263.952 45.703 282.7 48.5292 293.031 50.1445C313.074 53.2791 329.873 55.3167 331.224 54.7774C331.677 54.5965 335.178 55.039 339.003 55.7608C342.828 56.4827 349.237 57.4521 353.246 57.9147L360.536 58.7556L362.971 56.291ZM338.087 471.637C338.689 470.903 339.68 470.643 340.625 470.974C342.395 471.594 342.263 472.741 339.15 483.842C338.15 487.407 336.479 493.576 335.439 497.551C333.741 504.034 329.618 514.832 327.698 517.823C327.118 518.727 327.454 519.101 329.358 519.672C331.204 520.225 331.725 520.772 331.653 522.082C331.553 523.92 331.051 524.099 326.49 523.923C319.592 523.657 272.719 514.523 237.339 506.55C195.247 497.064 159.132 489.75 133.603 485.542C124.3 484.009 109.418 481.505 100.531 479.978C91.6448 478.451 81.5509 476.789 78.1006 476.284C74.6503 475.779 62.0864 473.648 50.1809 471.547C33.0046 468.516 27.5958 467.321 23.9879 465.759C20.2932 464.159 19.4558 463.494 19.5178 462.21C19.6482 459.536 22.4936 459.21 27.0721 461.343C31.8952 463.591 43.7935 465.959 81.2031 472.118C96.7761 474.681 120.936 478.657 134.891 480.952C158.033 484.757 224.948 498.293 228.881 499.966C231.831 501.219 305.191 516.491 313.088 517.496L320.998 518.501L322.671 515.923C326.039 510.733 328.684 503.57 332.846 488.375C335.186 479.832 337.545 472.299 338.087 471.637ZM399.134 63.6771C400.707 64.2271 400.7 64.4097 398.745 74.1059C397.649 79.5337 395.155 91.3553 393.202 100.376C390.039 114.983 389.62 117.895 389.372 126.985C389.11 136.631 388.648 139.535 381.005 179.684C373.958 216.7 369.598 242.88 369.422 249.23C369.393 250.27 368.619 256.787 367.702 263.714C366.785 270.64 365.771 279.334 365.45 283.033C363.747 302.6 359.641 339.833 357.287 357.057C356.647 361.739 356.122 366.082 356.119 366.709C356.117 367.335 355.841 369.364 355.506 371.217C354.925 374.439 355.062 374.78 358.679 379.067C360.758 381.53 364.342 385.63 366.642 388.176C372.972 395.182 378.502 402.474 385.61 413.188C389.086 418.427 392.868 423.874 394.116 425.438L394.181 425.52C402.705 436.022 413.935 452.287 413.661 453.733C413.584 454.136 413.943 456.601 414.459 459.212C415.663 465.307 414.768 470.438 412.2 472.16C410.692 473.171 409.791 473.213 407.385 472.384C404.836 471.506 404.282 471.563 403.408 472.788C401.884 474.925 400.993 474.695 397.586 471.291C395.348 469.055 394.519 467.619 394.635 466.177C394.796 464.169 394.073 463.11 385.103 452.211C382.914 449.552 380.989 447.16 380.824 446.896C376.389 439.797 362.122 420.662 355.174 412.478L354.934 412.197L350.389 406.879L349.277 414.324C348.675 418.362 346.577 429.837 344.586 439.995L344.501 440.429L340.836 459.089L339.049 459.486C337.577 459.813 337.145 460.465 336.602 463.183C335.226 470.065 331.651 483.188 330.754 484.651C329.798 486.21 327.204 486.299 326.641 484.791C326.472 484.342 327.939 477.875 329.901 470.422C332.615 460.102 333.763 456.717 334.713 456.227C336.117 455.503 339.3 440.463 343.367 415.344L343.491 414.58L345.778 400.405L341.01 394.704C338.387 391.568 334.769 387.343 332.969 385.314C331.169 383.286 327.235 378.392 324.227 374.441C321.219 370.489 315.521 363.249 311.563 358.353C305.66 351.047 299.114 342.074 288.327 326.499C287.739 325.651 287.389 324.299 287.548 323.495C287.787 322.288 285.476 312.117 282.006 299.109C281.226 296.184 281.795 294.334 283.7 293.601C284.774 293.189 285.642 293.853 287.916 296.825C289.491 298.883 291.116 300.634 291.526 300.715C291.936 300.796 295.644 303.401 299.766 306.505C306.261 311.396 307.213 312.384 306.909 313.921C306.467 316.155 313.407 326.861 318.409 331.662C320.344 333.52 324.787 338.91 328.283 343.641C331.778 348.372 335.244 352.865 335.983 353.625C336.723 354.386 340.162 358.049 343.626 361.766C349.536 368.106 351.142 369.56 350.615 368.09C350.495 367.753 351.115 362.659 351.995 356.77L352.088 356.152C352.928 350.49 353.641 345.181 353.694 344.183C353.746 343.192 354.296 338.86 354.935 334.387L355.019 333.803L355.103 333.219C355.741 328.745 356.274 324.41 356.304 323.414C356.337 322.375 356.608 319.35 356.909 316.692C357.209 314.034 357.834 308.171 358.299 303.664C358.764 299.157 359.37 293.29 359.644 290.627C359.92 287.964 360.084 285.601 360.009 285.378C359.934 285.154 360.369 281.306 360.976 276.827C363.434 258.659 364.747 247.67 364.701 245.636C364.666 244.094 367.874 226.21 377.936 171.855C380.959 155.519 383.533 140.635 383.656 138.778C383.779 136.921 384.157 130.676 384.497 124.901C384.836 119.126 385.696 111.428 386.407 107.795C387.934 99.987 396.363 65.3388 397.054 64.0258C397.317 63.5259 398.253 63.3691 399.134 63.6771ZM302.667 320.966C302.131 321.038 301.616 321.483 301.522 321.954C301.314 323.009 296.602 326.045 295.508 325.829C295.07 325.742 294.689 325.786 294.661 325.927C294.523 326.624 308.573 346.503 313.591 352.711C316.747 356.615 321.927 363.251 325.102 367.458C328.277 371.665 333.516 378.16 336.746 381.892C339.975 385.624 346.345 393.363 350.9 399.091C355.455 404.819 361.338 412.156 363.973 415.395C366.608 418.634 372.244 426.21 376.498 432.233C380.751 438.254 386.773 446.2 389.88 449.889C392.986 453.578 397.125 458.796 399.078 461.485C402.254 465.859 402.901 466.413 405.83 467.007L406.002 467.041C410.449 467.921 410.922 466.521 409.001 458.169C407.688 452.457 405.158 448.355 394.041 433.905C389.888 428.507 383.861 420.107 380.648 415.239C374.143 405.382 368.67 398.28 361.472 390.352C358.819 387.429 356.268 384.027 355.803 382.79C354.68 379.808 352.748 377.483 351.106 377.136C350.373 376.982 348.223 374.891 346.33 372.488C344.437 370.086 341.461 366.696 339.717 364.955C334.699 359.945 332.04 356.761 324.982 347.312C321.35 342.45 316.943 337.088 315.19 335.397C313.436 333.706 310.12 329.737 307.822 326.579C305.523 323.419 303.204 320.893 302.667 320.966ZM73.2201 282.847C75.6082 281.136 78.1378 281.566 79.6016 283.931C81.7025 287.326 80.6489 291.346 77.2054 293.075C75.5393 293.912 71.891 292.516 70.967 290.688C69.8706 288.519 71.054 284.399 73.2201 282.847ZM117.806 295.654C119.735 294.801 122.117 295.107 125.047 296.583C126.289 297.209 126.673 297.957 126.418 299.249C126.088 300.916 125.717 301.016 121.273 300.635C118.638 300.409 116.241 300.001 115.947 299.726C114.918 298.77 115.97 296.465 117.806 295.654ZM147.914 298.387C149.491 297.651 154.835 298.534 157.777 300.018C159.766 301.02 160.048 303.493 158.266 304.326C157.531 304.67 154.939 304.328 151.717 303.461C147.177 302.238 146.388 301.808 146.397 300.558C146.403 299.75 147.085 298.774 147.914 298.387ZM187.955 303.269C189.776 302.42 190.638 302.569 196.02 304.667C202.58 307.223 202.765 307.37 202.082 309.5C201.401 311.623 200.717 311.556 191.061 308.414C187.299 307.19 186.434 306.634 186.441 305.44C186.446 304.632 187.127 303.655 187.955 303.269ZM230.2 308.853C230.917 308.372 232.057 308.594 236.801 310.14C240.518 311.351 241.468 312.56 240.24 314.514C239.493 315.7 233.582 314.781 230.812 313.047C229.179 312.026 228.848 309.76 230.2 308.853ZM274.283 315.168C275.033 313.975 280.213 314.767 282.173 316.375C283.674 317.607 283.354 320.247 281.669 320.539C279.735 320.874 274.05 318.527 273.839 317.307C273.732 316.688 273.932 315.726 274.283 315.168ZM316.698 323.507C317.099 322.87 318.006 322.669 318.967 323.006C320.141 323.416 320.472 324.053 320.206 325.394C319.941 326.735 319.392 327.198 318.151 327.131C316.304 327.031 315.595 325.261 316.698 323.507ZM289.516 306.483L290.531 311.007C292.263 318.728 292.222 318.648 293.96 317.604C294.789 317.106 295.771 316.756 296.142 316.826C296.512 316.896 297.364 316.201 298.034 315.281C299.193 313.689 299.095 313.485 295.977 311.043C294.177 309.631 291.986 308.028 291.11 307.479L289.516 306.483ZM79.5936 224.88C81.7647 223.867 85.3104 224.665 86.6509 226.468C89.1683 229.854 84.9371 235.053 80.4892 234.041C77.3275 233.321 76.6885 232.198 77.3992 228.606C77.8129 226.515 78.4667 225.406 79.5936 224.88ZM110.599 235.27C114.457 235.824 117.978 236.462 118.424 236.686C119.501 237.231 119.775 239.087 118.967 240.371C118.428 241.229 116.989 241.108 110.588 239.664C103.173 237.99 102.874 237.917 103.184 236.288L103.252 235.943C103.591 234.294 103.902 234.307 110.599 235.27ZM134.81 238.601C137.134 237.798 144.457 239.484 144.697 240.876C145.117 243.315 143.753 243.94 138.936 243.512C136.307 243.279 133.859 242.812 133.496 242.474C132.448 241.499 133.249 239.14 134.81 238.601ZM165.569 240.505C166.164 240.103 171.832 241.558 177.586 243.575L178.152 243.775C180.977 244.782 181.817 246.626 180.09 248.032C179.216 248.743 177.792 248.574 172.843 247.169C169.456 246.208 166.169 245.007 165.538 244.5C164.367 243.56 164.385 241.303 165.569 240.505ZM203.305 247.191C206.443 246.451 217.93 249.156 218.562 250.784C219.687 253.68 217.883 254.01 208.941 252.542C200.666 251.184 200.484 251.117 200.573 249.484C200.642 248.213 201.295 247.665 203.305 247.191ZM239.662 250.793C242.113 250.546 261.009 255.018 261.675 256.002C261.948 256.405 261.931 257.323 261.64 258.042C261.168 259.201 260.292 259.175 250.377 257.224L237.015 254.581L237.37 252.785C237.623 251.505 238.282 250.932 239.662 250.793ZM280.059 256.116C282.271 255.084 290.412 256.841 291.338 258.551C291.869 259.529 291.793 260.192 291.061 260.967C290.259 261.815 288.874 261.8 284.295 260.895L284.031 260.842C279.164 259.873 278.54 259.568 278.546 258.287C278.55 257.479 279.23 256.502 280.059 256.116ZM325.101 261.746C326.651 262.053 327.68 262.691 327.807 263.422C328.185 265.619 326.829 266.649 324.232 266.136C321.636 265.622 320.773 264.153 321.96 262.265C322.355 261.637 323.55 261.44 325.101 261.746ZM153.791 187.201C155.228 184.914 163.201 188.185 162.674 190.845C162.265 192.912 160.581 193.029 156.342 191.283C153.473 190.101 152.487 189.965 151.518 190.615C150.674 191.18 148.448 191.065 144.28 190.241C137.78 188.955 135.623 187.558 136.562 185.243C137.062 184.01 137.808 184.013 144.425 185.26C148.446 186.018 152.052 186.997 152.439 187.435C152.877 187.932 153.386 187.844 153.791 187.201ZM112.002 179.673C112.659 178.628 118.032 179.246 120.211 180.618C121.376 181.352 121.087 184.525 119.81 185.004C119.374 185.168 117.378 184.744 115.375 184.065C111.732 182.828 110.79 181.601 112.002 179.673ZM172.681 191.637C173.178 190.845 174.191 190.811 176.776 191.497C179.9 192.326 180.178 192.574 179.849 194.237C179.52 195.901 179.168 196.024 175.964 195.601C172.274 195.114 171.261 193.893 172.681 191.637ZM84.4294 168.913C86.2066 168.118 89.213 168.832 90.1806 170.278C91.3001 171.951 90.6761 174.782 88.9072 176.062C86.4542 177.836 83.8411 177.245 82.8056 174.683C81.666 171.865 82.2183 169.903 84.4294 168.913ZM267.371 208.119C267.927 207.235 270.281 207.568 284.256 210.509L300.494 213.927L299.77 217.585L283.454 214.561C269.412 211.959 267.109 211.371 266.931 210.341C266.818 209.684 267.016 208.683 267.371 208.119ZM212.141 196.066C218.21 197.057 223.718 198.256 224.38 198.729C225.127 199.262 225.379 200.178 225.042 201.14C224.536 202.587 224.302 202.646 214.131 200.64L200.383 197.92L201.107 194.262L212.141 196.066ZM233.939 197.845C234.656 197.363 235.796 197.586 240.539 199.131C244.404 200.39 245.518 201.983 243.618 203.53C242.393 204.528 235.956 203.428 234.098 201.904C232.864 200.89 232.774 198.625 233.939 197.845ZM320.028 214.652C320.639 213.681 321.729 213.814 329.187 215.765C338.068 218.089 339.58 218.986 338.726 221.424C338.136 223.108 337.052 222.968 326.051 219.793C319.564 217.921 318.528 217.037 320.028 214.652ZM357.121 218.996C357.521 218.359 358.429 218.159 359.39 218.495C360.563 218.906 360.894 219.543 360.629 220.884C360.363 222.225 359.815 222.688 358.573 222.621C356.727 222.521 356.017 220.75 357.121 218.996ZM116.342 128.205C118.083 127.037 122.344 129.851 121.939 131.901C121.689 133.163 127.034 133.626 133.64 132.915C140.001 132.231 140.522 132.292 150.078 134.837L159.946 137.466L159.223 141.124L148.976 139.179C140.41 137.552 137.959 137.352 134.029 137.961C131.444 138.361 127.277 138.485 124.769 138.238C120.258 137.792 120.182 137.75 117.756 134.351C115.451 131.123 114.989 129.112 116.342 128.205ZM285.259 158.825C292.909 156.16 296.757 156.291 300.51 159.346C301.661 160.283 304.338 161.78 306.458 162.673C309.851 164.102 310.272 164.509 309.963 166.068C309.648 167.664 309.262 167.792 306.07 167.371C303.508 167.032 301.532 166.185 298.933 164.309C294.636 161.208 293.857 161.196 285.333 164.107C279.383 166.138 278.478 166.235 274.082 165.317C271.152 164.704 267.945 163.459 265.796 162.098C261.555 159.412 256.105 158.78 244.985 159.684C241.067 160.002 237.122 160.083 236.217 159.863C235.312 159.644 228.308 158.305 220.652 156.888C212.997 155.472 202.951 153.568 198.328 152.656L189.923 150.999L190.313 149.028C190.653 147.372 190.968 147.384 198.046 148.324C202.115 148.866 209.565 150.076 214.6 151.015C219.635 151.953 226.123 152.843 229.017 152.992C232.845 153.19 234.662 153.577 235.683 154.414C236.806 155.334 238.08 155.442 242.032 154.951C255.411 153.29 263.997 154.391 270.164 158.557C275.156 161.928 276.293 161.949 285.259 158.825ZM90.2549 125.488C92.1959 124.041 94.3515 124.703 95.3058 127.038C95.9315 128.569 95.8056 128.957 94.2693 130.238C92.7639 131.495 92.2533 131.538 90.5869 130.553C88.2448 129.169 88.1083 127.088 90.2549 125.488ZM174.579 142.192C176.435 142.312 178.249 142.52 178.61 142.655C179.737 143.076 180.283 145.405 179.533 146.597C178.953 147.52 178.019 147.536 174.648 146.685L174.431 146.63C170.735 145.691 170.51 145.485 170.843 143.803L170.865 143.693C171.184 142.179 171.667 142.004 174.579 142.192ZM337.442 164.93C337.843 164.293 338.75 164.092 339.711 164.428C340.885 164.839 341.216 165.476 340.95 166.817C340.685 168.158 340.136 168.621 338.895 168.554C337.048 168.454 336.339 166.684 337.442 164.93ZM262.147 148.185C262.53 148.261 262.302 149.043 261.63 149.958C260.401 151.633 259.71 150.834 260.838 149.041C261.182 148.496 261.77 148.11 262.147 148.185Z" fill="black"/>
</g>
</g>
<defs>
<clipPath id="clip0">
<rect x="93.3594" width="406" height="481" transform="rotate(11.1918 93.3594 0)" fill="white"/>
</clipPath>
</defs>
</svg>
