<svg height="220" viewBox="0 0 396 220" width="396" xmlns="http://www.w3.org/2000/svg"><path d="m96.5.727c-1.65.235-3.427.842-3.95 1.35s-2.025.923-3.34.923c-1.314 0-3.273 1.012-4.354 2.25-2.221 2.544-5.203 8.737-4.53 9.409.243.244.921-.93 1.506-2.607.585-1.678 2.284-4.182 3.776-5.565 2.375-2.2 3.301-2.435 7.438-1.887 2.83.376 5.473.181 6.59-.485 1.482-.884.994-.983-2.386-.485-2.638.388-4.25.238-4.25-.397 0-1.672 8.208-2.103 11.404-.6 1.597.752 4.147 1.367 5.668 1.367 4.716 0 6.061 1.101 9.041 7.401 3.706 7.834 3.748 9.794.137 6.354l-2.75-2.62-6.431 1.495c-9.042 2.1-10.165 2.855-9.918 6.67.238 3.673-1.608 7.7-3.531 7.7-2.226 0-4.811 3.677-4.337 6.168.394 2.067.46 2.014.581-.466.103-2.111.887-3.114 3.193-4.084 3.657-1.538 5.896-5.411 5.209-9.008-.431-2.251.005-2.825 3.137-4.134 2.001-.836 5.625-1.792 8.055-2.125 4.183-.574 4.522-.433 6.408 2.669 1.096 1.802 2.764 6.127 3.707 9.613 1.678 6.198 1.669 6.461-.429 11.941-1.179 3.082-2.144 7.264-2.144 9.292 0 5.023-2.145 7.732-6.711 8.479-3.187.522-4.464.137-8.039-2.424-3.049-2.185-4.25-2.627-4.25-1.565 0 .815 1.638 2.493 3.641 3.731 3.226 1.994 4.193 2.137 8.488 1.257 5.958-1.22 6.514-.26 4.452 7.69-.779 3.005-1.242 5.639-1.027 5.853.865.866 2.647-5.724 2.944-10.887.174-3.025.869-7.01 1.544-8.856 1.186-3.242 1.368-3.334 5.326-2.701 3.622.579 16.716 5.764 22.088 8.746 1.076.597 7.822 3.27 14.99 5.94 8.257 3.075 13.679 5.682 14.796 7.113 4.009 5.133 3.425 10.45-1.676 15.261-3.094 2.918-3.815 3.123-11.682 3.332-12.689.337-14.906.929-16.079 4.295-.55 1.578-1.407 2.87-1.903 2.87s-.902 1.8-.902 4c0 5.21-1.467 5.097-3.253-.25l-1.42-4.25-1.225 3.701c-.927 2.801-.947 4.22-.082 5.836 1.425 2.663.56 3.69-1.6 1.897-1.653-1.373-1.58-6.035.165-10.383.768-1.915.722-1.914-2.652.048-2.602 1.515-3.509 2.773-3.746 5.2-.176 1.791.155 3.201.75 3.201.584 0 1.063-1.295 1.063-2.878 0-1.582.675-3.437 1.5-4.122 1.757-1.459 1.847-1.043.525 2.435-.638 1.677-.631 3.47.018 5.179.842 2.214.749 2.52-.606 2-.88-.338-2.464-.614-3.519-.614-1.593 0-1.918-.728-1.918-4.3 0-2.365.489-4.789 1.087-5.387 1.792-1.792-.565-2.367-2.924-.715-1.669 1.169-2.14 2.473-2.063 5.709l.101 4.193.923-3.941c1.304-5.561 1.876-5.629 1.876-.226 0 4.418-.147 4.668-2.75 4.693-2.533.025-6.683 2.036-22.616 10.963l-5.867 3.287.708-7.999c.706-7.971.698-8.011-2.449-11.595-1.737-1.978-4.01-5.303-5.052-7.389s-1.912-3.216-1.934-2.511c-.073 2.36 2.68 7.829 5.684 11.291l2.975 3.427-1.453 11.5c-2.118 16.771-3.219 22-4.634 22-.686 0-2.038-2.509-3.004-5.575-2.262-7.177-12.883-28.41-16.157-32.3-1.386-1.648-3.224-5.388-4.083-8.311-1.772-6.026-3.835-8.814-6.523-8.814-1.53 0-1.845-.797-1.845-4.671 0-2.944.612-5.348 1.655-6.5.91-1.006 1.19-1.829.622-1.829-1.477 0-2.895 2.057-3.68 5.338-.523 2.186-.978 2.59-1.98 1.759-.716-.594-1.526-.855-1.801-.58s-3.563-2.204-7.306-5.508c-3.744-3.305-7.527-5.995-8.408-5.977-1.068.021-.601.771 1.398 2.248 1.65 1.22 4.575 3.599 6.5 5.288 1.925 1.69 5.195 4.337 7.268 5.884l3.767 2.812-2.517 4.296c-2.913 4.971-3.01 5.44-1.122 5.44 1.641 0 4.165 2.903 15.547 17.885 7.892 10.388 16.463 25.068 20.346 34.847l1.681 4.232-2.985 1.544c-1.737.898-2.985 2.344-2.985 3.459 0 1.053-.492 2.219-1.094 2.591s-.892 1.737-.644 3.032c.437 2.287.286 2.344-5.156 1.922-3.083-.239-5.944-.452-6.356-.474-.412-.021-.75-.468-.75-.993s-1.089-2.043-2.42-3.374c-1.572-1.572-2.66-4.128-3.105-7.295-.376-2.682-2.184-7.653-4.018-11.048-2.563-4.746-3.746-8.787-5.121-17.5-.983-6.23-1.952-10.242-2.153-8.914-.826 5.46 1.945 18.636 5.417 25.757 1.923 3.945 3.852 9.425 4.287 12.179.511 3.232 1.824 6.244 3.702 8.492 3.603 4.313 4.709 4.852 10.657 5.192 2.959.169 6.485 1.29 9.364 2.977 4.772 2.797 4.73 2.798 10.471-.256.32-.17 1.167 1.467 1.883 3.637 1.325 4.015 1.038 17.818-.445 21.358-.453 1.081-.29 1.75.425 1.75.637 0 1.843-1.64 2.681-3.645 1.428-3.419 1.469-5.708.365-20.534-.069-.924-1.194-2.38-2.501-3.236-2.155-1.412-2.636-1.408-5.182.048-2.659 1.521-3.018 1.481-6.807-.764l-4-2.369 3-.327c1.65-.18 3.45-.793 4-1.362.685-.709.29-.821-1.25-.356-2.784.841-6.25-.169-6.25-1.822 0-.81 1.156-1.096 3.382-.837 1.86.218 3.636-.016 3.947-.519.311-.504-.662-.735-2.163-.515-2.19.322-2.759-.009-2.885-1.679-.204-2.708 3.27-4.701 5.283-3.03 1.744 1.448 4.454-.352 4.406-2.925-.027-1.428-.156-1.413-1.05.122-1.638 2.812-2.916 2.036-1.82-1.107.548-1.571.921-3.258.829-3.75-.665-3.575.497-5.393 5.622-8.796 3.053-2.027 6.653-4.104 8-4.616l2.449-.931v9.13c0 8.625-.097 9.043-1.75 7.563-1.147-1.026-3.646-1.559-7.25-1.546-3.025.01-4.825.253-4 .538 3.541 1.226 6 4.634 6 8.317 0 4.433-1.849 6.275-5.404 5.383-1.535-.385-2.596-.231-2.596.377 0 .566 1.324 1.32 2.943 1.675 2.005.441 2.768 1.104 2.393 2.08-1.195 3.115.745 1.195 2.735-2.707 1.394-2.731 1.988-5.446 1.746-7.979-.501-5.258 1.804-6.033 3.791-1.277 1.396 3.342 1.326 4.164-1.047 12.165-1.399 4.72-2.377 8.749-2.172 8.954s1.575-2.923 3.045-6.952c2.448-6.712 3.073-7.55 7.479-10.027 4.377-2.46 8.221-5.744 6.724-5.744-.334 0-2.801 1.35-5.483 3-2.681 1.65-5.05 3-5.265 3-.214 0-.389-6.021-.389-13.38v-13.38l8.649-.885 8.649-.885-.532 3.515c-.293 1.933-1.07 6.702-1.726 10.598-1.269 7.534-1.245 8.724.308 14.773.544 2.121 1.32 9.321 1.725 16 .586 9.668.93 11.568 1.69 9.319 1.154-3.418-.591-24.649-2.413-29.347-1.868-4.819 1.651-22.645 5.25-26.593 1.79-1.964 2.455-3.613 2.134-5.294-.284-1.484 0-2.441.725-2.441.677 0 1.113-1.187 1.01-2.75-.38-5.764.002-7.25 1.864-7.25 2.82 0 3.219-.999 1.627-4.077-1.708-3.303-1.791-3.923-.527-3.923.513 0 1.218.9 1.567 2s1.504 2 2.567 2c1.49 0 1.96-.745 2.051-3.25.066-1.787.066-3.588 0-4-.181-1.148 1.339-.893 2.682.45.933.933 1.2.642 1.2-1.309 0-1.38.563-3.276 1.25-4.214 1.106-1.508 1.943-1.575 7.25-.582 7.668 1.434 26.124.717 27.788-1.08.979-1.058.828-1.164-.788-.551-3.361 1.275-19.831 1.792-22.5.707-2.104-.856-1.614-1.002 3.102-.921 6.41.109 11.795-2.533 13.705-6.725 1.319-2.896 4.837-3.311 11.395-1.346 5.468 1.638 7.991 5.132 7.655 10.599-.182 2.957.199 4.64 1.188 5.256 1.194.743 1.231 1.267.205 2.922-1.681 2.712-1.577 3.56.25 2.044 1.593-1.322 2.091-6 .639-6-.474 0-.639-1.163-.368-2.583.272-1.421-.068-4.288-.756-6.371-1.435-4.348-4.459-6.166-13.312-8.004-5.002-1.038-5.703-1.475-5.703-3.556 0-3.93-3.71-9.063-7.762-10.739-8.192-3.387-14.555-5.747-15.495-5.747-.916 0-11.578-4.555-21.36-9.126-2.265-1.058-6.765-2.452-10-3.098-3.236-.645-6.033-1.272-6.217-1.392s.654-2.927 1.861-6.238c1.631-4.472 2.027-7.129 1.541-10.333-.36-2.372-.98-7.913-1.377-12.313-.398-4.4-1.268-8.964-1.934-10.142-2.042-3.611-7.247-7.358-10.219-7.358-1.545 0-4.098-.672-5.674-1.494-2.889-1.507-3.424-1.554-8.864-.779m-57.5 6.78c-7.504 2.914-11.074 6.44-19.991 19.743-7.112 10.61-9.412 16.514-10.94 28.085-1.525 11.553-.684 17.481 2.66 18.752 2.381.905 2.416 1.044.876 3.428-.883 1.367-2.272 3.519-3.087 4.782-2.328 3.608-7.498 24.423-8.124 32.703-.495 6.563-.174 8.75 2.572 17.5 4.809 15.327 6.339 27.386 5.676 44.75-.315 8.26-.175 14.75.318 14.75 1.472 0 2.347-12.683 1.756-25.443-.64-13.809-2.464-23.333-6.353-33.172-2.3-5.821-2.716-8.353-2.689-16.385.026-8.05.584-11.277 3.65-21.144 3.735-12.02 7.011-18.856 9.036-18.856.639 0 2.957-1.551 5.15-3.447 3.633-3.139 4.39-3.393 8.489-2.851 2.476.328 5.389 1.204 6.474 1.947 3.56 2.438 5.237 1.513 2.027-1.118-2.389-1.958-4.159-2.466-8.691-2.495-3.13-.02-5.971.417-6.313.971-.343.554-1.89 1.662-3.438 2.463-7.788 4.028-11.163-5.713-7.969-22.996 1.935-10.466 8.77-21.131 21.584-33.68 9.929-9.722 16.979-11.043 30.147-5.646 8.637 3.54 10.271 4.709 14.326 10.252 4.112 5.619 3.896 10.363-.746 16.41-3.474 4.525-3.579 4.906-2.984 10.827.471 4.686.295 6.26-.742 6.658-1.398.536-4.674 10.674-4.674 14.462 0 1.169-.485 2.424-1.077 2.79-1.645 1.017-12.309.637-15.431-.55-1.523-.579-3.005-.817-3.293-.529-.288.287.885 1.014 2.605 1.614 2.998 1.045 3.066 1.187 1.608 3.412-1.013 1.547-1.169 2.538-.466 2.972.58.359 1.054.314 1.054-.098 0-.413.661.123 1.468 1.191 1.67 2.207 2.025 1.231.553-1.52-1.518-2.836 1.143-4.393 6.481-3.792 4.258.48 4.702.281 8.742-3.908 2.341-2.427 6.168-5.541 8.506-6.918 2.338-1.378 4.25-2.936 4.25-3.463 0-2.077 1.631-.747 4.336 3.535 1.56 2.469 5.759 7.055 9.332 10.192 6.952 6.104 9.124 6.359 10.369 1.22 1.134-4.679 2.157 3.947 2.482 20.927.171 8.983.633 16.633 1.025 17 .858.804-.206-38.374-1.13-41.582-.887-3.083 1.085-2.894 4.134.396 1.753 1.892 2.452 2.202 2.452 1.089 0-.857-1.405-2.739-3.121-4.183-3.079-2.591-3.096-2.655-1.25-4.744l1.871-2.118-2.658 1.71c-1.865 1.2-3.191 3.485-4.44 7.655-1.731 5.779-3.468 7.346-5.102 4.602-.44-.738-2.1-2.18-3.688-3.205s-4.871-4.583-7.296-7.907l-4.407-6.045 2.606-2.254 2.607-2.255 2.441 2.902c2.263 2.689 11.265 9.107 12.775 9.107 1.819 0 .271-1.816-2.794-3.278-1.901-.906-5.322-3.334-7.603-5.395-4.346-3.926-4.401-4.192-2.637-12.827.225-1.1.216-1.437-.021-.75-.573 1.668-1.857 1.575-4.791-.347-2.742-1.797-4.226-7.27-2.706-9.985.892-1.594 1.214-1.509 3.698.975 1.496 1.496 2.534 2.16 2.305 1.475-.228-.686-1.625-2.15-3.105-3.254-3.375-2.521-5.124-1.157-4.981 3.882.061 2.161-.294 3.257-.928 2.865-.626-.387-.808-3.026-.466-6.748 1.046-11.369-5.417-19.651-18.808-24.105-11.547-3.841-15.73-4.019-23.501-1.001m219.993 13.337c-8.23 2.094-8.993 2.622-8.993 6.215 0 3.988 1.795 3.749 2.187-.291.293-3.029.659-3.313 5.813-4.514 8.867-2.066 20.534-1.705 24.52.758 4.964 3.068 7.502 9.21 8.134 19.68.428 7.089.144 10.028-1.456 15.058-2.095 6.586-1.522 8.799.693 2.675 1.773-4.903 2.23-3.872 1.476 3.335-.589 5.641-.774 6.003-2.513 4.917-1.032-.645-2.127-1.961-2.433-2.925-.305-.963-.964-1.752-1.464-1.752-.517 0-.472 1.145.105 2.664.887 2.333.605 3.098-2.275 6.168-5.07 5.405-7.968 7.863-11.896 10.091-3.512 1.991-3.654 1.996-5.289.19-1.597-1.765-1.426-2.086 3.467-6.485 2.831-2.545 4.749-4.628 4.262-4.628s-2.33 1.32-4.097 2.933c-2.841 2.595-3.858 2.908-8.825 2.719-4.931-.189-5.874-.57-7.739-3.131-3.026-4.153-6.022-16.378-4.723-19.271.7-1.559.663-3.012-.12-4.73-1.069-2.347-.272-10.834 1.598-17.02.333-1.1-.046-.65-.843 1-2.03 4.207-2.992 12.885-1.805 16.289.653 1.876.66 3.466.017 4.614-.69 1.234-.339 4.262 1.188 10.249 2.036 7.983 4.56 12.348 7.14 12.348.779 0 .744.457-.114 1.491-.838 1.01-1.013 2.989-.542 6.132 1.274 8.494 2.441 9.214 1.828 1.127-.563-7.428-.499-7.75 1.546-7.75 1.18 0 3.64 1.644 5.505 3.68 3.301 3.602 3.443 3.65 6.71 2.297 1.835-.76 6.397-4.269 10.138-7.798l6.802-6.416 3.833 3.462 3.832 3.463-2.325 2.906c-1.279 1.598-2.327 3.377-2.33 3.952-.003.576-3.155 3.867-7.005 7.314s-7 6.726-7 7.287c0 .562 2.789-1.503 6.197-4.587l6.197-5.608 1.187 4.677c.891 3.51.912 6.284.083 11.126-1.014 5.917-.947 6.565.807 7.847 2.9 2.121 4.386 1.628 1.584-.525-2.344-1.802-2.396-2.088-1.266-6.985.679-2.938.914-7.644.554-11.086-.558-5.34-.347-6.401 1.969-9.902l2.595-3.92 4.296 1.26c3.932 1.153 4.462 1.712 6.236 6.586 1.939 5.325 1.939 5.326-.253 13.898-2.301 8.997-2.738 13.613-1.367 14.46.451.279.627-.802.392-2.401-.234-1.599.312-5.063 1.215-7.697 4.491-13.109 2.136-23.229-6.085-26.156-3.244-1.155-4.623-2.408-6.263-5.692-2.164-4.332-2.118-6.536.425-20.442.548-2.992.449-3.269-.681-1.908-1.115 1.343-1.323.089-1.33-8-.008-10.609-1.322-14.699-6.173-19.22-4.114-3.835-6.043-4.554-13.819-5.149-4.806-.367-9.039-.016-13.507 1.121m75.507 14.149c-6.6.363-14.011 1.231-16.468 1.931-5.162 1.468-17.582 7.54-18.517 9.051-.955 1.547-.385 1.35 8.639-2.977 9.925-4.76 19.433-6.951 30.346-6.996 4.4-.018 8.675-.469 9.5-1.002 1.333-.862 1.333-.953 0-.818-.825.084-6.9.449-13.5.811m-257.289 2.283c-3.173 3.377-4.216 7.757-3.066 12.876.769 3.421.67 4.51-.486 5.356-1.559 1.139-3.872 6.142-5.07 10.965-.738 2.968-.735 2.969 1.363 1.071 1.155-1.046 3.589-2.834 5.408-3.973s5.806-4.096 8.86-6.571c4.226-3.425 5.65-5.263 5.959-7.694.331-2.604.013-3.292-1.724-3.728-3.515-.882-7.38-4.511-8.208-7.705l-.778-3.001zm276.969 2.474c.191.413 6.57 13.35 14.177 28.75 18.144 36.734 22.524 47.074 24.358 57.5 2.167 12.318 1.385 17.09-4.634 28.254-4.385 8.135-5.081 10.195-5.081 15.039 0 5.78 1.638 11.048 3.146 10.117 1.274-.788 1.031 6.386-.301 8.906-.636 1.201-2.661 4.03-4.5 6.287-3.768 4.622-3.983 5.934-1.822 11.106 1.088 2.604 1.831 3.337 2.6 2.568s.477-1.677-1.023-3.177c-2.421-2.421-2.787-6.899-.631-7.726.807-.31 2.873-2.659 4.59-5.219 2.863-4.27 3.082-5.171 2.646-10.905-.261-3.437-.129-6.25.294-6.25.422 0 1.029-.787 1.348-1.75s1.469-2.875 2.557-4.25c2.381-3.012 3.083-7.148 1.315-7.751-.705-.24-1.155.168-1 .907.17.815-.803 1.469-2.469 1.66-1.637.189-2.75-.165-2.75-.874 0-.654 1.772-4.73 3.937-9.057 4.839-9.667 5.628-14.519 4.188-25.747-1.255-9.791-5.234-20.628-13.634-37.138-6.042-11.876-12.301-25.061-18.513-39-4.219-9.465-6.453-13-8.216-13-.511 0-.773.337-.582.75m-70.032 5.956c3.864.594 4.353 3.938 1.261 8.611-2.069 3.126-2.795 3.608-3.97 2.632-1.151-.955-1.439-.869-1.439.429 0 2.52 3.611 1.931 5.886-.96 2.65-3.37 3.436-5.999 2.685-8.99-.499-1.989-1.193-2.401-3.84-2.278-2.874.133-2.938.195-.583.556m-260.981 26.188c.682 1.829 28.665 22.607 29.424 21.848.435-.434-20.196-17.41-25.503-20.985-2.829-1.906-4.443-2.261-3.921-.863m216.772 5.919c-3.608 1.478-7.261 3.137-8.119 3.687-2.375 1.523-6.6 15.001-8.835 28.185-1.102 6.498-3.558 16.765-5.457 22.815-4.099 13.061-5.47 18.854-5.504 23.25-.015 2.04-.524 3.25-1.366 3.25-1.056 0-1.477 4.206-1.976 19.724-.399 12.379-.271 20.087.342 20.7.635.635.976-1.19.976-5.224 0-5.902.117-6.2 2.435-6.2 1.339 0 3.627.453 5.084 1.007s3.083.739 3.613.411c1.635-1.01-1.174-3.417-4.004-3.432-6.605-.034-7.128-.628-7.128-8.103 0-3.785.388-6.883.862-6.883.475 0 1.181-3.937 1.569-8.75.888-11.005 1.963-16.113 6.16-29.25 1.845-5.775 4.051-14.868 4.902-20.208 1.957-12.278 7.213-30.696 8.792-30.807 1.274-.09 16.819-6.895 15.715-6.8800248-.825.0110248-4.452 1.2300248-8.061 2.7080248m-86.587 1.478c-6.955 3.701-26.223 15.339-27.931 16.871-1.556 1.396-2.136 3.249-2.302 7.352-.136 3.37.191 5.486.849 5.486.643 0 .819-1 .441-2.507-.346-1.378-.351-3.966-.011-5.75.659-3.463 2.048-4.504 20.803-15.597 10.319-6.102 12.789-6.335 20.974-1.972 5.408 2.882 5.896 3.41 5.319 5.75-.482 1.953-.354 2.299.529 1.432 2.063-2.026.58-4.707-4.257-7.697-5.403-3.341-11.699-4.812-14.414-3.368m-95.851 12.348c-1.422 2.17-1.274 2.55 2.748 7.089 2.338 2.637 5.484 6.365 6.99 8.284 2.975 3.789 3.334 3.362 1.7-2.019-.583-1.921-1.185-4.393-1.337-5.493s-.819-3.639-1.482-5.643c-.96-2.904-1.803-3.73-4.161-4.076-2.266-.333-3.307.101-4.458 1.858m202.916.819c-2.155 1.902-3.467 3.475-2.917 3.496.979.036 7.5-5.619 7.5-6.505 0-.876-.712-.409-4.583 3.009m6.583-2.458c0 .55.395 1 .879 1 .483 0 1.438 1.35 2.121 3s1.638 3 2.121 3c1.34 0 1.062-1.187-1.11-4.75-1.912-3.136-4.011-4.314-4.011-2.25m-76 1.5c0 .825.675 1.5 1.5 1.5s1.5-.675 1.5-1.5-.675-1.5-1.5-1.5-1.5.675-1.5 1.5m-106.753 11.066c-3.974 11.341-4.757 14.23-3.507 12.934.531-.55 1.564-3.25 2.297-6 .732-2.75 2.179-6.934 3.215-9.297 1.036-2.364 1.713-4.809 1.504-5.434-.208-.625-1.787 2.884-3.509 7.797m65.869 2.625c-.064 1.48.334 2.969.884 3.309 1.402.866 1.275 11.242-.143 11.714-.858.286-.858.915 0 2.518 1.482 2.77 1.508 16.924.033 17.836-.639.395-.886 2.07-.582 3.941.29 1.79.058 3.725-.517 4.3-1.239 1.239-.21 6.191 1.287 6.191.572 0 .752-.467.399-1.037-.352-.57-.343-2.798.021-4.952.659-3.897.686-3.918 5.832-4.305l5.17-.389-5.752.092c-3.835.061-5.751-.306-5.75-1.1.001-.655.452-1.469 1.002-1.809s1-3.094 1-6.12v-5.503l4.5.675c3.043.457 4.5.315 4.5-.438 0-.649-1.832-1.114-4.391-1.114-4.323 0-4.397-.057-4.86-3.75-.554-4.416.421-5.982 4.074-6.541 2.402-.367 2.344-.425-.573-.559-3.194-.147-3.25-.232-3.25-4.95 0-2.64-.406-5.227-.903-5.75s-1.119-1.85-1.384-2.95c-.371-1.542-.508-1.383-.597.691m-137.507 5.478c-.475 4.045-.06 8.698 1.449 16.25 2.202 11.015 3.978 15.866 11.924 32.581 2.615 5.5 6.246 13.375 8.068 17.5s4.27 8.625 5.438 10c1.169 1.375 3.383 4.217 4.92 6.316 1.537 2.098 3.047 3.562 3.356 3.253s-1.557-3.291-4.148-6.627c-2.59-3.336-6.518-10.2-8.727-15.254-2.21-5.053-6.935-15.038-10.501-22.188-5.309-10.648-6.917-15.081-8.888-24.5-1.728-8.264-2.238-13.118-1.81-17.25.327-3.162.368-5.75.09-5.75-.277 0-.804 2.551-1.171 5.669m58.38-2.706c.737 2.568 6.759 12.037 7.656 12.037.609 0-1.825-5.597-4.219-9.698-3.097-5.308-4.577-6.314-3.437-2.339m86.011-1.993c.825.55 3.037 1.006 4.917 1.015 4.483.02 3.684-.547-1.917-1.36-3.145-.457-4.048-.353-3 .345m26.5 1.702-7 1.254 6.967-.513c6.413-.472 8.522-.955 7.45-1.704-.229-.16-3.567.273-7.417.963m17.485.828c-.603 1.954-.474 10.494.158 10.497 1.454.007 1.667 3.081.396 5.702-1.682 3.466-2.655 15.111-1.332 15.929.532.329.726 1.52.431 2.648-.493 1.887-.407 1.922 1.077.438 1.251-1.251 1.352-1.929.449-3.016-1.378-1.661-.426-13.698 1.083-13.698.566 0 .701-1.754.328-4.25-.349-2.338-1.005-6.725-1.458-9.75-.452-3.025-.962-5.05-1.132-4.5m-78.796 3.523c-1.822.755-22.526 12.461-24.053 13.6-.412.307-2.887 14.377-2.529 14.377.127 0 3.755-1.801 8.062-4.003 6.602-3.375 9.467-4.199 18.252-5.25 6.629-.793 10.575-1.712 10.843-2.524.316-.959-.566-1.118-3.546-.642-2.182.349-4.227.213-4.545-.302-.335-.541 1.722-.903 4.874-.857 6.648.095 6.797-1.791.176-2.225-3.497-.229-4.488-.646-4.077-1.718.395-1.028 1.679-1.275 4.699-.904 4.161.512 7.785-.779 6.315-2.249-.431-.43-3.118-1.066-5.971-1.413l-5.189-.631 5.5-.304 5.5-.304-5.5-.674-5.5-.674 5.009-.163c3.564-.116 5.325-.668 6.101-1.913.994-1.593.501-1.769-5.509-1.967-3.631-.12-7.641.213-8.912.74m-14.96 3.165c.618 1.854 2.771 2.161 2.771.395 0-.87-.713-1.583-1.583-1.583-.871 0-1.406.534-1.188 1.188m74.771 3.812c-5.498.674-5.498.674-1 .763 2.475.049 6.525-.272 9-.712 3.991-.71 4.104-.796 1-.763-1.925.021-5.975.341-9 .712m51 1.583c0 1.766 2.153 1.459 2.771-.395.218-.654-.317-1.188-1.188-1.188-.87 0-1.583.713-1.583 1.583m71.75 2.183c-1.792 2.317-2.75 4.769-2.75 7.036 0 4.417-6.397 13.358-8.89 12.425-1.335-.498-1.398-.34-.371.925 1.067 1.315-.185 2.161-9 6.08-5.631 2.505-11.251 4.857-12.489 5.228s-2.25 1.07-2.25 1.554c0 1.235 8.997-2.079 18.782-6.918 4.555-2.253 9.182-4.096 10.282-4.096 3.51 0 8.681-2.724 13.363-7.039 3.545-3.268 4.676-3.856 5.132-2.667 1.478 3.85-6.314 12.297-14.022 15.203-3.809 1.437-3.851 1.495-.74 1.028 7.371-1.105 16.564-10.351 16.173-16.266-.293-4.445-.057-5.259 1.53-5.259 1.614 0 2.038-1.55.657-2.403-.463-.286-2.351 1.493-4.195 3.954-3.607 4.813-12.203 11.207-15.462 11.5-4.455.4-4.561-.139-.907-4.6 2.906-3.546 3.697-5.349 3.591-8.186-.095-2.519.656-4.677 2.44-7.017 1.418-1.859 2.42-3.528 2.227-3.709s-1.589 1.271-3.101 3.227m-222.666 5.734c0 .55.862 2.575 1.916 4.5s1.916 3.05 1.916 2.5-.862-2.575-1.916-4.5-1.916-3.05-1.916-2.5m100.691 2.797c4.326.586 8.072.625 9.241.095 1.335-.606-.996-.922-7.276-.987l-9.24-.095zm137.703 13.728c-3.082 3.405-13.988 8.212-18.946 8.349-5.266.147-6.215 1.626-1.043 1.626 6.448 0 18.666-5.816 21.393-10.183 1.499-2.399.871-2.307-1.404.208m-128.001-.438c-.562.235-3.712.858-7 1.382l-5.977.955 6.929-.441c3.811-.243 7.389-.901 7.95-1.462 1.028-1.028.049-1.252-1.902-.434m39.148 5.764c-.357 3.493-1.783 10.581-3.167 15.75-3.297 12.314-5.388 23.899-4.314 23.899.471 0 .887-1.463.925-3.25s1.126-7.3 2.418-12.25c2.108-8.075 2.358-8.556 2.431-4.684.045 2.373-.304 5.073-.775 6-.578 1.135-.057 3.419 1.597 7.003 1.35 2.926 2.666 5.108 2.925 4.85.258-.259-.681-2.741-2.088-5.517-2.308-4.556-2.19-7.267.251-5.758.864.534.73-3.742-.279-8.894-.46-2.348-.384-2.565.348-1 .515 1.1 1.209 2.852 1.543 3.893s.834 1.666 1.112 1.389c.277-.278.041-1.721-.524-3.208s-.976-4.812-.912-7.389.334-3.832.601-2.79c.393 1.535.662 1.63 1.415.5.624-.938.717-.484.283 1.384-.488 2.097.025 3.749 2.09 6.728 1.505 2.171 3.458 4.521 4.34 5.22.882.7-.035-.987-2.038-3.749-2.813-3.878-3.421-5.417-2.67-6.758.534-.955.699-2.177.365-2.716-.345-.558.063-.724.946-.386 1.031.396 1.552.02 1.552-1.118 0-1.153-.518-1.515-1.584-1.106-2.493.957-1.11-1.704 1.663-3.199 4.581-2.468 24.921.653 24.921 3.825 0 .441-1.336 1.926-2.968 3.3l-2.968 2.497-3.782-1.981c-3.998-2.093-12.227-2.085-15.983.016-1.619.907-1.518 1.114 1.016 2.078 1.548.588 6.926 1.07 11.95 1.07 7.105 0 8.868.267 7.935 1.2-.66.66-1.22 2.122-1.244 3.25s-.687 3.85-1.474 6.05c-.786 2.2-1.654 6.7-1.928 10-.484 5.838-.471 5.879.489 1.5 1.706-7.777 4.269-16.075 5.13-16.607.455-.281.827-1.473.827-2.648 0-1.176 1.161-3.812 2.579-5.859 4.629-6.679 1.855-8.496-14.579-9.549-7.972-.511-8.736-.383-12.294 2.059-2.087 1.432-4.182 2.604-4.656 2.604-.473 0-.616-2.7-.316-6 .299-3.3.318-6 .043-6s-.794 2.858-1.152 6.351m-32.288-.431c.185 1.699.636 3.386 1 3.751 2.068 2.068-1.254 7.586-5.549 9.22-1.328.504-6.782 1.467-12.122 2.139-10.338 1.302-19.052.373-24.903-2.653-1.52-.785-2.763-1.004-2.763-.485 0 .518 2.137 1.767 4.75 2.775 3.811 1.471 7.32 1.808 17.75 1.706 14.232-.138 21.992-1.771 22.012-4.631.019-2.725 2.31-4.207 6.011-3.888 2.002.172 3.477-.158 3.477-.777 0-.593-1.098-1.077-2.441-1.077-2.756 0-3.61-1.014-4.494-5.338-.852-4.165-3.172-4.796-2.728-.742m124.828 1.08c-.183 6.084 2.396 16.575 4.96 20.176 2.995 4.206 3.463 2.779.514-1.567-2.203-3.245-3.839-9.826-5-20.109-.221-1.954-.386-1.432-.474 1.5m-169.896 4.693c.973.254 2.323.237 3-.037s-.119-.481-1.769-.461-2.204.244-1.231.498m38.731 1.356c-2.475 1.013-3.825 1.855-3 1.87.825.016 3.3-.823 5.5-1.864 5.108-2.418 3.402-2.421-2.5-.006m-46.25 1.646c-3.479 2.39-4.804 4.305-2.978 4.305.425 0 2.422-1.36 4.438-3.022 3.376-2.782 3.748-2.881 4.698-1.25.567.975 1.045 1.3 1.062.722.032-1.123-2.006-3.49-2.92-3.39-.302.033-2.237 1.219-4.3 2.635m-47.75-.695-2.5.801 2.75.099c1.513.055 2.75-.35 2.75-.9s-.112-.955-.25-.9-1.375.46-2.75.9m131.825 3.326c-.373 1.825-.233 2.482.393 1.856.533-.533.793-1.805.576-2.826-.291-1.375-.543-1.123-.969.97m-89.462 20.93c-.097 12.889.088 16.336.633 11.744 1.022-8.625 1.203-30.001.254-29.994002-.412.003002-.812 8.215002-.887 18.250002m243.495-16.541c-.079.982-.267 3.308-.419 5.169-.151 1.861.14 4.336.648 5.5.717 1.643.792 1.39.338-1.134-.447-2.487-.23-3.25.923-3.25 1.491 0 5.652-4.494 5.652-6.103 0-.459-.64-.589-1.422-.289s-2.357.046-3.5-.566c-1.734-.928-2.102-.817-2.22.673m-232.313 3.977c1.625 1.54 3.63 2.867 4.455 2.95.825.082 4.65.679 8.5 1.325 6.992 1.175 13.129.885 23.5-1.111 5.112-.984 12.649-4.54 11.679-5.511-.235-.234-1.946.464-3.803 1.551-1.857 1.088-7.617 2.709-12.8 3.602-11.913 2.053-19.879 1.301-28.271-2.668l-6.214-2.939zm96.705 2.045c-2.887.202-5.25.794-5.25 1.315 0 1.521 9.421 1.097 11.559-.52 1.395-1.055 1.519-1.425.441-1.315-.825.084-3.863.318-6.75.52m34.75.798c0 .295.64 1.532 1.422 2.75s1.733 4.352 2.114 6.965c.38 2.613 1.095 4.75 1.589 4.75 1.211 0-.012-7.712-1.863-11.75-1.271-2.774-3.262-4.43-3.262-2.715m53.661 9.28c4.749 4.749 5.805 8.239 4.484 14.818-1.086 5.407.003 14.367 1.746 14.367.36 0 1.507-1.584 2.55-3.521s3.981-5.424 6.528-7.75c5.59-5.104 9.914-8.729 10.414-8.729.202 0 .712 1.463 1.133 3.25.688 2.917.856 2.539 1.643-3.698.937-7.437.571-10.871-.664-6.223-.914 3.44-4.496 7.344-10.495 11.437-2.475 1.689-5.85 5.123-7.5 7.63-1.65 2.508-3.281 4.57-3.625 4.582-1.275.045-1.717-5.728-.73-9.539 2.168-8.376 2.128-8.805-1.316-13.947-1.831-2.735-4.2-5.139-5.265-5.341-1.56-.298-1.347.22 1.097 2.664m32.339 4.126c0 .582.367 1.059.816 1.059s1.844 1.83 3.101 4.066 2.497 3.853 2.756 3.594c.566-.566-4.154-8.221-5.632-9.135-.573-.354-1.041-.166-1.041.416m-220.015 8.379.485 8.18.315-6.353c.299-6.007.436-6.32 2.515-5.731 13.176 3.732 29.905 4.67 37.168 2.083 4.473-1.593 5.49-.912 5.517 3.692.008 1.48.465 2.969 1.015 3.309.62.383 1-1.47 1-4.882 0-5.244-1.449-8.127-2.903-5.776-3.585 5.801-32.752 5.25-42.529-.803l-3.068-1.9zm35.859 12.93c-.238 3.455.217 7.173.974 7.95.375.385.682-1.753.682-4.75 0-5.241-1.336-7.824-1.656-3.2m-22.599 0c.226.688 1.501 1.355 2.833 1.483 2.181.209 2.223.147.422-.626-1.878-.805-1.848-.888.5-1.346 2.099-.41 1.965-.51-.833-.625-2.263-.092-3.201.265-2.922 1.114m16.755-.25c0 .55.375 1 .833 1 .859 0 .964.409 1.406 5.487.176 2.017.836 3.04 2.031 3.148 1.239.113 1.314.02.249-.31-1.067-.331-1.352-1.27-.957-3.148 1.573-7.475 1.617-7.177-1.043-7.177-1.385 0-2.519.45-2.519 1m-16.022 7.25c-.463 4.467-.352 4.75 1.874 4.75 2.116 0 2.324-.371 1.958-3.5-.225-1.925-.022-3.5.45-3.5s.575-.457.23-1.016c-1.28-2.071-2.53.283-1.909 3.594.401 2.137.246 3.422-.412 3.422-.58 0-1.199-1.912-1.376-4.25l-.322-4.25z" fill-rule="evenodd" transform="translate(0 .5)"/></svg>