<svg height="292" viewBox="0 0 436 292" width="436" xmlns="http://www.w3.org/2000/svg"><path d="m335.369 2.916c-4.472 1.528-9.422 3.706-11 4.84-7.493 5.384-12.186 13.225-14.81 24.744-2.622 11.514-6.633 23.257-8.529 24.973-1.646 1.49-1.994 1.429-4.664-.819-4.117-3.464-15.033-9.303-21.643-11.577-9.464-3.256-13.416-3.443-23.375-1.105-11.551 2.712-21.935 8.736-32.848 19.058-4.4 4.162-10.083 9.345-12.629 11.518-2.545 2.174-9.794 8.535-16.108 14.136-6.315 5.602-13.175 11.334-15.245 12.739l-3.764 2.555-7.969-11.67c-15.828-23.179-27.575-33.776-41.433-37.379-9.191-2.389-10.902-2.222-28.249 2.764-14.806 4.256-28.192 10.431-44.103 20.347-12.528 7.807-15.28 9.33-18.875 10.44-1.707.528-2.17.402-1.646-.447.823-1.331-2.743.47-5.786 2.923-1.193.962-5.005 1.596-11.225 1.868-11.302.495-12.356 1.242-10.518 7.458 1.7 5.744 8.932 12.562 16.561 15.612 3.294 1.317 6.367 2.729 6.828 3.139s-2.014 1.696-5.5 2.859c-7.298 2.434-12.653 5.459-13.48 7.616-1.707 4.447 6.571 17.269 13.821 21.41 4.758 2.717 4.854 2.857 2.388 3.475-3.528.886-3.356 4.016.679 12.378 3.99 8.267 14.136 19.229 17.796 19.228 8.135-.002 27.583-13.933 38.069-27.269 3.992-5.076 7.88-9.973 8.638-10.881.868-1.037 1.009-1.88.38-2.269-.551-.34-4.58 3.778-8.956 9.151-11.406 14.007-19.796 21.163-31.609 26.956l-5.602 2.748-3.593-1.935c-1.976-1.064-5.071-3.749-6.878-5.967-4.508-5.534-10.721-17.107-10.315-19.214.392-2.038 3.584-3.081 9.843-3.219 5.362-.119 17.643-3.377 22.971-6.095 4.98-2.541 19.009-13.718 19.009-15.145 0-.614-1.463.049-3.25 1.474-20.585 16.406-39.407 21.791-50.502 14.449-4.597-3.042-12.248-13.895-12.248-17.374 0-1.35.964-2.99 2.25-3.826 2.583-1.68 20.626-8.104 25.553-9.099 1.851-.373 3.132-1.175 2.913-1.825-.215-.637 1.899-2.468 4.697-4.067 2.798-1.6 7.562-4.724 10.587-6.943 3.025-2.218 4.873-3.261 4.107-2.317-.765.944-1.146 1.962-.846 2.262.3.301 1.887-1.398 3.526-3.774s3.933-5.177 5.097-6.225 2.116-2.33 2.116-2.849-2.588 1.259-5.75 3.952c-13.536 11.526-24.594 18.234-30.333 18.402-3.169.092-3.236.157-.917.9 2.226.713 2.086.812-1.272.9-4.546.12-16.015-4.852-20.064-8.699-3.711-3.526-5.664-7.371-5.664-11.151v-3.05h7.385c6.764 0 9.721-.603 22.405-4.565 2.359-.737 10.302-4.934 17.65-9.327 19.645-11.742 27.736-15.525 42.653-19.944 7.374-2.185 14.647-4.249 16.163-4.588 3.212-.719 14.389 1.672 19.034 4.072 8.488 4.386 17.892 14.747 30.674 33.799 8.693 12.956 8.834 13.288 5.865 13.829-1.847.336-1.755.404.448.332 2.377-.079 3.654 1.129 8.879 8.4 3.356 4.671 8.446 13.442 11.31 19.492s6.4 12.408 7.857 14.129l2.651 3.128-7.377 15.372c-4.057 8.454-8.538 18.624-9.957 22.599-2.876 8.055-9.859 19.784-12.676 21.291-2.797 1.497-5.542 1.19-10.596-1.186-5.12-2.407-7.547-6.445-6.66-11.083.41-2.15.144-2.75-1.219-2.75-1.49 0-1.674.728-1.262 5.01.541 5.635 2.432 8.263 7.983 11.096 4.227 2.158 11.651 2.5 13.969.644.858-.687 2.744-3.042 4.191-5.232l2.63-3.982.003 3.982c.001 2.19-.51 8.893-1.137 14.895-.981 9.391-.934 11.065.341 12 .814.598 1.806 2.825 2.203 4.949.897 4.794 4.179 8.184 9.225 9.53 6.603 1.76 21.419 4.108 25.925 4.108h4.298l.998 5.25c.549 2.887 1.28 10.65 1.625 17.25.602 11.526 1.513 15.036 3.361 12.95.865-.976-.201-20.521-1.668-30.607l-.824-5.656 5.575-.687c10.635-1.31 35.487-8.219 44.075-12.254 4.675-2.197 10.3-4.551 12.5-5.232 5.262-1.628 20.5-9.854 20.5-11.066 0-1.628-2.869-1.048-8.215 1.661-2.832 1.435-9.004 4.101-13.717 5.924-4.712 1.823-11.616 4.685-15.341 6.359-9.585 4.309-39.868 11.216-51.994 11.859-9.424.5-21.603-.737-28.5-2.895-1.892-.592-3.858-2.164-4.67-3.733-3.721-7.197-2.511-35.49 2.166-50.623 3.039-9.833 21.818-47.624 28.076-56.5 2.52-3.575 7.532-9.451 11.138-13.057 6.231-6.232 6.979-6.666 15.057-8.741 9.044-2.322 18.447-4.158 34.281-6.691 12.917-2.066 18.635-4.431 28.032-11.595 7.396-5.639 9.687-6.467 9.687-3.504 0 .711 2.751 3.876 6.113 7.033 5.133 4.819 7.008 7.61 11.689 17.397 4.768 9.97 5.656 12.744 6.137 19.158.43 5.75.911 7.5 2.061 7.5 1.224 0 1.45-1.377 1.229-7.478-.245-6.765-.847-8.716-6.325-20.5-5.379-11.571-6.739-13.648-12.216-18.638l-6.162-5.617 3.634-4.023c1.999-2.213 3.936-4.973 4.305-6.133.377-1.189 1.514-2.111 2.602-2.111 1.063 0 2.764-.831 3.779-1.846s2.869-1.803 4.119-1.75c2.79.118 3.509-1.201 4.953-9.087 1.717-9.373 5.218-16.373 10.229-20.446 7.063-5.742 13.853-7.143 13.853-2.859 0 1.52.618 1.715 4 1.261 2.2-.295 4-.289 4 .014 0 .302-1.687 1.575-3.75 2.829-2.062 1.253-4.064 2.74-4.447 3.305-1.13 1.662 1.224 2.43 4.581 1.493l3.116-.87-2.493 1.916c-2.239 1.72-2.313 1.985-.726 2.594 1.982.761 7.433-2.494 13.778-8.227 3.93-3.55 4.002-3.57 8.442-2.327 2.463.69 5.847.98 7.52.646l3.042-.609-.281 11.692-.282 11.691-4.189 3.04c-2.304 1.672-4.216 3.635-4.25 4.361-.034.727-.736 1.997-1.561 2.822s-1.5 2.72-1.5 4.211c0 7.773-2.504 12.791-11.051 22.142-9.57 10.471-12.837 12.646-16.802 11.187-1.456-.536-5.719-1.756-9.474-2.711-6.481-1.648-6.935-1.957-8.949-6.104-1.908-3.926-4.724-5.935-4.724-3.369 0 2.576 5.63 10.973 7.366 10.987 3.812.029 11.634 3.465 11.634 5.111 0 1.797 11.693 12.903 13.586 12.903.654 0 3.505 1.593 6.334 3.539 4.998 3.438 7.08 3.738 7.08 1.021 0-1.516-4.87-5.433-10-8.046-1.925-.98-5.3-3.416-7.5-5.413l-4-3.632 4.653-2.262c2.601-1.266 6.338-4.345 8.477-6.985 2.103-2.597 5.517-6.422 7.586-8.499 5.05-5.072 6.69-8.532 7.439-15.693.346-3.312 1.24-6.528 1.987-7.148s1.358-1.51 1.358-1.978 2.025-2.876 4.5-5.351l4.5-4.5v-11.477c0-8.197.363-11.705 1.271-12.276 1.858-1.169 3.874-6.259 3.02-7.625-.404-.646-.834-1.85-.955-2.675-.122-.825-.991-1.95-1.933-2.5-.941-.55-3.164-2.238-4.939-3.75-1.776-1.512-3.705-2.75-4.287-2.75-1.743 0-2.533-2.162-1.112-3.04 1.04-.643 1.075-1.357.167-3.35-.847-1.86-.865-3.365-.065-5.658 1.49-4.275-.556-6.515-4.559-4.993-1.506.573-4.111 1.041-5.789 1.041-3.96 0-13.075-3.116-14.171-4.844-3.023-4.766-15.319-5.325-27.279-1.24m3.29 2.176c-12.825 3.657-18.035 7.412-22.354 16.113-1.719 3.462-3.581 8.77-4.139 11.795s-1.499 6.767-2.091 8.315c-1.513 3.962-1.402 4.087 1.56 1.758 3.418-2.689 11.34-2.877 13.61-.323 2.908 3.271 4.755 9.464 4.809 16.122l.054 6.628 1.774-5.5c2.624-8.13 4.414-11.068 9.836-16.14 5.788-5.414 10.739-7.397 14.703-5.89 1.49.566 4.367 1.044 6.394 1.062 2.027.017 4.542.68 5.59 1.473 1.824 1.381 1.739 1.598-2 5.126-3.224 3.042-3.366 3.316-.816 1.573 1.699-1.161 3.666-2.807 4.372-3.657 1.888-2.275 3.276-1.883 2.488.703-.634 2.078-.452 2.029 2.385-.642 2.879-2.71 3.372-2.836 7.869-2 6.132 1.14 12.984.649 13.607-.975.845-2.202-.514-6.776-2.192-7.378-.89-.319-2.959-1.52-4.597-2.668-1.639-1.148-3.889-2.555-5-3.126-1.199-.617-2.021-2.04-2.021-3.5 0-1.354-.31-2.936-.689-3.516-.378-.581-.313-2.718.145-4.75l.833-3.695h-5.355c-6.858 0-16.602-2.94-17.192-5.187-1.058-4.033-10.759-4.806-21.583-1.721m-23.434 39.621c-3.502.666-5.331 4.39-5.374 10.946-.046 7.059 3.447 18.821 5.907 19.891 2.37 1.03 5.417.554 7.323-1.145.87-.775 1.877-1.113 2.239-.752.361.362.643-1.1.626-3.248-.018-2.148-.029-6.975-.026-10.727.006-7.26-2.241-14.678-4.447-14.678-.72 0-1.909-.162-2.641-.36-.733-.197-2.356-.165-3.607.073m-66.486 2.27c-3.718.991-9.868 3.648-13.666 5.904-7.12 4.23-9.981 6.547-29.25 23.684-18.21 16.196-27.786 24.294-30.906 26.137-1.604.948-2.917 2.076-2.917 2.508s2.878 4.947 6.397 10.034c3.518 5.088 8.228 13.075 10.466 17.75 2.239 4.675 5.024 10.038 6.191 11.917l2.12 3.417 2.815-5.148c3.855-7.048 14.941-21.074 20.583-26.04 6.951-6.119 20.463-9.894 48.428-13.533 14.042-1.827 16.267-2.725 27.242-11.003 4.905-3.7 8.951-6.106 9.305-5.535.913 1.478 6.319-2.236 8.678-5.962 1.546-2.442 1.647-3.001.456-2.544-.84.322-1.772 1.226-2.072 2.008-.301.783-1.677 1.423-3.059 1.423-3.018 0-3.835-2.426-3.963-11.762-.083-6.042-.187-6.299-2.338-5.762-1.684.421-3.33-.431-6.526-3.377-4.962-4.574-16.84-11.215-25.211-14.095-7.036-2.421-13.748-2.427-22.773-.021m57.775 6.517c-.462 1.1-1.658 3.183-2.658 4.629l-1.819 2.628 2.83.566c2.781.557 2.841.717 3.501 9.309.37 4.808.886 8.955 1.146 9.215.984.985 4.476-3.154 3.585-4.249-1.509-1.851-4.26-11.768-5.023-18.098-.55-4.567-.924-5.522-1.562-4m38.812 67.75c-2.25 3.059-10.287 25.267-10.315043 28.5-.005957.688.611043 1.25 1.370043 1.25.816 0 1.866-1.947 2.564-4.75.65-2.613 3.179-9.12 5.619-14.462 2.44-5.341 4.436-10.178 4.436-10.75 0-1.448-2.562-1.3-3.674.212m49.689 6.5c-.008 1.787.435 3.25.985 3.25 1.27 0 1.27-3.035 0-5-.736-1.138-.973-.716-.985 1.75m20.485 5.25c-1.538 2.22-2.539 4.294-2.223 4.61.315.315 1.798-1.277 3.294-3.539 3.55-5.363 2.577-6.335-1.071-1.071m-31.485-.25c.018 1.999 1.643 4.928 2.342 4.221.257-.259.229-1.709-.062-3.221-.581-3.027-2.304-3.783-2.28-1m-273.323 5c-.234.412-1.223 3.225-2.198 6.25-3.966 12.306-15.103 29.407-28.505 43.769-6.622 7.097-8.278 8.307-14 10.238-7.107 2.398-12.696 2.23-18.058-.543-4.305-2.226-4.648-4.106-1.374-7.524 2.185-2.28 2.444-2.94 1.153-2.94-2.215 0-4.946 4.313-4.537 7.165.507 3.533 7.161 6.799 13.895 6.819 6.428.019 14.745-2.202 17.943-4.792 2.15-1.741 2.286-1.717 5.063.877 3.331 3.112 6.652 3.931 15.938 3.931 5.979 0 7.317-.376 11.556-3.25l4.795-3.25 7.205 7.25c5.834 5.869 7.792 7.25 10.284 7.25 4.575 0 9.381-4.81 18.327-18.34 7.046-10.657 8.347-13.66 5.916-13.66-.432 0-4.972 6.095-10.089 13.544-9.234 13.445-11.152 15.456-14.741 15.456-2.195 0-12.89-9.242-13.719-11.856-.364-1.146 1.499-5.224 5.126-11.222 6.172-10.207 13.288-25.309 13.313-28.255.031-3.766-2.138-.875-6.332 8.438-4.786 10.626-12.116 23.187-16.217 27.79-1.467 1.646-4.419 4.207-6.56 5.691-3.64 2.523-4.405 2.664-11.73 2.161-8.074-.553-10.984-1.656-13.036-4.943-1.039-1.664-.457-2.619 4.689-7.685 10.948-10.779 25.192-34.4 27.66-45.869.631-2.93-.563-4.62-1.767-2.5m267.265 9.417c-.024 4.033-.849 15.103-1.833 24.6-1.511 14.582-2.086 17.485-3.7 18.665-1.051.769-2.139 1.069-2.418.667-.278-.402-3.01-2.377-6.071-4.389-3.315-2.18-6.846-5.636-8.733-8.548-1.742-2.689-3.738-5.325-4.435-5.859-1.371-1.049-20.589.789-29.009 2.774-4.534 1.07-4.964 1.487-9.827 9.537-3.109 5.148-6.505 9.383-8.74 10.902-4.501 3.059-5.45 3.092-6.704.234-.962-2.193-1.329-2.243-14.487-1.991-11.423.219-17.501 1.034-39.5 5.298-30.559 5.924-29.5 5.65-29.5 7.627 0 1.085.675 1.403 2.25 1.06 1.237-.269 10.35-2.129 20.25-4.134 9.9-2.004 20.773-4.323 24.162-5.152 4.645-1.136 31.593-3.73 31.888-3.069 1.008 2.256 7.632 20.268 8.498 23.111 2.043 6.701 3.841 9.5 6.103 9.5 1.792 0 2.013-.432 1.508-2.954-.785-3.927 2.525-6.55 10.152-8.044 3.129-.613 6.814-1.521 8.189-2.018s4.128-1.185 6.118-1.53l3.618-.627-1.246 5.336c-.686 2.936-2.501 11.412-4.035 18.837-1.533 7.425-4.302 17.457-6.153 22.294-3.137 8.198-3.476 11.264-1.16 10.492.528-.176 2.035-3.398 3.35-7.161 1.314-3.762 2.619-7.069 2.898-7.348.279-.28 1.933-.012 3.674.595s3.677.788 4.301.401c1.719-1.064 32.957-.233 34.35.914 1.589 1.308 8.824.074 10.35-1.765.649-.782 1.721-1.422 2.383-1.422s2.26-1.125 3.552-2.5 3.283-2.51 4.424-2.522c4.76-.05 18.124-8.715 16.303-10.57-.425-.433-1.463.198-2.307 1.402-2.123 3.032-4.077 2.758-10.14-1.417-5.233-3.605-5.236-3.608-3.092-5.344 3.222-2.609 1.784-5.421-2.312-4.522-2.174.478-2.918.35-2.442-.42 1.223-1.979 5.031-1.172 8.685 1.84 6.093 5.022 12.814 8.159 14.988 6.996 1.041-.558 1.962-1.785 2.045-2.728.084-.943.202-2.246.263-2.894.061-.649.442-1.512.848-1.917.405-.406.737-1.709.737-2.896 0-1.188 1.125-3.216 2.5-4.508s2.5-3.041 2.5-3.887c0-2.031-10.552-11.962-13.494-12.701-2.151-.54-2.21-.752-.909-3.245.989-1.893 1.211-4.461.767-8.852-.598-5.9-.494-6.307 2.255-8.83 2.664-2.445 2.711-2.608.631-2.158-3.142.678-2.804-.797.765-3.338 4.174-2.972 5.986-6.967 5.981-13.189-.007-9.827-6.049-15.793-15.996-15.793-6.123 0-10.792 2.22-13.562 6.447-2.653 4.049-1.629 14.148 1.989 19.615 2.076 3.138 2.895 5.675 3.022 9.367.096 2.785-.165 5.529-.58 6.098-.415.568-.337 1.693.173 2.5.788 1.246.93 1.218.943-.184.011-1.189.923-1.654 3.265-1.664 1.788-.007 4.449-.477 5.915-1.043 2.067-.798 2.785-.717 3.199.363.677 1.764-2.282 2.74-7.057 2.329-4.268-.368-5.683 1.683-2.141 3.103 1.732.694 1.883.952.584.999-.962.034-1.75.524-1.75 1.088 0 .563-1.125 1.452-2.5 1.975-2.911 1.107-3.158 2.616-.845 5.171 1.576 1.742 1.473 1.829-2.155 1.829s-3.731-.087-2.155-1.829c.91-1.006 1.655-2.196 1.655-2.646 0-.449-1.044.309-2.319 1.685-1.276 1.377-2.747 2.68-3.27 2.896-.523.217-2.635 2.953-4.693 6.082-3.684 5.598-3.812 5.685-8.23 5.5-3.851-.161-4.505.096-4.604 1.812-.082 1.418-.239 1.542-.54.425-.393-1.464 4.925-16.185 6.657-18.425.425-.55 1.088-2.912 1.474-5.249.385-2.338 1.271-4.588 1.967-5 .74-.439 1.53-3.872 1.898-8.251.347-4.125 1.048-12 1.557-17.5 1.619-17.509 1.74-26.784.353-27.248-.922-.309-1.261 1.506-1.293 6.915m51.803 3.127c-2.057 1.213-3.745 2.553-3.750014 2.976-.011986.962 7.625014-2.871 8.481014-4.256.97-1.569-.637-1.134-4.731 1.28m-36.34 4.591c-5.947 3.627-6.836 11.419-2.295 20.129 2.247 4.312 5.31 6.709 6.373 4.989.341-.552.195-1.003-.325-1.003-.894 0-1.522-2.168-2.834-9.789-.551-3.196-.472-3.286 2.797-3.167 1.85.067 4.264-.162 5.364-.509 1.143-.36 2.857.012 4 .867 1.875 1.405 1.901 1.674.428 4.298-3.801 6.767-4.484 7.841-5.428 8.535-.582.427-.373.71.5.677 2.378-.092 7.158-3.243 9.329-6.15 3.983-5.336 1.465-16.535-4.384-19.495-3.596-1.82-10.007-1.527-13.525.618m-138.196 11.758c-.528 1.021-1.531 3.657-2.229 5.857-1.7 5.364-5.666 13.264-8.662 17.256-2.392 3.187-2.401 5.246-.024 5.242006 2.821-.005006 11.678-16.543006 13.293-24.823006.767-3.93-.895-6.398-2.378-3.532m142.892 3.107c-.064 1.238-.582 2.25-1.151 2.25-.702 0-.691.644.035 2 1.381 2.58 4.169 2.56 5.793-.041 1.567-2.509.668-4.24-1.796-3.458-1.239.393-1.985.001-2.3-1.209-.363-1.4-.49-1.299-.581.458m-41.116.625c0 .756-.281 2.781-.625 4.5-.813 4.066.57 3.957 3.301-.261 1.614-2.492 1.886-3.652 1.05-4.488-1.557-1.557-3.726-1.412-3.726.249m-21 4.73c-4.125.462-9.725 1.415-12.444 2.117-4.573 1.182-5.377 1.889-10.736 9.441-3.428 4.83-7.557 9.312-10.113 10.977l-4.32 2.815 2.772 7.022c1.525 3.863 2.788 7.784 2.807 8.714.054 2.69 1.462 2.885 5.598.777 2.122-1.083 5.001-1.973 6.397-1.98 4.281-.02 18.315-3.818 19.186-5.192 1.65-2.6.763-3.043-8.069-4.026-1.332-.149-2.63-.903-2.885-1.677-.381-1.155.725-1.297 6.166-.788 3.646.34 7.486 1.077 8.533 1.637 1.542.826 2.208.555 3.506-1.426.881-1.345 1.602-2.85 1.602-3.344s-2.812-1.474-6.25-2.177c-7.751-1.586-9.591-2.995-3.91-2.995 4.847 0 12.16 3.32 12.16 5.52 0 1.79 1.173 1.907 2.8.28 1.492-1.492 1.586-9.443.123-10.347-.592-.366-4.003-1.029-7.579-1.472-7.166-.889-8.288-1.437-6.533-3.192.904-.904 2.75-.813 7.934.393 3.715.864 8.353 1.363 10.305 1.108 3.067-.399 3.711-.11 4.729 2.124 1.333 2.926 2.44 3.232 4.165 1.153.959-1.155.695-1.758-1.359-3.104-1.403-.918-3.53-3.311-4.729-5.316-5.17-8.651-5.244-8.677-19.856-7.042m96 2.895c0 .55.9 1 2 1s2-.45 2-1-.9-1-2-1-2 .45-2 1m-30 5.188c-1.375.525-3.962.787-5.75.584-1.788-.204-3.25-.011-3.25.429 0 1.073 10.142.995 11.857-.091 2.077-1.317-.035-1.998-2.857-.922m-8 5.831c0 .605 1.117.751 2.75.359 3.926-.941 4.058-1.378.417-1.378-1.742 0-3.167.459-3.167 1.019m-42 1.899c0 .505.278 1.642.617 2.526.477 1.244.929 1.348 2 .459 2.033-1.688 1.683-3.903-.617-3.903-1.1 0-2 .413-2 .918m11 .965c0 1.028 3.631 2.153 4.415 1.369.292-.292.291-.918-.001-1.391-.7-1.133-4.414-1.114-4.414.022m-9.166 4.319c-.916.714-1.821 2.195-2.012 3.29-.19 1.096-1.691 2.632-3.334 3.413-1.644.782-3.601 2.283-4.351 3.338-.99 1.393-2.049 1.745-3.871 1.288-2.239-.562-2.445-.379-1.921 1.707.322 1.285-.101 4.795-.942 7.799-.841 3.005-1.692 7.364-1.893 9.688-.2 2.324-1.371 8.737-2.603 14.251-1.231 5.514-1.877 10.363-1.436 10.775.442.412 1.004.187 1.249-.501.608-1.701 2.28-1.586 2.28.157 0 1.59 12.006 2.597 27.125 2.276l8.625-.183-1.817-2.311c-2.089-2.657-3.756-10.094-4.156-18.534-.152-3.215-.562-6.022-.912-6.238-.349-.216-2.076.109-3.836.723-2.617.912-3.486.832-4.757-.439-1.407-1.408-1.227-1.693 1.894-2.997 3.072-1.284 3.907-2.55 7.641-11.592 4.629-11.206 5.274-14.254 2.538-11.984-1.5 1.244-1.494 1.063.061-1.946 1.715-3.316 1.714-3.317-.46-2.153-2.062 1.104-4.96.955-9.446-.483-1.1-.353-2.75-.058-3.666.656m43.811 3.668c-1.509.594-1.141.949 1.975 1.905 4.162 1.278 7.237.01 4.372-1.801-1.735-1.097-3.739-1.129-6.347-.104m-5.186 3.197c-.363.586-.445 1.281-.183 1.543s.743-.218 1.069-1.067c.676-1.762.1-2.072-.886-.476m2.95 1.309c-.847 2.208.28 3.335 1.808 1.807.902-.902.905-1.461.016-2.35-.89-.89-1.324-.761-1.824.543m3.1 1.445c-.704 2.803.842 4.636 7.104 8.426 1.588.96 4.686 3.06 6.885 4.666 4.195 3.065 6.502 2.726 6.502-.953 0-2.476-8.417-9.623-14.663-12.45l-5.163-2.338zm-12.509 5.112c0 2.038 3.235 3.658 5.056 2.532.71-.439.491-1.308-.646-2.564-2.218-2.451-4.41-2.436-4.41.032m6.394 2.069c-.059 1.649.229 2.998.64 2.998s4.859 2.7 9.885 6c5.025 3.3 9.526 6 10.002 6 2.15 0 2.069-3.505-.122-5.279-3.822-3.094-18.546-12.721-19.452-12.719-.466.002-.895 1.352-.953 3m-12.158 3.748c-1.774 3.162-3.865 6.875-4.646 8.25-2.068 3.641-4.59 9.63-4.59 10.901 0 .605-.486 1.099-1.079 1.099-.68 0-.836-1.113-.421-3 .482-2.193.291-3-.709-3-1.084 0-1.24 1.404-.749 6.75.675 7.361 2.04 10.817 5.325 13.478 2.804 2.271 3.842 2.212 10.508-.603 3.094-1.306 8.197-3.125 11.341-4.04 3.144-.916 5.956-2.055 6.25-2.53.294-.476-1.451-2.028-3.878-3.451-10.036-5.881-13.226-10.94-8.686-13.775 1.775-1.108 1.641-1.378-2-4.015-4.187-3.033-4.778-4.795-2.405-7.168 1.39-1.39 1.128-4.646-.373-4.646-.364 0-2.114 2.588-3.888 5.75m8.514.398c1.803 1.806 1.536 3.855-.5 3.837-1.302-.012-1.418-.226-.453-.839 1.041-.659 1-1.07-.206-2.07-.827-.687-2.007-.937-2.622-.557-1.511.934 1.824 4.403 6.713 6.981 2.086 1.1 6.948 4.16 10.805 6.8l7.013 4.8 1.75-2.161c.962-1.188 1.75-2.489 1.75-2.891s-2.363-1.998-5.25-3.547-6.388-3.605-7.778-4.569c-3.87-2.682-12.636-7.201-11.222-5.784m-20.75 9.185c0 .927.777 1.66 1.75 1.652.999-.009 1.321-.336.75-.762-.55-.41-1.337-1.154-1.75-1.651-.413-.498-.75-.155-.75.761m22.446 3.754c-1.03 1.668 1.287 3.58 2.667 2.2 1.154-1.154.432-3.287-1.113-3.287-.485 0-1.184.489-1.554 1.087" fill-rule="evenodd" transform="translate(0 .5)"/></svg>