<svg height="400" viewBox="0 0 448 400" width="448" xmlns="http://www.w3.org/2000/svg"><path d="m368 .706c-3.885 1.42-11.228 11.91-18.777 26.826-2.874 5.677-4.283 14.323-3.324 20.391.764 4.836.695 5.077-1.447 5.077-1.237 0-4.815-1.35-7.952-3-4.434-2.333-6.993-3-11.501-3-5.742 0-5.847.053-10.75 5.418-2.723 2.98-5.975 7.592-7.226 10.25-2.423 5.151-2.443 7.136-.401 40.332l.584 9.5-4.103-4.252c-2.257-2.339-4.103-5.166-4.103-6.282 0-4.819-2.8-8.831-8.004-11.468-6.114-3.098-15.54-4.629-14.798-2.404.262.785 2.476 1.692 5.015 2.055 7.292 1.044 13.623 4.277 14.25 7.278.295 1.415.777 3.725 1.071 5.132.294 1.408 2.334 4.513 4.535 6.9 5.53 5.999 6.283 11.907 2.557 20.047-2.537 5.542-3.423 10.498-1.876 10.49.413-.002 2.098-3.581 3.746-7.954 1.647-4.373 3.3-7.634 3.673-7.246.372.387 2.569 5.429 4.881 11.204s5.503 13.088 7.091 16.25l2.888 5.75h-3.348c-1.841 0-3.685.338-4.097.75s-2.4.786-4.417.831c-2.017.044-4.658.405-5.87.802-1.856.608-2.514.113-4.177-3.147-1.086-2.129-2.669-4.447-3.519-5.152-1.361-1.129-1.369-1.459-.073-2.755 1.771-1.771 1.882-7.217.19-9.404-.67-.866-2.474-2.393-4.008-3.392-1.535-.999-4.325-4.128-6.201-6.953-3.584-5.4-16.182-17.241-17.229-16.194-.336.336 2.316 3.649 5.894 7.363 3.577 3.713 7.677 8.615 9.11 10.894 1.433 2.278 4.093 5.186 5.911 6.463 4.056 2.848 5.732 4.888 5.773 7.029.046 2.37-4.679 5.154-7.533 4.438-3.501-.879-10.037.879-14.331 3.855l-3.77 2.612-10.417-1.638c-11.721-1.843-14.029-2.787-18.695-7.643-2.611-2.718-3.485-4.716-4.3-9.835-.562-3.533-1.957-9.001-3.098-12.151-1.471-4.06-1.946-7.263-1.632-11 .658-7.819 2.536-10.87 8.569-13.918 2.88-1.454 6.827-4.042 8.772-5.75s4.646-3.105 6.002-3.105c1.524 0 2.465-.572 2.465-1.5 0-3.181-4.907-1.397-11.43 4.155-2.161 1.84-4.343 3.345-4.849 3.345-.505 0-2.429.717-4.276 1.593-6.839 3.246-10.135 15.955-6.568 25.331 1.134 2.983 2.34 8.158 2.678 11.5.937 9.267 2.187 12.179 7.077 16.484 4.217 3.712 4.371 4.02 2.496 5.023-1.098.588-3.523 1.069-5.388 1.069-2.228 0-4.111.772-5.491 2.25-2.128 2.28-7.249 11.782-7.249 13.449 0 .5-1.613 2.459-3.585 4.355-4.477 4.303-6.956 8.805-5.596 10.165.652.652 1.575-.246 2.708-2.635.946-1.993 3.003-4.537 4.572-5.654 1.569-1.118 3.777-4.121 4.907-6.676 3.283-7.423 6.662-11.254 9.924-11.254 1.556 0 5.313-1.137 8.349-2.528 4.649-2.128 6.156-2.384 9.543-1.623 2.212.497 5.174.683 6.582.414 1.407-.269 3.699-.203 5.092.147 2.399.602 2.459.779 1.145 3.363-.762 1.5-1.696 5.275-2.075 8.39-.634 5.219-.52 5.717 1.46 6.345 1.181.375 3.744.383 5.695.017 3.166-.594 3.464-.471 2.772 1.155-4.283 10.067-4.204 17.862.285 27.883 1.71 3.815 3.382 8.34 3.716 10.055.575 2.954.459 3.097-2.194 2.724-1.54-.216-5.71-.415-9.268-.441-5.635-.042-7.501.476-14.501 4.025-4.419 2.241-8.721 4.074-9.56 4.074-2.453 0-6.156-3.074-5.564-4.619.735-1.915-5.306-9.977-8.407-11.219-1.375-.551-4.52-1.234-6.99-1.519-5.883-.678-7.651-3.003-8.673-11.407-1.06-8.724-.672-26.271.731-33.05.826-3.989.799-6.572-.108-10.352-.952-3.97-.942-6.592.048-12.378 1.096-6.412 1.049-7.857-.376-11.419-2.014-5.031-2.052-7.787-.172-12.287.803-1.922 2.165-7.49 3.028-12.372.862-4.883 1.697-9.553 1.857-10.378s1.036-2.919 1.948-4.653c1.441-2.74 2.348-3.243 6.932-3.847 2.901-.382 7.935-1.752 11.186-3.046 4.375-1.74 6.395-2.093 7.771-1.357 2.952 1.58 4.25.001 2.016-2.452-1.073-1.18-2.49-3.825-3.147-5.879-1.174-3.668-5.148-7.766-7.53-7.766-1.72 0-5.858-4.01-7.481-7.25-.758-1.512-1.756-2.75-2.217-2.75-.462 0-.288-.883.386-1.963.958-1.534.966-2.935.036-6.411-1.37-5.122.177-12.098 4.244-19.14 2.835-4.909 13.136-14.835 14.513-13.985 1.794 1.109 3.208-.543 1.857-2.171-.935-1.127-.961-1.936-.108-3.303.622-.996.862-2.081.532-2.411-.783-.783-3.279 1.304-3.296 2.756-.007.621-2.424 3.243-5.373 5.829-6.773 5.94-10.71 11.876-14.176 21.379-2.441 6.694-2.589 7.788-1.383 10.209.743 1.491 1.477 2.994 1.632 3.34s-2.36.512-5.588.37-6.444.096-7.147.531c-1.235.763-6.952-2.607-6.952-4.098 0-.38 2.675-2.396 5.945-4.479 4.935-3.144 6.458-4.829 8.962-9.916 3.56-7.23 20.53-25.796 25.005-27.356 3.977-1.387 6.591 1.412 6.447 6.903-.109 4.164.627 4.843 2.632 2.427 1.648-1.986.548-7.556-2.042-10.336-2.351-2.523-5.874-2.782-9.855-.724-5.209 2.694-20.44 19.861-23.88 26.915-1.768 3.625-3.214 7.078-3.214 7.672s-.453.8-1.007.458c-1.192-.737-6.019 2.424-11.243 7.364-4.5 4.255-4.699 5.28-.877 4.515 2.265-.453 3.223-.077 4.52 1.775 1.487 2.122 2.397 2.35 9.377 2.35 5.983 0 7.665.307 7.444 1.357-.157.746.631 2.91 1.75 4.807 2.593 4.394 2.563 6.626-.153 11.459-2.179 3.877-2.214 3.893-7.25 3.353-2.784-.299-7.385-1.041-10.226-1.649s-5.907-.821-6.814-.473c-3.278 1.258-.326 2.526 7.464 3.205 7.395.645 7.879.826 6.937 2.586-.75 1.402-.569 2.645.701 4.793 1.62 2.744 1.618 3.045-.035 5.569-1.588 2.423-2.27 2.649-7.418 2.461-7.358-.268-8.17-.166-8.17 1.032 0 .573 3.036 1 7.107 1 6.373 0 7.034.181 6.396 1.75-.391.963-1.129 5.35-1.64 9.75s-1.814 9.83-2.896 12.066c-2.391 4.942-2.46 7.576-.344 13.116 1.472 3.854 1.482 4.943.117 11.724-1.294 6.43-1.314 8.289-.144 13.285 1.18 5.037 1.152 6.805-.21 13.309-.865 4.125-1.676 13.125-1.804 20-.257 13.823-1.688 38-2.249 38-.197 0-3.606-.9-7.576-2-3.969-1.1-9.026-2-11.237-2.001l-4.02-.001-.149-16.249c-.082-8.937-.846-21.874-1.699-28.749-2.432-19.608-4.157-46.982-4.096-65 .058-17.292.833-24.184 3.09-27.473.76-1.106 1.354-4.542 1.354-7.826 0-5.067.374-6.228 2.776-8.631 1.873-1.873 4.305-3.005 7.477-3.481 2.585-.387 5.019-1.221 5.409-1.851 1.32-2.137.951-13.738-.437-13.738-1.946 0-3.239 4.463-2.271 7.839.815 2.844.694 3.004-2.766 3.654-5.495 1.03-8.767 3.089-11.221 7.061-1.825 2.953-2.12 4.507-1.633 8.614.492 4.157.216 5.55-1.617 8.172-1.216 1.738-2.305 3.328-2.421 3.534s-1.881-.612-3.922-1.816c-2.22-1.31-4.593-1.969-5.903-1.64-4.169 1.046-5.535-2.131-6.484-15.077-1.351-18.437-4.276-29.477-8.745-33.009-5.586-4.416-20.094-9.837-23.821-8.901-2.355.591-4.031 3.774-2.927 5.56.343.555 2.735 1.024 5.315 1.042 6.574.047 11.893 3.852 15.35 10.982 4.291 8.852 7.058 29.768 4.83 36.518l-1.228 3.722-6.35-.51c-7.241-.581-7.745-.312-12.407 6.632l-3.275 4.877-1.295-3.767c-.712-2.072-3.014-6.184-5.114-9.137-2.101-2.953-4.95-7.348-6.332-9.767-3.083-5.4-5.888-8.583-7.562-8.583-.695 0-2.621-.779-4.28-1.731s-3.357-1.392-3.772-.976c-1.156 1.156 1.686 3.486 6.128 5.024 3.229 1.118 4.508 2.361 6.652 6.463 1.459 2.794 4.072 7.141 5.805 9.661 4.736 6.882 5.834 10.263 6.987 21.505 1.618 15.76 1.306 23.503-1.395 34.65-3.114 12.853-9.592 30.143-13.356 35.645-3.437 5.024-6.195 10.237-6.195 11.709 0 3.021 3.196.19 7.566-6.7 5.383-8.489 10.116-20.849 14.399-37.606l2.775-10.856 1.714 4.856c.942 2.671 2.734 8.456 3.98 12.856 1.247 4.4 4.157 14.075 6.466 21.5 3.093 9.943 4.356 15.937 4.796 22.75.329 5.087.367 9.25.084 9.25s-1.729-1.835-3.213-4.079c-1.66-2.508-4.118-4.643-6.383-5.545-2.026-.806-4.666-1.955-5.867-2.554-1.2-.598-2.997-.775-3.993-.393-1.654.635-1.595.871.683 2.718l2.493 2.023-2.5-.571c-1.375-.315-2.825-.578-3.221-.585-.397-.008-1.079-1.391-1.515-3.075s-1.237-2.921-1.779-2.75c-1.207.381-.724 4.818.713 6.549.576.694.697 1.262.269 1.262-1.523 0 2.873 4.001 4.438 4.039.877.022.046.711-1.848 1.533s-4.088 1.246-4.877.944c-.788-.303-1.992-.087-2.674.479-.877.728-1.609.586-2.496-.483-.69-.831-2.126-1.512-3.191-1.512-2.427 0-1.417-1.822 1.657-2.991 2.042-.776 2.205-1.287 1.55-4.867-.667-3.649-.526-4.051 1.621-4.59 3.324-.834 2.926-2.552-.59-2.552-1.74 0-3.478.763-4.252 1.868-.986 1.408-2.912 1.97-7.827 2.282-12.1.771-18.517 6.435-21.608 19.074-.905 3.698-1.995 6.508-2.423 6.243-.428-.264-2.053.55-3.612 1.81-1.559 1.259-9.36 6.653-17.335 11.986s-16.221 11.341-18.325 13.35c-7.493 7.159-14.233 12.584-18.135 14.598-3.292 1.699-5.12 1.947-10.836 1.467-6.485-.543-9.704-1.804-9.704-3.8 0-.483.85-.878 1.889-.878s2.952-.86 4.25-1.91c2.322-1.879 2.371-2.286 2.951-24.75l.59-22.84 4.536-13.5c4.954-14.746 10.549-28.693 14.643-36.5 2.598-4.954 2.62-5.175 2.336-24-.158-10.45-.353-23.725-.434-29.5-.198-14.135 1.941-20.618 7.739-23.462 2.572-1.261 6.321-2.013 10.5-2.106 3.575-.08 8.173-.885 10.219-1.789 3.459-1.529 3.674-1.528 3.082.015-.538 1.402-.144 1.561 2.545 1.023 2.998-.6 3.145-.493 2.556 1.854-1.051 4.188 1.19 5.777 7.05 4.999 2.771-.367 5.783-1.342 6.694-2.166 1.105-1 1.874-1.144 2.314-.433.976 1.579 8.106 1.293 9.495-.381.904-1.089 1.831-1.206 3.755-.474 3.206 1.219 6.011.375 6.777-2.039.823-2.593-3.505-7.041-6.852-7.041-3.243 0-3.448 1.74-.344 2.921 1.26.479 2.889 1.591 3.62 2.472 1.196 1.441.878 1.54-3.159.986-2.86-.392-4.739-.209-5.179.503-1.014 1.641-5.542 1.363-6.211-.382-.878-2.287-4.122-1.791-6.549 1-1.297 1.492-3.243 2.5-4.827 2.5-3.381 0-4.16-.807-2.954-3.059 1.6-2.99.108-4.693-4.75-5.421-3.363-.505-5.594-.232-8.379 1.024-7.393 3.333-8.947-1.397-1.604-4.882 2.878-1.365 4.74-1.446 12.785-.554 5.179.574 9.566 1.459 9.749 1.968.763 2.115 3.357.625 7.051-4.049 2.162-2.735 4.085-5.38 4.274-5.878.188-.498 1.786-1.217 3.55-1.598l3.209-.692-4.497 6.706c-4.551 6.787-5.007 8.692-2.211 9.235 1.257.243 6.234-6.705 8.619-12.036.621-1.387-3.212-8.764-4.554-8.764-1.42 0-8.271 6.386-8.279 7.717-.002.43-1.323 2.19-2.936 3.91-2.739 2.922-3.215 3.073-7.245 2.294-2.373-.459-6.102-.853-8.287-.877l-3.972-.044 2.472-1.75c1.918-1.357 4.101-1.687 9.723-1.472 8.147.313 9.612-1.065 3.019-2.84-5.407-1.456-11.384-.652-14.682 1.976-1.423 1.133-4.981 3.239-7.907 4.679-2.925 1.44-5.776 3.621-6.334 4.846-.783 1.719-2.472 2.517-7.394 3.496-12.376 2.46-14.114 7.115-13.657 36.565.366 23.51-1.026 36.69-4.806 45.5-10.964 25.56-17.271 43.97-19.011 55.5-.705 4.667-1.056 14.457-.843 23.5l.365 15.5-2.5.346c-3.575.494-5 1.988-5 5.241 0 3.758 2.415 4.947 11.427 5.629 9.815.742 12.923-.481 25.48-10.031 5.826-4.431 18.096-13.128 27.266-19.325l16.673-11.268-.173 19.704-.173 19.704 2.995 7.4c2.211 5.463 4.567 9.057 9 13.733 7.72 8.142 9.693 8.609 15.47 3.666 3.113-2.664 4.189-3.201 3.601-1.799-6.496 15.503-8.509 26.971-8.514 48.5-.003 12.878 1.083 19.211 3.983 23.21 1.081 1.49 1.965 3.37 1.965 4.178 0 2.291 2.72 4.46 7.06 5.628 3.711.999 4.506.791 12.141-3.182 11.269-5.862 19.809-14.052 24.455-23.452 2.796-5.658 4.138-7.384 5.746-7.392 2.762-.013 11.146-3.959 17.494-8.234 5.92-3.987 14.76-13.921 22.475-25.256 5.257-7.723 12.892-24.955 12.56-28.347-.401-4.106.119-4.673 2.102-2.292 2.42 2.904 2.647 10.577.467 15.793-2.532 6.061-1.978 10.503 1.75 14.019 7.896 7.449 16.07 9.973 22.105 6.826 1.833-.956 4.175-1.278 6.544-.899 3.285.525 4.616-.032 12.145-5.091 11.336-7.615 13.576-8.698 17.22-8.326 2.958.302 3.164.083 4.4-4.683.714-2.75 1.306-8.76 1.317-13.356.01-4.595.735-11.12 1.61-14.5 2.859-11.039 3.561-9.994 2.921 4.356-1.312 29.428-2.446 49.028-3.471 60-1.663 17.798.735 45.641 4.725 54.845.871 2.01 2.76 7.667 4.198 12.57 2.947 10.055 4.477 11.729 8.721 9.543 8.471-4.363 16.789-12.731 26.862-27.025 3.123-4.431 6.553-8.591 7.622-9.245 1.07-.653 2.885-2.763 4.034-4.688s3.564-5.75 5.366-8.5c6.108-9.322 13.007-35.291 15.407-58 .581-5.5 1.478-12.7 1.993-16s1.487-9.701 2.16-14.223l1.223-8.224 2.491 3.724c1.37 2.047 3.542 4.996 4.826 6.552 1.285 1.557 4.22 6.057 6.522 10 2.303 3.944 7.147 10.321 10.766 14.171 3.618 3.85 8.303 9.126 10.41 11.724 3.747 4.62 10.571 8.738 17.165 10.358 1.633.401 5.25 2.796 8.039 5.323 6.718 6.087 13.677 9.568 16.309 8.159 2.961-1.584 9.12-20.937 9.12-28.656 0-6.963-2.526-17.655-7.441-31.498-1.872-5.275-4.575-15.4-6.006-22.5-1.431-7.101-3.763-17.185-5.181-22.41-4.853-17.878-8.389-42.776-9.018-63.5-.488-16.107-.254-21.277 1.535-33.957 2.618-18.548 2.635-23.737.114-35.286-2.1-9.622-3.338-13.146-6.062-17.257-.912-1.375-3.604-7-5.982-12.5-5.973-13.809-6.33-14.261-12.757-16.13-7.295-2.12-14.396-1.425-25.696 2.515-4.912 1.713-9.285 3.115-9.718 3.115s-.788-3.305-.788-7.345c0-6.901.248-7.728 4.102-13.692 2.256-3.49 5.856-8.426 8-10.969 4.405-5.224 4.766-7.126 1.898-9.994-1.975-1.975-4.075-2.363-7-1.294m-1.759 6.544c-1.926 2.056-8.855 13.826-13.514 22.954-2.366 4.635-4.28 15.458-3.373 19.072.801 3.191 2.529 3.449 5.73.857 2.132-1.726 2.31-2.649 2.361-12.25.054-10.259.102-10.461 3.966-16.883 2.151-3.575 5.414-8.376 7.25-10.668 1.837-2.293 3.339-4.43 3.339-4.75 0-1.473-3.866-.353-5.759 1.668m-234.745 23.588c-1.271 1.27-.138 1.942 4.079 2.418 8.292.934 14.607 8.299 17.973 20.963 2.325 8.744 3.882 25.108 2.71 28.471-.973 2.792-.846 3.176 1.382 4.192 1.35.615 4.058 1.118 6.018 1.118 3.547 0 3.554-.008 1.41-1.75-1.824-1.483-2.368-3.657-3.565-14.25-2.208-19.547-2.563-21.338-5.367-27.068-1.996-4.079-3.729-6.012-7.136-7.958-4.891-2.795-16.705-6.936-17.504-6.136m117.939 3.54c-8.371 3.898-15.435 11.254-15.435 16.072 0 2.673 2.431 1.646 4.08-1.723 1.936-3.954 9.783-10.07 14.882-11.597 4.692-1.406 12.545-1.464 15.072-.112 1.047.561 3.057 2.987 4.466 5.392 1.433 2.444 3.821 4.894 5.414 5.554 1.568.65 4.113 2.498 5.655 4.108 8.017 8.368 1.172 28.048-11.569 33.263-3.038 1.243-4.16 1.243-8.5-.001-8.762-2.511-9.5-2.62-9.5-1.4 0 1.441 5.461 3.796 10.768 4.645 7.985 1.277 18.223-5.95 22.9-16.165 5.491-11.994 3.604-21.749-5.299-27.395-2.618-1.66-5.293-3.019-5.943-3.019-.651 0-1.749-1.365-2.44-3.034-2.16-5.216-5.401-6.967-12.871-6.9560515-4.837.0070515-7.977.6440515-11.68 2.3680515m124.814 11.593c-4.539 1.573-10.404 4.441-13.035 6.372-2.63 1.931-5.999 3.816-7.485 4.189-3.832.962-14.672-1.132-20.921-4.041-2.919-1.359-6.565-2.476-8.101-2.481-3.638-.013-11.835 7.558-14.789 13.659-2.15 4.442-2.157 4.645-.936 29.152.717 14.371 1.764 26.141 2.509 28.179.703 1.925 3.529 8.9 6.28 15.5 6.578 15.779 9.446 20.673 17.876 30.501 4.46 5.199 6.797 10.6 10.908 25.206 1.439 5.111 3.86 13.118 5.381 17.793s3.579 11.65 4.572 15.5c.994 3.85 2.636 8.568 3.649 10.485 1.014 1.917 1.843 4.064 1.843 4.772 0 2.392 5.923 14.37 9.546 19.306 1.979 2.696 5.789 8.257 8.466 12.358 5.751 8.809 21.788 26.355 26.312 28.786 1.747.939 5.426 2.465 8.176 3.391 6.009 2.023 9.305 4.182 16.271 10.656 2.899 2.694 5.824 4.724 6.5 4.511 2.454-.774 6.03-13.873 6.488-23.765.498-10.762-.753-16.891-6.432-31.5-1.924-4.95-3.92-11.925-4.434-15.5-.996-6.925-4.654-22.977-7.862-34.5-3.987-14.327-8.003-43.154-8.635-62-.549-16.343-.365-19.485 2-34.13 3.129-19.385 3.139-19.891.582-29.932-2.816-11.059-4.793-16.098-8.732-22.263-1.872-2.928-3.153-5.974-2.848-6.769s-1.156-4.249-3.246-7.676c-2.859-4.687-4.649-6.526-7.226-7.424-5.797-2.019-13.732-1.437-22.677 1.665m-114.499 2.564c-2.613 1.916-4.75 3.948-4.75 4.514s1.012.082 2.25-1.076 3.712-3.012 5.5-4.121c1.788-1.108 3.25-2.203 3.25-2.434 0-1.035-1.846-.114-6.25 3.117m18.482 6.465c0 1.925.206 2.712.457 1.75.252-.962.252-2.538 0-3.5-.251-.962-.457-.175-.457 1.75m-1.153 4.668c-.043.643-.338 1.993-.655 3-.547 1.741-.518 1.744.571.044.631-.983.925-2.333.655-3-.355-.875-.514-.887-.571-.044m-41.079 7.598c0 .721-.851 2.981-1.892 5.023-2.053 4.026-1.87 4.221 2.513 2.693 2.47-.861 6.209-4.732 5.198-5.382-5.06-3.253-5.819-3.558-5.819-2.334m5.887 8.083c-2.386 2.77-3.292 3.083-10.421 3.592-7.835.561-9.225 1.306-7.509 4.022.776 1.228 1.953 1.287 7.325.367 3.521-.603 8.445-2 10.942-3.105 4.022-1.779 4.483-2.308 4.039-4.631-.703-3.674-1.39-3.712-4.376-.245m-167.176 11.664c-2.831 2.227-6.076 10.667-5.464 14.214.353 2.048.467 1.976 1.142-.727 1.961-7.846 3.963-11.743 6.976-13.581 1.863-1.136 2.48-1.913 1.52-1.9150033-.888-.0019967-2.767.9020033-4.174 2.0090033m25.289-1.194c0 .584.486 1.364 1.081 1.731.595.368 1.943 2.082 2.996 3.809 2.237 3.668 2.578 2.808.489-1.231-1.644-3.18-4.566-5.937-4.566-4.309m69.187 3.252c-.943 1.51-2.352 1.929-6.495 1.929-2.911 0-5.768-.476-6.349-1.057s-4.825-1.143-9.431-1.25l-8.374-.193-3.269 5.456c-3.084 5.147-3.269 5.995-3.263 15 .007 11.281 1.07 18.497 4.428 30.044 1.359 4.675 4.119 14.125 6.132 21 6.985 23.851 7.538 26.398 8.41 38.698.86 12.137.962 12.524 5.583 21.083 2.588 4.795 5.959 10.545 7.489 12.776 3.434 5.007 10.439 11.443 12.455 11.443.823 0 1.497.675 1.497 1.5 0 2.053-1.545 1.884-6.078-.664-4.043-2.273-7.884-6.567-13.502-15.097l-3.371-5.119.588 4.966c.898 7.583-2.886 17.316-10.622 27.316-3.435 4.44-6.67 7.811-7.189 7.49-.555-.343-.405-1.319.365-2.372 13.461-18.407 14.343-20.551 13.503-32.797-.338-4.935-1.618-11.789-2.948-15.785-2.293-6.894-7.468-14.734-10.491-15.894-1.881-.721-4.388 2.353-3.844 4.713.508 2.202-2.891 4.692-5.481 4.014-1.067-.279-2.686.109-3.598.861-1.293 1.067-1.75 1.093-2.078.118-.231-.687-.903-1.25-1.493-1.25-2.093 0-7.834 5.189-9.205 8.321-1.136 2.593-1.408 2.785-1.474 1.04-.045-1.177.754-3.172 1.776-4.434 2.236-2.761 1.704-5.7-1.108-6.121-1.125-.168-2.542-1.124-3.148-2.123-.909-1.499-.616-2.21 1.673-4.058 1.527-1.232 2.464-2.552 2.084-2.933-1.213-1.213-7.846-.745-12.651.892-9.148 3.117-13.041 10.767-14.717 28.916-1.778 19.257-1.327 27.479 2.083 37.915 2.597 7.947 3.917 10.339 8.5 15.404 2.984 3.298 5.426 6.522 5.426 7.166 0 .643 2.355-.89 5.233-3.407 2.878-2.518 5.627-4.578 6.11-4.578.482 0 3.421-2.641 6.53-5.869 7.218-7.491 10.337-8.344 17.304-4.729 6.007 3.117 8.915 3.281 10.591.598 1.755-2.811 4.514-2.486 6.429.756 1.401 2.372 1.444 3.193.307 5.896-1.276 3.036-1.186 3.274 2.754 7.254 3.949 3.988 4.086 4.353 4.472 11.854.218 4.257-.217 11.195-.969 15.418l-1.367 7.677 2.672-1.902c5.741-4.088 13.667-13.925 17.748-22.028 6.124-12.156 6.839-17.674 4.69-36.177-.961-8.274-1.488-17.237-1.17-19.919l.577-4.876-6.536.67-6.536.67.33-2.818c.372-3.168 4.381-5.925 10.204-7.017 3.398-.638 3.53-.833 4.203-6.221.641-5.125-.316-20.111-4.131-64.737-.752-8.8-1.823-20.275-2.379-25.5-1.405-13.193-1.306-23.64.283-29.763 1.294-4.991 1.264-5.224-.75-5.849-1.155-.358-3.248-1.459-4.653-2.448-2.471-1.739-2.593-1.735-3.759.131m23.466 5.026c1.153 1.154 2.941 1.927 3.972 1.719 1.495-.302 1.185-.726-1.529-2.097-4.457-2.251-4.99-2.168-2.443.378m84.219 3.567c-1.255 1.522-1.159 1.553 1.128.364 3.352-1.742 3.605-2.028 1.789-2.028-.849 0-2.162.749-2.917 1.664m-17.825-.164c-.024 1.486 1.761 4.026 2.388 3.398.3-.299-.112-1.411-.914-2.471-.801-1.06-1.465-1.477-1.474-.927m-65.297 3.216c-1.512.229-2.75.865-2.75 1.414 0 1.431 6.265.615 6.756-.88.226-.687.036-1.183-.423-1.1-.458.082-2.071.337-3.583.566m67.575 8.438c-5.558 5.857-7.412 13.13-4.865 19.082.559 1.305.097 1.982-1.858 2.725-1.431.544-2.602 1.466-2.602 2.049 0 .737.588.746 1.924.03 1.059-.566 4.641-.919 7.961-.785 3.422.139 6.058-.18 6.087-.737.028-.539-1.307-1.049-2.967-1.133-8.345-.42-8.979-10.293-1.196-18.635 2.848-3.053 6.595-3.537 12.292-1.586 4.229 1.448 4.922 2.471 4.182 6.173-.447 2.235-.254 2.821.815 2.469.833-.274 1.527-2.167 1.711-4.66.295-4.021.147-4.266-3.499-5.79-2.094-.875-6.283-1.806-9.309-2.07-5.21-.453-5.669-.302-8.676 2.868m24.69 2.8c-3.067 2.356-2.022 3.864 1.143 1.648 1.258-.881 3.087-1.602 4.065-1.602.977 0 1.777-.45 1.777-1 0-1.67-4.342-1.077-6.985.954m78.409.699c1.014 3.363 2.548 13.431 2.72 17.847.126 3.244.237 3.455.585 1.113.597-4.009-1.502-18.799-2.848-20.069-.797-.752-.924-.442-.457 1.109m-119.424 1.347c-1.09.704-.27.969 3 .969s4.09-.265 3-.969c-.825-.533-2.175-.969-3-.969s-2.175.436-3 .969m19.168 8.282c1.467 1.22 6.474 5.286 11.127 9.035 5.644 4.548 9.221 8.297 10.747 11.264 2.69 5.23 4.958 7.535 4.958 5.038 0-4.703-11.009-16.831-22.18-24.434-5.31-3.613-8.704-4.273-4.652-.903m-16.668.718c-.731 1.183.248 1.183 3 0 1.928-.829 1.921-.862-.191-.93-1.205-.038-2.469.38-2.809.93m146.81 4.5c.005 3.3.192 4.529.415 2.732.222-1.797.218-4.497-.01-6-.229-1.503-.411-.032-.405 3.268m-204.31 1.557c0 .519 2.25.943 5 .943s5-.373 5-.829c0-.457-2.25-.881-5-.944-2.75-.062-5 .311-5 .83m205.272 8.943c0 2.475.195 3.488.434 2.25.238-1.238.238-3.262 0-4.5-.239-1.238-.434-.225-.434 2.25m-127.665-1.418c-.964 2.512-.704 7.418.393 7.418.55 0 1-2.025 1-4.5 0-4.733-.386-5.542-1.393-2.918m100.625 1.418c0 1.925.206 2.713.457 1.75.252-.963.252-2.537 0-3.5-.251-.963-.457-.175-.457 1.75m.934 5.5c-.04 1.1.528 4.925 1.261 8.5.734 3.575 1.367 5.6 1.407 4.5s-.528-4.925-1.261-8.5c-.734-3.575-1.367-5.6-1.407-4.5m27.12 4c.008 2.75.202 3.756.432 2.236.229-1.52.223-3.77-.014-5s-.425.014-.418 2.764m-205.814 4.454c.355.575 2.944 1.046 5.754 1.046 6.324 0 5.935-.517-1.063-1.411-3.619-.462-5.13-.344-4.691.365m95.247 1.034c-5.565 1.041-8.06 2.686-11.034 7.271-3.25 5.013-4.382 10.196-2.676 12.252 2.568 3.094 3.748 1.64 4.18-5.146.365-5.724.8-6.959 3.173-9 1.915-1.647 3.982-2.365 6.811-2.365 3.385 0 4.709.647 7.945 3.882 2.135 2.136 3.882 4.753 3.882 5.816 0 1.064-2.003 3.937-4.452 6.385l-4.451 4.452 4.927-.164c3.762-.126 5.82-.857 8.702-3.089 2.076-1.609 5.194-3.492 6.929-4.185 3.191-1.276 5.036-4.806 3.377-6.465-.536-.536-2.73-.442-5.41.233-6.448 1.623-7.869 1.488-7.179-.686.751-2.365-5.033-8.839-8.443-9.45-1.375-.247-4.201-.131-6.281.259m111.36 2.08c-.108 3.514 2.775 12.932 3.96 12.932.528 0 .961 2.674.961 5.943 0 3.952.881 8.319 2.63 13.037 1.446 3.902 2.802 6.922 3.013 6.711.21-.211-.748-3.388-2.13-7.06-1.599-4.249-2.513-8.73-2.513-12.325 0-3.676-.536-6.241-1.536-7.346-.845-.933-2.159-4.569-2.92-8.078-.762-3.51-1.421-5.226-1.465-3.814m-222.989 3.765c-2.351 4.393-4.159 14.219-4.538 24.667-.219 6.05-.219 9.425.001 7.5s.916-8 1.547-13.5c.63-5.5 1.98-12.223 2.999-14.94 1.905-5.077 1.899-7.293-.009-3.727m107.983 2.802c-1.512 1.922-2.073 4.086-2.073 8v5.365l2.04-2.04c2.386-2.386 6.728-4.222 8.052-3.403 1.124.695 3.908-1.926 3.908-3.681 0-2.141-5.244-6.876-7.615-6.876-1.232 0-3.173 1.186-4.312 2.635m90.072-.635c.006 1.375.879 4.75 1.94 7.5 2.026 5.249 1.826 3.402-.541-5-.824-2.924-1.405-3.962-1.399-2.5m-54.775 3.42c-1.844 4.459-5.582 7.58-9.078 7.58-1.045 0-3.367 1.514-5.16 3.364-2.771 2.859-4.176 3.46-9.344 4-3.346.35-6.662 1.116-7.369 1.703-.969.805-1.653.374-2.781-1.75l-1.495-2.817-1.69 4c-.93 2.2-1.749 6.925-1.822 10.5-.112 5.583.343 7.407 3.234 12.93 1.916 3.66 4.12 10.121 5.119 15 1.53 7.472 1.596 9.595.513 16.57-.683 4.4-1.53 21.05-1.882 37s-1.144 35.075-1.76 42.5c-.813 9.794-.827 18.587-.052 32.029 1.041 18.047 1.188 18.882 5.633 32.119 2.51 7.475 4.564 14.355 4.564 15.289 0 1.294.535 1.537 2.25 1.022 4.207-1.263 11.231-8.121 19.002-18.553 4.263-5.723 9.936-12.881 12.606-15.906s5.664-7.075 6.653-9 2.623-4.625 3.631-6c2.961-4.04 8.527-20.903 10.263-31.093.884-5.188 2.489-15.952 3.567-23.92 1.077-7.968 2.646-18.762 3.486-23.987 3.417-21.251 1.563-33.836-9.911-67.269-9.066-26.416-9.245-26.797-15.913-33.981-6.883-7.415-9.624-7.713-12.264-1.33m-270.291 2.163c.048 1.165.285 1.402.604.605.289-.722.253-1.585-.079-1.917s-.568.258-.525 1.312m211.037.085c-.064.643-.407 1.993-.763 3-.502 1.421-.369 1.576.594.688.682-.629 1.026-1.979.763-3s-.53-1.33-.594-.688m-60.675 2.8c-1.903 1.44-1.899 1.469.187 1.5 1.17.018 2.687-.643 3.372-1.468 1.699-2.047-.864-2.07-3.559-.032m-148.889 3.032c.612 4.307 5.179 14.742 7.878 18 .911 1.1.204-.659-1.571-3.908-1.776-3.249-4.049-8.649-5.052-12-1.369-4.575-1.682-5.096-1.255-2.092m185.998 4.31c1.939 1.653 6.45 3.153 6.45 2.144 0-.552-1.154-1.442-2.565-1.979-3.156-1.2-5.2-1.286-3.885-.165m17.441 2.108c-4.246.833-7.192 3.179-11.172 8.896-3.447 4.952-3.261 7.945.707 11.396 1.361 1.183 2.474 3.184 2.474 4.447 0 3.499 4.213 5.678 11.351 5.872 5.813.158 6.413-.052 10.984-3.845 4.71-3.909 4.827-4.139 4.5-8.861-.271-3.923-.001-4.954 1.415-5.403 2.604-.825 2.131-2.732-.513-2.069-1.852.465-3.158-.515-7.187-5.391-5.106-6.178-5.65-6.397-12.559-5.042m126.167 3.082c0 1.375.227 1.938.504 1.25.278-.687.278-1.812 0-2.5-.277-.687-.504-.125-.504 1.25m-129.158 1.641c-3.665 1.515-8 7.026-8 10.171 0 1.012 1.125 2.896 2.5 4.188s2.5 3.418 2.5 4.725c0 1.759.845 2.701 3.25 3.623 5.494 2.107 11.107 1.328 15.294-2.124 3.357-2.766 3.648-3.39 3.056-6.544-.36-1.918-2.442-5.732-4.627-8.477-2.185-2.744-3.973-5.487-3.973-6.096 0-1.525-5.762-1.218-10 .534m-51.559.888c-1.88 1.481-1.864 1.521.481 1.25 1.332-.153 2.607-.841 2.833-1.529.56-1.701-.963-1.573-3.314.279m181.725 1.971c-.013 2.129 2.565 10.692 2.71 9 .047-.55-.541-3.25-1.306-6s-1.397-4.1-1.404-3m-128.814 2.493c-3.424 1.382-3.697 2.878-1.194 6.554 1.96 2.878 2.948 3.44 6.057 3.446034 2.654.004966 4.01-.545034 4.75-1.927034 1.389-2.596 1.309-6.392-.165-7.866-1.375-1.375-6.287-1.482-9.448-.207m1.837 2.69c-1.019.407-.929.947.405 2.421.944 1.043 2.273 1.896 2.954 1.896 1.18 0 2.452-2.117 2.452-4.082 0-.972-3.605-1.118-5.811-.235m-82.031 5.317c0 1.375.227 1.938.504 1.25.278-.687.278-1.812 0-2.5-.277-.687-.504-.125-.504 1.25m238.15-.5c.307 1.1 1.325 4.825 2.264 8.277.939 3.453 1.887 6.098 2.106 5.878.507-.507-3.407-14.732-4.278-15.547-.357-.335-.398.292-.092 1.392m-26.187 1.5c-.017.825.587 2.85 1.343 4.5 1.768 3.862 1.794 2.066.036-2.5-.741-1.925-1.362-2.825-1.379-2m-211.106 4.083c.009 1.329.458 3.092.999 3.917.692 1.055.793.462.341-2-.791-4.313-1.36-5.126-1.34-1.917m68.58 2.667c-.406.412-2.169 1.278-3.917 1.924-2.476.914-2.705 1.191-1.039 1.25 1.794.064 8.014-3.792 6.278-3.891-.321-.018-.916.305-1.322.717m-23.612 5.75c-.083 3.3-.475 8.59-.871 11.755-.824 6.601-1.507 6.455 9.645 2.065 3.442-1.355 7.799-2.543 9.682-2.642 3.415-.178 3.419-.183 1.493-2.242-1.063-1.136-1.932-2.733-1.932-3.55 0-2.296-2.119-3.886-5.18-3.886-4.208 0-10.434-2.842-11.625-5.308-.883-1.826-1.085-1.191-1.212 3.808m-85.974-1.75c.021 1.725 4.931 10.596 4.96 8.96.017-.984-.878-3.572-1.989-5.75-1.905-3.733-2.992-4.908-2.971-3.21m256.594 2.25c1.113 4.535 9.493 25.48 10.603 26.5.756.694.914.542.516-.5-1.698-4.452-9.975-24.791-10.785-26.5-.802-1.693-.853-1.616-.334.5m-121.224-.196c.88 1.424 5.778 2.172 5.334.815-.202-.615-1.618-1.266-3.147-1.446-1.589-.187-2.526.083-2.187.631m148.051 3.696c.391 1.65 1.142 3.44 1.668 3.977.526.538.427-.587-.219-2.5-1.514-4.478-2.367-5.347-1.449-1.477m-154.93 10.919c-3.85 2.006-7.5 4.308-8.11 5.114-1.722 2.275-3.599 1.789-9.769-2.533-3.14-2.2-6.417-4-7.281-4-2.71 0-11.34 3.42-11.34 4.494 0 .564-.894 1.583-1.987 2.266-1.092.682-2.628 2.776-3.412 4.652-.784 1.877-2.365 4.352-3.513 5.5-1.149 1.149-2.088 3.229-2.088 4.623 0 1.395-.704 3.61-1.565 4.924-1.399 2.134-1.406 2.689-.066 5.215.825 1.554 3.305 4.983 5.51 7.618 4.891 5.844 5.923 10.947 3.684 18.208-.848 2.75-1.546 6.912-1.552 9.248-.01 3.987.281 4.432 4.739 7.231 6.792 4.265 12.386 4.149 18.994-.397 5.8-3.989 21.551-12 25.445-12.94 1.479-.357 2.968-.198 3.309.354s1.485 1.004 2.542 1.004c2.47 0 2.782-1.629 3.259-17 .363-11.741.639-13.176 4.544-23.625 4.124-11.038 5.489-20.434 3.176-21.863-.54-.334-4.702-.862-9.25-1.173-8.061-.553-8.445-.475-15.269 3.08m-81.124.61c-3.168.977-6.101 3.579-5.129 4.551.292.293 3.366-.202 6.83-1.1 3.734-.968 7.695-1.37 9.727-.989 3.567.669 12.713 6.112 17.411 10.361l2.715 2.456 2.002-2.404c1.101-1.322 2.016-2.93 2.035-3.572.018-.643.306-1.88.64-2.75.451-1.175-.018-1.582-1.824-1.582-1.337 0-6.167-1.118-10.733-2.485-9.571-2.865-19.175-3.873-23.674-2.486m9.198 7.737c-.308.971-.124 7.384.41 14.25 1.53 19.682 1.293 27.866-1 34.532-3.929 11.417-17.683 30.728-25.458 35.744-4.468 2.881-5.875 3.244-13.817 3.56-4.863.194-10.86-.156-13.327-.777-5.465-1.376-6.671-.803-5.181 2.466 1.352 2.968 4.978 4.024 16.799 4.893 10.48.771 15.295-.525 25.267-6.799 7.277-4.579 18.199-15.577 26.449-26.635 4.973-6.666 11.318-22.425 11.158-27.714-.063-2.082.009-4.236.16-4.786s-.483-2.704-1.408-4.787c-1.39-3.125-1.49-4.505-.575-7.904 1.444-5.362-.277-7.793-9.603-13.559-7.621-4.712-9.052-5.072-9.874-2.484m127.426 1.175c0 1.132.45 2.059 1 2.059s1-.648 1-1.441-.45-1.719-1-2.059-1 .309-1 1.441m-55.983 1.313c-.009.414.883 2.432 1.983 4.485 1.1 2.052 2 4.526 2 5.496 0 .971.419 1.765.93 1.765 1.296 0-.376-5.444-2.867-9.332-1.116-1.742-2.037-2.829-2.046-2.414m57.215 4.746c0 1.925.206 2.713.457 1.75.252-.963.252-2.537 0-3.5-.251-.963-.457-.175-.457 1.75m1.104 11c0 4.125.177 5.813.392 3.75.216-2.062.216-5.437 0-7.5-.215-2.062-.392-.375-.392 3.75m-73.643 3.098c.656.808 3.131 2.505 5.5 3.771 3.582 1.914 3.897 1.968 1.873.323-3.779-3.072-8.81-5.865-7.373-4.094m75.559 12.402c.011 2.2.216 2.982.455 1.738s.23-3.044-.02-4-.446.062-.435 2.262m-195.088 6.091c-2.84 2.432-5.459 6.227-8.11 11.75-7.085 14.77-7.554 17.415-7.554 42.659 0 16.798.334 23.087 1.32 24.815 1.071 1.878 1.594 2.087 2.774 1.107 2.009-1.667 3.094-.253 1.618 2.11-1.962 3.142-1.434 4.451 2.52 6.243 3.658 1.658 3.833 1.639 8.75-.924 12.001-6.257 19.534-13.151 24.45-22.375 1.793-3.364 3.05-6.327 2.793-6.585-.547-.547-13.185-3.018-19.778-3.868-3.7-.477-4.889-1.155-6.345-3.619-1.515-2.565-1.604-3.486-.575-5.968 1.243-3.001 2.822-3.687 4.536-1.973 1.471 1.471 11.579 2.375 17.825 1.594 5.411-.676 5.602-.806 6.591-4.477.56-2.08 1.451-9.099 1.981-15.599.87-10.67.797-11.943-.748-13.117-2.307-1.752-3.212-1.681-3.212.253 0 1.124-.609 1.457-2 1.093-1.402-.366-2.005-.028-2.015 1.134-.013 1.409-.154 1.437-.946.185-.512-.809-1.251-1.151-1.643-.759-1.071 1.071-3.396-1.252-3.396-3.392 0-2.287-.398-2.303-6.395-.259-3.659 1.247-5.121 2.395-6.363 5-.887 1.859-1.979 3.381-2.427 3.381-3.013 0 3-8.284 6.84-9.424 2.184-.649 3.113-1.543 3.115-3 .002-1.142.323-3.054.714-4.25.574-1.76.129-2.475-2.338-3.75-4.62-2.39-7.377-1.926-11.982 2.015m194.108 2.409c0 2.475.195 3.488.434 2.25.238-1.238.238-3.262 0-4.5-.239-1.238-.434-.225-.434 2.25m-85.272-.125c0 1.009 5.028 2.165 8.875 2.04 1.637-.053.556-.601-2.875-1.458-3.025-.755-5.613-1.391-5.75-1.415-.137-.023-.25.352-.25.833m-86.169 1.008c-1.521.562-1.495.832.289 3.027 2.328 2.863 4.341 1.663 2.561-1.527-.771-1.384-1.76-1.904-2.85-1.5m170.364 6.617c.02 1.65.244 2.204.498 1.231s.237-2.323-.037-3-.481.119-.461 1.769m-2.561 11.723c-1.002 4.456-2.081 8.777-2.398 9.603-.331.864-.149 1.238.429.881 1.038-.641 4.92-17.456 4.197-18.179-.224-.224-1.227 3.239-2.228 7.695m-165.555-3.64c.048 1.165.285 1.402.604.605.289-.722.253-1.585-.079-1.917s-.568.258-.525 1.312m102.671 3.59c-3.162 1.716-5.75 3.529-5.75 4.03 0 .868 4.905-1.759 10.085-5.401 3.713-2.609 2.008-2.07-4.335 1.371m-132.25 13.372c-2.75.669-3.875 1.226-2.5 1.237 1.375.01 3.625-.316 5-.726 1.697-.505 3.076-.25 4.293.794 1.622 1.391 1.734 1.383 1.173-.079-.906-2.359-2.381-2.587-7.966-1.226m-.271 39.027c-1.236 1.885-2.049 3.428-1.806 3.428.695 0 4.838-6.073 4.424-6.486-.204-.204-1.382 1.172-2.618 3.058" fill-rule="evenodd" transform="translate(0 .5)"/></svg>