<svg height="280" viewBox="0 0 347 280" width="347" xmlns="http://www.w3.org/2000/svg"><path d="m109.5 2.55c-3.63 1.266-13.784 3.208-23 4.398-9.075 1.172-18.75 2.768-21.5 3.548-9.35 2.65-16.784 8.172-27.333 20.303-12.323 14.17-17.399 23.48-18.007 33.026-.264 4.148-.953 7.035-1.834 7.679-.776.567-1.85 4.128-2.386 7.913-1.02 7.203-.278 13.849 2.743 24.583 2.507 8.906 12.098 29.832 17.875 39 5.775 9.166 10.681 19.427 9.739 20.37-.321.32.123.854.985 1.185.904.347 1.843 2.37 2.216 4.773.357 2.295.856 4.915 1.111 5.823.401 1.429-.949 1.748-10.023 2.366-12.898.879-14.181 1.809-13.258 9.603.69 5.83.984 6.358 3.087 5.551 1.172-.45 1.373-1.661.918-5.509-.566-4.776-.509-4.918 1.791-4.482 1.307.248 6.757.001 12.111-.549 5.872-.603 10.975-.644 12.856-.105 4.97 1.425 22.764 13.817 30.44 21.198 3.866 3.718 9.784 8.901 13.149 11.518 11.958 9.299 18.182 14.776 18.251 16.058.128 2.401-2.966 7.2-4.642 7.2-.913 0-3.881 1.872-6.595 4.161-4.057 3.421-5.085 3.892-5.782 2.647-1.308-2.339-20.346-25.037-23.029-27.458-11.287-10.184-36.15-21.927-48.626-22.965-4.059-.338-6.561 2.689-12.134 14.682-6.7 14.417-11.674 31.113-14.556 48.86-1.468 9.035-2.865 16.747-3.107 17.137-.839 1.358 2.54 3.336 3.707 2.169.595-.595 2.318-8.203 3.829-16.907 3.232-18.62 4.023-21.746 8.682-34.326 4.786-12.923 9.973-23.999 12.496-26.685 1.941-2.066 2.298-2.122 4.91-.772 1.549.802 3.434 1.457 4.189 1.457 2.519 0 19.873 8.985 24.197 12.529 2.347 1.923 6.099 4.729 8.338 6.234s9.262 9.262 15.606 17.237c14.849 18.667 16.576 19.677 22.876 13.376 2.273-2.272 4.199-3.402 5.168-3.031.917.353 2.918-.614 4.933-2.383 2.721-2.389 3.504-2.679 3.968-1.469.318.829 1.267 1.507 2.11 1.507 1.151 0 1.531 1.132 1.531 4.558 0 5.267 3.572 23.417 5.547 28.182.941 2.27 1.808 3.061 2.898 2.643 2.063-.792 1.961-3.475-.453-11.886-1.104-3.848-2.714-10.748-3.577-15.333-1.39-7.388-1.399-8.526-.079-10 1.712-1.913 6.664-12.802 6.664-14.654 0-1.487-11.19-5.757-13.136-5.013-.75.286-3.839-1.539-6.864-4.057-3.025-2.517-7.525-5.982-10-7.699s-9.047-6.818-14.603-11.336c-5.557-4.518-12.005-9.185-14.329-10.37-2.324-1.186-7.018-4.068-10.432-6.405-3.414-2.338-8.295-4.835-10.847-5.549l-4.639-1.299-.351-7.641c-.411-8.934-.247-9.163 8.675-12.132 6.982-2.324 18.455-11.48 16.648-13.287-.674-.674-2.592.315-5.814 2.998-5.325 4.433-9.289 6.644-13.808 7.701-1.65.385-4.687 1.805-6.75 3.154-2.994 1.959-3.75 2.141-3.75.906 0-2.134-4.395-10.633-9.738-18.833-5.635-8.648-15.466-30.698-18.301-41.048-2.719-9.924-2.51-21.747.422-23.891 1.369-1.001 2.038-3.294 2.582-8.847 1.063-10.862 5.678-19.078 18.05-32.134 8.2-8.652 10.956-10.879 16.787-13.567 6.211-2.863 8.499-3.325 20.838-4.205 17.165-1.224 24.876-2.517 33.86-5.679 7.898-2.779 9.944-4.579 8.426-7.415-1.248-2.331-3.675-2.191-11.926.688m21-1.633c0 .504-1.238 1.368-2.75 1.921-2.639.964-2.654 1.007-.375 1.083 2.48.082 2.53.816.532 7.829-.961 3.378 2.003 2.887 4.601-.762 2.495-3.503 4.371-3.114 2.954.613-2.456 6.457.211 7.256 4.871 1.458 3.154-3.925 3.96-6.059 2.289-6.059-.483 0-1.62 1.012-2.528 2.25l-1.649 2.25.664-2.5c.366-1.375.877-3.062 1.135-3.75.665-1.768-2.245-1.556-3.764.274-.696.838-1.497 1.292-1.78 1.009-.284-.284-1.08-.048-1.769.525-.983.815-1.136.164-.711-3.009.358-2.667.157-4.049-.588-4.049-.623 0-1.132.413-1.132.917m10.445 13.144c-1.597 1.764-1.655 2.194-.405 2.985.803.508 1.91.937 2.46.954s.38.423-.378.904c-2.102 1.331-.646 2.689 4.395 4.101 2.513.703 5.214 2.2 6.003 3.327.789 1.126 1.706 1.776 2.038 1.443.975-.975-1.493-4.775-3.102-4.775-1.202 0-1.252-.353-.275-1.919 1.793-2.869-.516-5.081-5.303-5.081-4.02 0-4.733-.745-2.678-2.8.736-.736.796-1.2.155-1.2-.575 0-1.884.927-2.91 2.061m163.055 4.995c-17.05.369-32.462.993-34.25 1.387-5.137 1.132-3.946 2.833 1.5 2.143 15.268-1.935 65.619-3.285 67.889-1.821 2.346 1.514 3.35 9.238 3.355 25.811.006 16.445-.077 17.15-2.244 19.101-1.238 1.114-3.021 2.297-3.963 2.628-2.464.868-2.922-2.956-2.578-21.518.394-21.253 1.481-20.187-20.985-20.579-9.198-.161-23.115.064-30.927.5l-14.203.794-1.051-2.308c-1.213-2.66-3.461-1.902-2.724.919.371 1.416-.045 1.891-1.663 1.902-4.766.034-4.758 1.713.011 2.254 2.861.325 5.376.101 6.163-.549.896-.74 10.965-1.118 30.826-1.159 28.08-.058 29.564.032 30.92 1.88 1.678 2.288 1.819 10.078.363 20.059-.562 3.85-1.045 10.947-1.073 15.771-.038 6.478-.451 9.171-1.578 10.298-.839.839-1.769 1.284-2.065.988-.296-.297-.855-7.631-1.241-16.298-.754-16.902-2.241-22.467-6.412-23.999-1.139-.418-15.007-.667-30.82-.554l-28.75.205v-2.955c0-1.961-.505-2.956-1.5-2.956-1.037 0-1.5 1.041-1.5 3.372 0 3.152-.258 3.414-3.933 4.001-4.057.649-8.067 4.653-8.067 8.056 0 .891-1.012 2.044-2.25 2.561s-3.32 1.863-4.629 2.99c-1.918 1.653-2.272 2.705-1.827 5.445.486 2.994.257 3.471-1.931 4.02-1.366.343-4.023.334-5.906-.019-3.059-.574-3.533-.357-4.441 2.031-.559 1.47-1.016 5.133-1.016 8.139 0 3.53-.443 5.584-1.25 5.799-8.616 2.289-10.286 4.342-12.122 14.903-1.002 5.762-1.142 11.096-.537 20.428l.819 12.629-3.567 4.859c-1.962 2.673-5.361 5.775-7.554 6.893-3.265 1.667-3.88 2.428-3.401 4.213.322 1.199.591 2.577.598 3.063.014.904 27.937.182 53.514-1.384 25.362-1.553 36.695-5.503 41.181-14.355 2.54-5.013 3.258-11.058 1.857-15.644-.592-1.942-.492-2.243.451-1.349.807.766 2.216.864 4.209.292 4.359-1.25 5.747-2.746 6.413-6.915.524-3.271.88-3.657 3.006-3.25 4.376.836 11.383-5.519 11.383-10.325 0-.854.959-1.453 2.326-1.453 2.384 0 6.674-3.717 6.674-5.783 0-.635.567-.937 1.261-.67 2.16.828 7.739-5.11 7.741-8.241.002-2.462.392-2.82 3.186-2.922 2.249-.082 4.047-1.082 6.126-3.41l2.944-3.294-.545-18.09c-.69-22.87-2.122-27.599-8.713-28.763-1.375-.242-16.45-.139-33.5.229m-156.765 10.007c.679.719 4.054 1.48 7.5 1.691s6.847.571 7.558.8c1.972.635-.264 4.121-3.823 5.961-1.633.845-2.97 2.247-2.97 3.116 0 1.243.864 1.497 4.063 1.192 3.501-.334 3.82-.211 2.309.895-2.389 1.746-12.63 1.619-17.01-.211-5.828-2.435-7.003-.348-2.862 5.082 1.375 1.803 2.5 3.423 2.5 3.602 0 .178-3.6.16-8-.039-7.618-.346-8-.262-8 1.773 0 2.909-2.383 3.599-7.079 2.049-2.162-.714-4.259-.969-4.66-.569-.4.401.277 2.476 1.505 4.61 3.04 5.282 2.847 5.985-1.644 5.985-3.674 0-7.208 2.211-5.359 3.353.473.293.746 2.02.608 3.839-.297 3.904 1.543 10.808 2.881 10.808.549 0 .648-2.091.239-5.065-.584-4.246-.403-5.279 1.119-6.391 1.504-1.101 1.596-1.591.533-2.871-1.112-1.34-.777-1.586 2.538-1.859 3.714-.305 3.816-.417 3.705-4.064-.106-3.469.096-3.75 2.691-3.75 1.543 0 3.083-.45 3.423-1s1.544-1 2.676-1c1.536 0 1.93-.486 1.556-1.918-.536-2.047-1.169-2.004 9.682-.659 4.644.576 7.235-1.341 5.697-4.215-1.118-2.089-1.011-2.125 5.101-1.734l6.243.399 2.049 6.318c1.127 3.475 4.177 10.254 6.778 15.064l4.728 8.745h-2.982c-4.827 0-6.212 3.25-6.373 14.955-.114 8.218.165 10.294 1.572 11.701 1.614 1.614 1.831 1.601 3.844-.22 1.174-1.062 2.774-3.17 3.557-4.684.783-1.513 1.813-2.752 2.289-2.752 1.374 0 10.72 14.322 11.29 17.301.638 3.338-1.141 5.928-4.308 6.272-1.319.143-2.728.298-3.13.344s-.461 2.054-.131 4.462c.581 4.237.419 4.577-5.019 10.491-3.09 3.362-5.619 6.54-5.619 7.062 0 1.898 1.872 2.048 2.459.197.332-1.045 2.423-3.161 4.648-4.703 5.618-3.893 7.893-7.11 7.893-11.16 0-2.559.783-4.195 3-6.266 4.548-4.249 4.134-8.452-1.749-17.739-2.612-4.123-5.51-8.029-6.44-8.681-1.395-.977-1.53-1.872-.774-5.132 1.133-4.885 1.233-11.448.176-11.448-.433 0-.856-.912-.94-2.027s-1.77-4.603-3.747-7.75c-1.977-3.148-4.765-9.46-6.195-14.028l-2.601-8.304 2.506-2.696c4.505-4.846 6.203-8.156 4.869-9.49-.922-.922-1.869-.803-4.189.528l-2.997 1.72.291-3.664.29-3.664-4.5-.235c-2.475-.13-6.75-.55-9.5-.935-4.097-.572-4.777-.463-3.765.608m131.765 9.959c-26.666.74-33.207 1.694-32.061 4.679.308.804.56 1.988.56 2.631-.002.864 3.441 1 13.25.522 7.288-.355 21.198-.692 30.912-.75l17.661-.104 2.504 2.976c1.378 1.637 2.764 4.224 3.081 5.75.981 4.716 2.576 20.52 2.585 25.607.006 3.419.374 4.712 1.258 4.419.892-.295 1.474-5.264 2.033-17.333.82-17.719.442-24.125-1.574-26.683-1.73-2.195-10.067-2.55-40.209-1.714m-20.566 9.915c-18.772.714-21.443 1.746-20.338 7.86.368 2.037.722 3.743.787 3.792.064.049 4.842-.479 10.617-1.173 12.948-1.558 36.203-1.765 41.233-.368 2.828.785 4.318 2.055 6.15 5.244 3.265 5.683 5.617 16.869 5.617 26.719v8.117l3.989-2.242c4.492-2.524 4.463-2.461 6.038-13.262 1.342-9.208.409-27.792-1.594-31.718-1.272-2.494-1.758-2.619-12.628-3.246-11.945-.688-15.084-.666-39.871.277m-3.702 12.098c-14.444 1.517-24.47 3.346-25.837 4.713-.816.816-1.395 3.441-1.395 6.323v4.929l14.25.205c7.838.112 19.776.055 26.531-.127 10.671-.289 12.539-.098 14.25 1.45 1.083.98 1.969 2.619 1.969 3.642s.665 4.441 1.478 7.595 1.979 8.998 2.591 12.985c.611 3.987 1.473 7.25 1.916 7.25.442 0 2.202-1.307 3.912-2.904l3.108-2.903-.331-16.847c-.282-14.352-.634-17.527-2.38-21.447-1.674-3.757-2.645-4.719-5.297-5.25-4.181-.836-25.37-.601-34.765.386m-8.232 19.982c-16.74.66-23.212 1.261-28.188 2.618-2.459.671-3.878 5.84-6.471 23.566-.298 2.036.178 7.256 1.059 11.6.88 4.344 1.6 8.67 1.6 9.613s-2.363 3.965-5.25 6.716l-5.25 5.002 17-.577c26.732-.908 39.17-2.175 48.126-4.901 11.114-3.384 13.956-5.017 15.266-8.773 1.463-4.199 1.41-6.513-.422-18.381-.85-5.5-2.117-13.825-2.816-18.5l-1.271-8.5-7.441-.106c-4.093-.058-15.767.223-25.942.623m-100.5 2.444c-1.297.549-24.105 2.748-32.473 3.132-4.434.203-6.831.786-7.61 1.852-.668.914-2.638 1.555-4.777 1.555-2.002 0-3.64.443-3.64.984s-1.575.233-3.5-.685c-3.274-1.562-3.729-1.56-7.049.023-2.62 1.25-4.189 3.066-5.991 6.935-2.876 6.179-3.13 12.127-.845 19.811 1.181 3.972 1.472 7.717 1.082 13.932-.532 8.497-.532 8.499.789 3.5.727-2.75 1.365-6.055 1.418-7.345.087-2.134.414-1.964 3.632 1.889 5.597 6.698 10.257 9.956 14.241 9.956 1.999 0 3.986-.661 4.628-1.54.972-1.328 1.545-1.089 4.189 1.75 5.423 5.824 8.516 14.648 9.522 27.162.492 6.12 1.377 12.591 1.967 14.378.978 2.965 1.432 3.25 5.182 3.25h4.109l-2.557 2.75c-1.442 1.55-3.531 6.016-4.789 10.238-1.226 4.118-3.121 9.234-4.21 11.369-1.312 2.571-1.645 4.216-.986 4.875 1.706 1.706 3.034-.044 7.999-10.546 2.649-5.602 5.458-10.69 6.243-11.306.784-.615 3.118-1.424 5.186-1.797 3.272-.589 3.631-.917 2.77-2.527-1.573-2.94 4.604-6.968 13.842-9.027 11.9-2.653 12.297-3.041 14.597-14.261.345-1.68 1.697-3.32 3.516-4.26 1.626-.841 3.419-2.394 3.985-3.453 1.406-2.626 1.296-7.311-.22-9.374-1.08-1.471-1.691-1.535-4.5-.472-3.717 1.406-4.356 3.07-1 2.604 1.76-.245 2.314.233 2.543 2.19.224 1.92-.743 3.367-4.152 6.217-3.847 3.216-4.537 4.391-5.136 8.746-.381 2.768-1.213 5.361-1.849 5.764s-4.398 1.003-8.361 1.334c-5.781.483-8.01 1.179-11.274 3.519-5.932 4.254-7.941 5.109-13.686 5.822-5.161.641-5.165.639-6.16-2.632-.547-1.8-1.253-7.323-1.569-12.273s-1.015-10.575-1.554-12.5l-.979-3.5 2.441 2.988c1.342 1.643 2.943 4.343 3.557 6 .613 1.657 1.493 3.912 1.955 5.012.828 1.976.839 1.975.906-.059.038-1.132-1.568-4.732-3.567-8-1.999-3.267-5.142-8.416-6.985-11.441s-5.1-7.519-7.237-9.987c-3.679-4.248-4.021-4.416-6.39-3.148-3.249 1.738-5.142.721-11.207-6.025-6.095-6.779-7.655-9.945-8.277-16.805-.403-4.448-.072-6.502 1.567-9.714 2.649-5.192 4.772-6.037 7.864-3.133 1.876 1.762 2.757 2.014 4.095 1.17.938-.592 1.705-1.702 1.705-2.467 0-2.445 2.087-2.903 15.49-3.398 7.221-.267 17.039-.933 21.819-1.481 4.78-.547 11.699-.999 15.376-1.004 3.677-.004 7.839-.447 9.25-.983 2.468-.939 3.436-3.368 1.756-4.407-1.111-.687-15.453-1.681-16.691-1.157m22.922 1.883c-.284.739-.382 4.676-.219 8.75l.297 7.406 2.286-4.281c1.257-2.354 2.662-6.291 3.121-8.75.833-4.457.827-4.469-2.067-4.469-1.597 0-3.135.605-3.418 1.344m-48.967 14.406c1.062 7.393 3.414 15.898 6.038 21.831 3.955 8.943 4.64 6.118 1.049-4.331-1.843-5.362-3.902-12.562-4.576-16-1.447-7.373-3.534-8.62-2.511-1.5m-15.905-.891c.523.473 2.975 2.588 5.45 4.701l4.5 3.842-4.458-4.701c-2.452-2.586-4.905-4.701-5.45-4.701-.624 0-.639.319-.042.859m160.148 10.776c-.349.349-2.336.773-4.416.942-24.241 1.968-30.751 2.595-31.455 3.03-1.094.676-1.059 3.132.056 3.821.485.3 8.023-.155 16.75-1.012 8.727-.856 17.082-1.638 18.567-1.736 3.767-.251 5.505-2.126 3.835-4.138-1.376-1.657-2.328-1.916-3.337-.907m-147.579 8.55c-.065 3.127.32 6.839.856 8.25 1.221 3.212 3.466 3.503 2.426.315-.403-1.237-1.28-4.95-1.948-8.25l-1.215-6zm10.881 10.906c-1.129.799-1.191 1.187-.25 1.568.731.297 1.283 2.444 1.329 5.174.095 5.648.608 4.54 1.195-2.583.451-5.472.209-5.915-2.274-4.159m43.15 1.659c-2.227 1.882-7.166 11.168-7.124 13.395.014.745 1.362-1.401 2.996-4.77 3.271-6.743 4.077-7.613 8.478-9.162l3-1.055-2.639-.079c-1.452-.043-3.571.708-4.711 1.671m-36.4 11.239c2.922 1.781 3.25 2.455 3.25 6.663 0 2.575.319 4.362.709 3.972s.584-2.603.429-4.917c-.286-4.3-2.956-7.642-6.138-7.681084-.825-.009916-.037.873084 1.75 1.963084m-8.831 91.365c-1.513 4.207-1.499 4.296.834 5.398 2.22 1.047 2.5.824 4.335-3.458 1.079-2.517 1.838-4.675 1.687-4.795s-1.41-.489-2.797-.82c-2.252-.538-2.686-.145-4.059 3.675" fill-rule="evenodd"/></svg>