<svg height="385" viewBox="0 0 601 385" width="601" xmlns="http://www.w3.org/2000/svg"><path d="m221.394.44c-.242.242-3.58.513-7.417.603-11.455.269-21.422 4.109-27.701 10.674-3.723 3.892-7.486 12.625-8.689 20.167-.561 3.511-1.758 7.2-2.661 8.198-1.358 1.501-1.54 3.25-1.052 10.116.325 4.566.608 9.267.629 10.446.087 4.989 6.45 5.616 8.982.884 1.735-3.242.281-4.749-1.716-1.778-2.288 3.403-3.876 2.727-5.267-2.243-1.206-4.306-.987-13.855.347-15.19.351-.351 1.464.109 2.474 1.022 1.009.914 2.362 1.661 3.006 1.661 1.861 0 1.361-2.518-.909-4.572-1.751-1.585-1.974-2.584-1.411-6.336 1.282-8.547 5.438-17.811 9.73-21.689 6.101-5.511 13.976-8.782 19.366-8.044 2.417.332 4.395.223 4.395-.24 0-1.549 12.811-2.254 17.281-.95 9.702 2.83 16.946 9.61 23.327 21.831 2.609 4.995 2.888 6.509 3.043 16.5.148 9.517.403 11.047 1.89 11.348 7.414 1.503 2.185-24.656-7.673-38.382-1.77-2.466-5.391-5.876-8.045-7.58-6.836-4.386-20.092-8.283-21.929-6.446m-35.894 37.581c0 1.131.992 2.467 2.25 3.032 3.708 1.666 30.151 7.713 31.5 7.205.688-.26 1.25-1.303 1.25-2.32 0-1.354-1.002-2.02-3.75-2.492-2.062-.354-9.5-2.175-16.528-4.045-7.028-1.871-13.215-3.401-13.75-3.401s-.972.91-.972 2.021m262.631 4.491c-1.49 1.49-2.011 4.154-3.125 15.988-.31 3.3-.816 7.688-1.123 9.75-.314 2.106-.14 3.75.396 3.75.526 0 1.88-5.89 3.011-13.09 1.131-7.199 2.269-13.302 2.529-13.563.261-.26 4.022 1.311 8.359 3.491 4.336 2.18 11.872 5.181 16.747 6.668 4.875 1.486 15.211 5.161 22.969 8.165 7.758 3.005 18.6 7.052 24.093 8.993 5.494 1.942 11.209 4.162 12.701 4.933 3.33 1.722 3.821 1.742 3.779.153-.04-1.536-4.708-3.879-16.467-8.267-4.95-1.846-15.073-5.65-22.495-8.451-7.423-2.802-18.139-6.436-23.815-8.076-11.114-3.211-17.048-5.857-21.517-9.593-3.317-2.773-4.021-2.872-6.042-.851m-225.172 3.555c-.947 1.532.019 2.162 3.842 2.505 3.518.316 16.38 5.103 17.178 6.393.253.411-.607.542-1.911.293-1.76-.337-2.543.088-3.039 1.65-.367 1.156-1.801 3.45-3.187 5.097-2.769 3.291-7.116 3.967-11.795 1.834-2.95-1.344-2.984-1.607-1.126-8.586.904-3.396 1.045-5.465.401-5.863-1.321-.816-2.31.394-3.686 4.509-2.032 6.079-1.488 9.867 1.649 11.49 7.512 3.884 13.65 2.88 17.166-2.81 1.847-2.989 2.51-3.403 4.089-2.557 1.037.555 1.669 1.571 1.405 2.26-.264.688.663 4.167 2.06 7.731 2.399 6.122 2.443 6.552.782 7.767-1.139.832-1.652 2.305-1.455 4.177.267 2.547.027 2.837-2.015 2.439l-2.317-.452 2.334 1.027c6.361 2.799-2.635 4.381-11.103 1.952-1.77-.508-4.121-.909-5.224-.893-3.718.057.717 1.815 9.115 3.614 4.333.928 8.027 1.8 8.209 1.936.914.687-2.131 4.422-3.616 4.435-1.327.012-1.412.208-.375.865 1.087.689.96 1.592-.677 4.801-1.109 2.174-2.732 4.546-3.606 5.272-2.279 1.891-10.932.687-23.057-3.208-8.801-2.828-10.583-3.807-14.864-8.163l-4.864-4.95 2.048 4.015c3.47 6.803 10.085 10.759 24.03 14.374 8.269 2.143 13.184 2.102 17.386-.147 3.59-1.922 9.214-15.533 10.483-25.374.284-2.2 1.138-4.36 1.899-4.8.76-.44 1.382-1.452 1.382-2.25 0-1.02 1.161-1.45 3.911-1.45 3.183 0 4.419-.604 6.64-3.242 2.772-3.295 6.449-10.844 6.449-13.241 0-1.683-8.848-3.884-15.751-3.919-4.028-.02-5.375-.419-5.785-1.71-.537-1.693-7.52-4.88-14.964-6.829-5.091-1.334-7.213-1.332-8.041.008m229.147 8.218c-.339 1.807-1.079 8.175-1.646 14.152-.566 5.976-1.278 11.268-1.581 11.759-.304.492-.934 10.661-1.4 22.599s-1.316 25.53-1.89 30.205c-.573 4.675-1.488 13.225-2.034 19-2.287 24.222-3.186 31.943-4.653 39.966-3.222 17.623-9.402 70.04-9.402 79.741 0 2.361-.43 4.293-.955 4.293-1.576 0-2.357-6.793-1.651-14.374.365-3.919 1.313-15.226 2.107-25.126s1.907-22.5 2.473-28 1.483-14.95 2.037-21c1.36-14.823 3.731-31.145 6.064-41.739 1.483-6.732 1.937-12.821 1.979-26.5.03-9.769.455-21.136.944-25.261.49-4.125 1.118-10.2 1.395-13.5.438-5.211.398-5.409-.306-1.5-3.293 18.3-4.057 25.04-4.616 40.726-.393 11.016-1.341 21.196-2.494 26.774-4.376 21.182-7 44.06-10.551 92-2.946 39.757-2.882 37.5-1.065 37.5.902 0 1.639.627 1.639 1.393 0 1.588 1.89 2.525 3.771 1.869.699-.243 1.921-1.699 2.715-3.234.995-1.924 2.498-2.99 4.837-3.429 1.866-.35 6.045-1.674 9.285-2.942 6.861-2.686 17.183-2.851 22.013-.353 1.628.842 6.68 2.735 11.226 4.207 11.795 3.818 25.132 14.647 30.148 24.479l1.899 3.722-4.197-.891c-2.308-.491-7.239-1.426-10.956-2.079-3.718-.653-6.627-1.583-6.466-2.067.161-.483 2.737-1.912 5.725-3.175 6.362-2.689 8.11-5.116 2.868-3.982-4.521.978-13.688 5.684-12.118 6.221.688.235 1.25 1.039 1.25 1.785 0 .747.376 1.59.835 1.874 1.355.837 15.308 3.524 19.862 3.825 3.006.198 4.328.774 4.657 2.027.252.962.128 1.75-.277 1.75s-6.325-1.531-13.157-3.402c-6.831-1.871-15.345-3.969-18.92-4.661s-6.813-1.735-7.196-2.319c-1.242-1.894-2.265.414-1.047 2.365 1.315 2.105 1.236 2.167-12.257 9.539-3.85 2.103-8.238 4.731-9.75 5.839-2.706 1.983-3.708 4.639-1.75 4.639.55 0 1 .879 1 1.953 0 1.998 4.874 4.029 9.698 4.041 1.209.003 5.709 1.112 10 2.465 7.576 2.387 18.248 4.059 42.583 6.672 11.367 1.221 11.801 1.355 12.378 3.817 1.857 7.92 16.877 15.47 24.759 12.445 2.679-1.028 1.902-4.291-1.168-4.906-1.513-.303-5.448-1.349-8.745-2.324-4.691-1.388-6.188-2.321-6.881-4.29-.805-2.291.015-3.407 9.138-12.445 5.512-5.46 12.524-11.953 15.581-14.428 4.094-3.313 5.573-5.183 5.608-7.089.034-1.778.848-2.954 2.596-3.75 1.401-.639 2.639-1.161 2.752-1.161s3.129 5.854 6.703 13.01c5.91 11.833 6.724 12.986 8.998 12.75 3.48-.362 3.73-3.761.704-9.564-1.347-2.583-3.927-8.251-5.732-12.596-3.828-9.211-4.864-7.496 9.845-16.299 5.124-3.066 9.994-6.608 10.821-7.871 1.691-2.581 1.101-4.283-3.552-10.243-3.496-4.479-20.364-16.187-23.32-16.187-2.724 0-11.766 5.413-11.766 7.044 0 1.638 1.954 4.956 2.919 4.956.466 0 1.063-.788 1.327-1.75s1.836-2.53 3.493-3.484c2.939-1.69 3.098-1.672 6.387.704 1.856 1.34 5.399 3.656 7.874 5.147 6.469 3.896 10 7.425 10 9.993 0 1.23-1.462 3.701-3.25 5.492-4.267 4.276-14.931 11.144-15.782 10.166-.367-.423-1.362-2.568-2.212-4.768-1.341-3.473-15.677-34.519-20.548-44.5-.939-1.925-4.236-6.018-7.325-9.095-4.577-4.559-6.033-6.872-7.867-12.5-1.238-3.798-4.055-11.576-6.26-17.284l-4.009-10.379 1.168-14.121c.642-7.767 1.811-20.196 2.598-27.621s1.894-20.475 2.46-29 1.702-19.55 2.524-24.5c1.731-10.419 1.934-17.5.503-17.5-.55 0-1 1.517-1 3.37 0 1.854-.861 8.492-1.914 14.75-1.053 6.259-2.421 18.58-3.041 27.38s-1.568 18.925-2.108 22.5c-.539 3.575-1.545 13.025-2.234 21l-1.254 14.5-3.633-11c-1.998-6.05-3.894-12.185-4.214-13.632-.534-2.421-1.111-2.69-7.156-3.337-4.224-.452-6.769-1.209-7.118-2.118-.741-1.932-2.973-1.781-3.754.254-.487 1.271-.917 1.39-1.807.5-1.574-1.574-2.767-1.471-2.767.239 0 .88-.698 1.224-1.864.919-2.343-.612-6.136 3.96-6.136 7.397 0 1.763.781 2.747 2.782 3.502 2.555.964 2.999 1.97 5.464 12.373 1.529 6.454 4.635 15.584 7.225 21.233 3.922 8.557 13.529 41.115 13.529 45.851 0 1.814-1.185 2.214-24.5 8.268-11 2.857-21.265 5.598-22.812 6.092-1.892.604-3.435.509-4.716-.291-1.602-1-2.346-.775-4.688 1.418-1.531 1.434-3.909 2.937-5.284 3.34s-4.975 1.744-8 2.979-6.738 2.539-8.25 2.898c-2.641.627-2.75.498-2.75-3.237 0-8.798 4.892-51.509 8.035-70.148 1.066-6.325 2.393-16.675 2.948-23 .556-6.325 1.717-18.925 2.58-28 .864-9.075 1.922-27.794 2.351-41.599.43-13.804 1.039-25.516 1.354-26.025.314-.509 1.066-5.415 1.669-10.901.604-5.486 1.365-11.437 1.691-13.225.347-1.896.178-3.25-.405-3.25-.55 0-1.278 1.478-1.617 3.285m-204.992 2.899c.402.651.766 3.616.809 6.589.063 4.419.507 5.753 2.438 7.316 3.108 2.516 5.586 2.414 8.187-.339 2.121-2.244 6.378-9.744 5.772-10.167-1.187-.826-9.093-2.583-11.627-2.583-1.691 0-3.353-.45-3.693-1s-1.068-1-1.618-1-.671.533-.268 1.184m-69.614 9.816c0 .55.45 1 1 1s1-.45 1-1-.45-1-1-1-1 .45-1 1m-1.963 4.402c-.57 1.501-1.047 3.486-1.059 4.413-.034 2.613-3.374 9.336-6.448 12.977-1.528 1.811-2.454 3.611-2.057 4 .841.824 5.955-4.933 8.256-9.292 2.418-4.584 4.36-12.811 3.278-13.893-.577-.577-1.328.107-1.97 1.795m60.963 4.694c6.14 1.827 8.746 2.123 9.397 1.07.385-.622-.651-1.021-2.631-1.014-1.796.007-4.841-.237-6.766-.542l-3.5-.555zm-8 14.544c0 1.482 4.65 6.36 6.063 6.36.637 0 .315-.787-.715-1.75-1.031-.963-2.656-2.634-3.611-3.714-.955-1.081-1.737-1.484-1.737-.896m-67.333 2.745c-1.623 2.477-13.101 7.796-22.167 10.271-2.75.751-11.75 2.48-20 3.844-23.632 3.905-30.643 6.036-35.845 10.895-7.302 6.819-13.315 16.608-27.646 45.004-7.523 14.906-17.444 33.626-22.048 41.601-10.66 18.466-23.027 44.957-27.434 58.765-3.656 11.455-6.274 29.332-4.977 33.993.419 1.508.887 3.371 1.04 4.139.152.769.869 1.949 1.593 2.622 2.668 2.478 35.869 19.693 42.484 22.027 3.758 1.327 6.101 2.421 5.205 2.433-2.312.03-3.633 1.987-4.029 5.969-.31 3.117.042 3.668 3.657 5.734 2.2 1.256 7.6 3.475 12 4.929 4.4 1.455 12.05 4.216 17 6.135 4.95 1.92 15.3 5.412 23 7.761 15.396 4.697 67.376 22.461 71.754 24.522 2.869 1.35 5.231.507 2.796-.998-1.047-.647-.542-1.229 2.029-2.341 10.989-4.753 24.561-10.992 25.421-11.686.55-.443 11.575-5.028 24.5-10.189 17.223-6.877 26.238-11.102 33.75-15.819 5.637-3.539 10.25-6.809 10.25-7.266 0-.458-1.462.269-3.25 1.615-7.932 5.973-20.065 12.028-42.809 21.365-13.443 5.518-31.019 12.955-39.058 16.527-13.877 6.165-14.776 6.427-17.767 5.17-3.614-1.52-50.325-17.245-72.616-24.447-37.217-12.023-50.5-16.901-50.5-18.545 0-.293.37-.305.822-.025.452.279 1.572-.369 2.49-1.441 1.41-1.647 1.437-1.949.178-1.949-2.36 0-1.731-1.824.76-2.204 1.237-.189 2.139-.89 2.004-1.558-.176-.869 1.531-1.147 6-.976l6.246.238.296-6.75c.162-3.712.612-6.735 1-6.717 1.186.056 5.204 3.727 5.204 4.755 0 1.559 2.565 3.238 3.574 2.34.509-.454 4.526-.498 8.926-.099s8.188.556 8.417.348c.919-.832-.972-1.484-8.469-2.918-7.948-1.521-14.399-4.537-17.844-8.344-1.687-1.864-1.819-3.1-1.216-11.353.522-7.149 1.164-9.933 2.816-12.205 1.422-1.954 1.747-3.073.968-3.333-.644-.215-1.172-2.041-1.171-4.057.001-3.359.421-3.903 5-6.475 3.49-1.96 4.999-3.434 4.999-4.882 0-2.979 3.866-8.812 5.832-8.798 5.705.04 25.735 8.262 24.6 10.098-.256.414.341 1.346 1.328 2.072.986.725 3.403 3.568 5.372 6.318l3.579 5-2.781 4.332-2.78 4.332-7.825-7.393c-7.898-7.464-13.544-11.365-18.562-12.826-1.505-.439-2.956-.441-3.226-.005-.732 1.184 3.168 4.36 4.411 3.592 1.823-1.127 12.2 5.996 19.5 13.384l6.948 7.033-2.198 2.34c-2.319 2.469-2.948 5.711-1.108 5.711.599 0 1.837-.905 2.75-2.012 1.658-2.009 1.663-2.009 4.477.259 2.492 2.01 2.697 2.587 1.775 5.012-.574 1.508-1.563 2.741-2.199 2.741-1.197 0-17.332-8.911-22.105-12.209-3.495-2.414-16.943-7.97-17.629-7.283-.902.902 1.139 2.171 6.873 4.273 7.861 2.882 18.11 8.19 20.532 10.635 1.136 1.146 2.854 2.534 3.818 3.084 2.699 1.539.995 4.177-3.129 4.846-1.995.324-4.105.194-4.69-.29-1.221-1.008-24.7-9.056-26.422-9.056-.627 0-1.14.337-1.139.75 0 .413 4.328 2.013 9.616 3.558 15.261 4.456 20.382 6.608 20.382 8.564 0 .95.54 2.268 1.2 2.928.933.933.517 1.2-1.875 1.2-4.681 0-9.325 1.13-9.325 2.269 0 1.819 14.172-.063 17.21-2.286 1.49-1.091 3.572-1.983 4.627-1.983 2.691 0 4.486-2.53 3.915-5.518-.632-3.305.986-4.267 2.174-1.292 2.719 6.81 11.182 17.036 12.778 15.439.948-.947-2.688-12.642-6.257-20.129-3.88-8.14-4.296-10.204-2.655-13.178.66-1.197.901-2.997.535-4-1.04-2.848-15.358-21.648-17.762-23.322-1.185-.825-2.022-2.175-1.862-3 .66-3.385-13.141-32.802-18.221-38.839-1.679-1.995-3.582-3.161-5.159-3.161-2.373 0-2.467.214-1.863 4.25.349 2.338 2.375 7.661 4.501 11.83l3.866 7.579-4.343 5.921c-2.388 3.256-5.472 7.42-6.852 9.252-1.38 1.833-2.8 4.657-3.156 6.277-.493 2.247-1.81 3.533-5.561 5.434-4.629 2.346-4.915 2.719-4.915 6.415 0 2.158.445 4.199.989 4.535.606.374.362 1.568-.628 3.079-1.792 2.735-2.39 9.135-2.49 26.678-.037 6.462-.329 11.75-.648 11.75-.641 0-2.492-.578-15.723-4.912-9.99-3.272-39.363-16.969-41.126-19.178-.837-1.048-.778-4.728.229-14.343 2.447-23.374 9.201-39.942 39.363-96.567 5.127-9.625 13.522-26.05 18.655-36.5 10.723-21.827 18.757-33.953 23.072-34.821 1.544-.311 7.757-1.69 13.807-3.066s16.85-3.627 24-5.001c11.027-2.12 14.696-3.343 24.178-8.056 9.913-4.928 15.322-9.055 15.322-11.691 0-1.66-1.782-.847-3.333 1.52m5.752 1.865c-.691 2.174-.74 2.183-1.46.25-.697-1.874-.791-1.886-1.48-.194-.475 1.166.169 3.468 1.819 6.5 1.405 2.582 3.297 7.619 4.205 11.194 6.219 24.498 7.786 32.181 13.457 66 5.708 34.034 6.856 39.768 8.121 40.55 2.179 1.346 2.671-.857 1.407-6.304-.732-3.16-2.283-12.046-3.444-19.746-4.965-32.899-5.826-36.964-12.505-59l-1.515-5 2.738 3.162c2.555 2.951 9.848 7.338 12.198 7.338 2.8 0 .5-2.989-3.71-4.821-6.793-2.957-10.661-9.164-14.885-23.883-2.215-7.718-3.193-12.919-2.83-15.046.63-3.686-1.014-4.463-2.116-1m73.782 17.854c.251.751 1.883 1.71 3.627 2.131 10.128 2.443 9.124 1.584 12.598 10.765 9.423 24.903 17.347 52.217 25.238 87 11.431 50.387 11.316 55.325-1.524 65.018-8.35 6.305-10.491 6.9-15.157 4.214-1.992-1.146-6.515-2.828-10.052-3.739s-9.654-3.428-13.592-5.595c-3.939-2.167-10.187-5.038-13.886-6.379-3.698-1.341-9.104-3.881-12.013-5.645l-5.289-3.205 2.353-1.851c5.689-4.475 9.283-14.586 7.454-20.966-.523-1.823-2.383-5.309-4.134-7.747-3.128-4.355-3.141-4.42-.754-3.722 1.337.391 6.705 1.591 11.93 2.668 5.225 1.076 12.985 3.157 17.245 4.624 4.26 1.468 8.028 2.385 8.374 2.04 1.537-1.538-.937-3.713-6.061-5.328l-5.558-1.752-.001-6.068c-.002-5.93-2.443-22.345-3.478-23.379-1.48-1.48-1.711 1.623-.673 9.049.635 4.545 1.154 10.761 1.153 13.815l-.001 5.552-5.807-.961-5.807-.96-.381-8.591c-.21-4.726-.355-10.167-.323-12.092.139-8.349-1.976-27.732-4.691-43-1.614-9.075-3.059-17.53-3.212-18.79-.468-3.84-2.3-2.371-1.98 1.588.164 2.036 1.366 9.552 2.671 16.702 1.304 7.15 2.89 20.425 3.523 29.5s1.501 20.55 1.929 25.5.712 9.096.632 9.213c-.081.117-2.501-.408-5.378-1.166-6.113-1.613-14.391-1.817-15.281-.377-.41.663-6.061.465-16.635-.583-23.927-2.371-26.707-2.218-36.998 2.03-12.935 5.341-16.083 7.083-23.367 12.932-6.591 5.292-11.36 12.516-11.109 16.828.129 2.227 3.516 5.623 5.608 5.623.813 0 2.49 1.8 3.726 4 1.237 2.2 2.615 4 3.064 4 1.126 0 1.03-.674-.543-3.8-.747-1.485-1.619-4.387-1.937-6.448-.767-4.973 2.368-8.737 9.783-11.747 3.032-1.23 5.513-2.683 5.513-3.228 0-.549-.781-.673-1.75-.278-.963.392-3.656 1.38-5.986 2.196-4.791 1.678-9.092 6.196-9.942 10.445-.315 1.573-1.191 2.86-1.947 2.86s-1.375-.115-1.375-.257c0-.141-.435-1.828-.968-3.75-.883-3.186-.839-3.323.5-1.552 1.658 2.193 2.114.128.526-2.382-1.362-2.152 1.143-6.21 6.652-10.776 6.598-5.468 12.181-8.55 23.29-12.855l9.5-3.681 11.5.666c28.301 1.641 32.402 2.183 36.557 4.833 6.711 4.28 8.728 7.142 9.22 13.083.709 8.542-4.352 16.671-10.38 16.671-1.79 0-3.953.699-4.807 1.553-.854.853-4.373 1.994-7.821 2.533-7.607 1.19-14.692 3.401-20.96 6.539-5.635 2.821-17.159 6.01-25.059 6.933-5.273.617-5.75.51-5.75-1.288 0-2.491 2.145-4.363 8.849-7.723 2.943-1.475 5.082-2.949 4.755-3.276-.798-.798-10.462 4.415-13.659 7.369-3.721 3.438-7.773 3.153-9.095-.64-1.066-3.058-2.252-3.776-3.337-2.021-.675 1.092 1.183 5.118 2.887 6.256.605.404 2.589.741 4.409.75 1.82.008 3.062.414 2.761.902-.301.487.044 1.378.769 1.979.958.795 3.857.682 10.651-.417 8.94-1.446 11.786-2.301 31.01-9.319 4.675-1.707 10.139-3.109 12.142-3.117 3.087-.011 3.74.38 4.29 2.572.357 1.422.375 3.447.041 4.5s-.191 1.915.318 1.915 1.974 4.725 3.256 10.5 2.696 10.5 3.142 10.5c1.016 0 .995-1.505-.09-6.173-.508-2.186-.475-4.051.083-4.609.581-.581.306-4.043-.726-9.14-.915-4.513-1.421-8.447-1.125-8.743s3.155 1.072 6.354 3.039c3.198 1.967 9.606 4.941 14.24 6.609s10.484 4.266 13 5.774 5.672 3.214 7.013 3.791c2.232.96 1.809 1.235-5 3.242-4.091 1.206-12.838 3.302-19.438 4.656-35.129 7.212-62.5 14.52-62.5 16.688 0 1.146 1.274 1.092 4.662-.195 1.535-.584 5.727-1.705 9.315-2.491s9.898-2.346 14.023-3.467c7.785-2.115 26.007-6.08 39-8.485 4.125-.764 12.673-2.73 18.997-4.37l11.496-2.981 5.965 2.009c9.084 3.06 12.434 2.158 22.721-6.121 9.738-7.837 5.831-6.681 44.321-13.117 22.558-3.773 48.778-9.241 67-13.974 10.581-2.748 27.5-8.933 27.5-10.053 0-1.236-1.53-1.118-7.412.575-2.798.805-6.31 1.71-7.803 2.01-2.025.408-2.552.969-2.076 2.21.495 1.29.235 1.508-1.159.974-.988-.379-5.228.193-9.423 1.271-35.013 9.002-65.958 15.506-90.179 18.956l-11.552 1.645 1.403-4.015c2.101-6.014.774-19.466-4.288-43.446-7.116-33.714-8.351-38.281-19.885-73.569-8.075-24.709-12.64-35.428-15.786-37.073-1.287-.674-4.985-1.554-8.217-1.957-4.753-.592-5.79-.471-5.422.634m-15.123 8.421c-1.688 4.073-3.404 6.291-6.531 8.442-4.619 3.178-15.081 6.033-22.109 6.033-4.918 0-5.98 1.459-1.688 2.316 2.824.565 15.713-1.599 20.35-3.415 3.507-1.375 10.396-8.697 11.666-12.401.566-1.65 1.349-3.787 1.739-4.75s.294-1.75-.214-1.75-1.953 2.486-3.213 5.525m272.701 36.029c-.343.343 2.262 6.547 5.788 13.785 4.657 9.558 7.378 16.857 9.937 26.661 1.938 7.425 5.978 21.6 8.976 31.5 2.999 9.9 6.172 21.825 7.051 26.5s2.511 12.517 3.626 17.426c2.212 9.735 5.696 30.081 6.535 38.16.558 5.367-1.542 11.41-3.968 11.418-.673.002-3.438 1.127-6.143 2.5-4.606 2.337-5.979 2.507-21.5 2.664-9.12.093-14.781.329-12.581.526s8.932 1.022 14.96 1.832c6.028.811 13.256 1.474 16.063 1.474 4.927 0 5.324-.219 11.54-6.36 3.54-3.498 10.035-9.651 14.434-13.673 5.882-5.38 7.909-7.863 7.665-9.391-.181-1.142-2.29-8.151-4.686-15.576s-5.082-16.425-5.969-20-1.844-7.288-2.127-8.25c-.33-1.123.028-1.75.999-1.75 1.311 0 1.268-.703-.319-5.25-2.062-5.911-6.601-14.237-7.782-14.276-.428-.014-2.186-1.456-3.906-3.205-1.911-1.942-4.96-3.64-7.835-4.364-4.833-1.217-6.645-3.197-4.702-5.14.801-.801 2.225-.764 5.23.136 2.271.681 4.344 1.024 4.605.762.735-.735-4.433-16.378-7.641-23.129-1.577-3.318-3.606-8.959-4.51-12.534s-3.19-11.329-5.081-17.232c-1.891-5.902-3.438-11.363-3.438-12.136 0-.918-1.646-1.631-4.75-2.056-2.613-.359-5.897-.876-7.298-1.149-1.402-.273-2.829-.216-3.173.127m-9.196 3.089c-.346.904-.424 1.849-.173 2.1.795.795 2.59-.801 2.59-2.302 0-1.962-1.639-1.824-2.417.202m5.739 2.549c-.891 1.956-.725 3.553.82 7.881 1.066 2.985 2.423 7.677 3.016 10.427s3.001 9.275 5.352 14.5c5.39 11.982 6.447 15.419 11.535 37.5 2.281 9.9 5.427 21.833 6.992 26.517 5.967 17.861 11.349 41.108 11.408 49.269.065 9.208-.421 9.735-8.36 9.062-9.217-.781-10.28-1.157-9.574-3.381.483-1.523.157-1.967-1.444-1.967-1.137 0-2.067-.389-2.067-.863 0-.475-2.812-1.436-6.25-2.135-3.437-.698-6.808-1.965-7.49-2.813-.681-.849-5.631-2.526-11-3.728l-9.76-2.185-4 2.73c-2.2 1.502-7.15 4.328-11 6.28-3.85 1.953-7.9 4.282-9 5.177-1.877 1.526-1.567 1.587 5.031 1.002 8.117-.72 21.755 2.176 23.87 5.069 1.509 2.063 11.363 3.19 29.785 3.405 11.969.139 12.976-.004 17.819-2.537 7.816-4.087 8.518-5.686 6.639-15.124-.852-4.278-2.245-11.856-3.095-16.841-.85-4.984-2.193-11.284-2.985-14-.791-2.715-1.908-8.394-2.482-12.618-1.46-10.751-2.611-15.525-7.191-29.819-2.203-6.875-6.23-20.825-8.949-31-3.78-14.143-6.305-21.298-10.723-30.381-5.415-11.134-5.849-11.727-6.897-9.427m-387.201 37.581c-.522.976-1.652 4.463-2.511 7.75-.86 3.288-2.923 9.493-4.586 13.791-3.223 8.326-3.526 9.686-2.161 9.686 1.295 0 5.667-10.333 8.675-20.5 1.464-4.95 2.894-9.787 3.179-10.75.675-2.286-1.37-2.268-2.596.023m376.079 12.427c-1.602 1.602-1.528 6.283.121 7.651.726.603 2.639 1.022 4.25.931s6.128.186 10.038.614c5.996.657 7.204.534 7.708-.78.995-2.592-1.925-4.374-8.398-5.125-3.943-.458-6.817-1.389-8.03-2.602-2.178-2.178-3.982-2.396-5.689-.689m-333.387 19.483c.721.289 1.584.253 1.916-.079s-.258-.568-1.312-.525c-1.165.048-1.402.285-.604.604m3.187 11.317c-1.213.784-1.069.972.75.985 1.238.008 2.25-.435 2.25-.985 0-1.253-1.061-1.253-3 0m-64.797 10.367-3.285 4.574 2.791.613c1.535.337 4.816 1.241 7.291 2.01 3.483 1.081 4.118 1.104 2.811.101-.928-.713-2.731-3.675-4.006-6.584l-2.317-5.288zm424.664-3.353c-2.229 1.303-32.79 8.782-39.195 9.593-2.845.36-5.77.971-6.5 1.357-2.207 1.168 2.462 3.505 12.043 6.026 10.611 2.793 15.578 5.575 24.882 13.934 8.125 7.3 12.86 14.096 15.382 22.076 1.66 5.255 1.956 5.57 6.635 7.078 2.693.868 5.119 1.356 5.391 1.084.272-.273.495-1.635.495-3.029 0-1.97-.267-2.266-1.2-1.333-1.386 1.386-5.679 1.563-7.648.315-.742-.47-1.182-1.701-.979-2.735.306-1.553 1.105-1.822 4.599-1.544 2.325.185 4.23-.04 4.232-.5.007-1.188-7.5-26.832-11.573-39.539-1.887-5.887-3.431-11.4-3.431-12.25 0-1.763-.795-1.898-3.133-.533m-375.832 3.582c-6.086 2.762-7.034 3.775-6.938 7.404.061 2.321.17 2.262 1.516-.82 1.066-2.44 2.701-3.847 6.168-5.308 2.596-1.094 5.619-2.382 6.719-2.863l2-.874-2-.010017c-1.1-.004983-4.459 1.106017-7.465 2.471017m21.965 1.904c0 .917.484 1.505 1.075 1.308s1.075-.786 1.075-1.308-.484-1.111-1.075-1.308-1.075.391-1.075 1.308m391 3.654c0 .268 2.834 9.299 6.299 20.069 6.571 20.429 6.48 20.279 10.46 17.288.348-.262-4.385-11.499-10.746-25.511-4.932-10.863-6.013-12.993-6.013-11.846m-161 10.752c0 2.042-.687 2.232-49 13.548-10.725 2.512-21.975 5.202-25 5.978s-6.85 1.238-8.5 1.026c-1.65-.213-2.159-.134-1.131.174 1.248.374-1.241 1.643-7.5 3.823-7.459 2.597-9.437 2.974-9.703 1.848-.438-1.854-2.741-1.033-2.416.861.171.994-1.735 2.061-6 3.357-3.437 1.045-5.535 2.049-4.661 2.232.874.182 8.4-1.943 16.725-4.723 14.924-4.985 35.767-10.358 62.186-16.032 22.477-4.827 35.35-8.043 36.71-9.172 1.773-1.472 1.627-4.826-.21-4.826-.825 0-1.5.858-1.5 1.906m-7.5.094c-.787 1.273 1.53 1.273 3.5 0 1.219-.788 1.09-.972-.691-.985-1.205-.008-2.469.435-2.809.985m-8 1.068c-2.75.433-9.941 1.691-15.979 2.797-6.039 1.105-11.143 1.847-11.342 1.648s-2.458.274-5.02 1.051c-2.563.778-5.784 1.472-7.159 1.543-2.281.118-2.237.188.5.794 1.65.365 3.15.311 3.333-.119.648-1.521 3.251-.761 2.961.864-.162.906.269 1.843.956 2.084.723.252 1.25-.389 1.25-1.522 0-2.127 2.982-3.166 10.862-3.785 2.399-.188 5.774-.791 7.5-1.339 1.726-.549 5.943-1.299 9.371-1.668s6.746-1.288 7.373-2.043c.626-.755.971-1.31.766-1.232-.204.077-2.622.495-5.372.927m20.011 1.915c-.46.744.153.888 1.905.449 2.44-.613 2.584-.436 2.584 3.16 0 2.723.307 3.501 1.078 2.73.593-.593.931-2.371.75-3.95-.258-2.261-.893-2.937-2.984-3.179-1.46-.169-2.96.186-3.333.79m-69.011 6.521-3 1.414 3-.588c1.65-.324 3.428-.98 3.95-1.459 1.425-1.307-.483-1.001-3.95.633m189.444 1.037c-3.281 2.421-4.583 5.029-2.444 4.897.55-.034 3.165-1.08 5.811-2.324 3.955-1.859 4.601-2.515 3.628-3.688-1.67-2.012-3.056-1.791-6.995 1.115m-199.444.687c-1.1.642-3.432 1.046-5.183.899-1.751-.148-4.226.324-5.5 1.047-1.274.724-2.955 1.321-3.735 1.326-.78.004-1.605.569-1.833 1.254-.547 1.64 1.74 1.581 5.347-.138 4.512-2.15 8.404-2.836 8.404-1.48 0 .737.658.578 1.771-.428.973-.882 2.886-2.048 4.25-2.592 2.101-.838 2.174-.994.479-1.022-1.1-.018-2.9.492-4 1.134m71 4.367c-6.6 1.874-19.65 5.26-29 7.523-9.35 2.264-17.45 4.565-18 5.115-1.258 1.258.887.914 19.5-3.125 19.707-4.276 41.53-10.393 41.321-11.583-.286-1.628-1.376-1.465-13.821 2.07m-95.661 1.436c-1.832 1.069-1.833 4.138-.002 4.748.64.213 1.163-.325 1.163-1.196s-.525-1.583-1.167-1.583c-2.313 0 .227-1.327 3.906-2.041 3.439-.667 3.504-.736.761-.814-1.65-.046-3.748.352-4.661.886m-9.682.964c-1.838.435-3.841 1.289-4.45 1.898s-2.839 1.107-4.957 1.107c-3.478 0-9.75 2.291-9.75 3.561 0 .28.875.041 1.944-.531s3.881-1.11 6.25-1.195c2.368-.085 5.4-.871 6.737-1.745 1.336-.875 4.486-2.099 7-2.721 2.513-.622 3.669-1.139 2.569-1.148s-3.504.339-5.343.774m-161.407 1.085c-2.387 1.39-2.342 5.92.059 5.92 3.053 0 5.224-2.261 4.559-4.75-.653-2.442-1.894-2.756-4.618-1.17m175.25.92c-.901.582-1.025.975-.309.985.655.008 1.469-.435 1.809-.985.767-1.242.421-1.242-1.5 0m-39.5 2.726c-1.65.905-4.486 1.525-6.302 1.378-3.423-.276-8.198 2.097-8.198 4.074 0 .63.856.357 1.931-.616 1.276-1.155 3.227-1.66 5.75-1.488 3.693.25 12.288-2.769 12.309084-4.324.015916-1.202-2.255084-.799-5.490084.976m213.5 3.774c0 .917.484 1.505 1.075 1.308s1.075-.786 1.075-1.308-.484-1.111-1.075-1.308-1.075.391-1.075 1.308m-235 2c-1.292 1.375-1.89 2.5-1.329 2.5.56 0 1.848-.916 2.861-2.035 1.013-1.12 2.433-1.809 3.155-1.532s1.313.068 1.313-.464c0-1.878-3.68-.939-6 1.531m28.25-1.811c.962.252 2.538.252 3.5 0 .962-.251.175-.457-1.75-.457s-2.712.206-1.75.457m13.563.994c.721.289 1.584.253 1.916-.079s-.258-.568-1.312-.525c-1.165.048-1.402.285-.604.604m-53.961 2.919c-2.071 2.072-2.987 2.396-4.491 1.591-1.33-.711-2.804-.626-4.98.289-3.268 1.374-4.262 4.504-3.974 12.518l.125 3.5 11.484-.306c7-.186 15.888.331 22.763 1.325 6.204.898 15.807 1.71 21.34 1.806 9.747.17 10.128.093 12.221-2.456 2.642-3.218 5.813-4.829 16.16-8.211 8.002-2.615 30.023-7.871 38.5-9.189 5.147-.8 6.237-1.276 5.533-2.416-1.196-1.935-38.212 6.621-49.792 11.51-9.102 3.842-10.288 3.757-10.031-.722.139-2.436-.279-3.845-1.253-4.219-.804-.309-5.624.839-10.71 2.551-8.824 2.969-10.208 3.14-30.247 3.719-11.55.335-20.887 1.007-20.748 1.495.33 1.162 30.947.808 39.011-.451 5.288-.826 13.339-3.34 20.41-6.373 1.47-.631 1.632-.046 1.336 4.817-.186 3.044-.667 6.067-1.07 6.719-.91 1.472-18.513.668-32.439-1.482-9.225-1.424-12.933-1.289-27.069.985l-3.568.574-.164-5.949c-.202-7.31 1.812-9.875 6.949-8.847 2.478.495 3.718.155 5.484-1.504 1.756-1.65 3.01-1.998 5.447-1.51 2.734.547 2.996.429 1.92-.867-1.876-2.261-5.238-1.806-8.147 1.103m-78.726 4.398c-2.956 1.628-5.993 3.475-6.75 4.103-1.787 1.483-1.772 3.897.024 3.897 2.241 0 14.1-7.593 14.1-9.028 0-2.275-1.848-2.018-7.374 1.028m105.874-.5c-3.083 1.762-2.77 1.764 3.5.023 4.031-1.119 4.418-1.394 2-1.42-1.65-.018-4.125.611-5.5 1.397m12-1.109c0 .214 1.575.574 3.5.799s3.5.049 3.5-.391c0-.439-1.575-.799-3.5-.799s-3.5.176-3.5.391m-22.128 2.359c-1.193 1.522-1.177 1.601.128.608.825-.629 2.4-1.364 3.5-1.634 1.9-.467 1.893-.498-.128-.608-1.17-.064-2.745.672-3.5 1.634m-12.431.805c-1.848 1.481-1.828 1.5.411.41 1.294-.63 3.207-.921 4.252-.648 1.044.273 1.647.088 1.338-.41-.864-1.398-3.849-1.076-6.001.648m-76.441.898c0 1.497 5.638 3.531 9.816 3.541 1.273.003 3.092.421 4.041.929 3.511 1.88 21.837 6.235 27.643 6.571 6.84.395 7.542.632-15.955-5.399-8.775-2.252-17.55-4.147-19.5-4.211s-2.758-.322-1.795-.573c2.845-.744 1.997-2.311-1.25-2.311-1.957 0-3 .505-3 1.453m-35.352 5.639c-1.802 2.572-1.339 3.908 1.352 3.908 2.676 0 3.354-1.657 1.664-4.069l-1.451-2.073zm83.435 6.316c.704.689 37.647 6.488 51.417 8.071 7.15.822 15.882 2.381 19.405 3.463 3.523 1.083 5.982 1.545 5.464 1.027-1.497-1.497-15.174-4.673-23.369-5.426-4.125-.379-12.9-1.546-19.5-2.593-33.06-5.243-34.306-5.412-33.417-4.542m258.561.624c2.279.455 6.523 1.534 9.431 2.398 7.007 2.08 7.732 2.009 7.211-.713-.419-2.191-.851-2.288-10.611-2.398-7.809-.088-9.211.078-6.031.713m-300.644 2.403c-6.892 1.588-16.153 5.824-13.825 6.323.921.198 3.475-.559 5.676-1.682 2.2-1.123 6.446-2.329 9.435-2.68 5.316-.625 5.446-.58 5.953 2.074.285 1.492.038 3.985-.549 5.541-.828 2.192-.749 3.213.349 4.536 1.232 1.484 2.467 1.601 9.439.897 13.084-1.322 24.99-1.132 26.869.428 2.977 2.472 1.943 6.267-3.341 12.26-4.636 5.26-5.338 5.679-10.607 6.337-3.103.388-7.443 1.341-9.646 2.118-4.267 1.506-22.988 1.873-30.253.593-3.947-.695-4.007-.771-4.5-5.692l-.5-4.988-4.142-.302c-2.402-.175-4.827-1.059-5.772-2.103-1.552-1.715-1.28-1.837 5.642-2.553 12.781-1.32 14.661-.904 10.664 2.362-1.802 1.472-2.11 2.241-1.248 3.119 1.676 1.707 4.711.796 5.831-1.751.948-2.155 3.955-3.832 8.025-4.476 1.182-.187 2.131-1.233 2.32-2.556.379-2.66-1.409-2.922-3.991-.585-1.473 1.333-1.829 1.378-1.829.232 0-1.9-4.799-8.887-6.104-8.887-.568 0-.113 1.291 1.011 2.869 1.124 1.579 2.484 4.03 3.023 5.447.82 2.158.668 2.677-.937 3.186-1.055.335-2.812.13-3.905-.455-2.7-1.445-21.724-.19-23.15 1.527-1.505 1.814 5.524 6.426 9.794 6.426 3.204 0 3.268.088 3.268 4.477 0 5.311 2.116 7.194 9.065 8.069 8.901 1.119 40.046-3.148 45.18-6.191.794-.47 3.538-3.233 6.099-6.138 6.18-7.013 6.171-11.752-.028-15.054-2.779-1.48-18.049-1.511-23.856-.049-2.435.613-6.013.817-7.953.453-3.193-.599-3.422-.857-2.421-2.729 1.466-2.738.284-10.482-1.716-11.249-.843-.324-1.609-.551-1.702-.505-.092.046-2.643.654-5.668 1.351m323.5 3.101c1.65.756 5.25 1.341 8 1.3l5-.074-5-1.285c-2.75-.707-6.35-1.292-8-1.3l-3-.015zm-435 3.992c-.55.204-3.621 1.11-6.824 2.014-3.203.903-5.582 1.886-5.285 2.182.768.768 14.609-2.943 14.609-3.917 0-.834-.769-.92-2.5-.279" fill-rule="evenodd"/></svg>