<svg height="500" viewBox="0 0 618 500" width="618" xmlns="http://www.w3.org/2000/svg"><path d="m420.25.3045c-11.1075 1.138-23.752 4.1085-32.75 7.693-39.7905 15.8525-66.9885 51.194-72.534 94.2525-.749 5.8155-.755 20.796-.0105 26.25 2.952 21.631 11.472 41.613 24.9435 58.5 18.5615 23.2685 45.4215 38.248 75.851 42.3015 8.352 1.1125 24.6215.742 33-.7515 36.321-6.4745 66.6225-29.3545 82.8375-62.55 6.4965-13.2995 9.642-22.699 11.9905-35.8335.9945-5.5635 1.145-8.045 1.132291-18.6665-.014791-11.2385-.127791-12.817-1.365291-19.1195-3.553-18.0955-12.0325-36.018-23.606-49.894-4.472-5.3615-14.168-14.579-19.8045-18.8275-15.199-11.4555-32.2985-18.797-51.6845-22.191-5.8085-1.017-22.6155-1.715-28-1.1635m-4.25 6.721c-36.119 4.3825-68.369 26.8175-84.674 58.904-7.681 15.116-11.2035 29.0855-11.68 46.3205-.4445 16.0905 2.0585 30.898 7.6135 45.0365 9.656 24.5785 29.2655 45.6155 53.3135 57.194 11.3885 5.4835 22.3535 8.7615 34.427 10.2925 9.718 1.232 24.1815.816 33.5745-.9655 30.768-5.836 56.9505-23.2085 73.559-48.8075 6.8395-10.542 11.617-22.6135 14.2005-35.8805 1.2085-6.205 1.341-8.0065 1.371902-18.6195.035598-13.34-.647902-19.3285-3.458902-30.2965-11.1455-43.487-44.2345-74.5955-87.497-82.26-6.7895-1.203-24.134-1.7205-30.75-.918m-290 55.7735c-17.2005 2.0025-28.107 4.7795-42.35 10.7825-11.0905 4.6745-23.5235 12.1625-33.65 20.2665-5.823 4.66-15.9035 14.8605-21.1905 21.443-19.5825 24.3805-30.7425 60.3895-28.345 91.459 1.108 14.354 3.1115 24.9545 6.831 36.1345 16.081 48.3395 58.904 83.945 109.932 91.403 7.4485 1.0885 21.866 1.4555 29.731.7565 24.4405-2.1715 47.915-10.4765 68.7915-24.3375 7.666-5.09 13.0505-9.496 19.794-16.198 20.929-20.8015 34.0515-48.3225 38.029-79.7585.8005-6.325.7895-23.938-.019-30.5-2.6805-21.761-10.152-42.0135-22.135-59.9995-5.799-8.705-9.98-13.822-17.1635-21.008-21.347-21.3535-47.58-34.556-78.5055-39.5105-4.776-.7655-25.5865-1.418-29.75-.933m-1.75 6.029c-19.216 2.285-32.9935 6.341-48.0935 14.1585-12.165 6.298-21.21 12.984-31.4215 23.227-18.212 18.2675-31.207 41.998-36.163 66.0365-2.1225 10.297-2.7495 16.9795-2.72192089 29 .02492089 10.066.18842089 12.404 1.31542089 18.75 2.503 14.102 6.0135 24.8525 12.3265 37.75 10.314 21.071 25.4245 38.3255 44.909 51.28 19.479 12.9515 40.8005 20.1225 65.349 21.9795 15.3845 1.1635 33.8165-1.143 47.9595-6.0005 9.6185-3.304 11.3975-4.029 17.471-7.1235 18.9265-9.643 36.5595-25.585 49.4965-44.751 11.521-17.0685 18.481-35.0565 21.6605-55.982 1.0615-6.9845 1.2065-27.3135.244-34.1525-4.2575-30.247-16.9175-56.2045-37.4995-76.886-20.1615-20.259-47.6315-33.497-76.521-36.8765-5.671-.6635-23.9515-.9275-28.311-.4095m286.3195 9.1305c-3.6865 1.273-5.297 2.973-5.297 5.5925 0 1.6715.293 2.313 1.582 3.465 2.0955 1.872 5.754 2.493 7.165 1.216.5395-.4875.9805-1.1035.9805-1.3685s.675-1.2505 1.5-2.19c2.3855-2.717 1.847-5.662-1.274-6.966-.9315-.389-1.7575-.7-1.835-.691s-1.3475.4325-2.8215.942m62.1305 7.2415c-2.3695 2.3695-2.2675 3.897.425 6.358 2.76 2.5225 5.2125 2.6815 7.4135.4805 2.1135-2.1135 2.0275-4.5725-.2385-6.8385-1.3935-1.3935-2.0785-1.7-3.8-1.7s-2.4065.3065-3.8 1.7m-24.7 58.5905c-10.8795.712-25.262 1.3155-40.143 1.685-18.2885.454-18.857194.5375-18.857194 2.7745 0 2.5425-.347806 2.514 28.452194 2.3105 50.32-.356 52.054-.325 58.405 1.029 3.1695.676 6.0355 1.0375 6.5925.8315 1.595-.59 2.2385-2.26 1.53-3.9705-.692-1.6705-2.6965-2.397-10.2295-3.7075-4.349-.7565-19.935-1.3325-25.75-.9525m-280.3 27.4095c-2.6405 2.6405-2.4105 4.601 1.0915 9.3025 1.5355 2.061 3.121 4.005 3.5235 4.3195 1.6335 1.2775 3.913-.592 3.3495-2.747-.205-.7845.077-1.371 1.0135-2.108.714-.5615 1.5505-1.863 1.859-2.893 1.1945-3.987-1.98-7.5685-6.712-7.572007-2.0925-.001493-2.658.231007-4.125 1.698007m-70.1955 20.445c-1.3465.681-1.755 1.788-1.3125 3.5525.3365 1.3395 4.5455 3.4785 6.3435 3.2235 1.0435-.148 1.256-.5315 1.5915-2.874.315-2.1995.232-2.8745-.4475-3.625-.9855-1.089-4.278-1.237-6.175-.277m106.7695 29.48c-.107.344-.314 3.325-.4605 6.625-.532 11.9965-3.0515 18.4535-10.01 25.656-8.3505 8.643-18.2715 14.436-28.8035 16.8185-5.3165 1.2025-16.1985 1.2505-20.4345.09-5.406-1.4815-11.653-4.462-21.1745-10.104-12.1345-7.19-15.3145-9.2655-20.0375-13.079-5.141-4.1505-5.944-4.515-7.583-3.441-.9345.6125-1.2705 1.2675-1.2705 2.478 0 3.1575 8.6955 12.038 17.25 17.617 6.9165 4.511 18.2995 10.651 23.5835 12.7205 7.481 2.93 13.396 3.8125 20.701 3.088 14.448-1.4335 27.371-7.8795 38.7155-19.3125 8.2375-8.3015 10.846-13.579 12.4715-25.2345 1.405-10.0745.952-14.547-1.475-14.547-.703 0-1.3655.2815-1.4725.625m280.726 39.1715c-20.5725 2.466-42.1325 11.722-59.249 25.437-20.9005 16.7465-35.242 38.987-41.763 64.7665-.8 3.1625-1.82 7.8875-2.2665 10.5-1.111 6.504-1.5335 24.8225-.7405 32.1215 2.9915 27.5345 14.1665 50.486 34.519 70.8945 18.2175 18.268 39.972 29.607 65.25 34.0105 7.7705 1.354 22.488 1.8445 30.3105 1.011 17.34-1.848 35.271-7.8315 49.8575-16.6375 25.674-15.5 44.7595-40.9005 52.8745-70.369 2.7415-9.9555 3.847-18.617 3.865183-30.281.021817-14.1185-1.935183-26.2965-6.214683-38.669-2.125-6.143-9.2655-20.392-13.321-26.581-6.8945-10.523-16.8275-22.0305-25.326-29.341-14.47-12.4475-32.783-21.5795-51.0445-25.455-10.2095-2.166-25.527-2.753-36.7515-1.4075m6.5 10.7c-28.5055 2.2235-54.5565 14.381-73.5205 34.311-16.348 17.181-26.6625 39.062-30.024 63.6925-.861 6.3085-.722 20.7225.2625 27.25 4.5545 30.187 18.8075 55.8885 40.676 73.3465 16.0635 12.8235 35.38 20.8365 57.106 23.689 8.511 1.1175 24.233.76 32.75-.7445 27.787-4.908 51.6105-18.974 69.606-41.097 13.0455-16.0385 21.4905-36.31 24.1385-57.944.87-7.107.643-21.869-.45-29.25-4.7495-32.0715-20.5395-57.531-46.458-74.9075-10.0085-6.71-24.955-12.8435-37.8365-15.5275-12.5835-2.6215-25.699-3.641-36.25-2.8185m42.25 65.0715c-4.3715 2.289-5.406 4.672-3.0065 6.926 1.182 1.1105 1.378 1.138 3.9695.558 3.789-.848 5.287-2.126 5.287-4.511 0-3.365-2.8825-4.736-6.25-2.973m-60.8625 11.2115c-4.098 2.224-2.7455 7.731 1.8945 7.713044 2.403-.009544 3.0025-.361044 3.6865-2.160044.843-2.217.635-3.3055-.93-4.871-1.6265-1.626-2.638-1.7745-4.651-.682m46.59 39.77c-7.922 1.025-19.387 5.5935-24.7445 9.8605-6.521 5.193-15.0515 17.7145-19.153 28.112-2.0685 5.2445-2.41 7.97-1.3465 10.7545 1.387 3.6325 3.6725 4.2175 6.2425 1.5985 1.257-1.281 1.548-1.9425 1.3735-3.125-.4235-2.871 7.152-18.193 13.072-26.4395 1.556-2.1665 3.8615-4.8665 5.1245-6 7.383-6.6255 25.1655-11.0015 34.724-8.5445 6.91 1.776 9.611 3.207 13.034 6.904 3.5615 3.8465 6.7065 9.626 7.9345 14.58.4085 1.65 1.278 7.1465 1.932 12.215 1.1725 9.0895 1.21 9.2335 2.767 10.625 1.784 1.5935 2.9625 1.746 5.0725.655 2.9275-1.514 3.0035-2.4365 1.2135-14.744-2.644-18.1815-7.0385-26.136-17.281-31.28-9.8165-4.93-19.2465-6.5575-29.965-5.1715" fill-rule="evenodd"/></svg>