<svg height="358" viewBox="0 0 541 358" width="541" xmlns="http://www.w3.org/2000/svg"><g fill-rule="evenodd" transform="translate(.153926 .385447)"><path d="m398.617338 299.490552c1.276 0 2.166 6.975 1.45 11.369-2.042 12.535-20.372 34.095-37.2 43.757-4.907 2.817-8.156 3.129-6.614.635.442-.715.079-.87-1.036-.442-1.056.405-1.471.262-1.08-.371.35-.566 1.394-.789 2.32-.495 4.558 1.447 27.638-18.645 35.952-31.297 4.854-7.385 6.593-12.937 5.922-18.896-.264-2.343-.136-4.26.286-4.26zm-52.546-10.945c.619-1.001 5.996.581 11.306 3.327 1.65.853 5.542 4.36 8.649 7.793 7.057 7.799 10.014 16.159 9.416 26.618-.425 7.428-2.183 10.604-11.739 21.207-3.51 3.894-5.272 5.191-6.035 4.442-.766-.751.802-3.145 5.409-8.26 9.852-10.939 11.376-14.992 9.509-25.289-1.421-7.834-3.579-12.117-9.327-18.51-4.138-4.603-7.354-6.615-14.964-9.364-1.546-.558-2.547-1.442-2.224-1.964zm29.034-203.3729996c4.015-.904 18.684-.654 20.56.35 1.336.715 5.295.68 12.872-.113 8.266-.866 12.572-.862 17.602.013 10.732 1.869 39.847 11.801 50.476 17.2189996 17.649 8.996 41.305 30.113 49.854 44.504 8.994 15.139 13.575 33.041 13.522455 52.845-.031455 11.228-.407455 14.227-2.764455 22-3.868 12.764-9.321 23.461-17.84 35-8.479 11.486-14.426 17.053-27.788 26.009-17.872 11.98-30.851 16.032-56.494 17.634-18.317 1.145-32.344-.121-33.293-3.005-.365-1.107.744-1.216 5.922-.58 8.359 1.027 24.897.76 37.282-.603 40.625-4.471 76.824-35.153 89.279-75.673 2.421-7.88 2.693-10.272 2.642-23.282-.048-12.36-.445-15.976-2.695-24.5-5.207-19.733-13.427-32.885-29.489-47.186-19.064-16.973-29.213-22.753-54.873-31.2509996-23.474-7.774-29.004-8.692-43.477-7.219-8.829.899-11.352.878-11.958-.102-1.429-2.31-16.263-1.384-27.34 1.706-20.164 5.624-31.491 10.989-50.5 23.9169996-9.481 6.448-26.29 23.14-31.856 31.635-9.218 14.067-19.713 40.201-22.086 55-1.468 9.148-1.279 22.273.437 30.5 1.976 9.468 9.338 24.062 15.59 30.902 6.74 7.375 16.489 13.709 28.534 18.54 9.966 3.997 23.885 7.058 32.095 7.058 3.126 0 4.324.372 4.02 1.25-.608 1.755-12.148 1.101-22.351-1.266-17.463-4.052-34.197-13.375-44.36-24.716-5.723-6.386-12.084-18.551-14.52-27.768-2.495-9.443-2.994-24.525-1.158-35.027 2.894-16.555 13.267-42.781 21.86-55.271 11.685-16.983 30.723-32.792 55.02-45.6879996 6.724-3.568 26.75-10.462 37.275-12.832zm2.036 172.7109996c2.98-3.16 3.751-3.491 6.667-2.867 3.963.848 12.452 6.132 13.268 8.259 1.315 3.427-1.636 8.34-7.684 12.793-6.937 5.107-9.787 5.666-9.787 1.922 0-2.248-.401-2.5-3.981-2.5-3.418 0-4.07-.355-4.612-2.513-.347-1.382-.181752-3.07.366-3.75.548-.68 1.31-2.707 1.695-4.504.384-1.797 2.215-4.875 4.068-6.84zm8.464 15.102c-2.278.817-3.612 1.997-3.82 3.38-.175 1.169.01 2.125.413 2.125.884 0 10.407-6.043 10.407-6.604 0-.718-3.443-.178-7 1.099zm-13-1.586c0 2.827 2.468 3.682 5.814 2.016l2.686-1.337-3-.383c-1.65-.21-3.562-.847-4.25-1.416-.933-.772-1.25-.488-1.25 1.12zm21.333-4.399c-1.192 1.361-1.806 2.698-1.364 2.971.908.561 2.413-1.119 3.344-3.731.812-2.276.612-2.199-1.98.76zm-3.774-1.51c-.243 0-.719.45-1.059 1s-.141 1 .441 1 1.059-.45 1.059-1-.198-1-.441-1zm-5.059-.889c-1.65.026-3.565.275-4.256.553-.691.279-1.002.918-.691 1.421.849 1.375 3.818 1.101 6.006-.553 1.844-1.395 1.791-1.466-1.059-1.421zm7.229-.507c-.401.401-.729 1.419-.729 2.263 0 1.125.296 1.237 1.112.421.612-.612.941-1.631.73-2.263s-.712-.822-1.113-.421zm-11.967-4.531c-.955.557-2.222 1.917-2.813 3.022-1.069 1.999-1.052 1.998 2.948-.042 2.213-1.129 4.941-2.053 6.063-2.053s2.04-.45 2.04-1c0-1.294-5.982-1.241-8.238.073zm8.761 1.891c-.364.588-1.193.77-1.842.406-.89-.5-.899-.358-.037.577 1.287 1.397 4.77 1.078 4.61-.422-.152-1.429-1.965-1.802-2.731-.561zm-13.303-156.964c.999 0 .682 3.17-.8 8-.68 2.216-.584 2.35.847 1.177.888-.728 1.753-2.528 1.924-4 .243-2.106.915-2.746 3.147-3.002 1.644-.188 3.612.374 4.674 1.336 1.718 1.555 2.021 1.525 4.717-.468 3.375-2.496 6.019-1.894 6.888 1.567.392 1.562 1.342 2.409 2.741 2.445 2.626.068 6.807 5.135 7 8.483.078 1.353.493 2.461.922 2.461.429.001-.214 1.345-1.429 2.989-1.215 1.643-1.942 3.254-1.617 3.58.902.901 7.708-6.827 7.739-8.787.041-2.623 4.026-9.71 6.076-10.807 2.686-1.438 8.533-1.183 9.872.43.667.804.885 2.522.509 4.019-.632 2.519-.553 2.574 2.177 1.536 2.287-.869 3.053-.776 3.974.482.647.885 2.616 1.559 4.557 1.559 6.901 0 9.649 4.643 6.431 10.866-1.419 2.745-1.407 2.764 1.5 2.337 1.612-.236 2.931-.881 2.931-1.433s-.901-.768-2.001-.48c-1.101.288-1.783.17-1.516-.263.267-.432 1.418-1.029 2.556-1.327 1.541-.403 2.306.078 2.991 1.879.506 1.332 1.382 2.421 1.945 2.421 2.259 0 .813 3.472-2.725 6.544-2.062 1.791-3.428 3.586-3.034 3.989s2.268-.629 4.165-2.294c6.149-5.399 14.813-6.881 15.419-2.637.198 1.384-.889 3.147-3.18 5.159-3.41 2.993-3.441 3.091-1.55 4.802 1.061.961 1.93 2.093 1.93 2.515 0 1.762-5.329 6.922-7.148 6.922-1.083 0-1.689.454-1.346 1.009.813 1.316-.526 5.547-1.365 4.312-1.072-1.58-5.149 1.048-4.146 2.671.721 1.167 1.134 1.158 2.679-.056 1.669-1.312 1.709-1.286.464.301-1.427 1.821-.925 4.763.813 4.763 1.459 0 10.049-8.429 10.049-9.861 0-.662-1.013-1.634-2.25-2.161-2.217-.944-2.214-.955.25-.718 3.841.369 3.74 3.843-.229 7.863-7.311 7.404-11.684 10.638-15.298 11.316-5.306.995-9.177 4.172-9.922 8.14-.706 3.765-5.066 7.781-7.699 7.093-.948-.248-1.958.161-2.245.909s-1.666 1.647-3.064 1.998c-1.399.351-2.543 1.023-2.543 1.494s-.872 1.324-1.939 1.894c-1.487.796-2.826.55-5.75-1.058-2.096-1.153-2.937-1.379-1.87-.502 1.068.876 1.405 1.593.75 1.593s-1.191.675-1.191 1.5c0 2.197-2.656 1.829-4.36-.604l-1.474-2.104-.333 2.354c-.272 1.925-1.017 2.411-4.083 2.664-2.406.199-3.75.814-3.75 1.715 0 2.532-3.96 3.738-10.02 3.052-3.665-.414-6.676-.217-8.355.548-3.206 1.461-3.496 3.361-.375 2.455 1.237-.359 4.564-.92 7.392-1.245 4.664-.537 5.206-.39 5.832 1.584.749 2.358-.879 5.081-3.037 5.081-.726 0-1.593.443-1.928.985-.375.607.515.76 2.319.399 3.902-.78 7.383 1.142 6.983 3.855-.301 2.036-1.788 2.808-8.102 4.203-3.072.679-2.769 2.558.413 2.558 1.351 0 1.91.57 1.716 1.75-.159.963.077 2.332.523 3.044.955 1.523-.968 4.206-3.015 4.206-.775 0-1.668.675-1.984 1.5-.353.918-1.869 1.5-3.91 1.5-3.552 0-5.324-1.528-3.681-3.171 1.485-1.485.404-4.276-2.077-5.368-1.2-.529-2.332-1.757-2.515-2.73-.431-2.292 4.311-4.282 12.386-5.197 6.641-.753 9.376-1.834 7.527-2.977-.617-.382-3.48-.166-6.363.479-3.898.873-6.297.888-9.368.061-4.881-1.314-7.493-3.779-5.385-5.082.983-.608.694-.926-1.064-1.174-2.266-.32-2.391-.673-2.063-5.841.406-6.413 2.254-9 6.428-9 4.384 0 1.788-2.636-2.764-2.807-3.937-.148-9.515-3.744-9.509-6.131.002-.859.902-3.035 2-4.836s1.996-3.913 1.996-4.693c0-3.484 8.446-6.141 9.638-3.033.947 2.467 3.095 1.703 4.211-1.497 1.966-5.64 9.775-6.555 9.572-1.122-.067 1.767.497 2.119 3.389 2.119 2.081 0 3.956-.666 4.685-1.662 1.669-2.283 4.106-1.128 6.623 3.138 1.144 1.938 2.865 3.524 3.824 3.524.96 0 3.671 2.284 6.025 5.076 5.271 6.251 6.398 5.541 6.476-4.082.053-6.552.257-7.186 3.057-9.496 1.65-1.362 3.964-2.743 5.142-3.069 2.434-.672 8.358 2.019 8.358 3.797 0 .88.303.871 1.209-.035.946-.946.707-1.561-1.095-2.824-1.722-1.206-2.199-2.331-1.888-4.452.257-1.754-.088-3.032-.905-3.345-.726-.279-1.321-1.902-1.321-3.606 0-2.647.292-3.006 2.007-2.462 1.67.53 1.524.108-.865-2.507-1.579-1.73-3.495-3.018-4.257-2.863-2.132.435-6.885-1.051-6.885-2.151 0-.54-2.61-.981-5.8-.981-8.756 0-10.908-3.68-4.95-8.465l3.25-2.611-2.769.651c-3.462.814-8.47-1.176-9.265-3.683-.365-1.149-1.524-1.892-2.952-1.892-3.714 0-5.476-1.026-7.077-4.121-1.433-2.772-5.437-4.112-5.437-1.82 0 .582-.384.822-.853.532s-1.706.119-2.75.909c-2.618 1.982-4.688 1.846-7.677-.506-1.714-1.348-2.679-1.618-2.943-.824-.217.649-2.505 1.269-5.085 1.378l-4.692.198.336-8.246.392 3.75c.216 2.063.851 3.75 1.412 3.75.642 0 .732-1.202.243-3.25-.427-1.788-.699-4.577-.604-6.199.158-2.716-2.083-6.551-3.829-6.551-.407 0-.348 1.688.131 3.75.479 2.063.837 4.875.795 6.25s-.708-.386-1.479-3.914c-.772-3.527-1.148-6.669-.835-6.981.312-.312 1.841.164 3.397 1.057 2.705 1.552 2.873 1.53 3.776-.495.678-1.519.92.324.855 6.512-.092 8.789.782 10.868 1.714 4.077.283-2.066.668-4.656.856-5.756.231-1.358-.142-1.897-1.16-1.679-1.151.247-1.227.044-.328-.871.644-.657.927-1.832.627-2.613-.322-.839-.008-1.3.769-1.128.722.16 1.477-.609 1.676-1.709.299-1.644.179-1.733-.675-.5-1.161 1.677-1.385.987-.462-1.418.334-.87 1.06-1.582 1.613-1.582zm3.28 121.768c-2.454.383-2.658.594-1.122 1.158 2.355.865 7.622.147 7.622-1.039 0-.911-1.279-.934-6.5-.119zm-1.721-9.726c1.341.539 3.809.554 6 .037 3.496-.825 3.358-.88-2.279-.915-4.597-.029-5.467.177-3.721.878zm2.221-4.658c-4.421 1.03-4.443 1.055-1.232 1.397 1.797.192 4.46.207 5.917.034 2.132-.253 2.373-.527 1.233-1.397-1.006-.768-2.726-.778-5.918-.034zm9.286-2.384c-2.501 0-2.587.127-1.096 1.618.89.89 2.111 1.314 2.714.941 1.986-1.227 1.143-2.559-1.618-2.559zm-14.664-1c-.207 0-.937.675-1.622 1.5-1.02 1.229-.951 1.5.378 1.5.892 0 1.622-.675 1.622-1.5s-.17-1.5-.378-1.5zm3.878-8.262c-3.709.543-5.5 1.951-5.5 4.325 0 1.665.232 1.697 2.75.384 1.513-.789 3.673-1.437 4.8-1.441 2.065-.006 4.45-1.724 4.45-3.206 0-.819-1.24-.831-6.5-.062zm11 .705c-4.546 2.75-3.487 3.924 3.044 3.374 3.316-.28 6.766-2.918 5.421-4.145-1.815-1.655-4.921-1.372-8.465.771zm12.695-3.971c-1.021 2.24-.927 2.528.826 2.528 2.058 0 2.533-1.579 1.137-3.778-.588-.928-1.127-.585-1.963 1.25zm-13.945.612c-2.457.93-2.98 1.925-1 1.901 1.588-.02 4.345-1.734 3.721-2.314-.259-.241-1.484-.055-2.721.413zm-6.809-3.084c-.243 0-.441.45-.441 1s.477 1 1.059 1 .781-.45.441-1-.816-1-1.059-1zm11.377 1.218c.533.533 1.805.793 2.826.576 1.375-.291 1.123-.543-.97-.969-1.825-.373-2.482-.233-1.856.393zm-8.265-1.303c-.322.521-.159 1.21.362 1.532s1.21.159 1.532-.362.159-1.21-.362-1.532-1.21-.159-1.532.362zm33.447-.884c0 1.084.675 1.969 1.5 1.969s1.5-.627 1.5-1.393-.675-1.652-1.5-1.969c-1.02-.391-1.5.054-1.5 1.393zm-10-2.59c0 1.343.369 2.669.819 2.947.451.279.624-.82.387-2.441-.525-3.574-1.206-3.86-1.206-.506zm-9.417.425c-.431.697-.513 1.537-.183 1.867.895.895 1.871-.421 1.387-1.871-.338-1.016-.574-1.016-1.204.004zm-5.583-3.485c0 .799-.562 1.687-1.25 1.973-1.469.612 1.811 3.646 3.941 3.646 2.099 0 1.546-4.803-.691-6-1.573-.842-2-.76-2 .381zm18.985-2.381c-.485 0-.393 1.463.204 3.25 1.288 3.86 3.354 6.417 2.423 3-1.521-5.59-1.798-6.25-2.627-6.25zm13.015 5.441c0 .857.45 1.559 1 1.559s1-.423 1-.941-.45-1.219-1-1.559-1 .084-1 .941zm-41-2.632c0 .445.661 1.682 1.468 2.75 1.499 1.982 2.018.872.925-1.977-.627-1.634-2.393-2.205-2.393-.773zm21.709-1.628c-.862 1.781-1.314 3.65-1.002 4.153.311.504 1.159-.811 1.884-2.921 1.659-4.825 1.181-5.492-.882-1.232zm-36.986-.57c-1.279 1.278-.77 4.389.718 4.389.793 0 1.678-.384 1.968-.853.716-1.158-1.779-4.443-2.686-3.536zm65.277-1.611c-1.333 0-2 .667-2 2 0 2.267 1.037 2.563 2.8.8s1.467-2.8-.8-2.8zm-57.809-3c-.445 0-1.627.598-2.626 1.329-1.507 1.102-1.619 1.701-.656 3.5 1.373 2.566 2.643 2.78 3.484.589.867-2.26.75-5.418-.202-5.418zm52.809 4c-.55 0-1 .45-1 1s.45 1 1 1 1-.45 1-1-.45-1-1-1zm-33.657-7c-1.579 0-2.698.774-3.253 2.25-.7 1.862-.338 2.576 2.094 4.138 3.607 2.315 5.082 1.192 4.204-3.2-.505-2.525-1.139-3.188-3.045-3.188zm-8.8 4.931c-.317.512-.118 1.213.441 1.559.559.345 1.016-.074 1.016-.931 0-1.757-.6-2.015-1.457-.628zm18.457-2.931c-.55 0-1 .927-1 2.059s.45 1.781 1 1.441 1-1.266 1-2.059-.45-1.441-1-1.441zm29.667.667c-.367.366-.667 1.131-.667 1.7 0 .626.466.567 1.183-.15.651-.651.951-1.416.667-1.7s-.817-.217-1.183.15zm-55.588.916c.048 1.165.285 1.402.604.605.289-.722.253-1.585-.079-1.917s-.568.258-.525 1.312zm-3.707-4.548c-1.17-.019-2.687.64-3.372 1.465-1.554 1.872-.275 1.872 3 0 2.355-1.346 2.377-1.431.372-1.465zm10.185-2.812c-.856 1.222-1.557 2.867-1.557 3.654 0 1.217.264 1.206 1.75-.07.962-.827 2.538-1.782 3.5-2.124.962-.341 1.75-1.309 1.75-2.152 0-2.307-3.669-1.841-5.443.692zm46.443 1.777c-.55 0-1 .423-1 .941s.45 1.219 1 1.559 1-.084 1-.941-.45-1.559-1-1.559zm-2.572-4.571c-1.86 1.36-1.059 4.079.853 2.897.629-.388 2.66-.604 4.513-.479 3.924.264 3.538-1.187-.711-2.668-2.148-.749-3.379-.683-4.655.25zm19.871-.323c-3.769 1.09-5.279 2.894-2.423 2.894 2.872 0 7.124-1.776 7.124-2.975 0-1.181-.358-1.175-4.701.081zm-2.902-8.106c-2.113 0-2.211.235-1.247 3 1.061 3.045 3.097 3.762 5.81 2.046 1.25-.791 1.192-1.221-.405-2.985-1.026-1.134-2.897-2.061-4.158-2.061zm-4.82-4.125c-.719 1.164 6.794 2.321 9.941 1.531 1.365-.342 2.482-1.024 2.482-1.514 0-1.154-11.71-1.17-12.423-.017zm5.923-7.915c-7.821 2.74-7.936 2.828-5.153 3.934 2.11.838 4.571.841 9.5.013 7.244-1.217 11.153-3.12 11.153-5.43 0-2.316-6.407-1.703-15.5 1.483zm-1.292-3.818c-1.81 1.159-3.124 2.275-2.92 2.48.205.204 2.781-.447 5.725-1.448 3.962-1.346 4.894-1.996 3.588-2.497-2.474-.949-2.706-.896-6.393 1.465zm-14.458-3.679c-4.277 3.706-4.749 5.484-1.5 5.655 3.841.203 5.148-.241 6.533-2.219 1.648-2.352 6.413-4.899 9.167-4.899 1.128 0 2.049-.337 2.047004-.75-.002004-.413-2.815004-.814-6.250004-.893-5.71-.13-6.57.137-9.997 3.106zm9.912 2.155c-1.562.846-2.616 1.761-2.343 2.034.533.533 6.681-2.39 6.681-3.178 0-.818-1.399-.449-4.338 1.144zm-23.412-5.513c-5.128 2.538-5.697 5.356-1.261 6.243 3.864.773 5.655.036 6.48-2.667.428-1.404.854-1.721 1.196-.889.405.987.858 1.019 1.922.136 1.161-.964.994-1.47-1.005-3.042-2.913-2.291-2.218-2.312-7.332.219zm43.583-4.128c-2.772.837-9.833 6.012-9.833 7.206 0 1.426 4.165 1.918 7.351.866 1.825-.602 4.623-2.456 6.216-4.119 2.421-2.527 2.654-3.179 1.415-3.962-1.689-1.068-1.58-1.068-5.149.009zm-13.516-3.947c-1.549.017-3.717.53-4.817 1.14-1.1.611-2.798 1.801-3.774 2.646-2.197 1.904-.694 3.146 3.833 3.169 3.602.018 5.98-1.612 6.907-4.735.584-1.963.309-2.246-2.149-2.22zm-19.567 3.659c-2.037.533-2.301 1.888-.5 2.573 1.68.639 5.75-.939 5.75-2.23 0-1.044-2.052-1.178-5.25-.343zm2.909-10.689c-.098 0-.739.899-1.425 1.998-.687 1.098-1.582 1.929-1.991 1.845-.409-.083-2.375.575-4.369 1.464-2.506 1.117-3.781 2.424-4.126 4.232-.452 2.366-.263 2.556 1.98 1.993 2.827-.709 13.272-8.152 13.272-9.457 0-.667-2.267-2.075-3.341-2.075zm-8.409-11.921c-.413.043-1.312.306-2 .583-.687.278-1.25 2.016-1.25 3.862 0 1.847-.381 3.593-.847 3.881s-.885 1.891-.933 3.561c-.047 1.671-1.072 4.421-2.276 6.113-1.62 2.274-1.898 3.367-1.067 4.198s1.123.695 1.123-.52c0-.904.835-2.232 1.857-2.95 2.164-1.523 4.162-6.555 2.096-5.278-.827.511-1.012.376-.538-.391.398-.644 1.255-.905 1.904-.58.65.325.281-.179-.819-1.118-1.449-1.238-1.552-1.556-.372-1.153.896.306 2.133.052 2.75-.565 1.582-1.582 1.393-.146-.452 3.421-.865 1.673-1.298 3.319-.96 3.656.885.885 7.311-2.775 7.993-4.552 1.116-2.91-3.939-4.95-7.209-2.909-1.675 1.045-1.53-.384.282-2.779 1.523-2.014 2.033-6.619.718-6.48zm29.857 18.921c-.491 0-1.166.712-1.5 1.582-.939 2.446-.735 2.769.893 1.418 1.662-1.38 1.99-3 .607-3zm-25.202-2.959c.962-.097-3.567 4.238-5.394 5.161-1.106.56-.436-.364 1.489-2.052s3.682-3.087 3.905-3.109zm-13.683-3.041c-1.051 0-2.739.914-3.75 2.031-1.723 1.904-1.733 2.137-.155 3.714 1.475 1.476 1.855 1.503 3.076.219.766-.805 1.696-2.477 2.067-3.714.535-1.784.279-2.25-1.238-2.25zm19.959 4c-.584 0-1.36.48-1.722 1.067-1.076 1.741.149 2.11 1.521.457.789-.95.865-1.524.201-1.524zm5.941-3c-2.675 0-3.122.363-3.122 2.535 0 2.148.28 2.386 1.832 1.555 1.008-.54 2.413-1.68 3.123-2.535 1.12-1.35.878-1.555-1.833-1.555zm-40.353-4.921c-.148.043-.831.306-1.519.583-2.714 1.095-.159 7.338 3.003 7.338 1.282 0 2.747-1.921 2.747-3.601 0-.24-1.19-.138-2.645.227-2.46.617-2.598.479-1.981-1.981.365-1.455.543-2.609.395-2.566zm-25.226 2.852c-.317.512-.118 1.213.441 1.559.559.345 1.016-.074 1.016-.931 0-1.757-.6-2.015-1.457-.628zm54.027-5.044c-.301.487.136 1.454.972 2.148 1.252 1.039 1.778.926 2.976-.637 1.393-1.816 1.446-1.795 1.219.492-.13 1.314.326 2.589 1.013 2.833 1.883.668 1.554-4.392-.332-5.116-2.3-.883-5.216-.743-5.848.28zm-43.82-.428c-3.441 4.149-3.429 4.541.143 4.541 3.053 0 4.107-1.432 4.107-5.582 0-3.188-.93-2.961-4.25 1.041zm56.215-.459c-2.181 0-3.965.418-3.965.929 0 1.858 3.21 4.071 5.905 4.071 3.515 0 4.278-.79 3.025-3.131-.719-1.343-2.117-1.869-4.965-1.869zm-37.401 3.707c-.542 1.425-.428 1.54.56.56.684-.679.991-1.486.683-1.793-.308-.308-.867.247-1.243 1.233zm-27.991-5.553c-1.78 3.567-2.069 6.271-.573 5.346.55-.34 1-1.518 1-2.618s.45-1.722 1-1.382c.567.351 1-.49 1-1.941 0-3.355-.52-3.228-2.427.595zm39.506 4.429c.048 1.165.285 1.402.604.605.289-.722.253-1.585-.079-1.917s-.568.258-.525 1.312zm-34.539-1.236c-1.014.741-1.415 1.612-.892 1.936.524.323 1.496-.283 2.16-1.348 1.43-2.289 1.203-2.395-1.268-.588zm15.936-1.272c-.362 1.142-.446 2.288-.186 2.548.61.61 3.71-2.477 3.71-3.694 0-1.826-2.878-.889-3.524 1.146zm-5.853-9.825c-1.467 2.319-1.129 8.75.459 8.75.47 0 .568.749.217 1.664-.413 1.075-.247 1.422.467.98.609-.376 1.137-1.462 1.173-2.414.185-4.846 1.375-10.154 2.166-9.665.492.304.895.076.895-.506 0-1.955-3.939-1.083-5.377 1.191zm31.908.75c-3.443 0-4.531.375-4.531 1.564 0 1.162.835 1.483 3.25 1.25 3.064383-.296553 3.243573-.185041 3.249811 3.121779l.000189.220221c0 4.196.711 4.162 2.484-.117 1.892-4.568.808-6.039-4.453-6.039zm-13.308 2.557c2.333-1.635 3.777-1.988 3.777-.925 0 1.323-4.255 7.446-4.797 6.904-.313-.313-.037-1.102.614-1.753 1.723-1.723 1.451-3.25-.317-1.783-.95.788-1.5.854-1.5.179 0-.586 1-1.766 2.223-2.622zm22.277 3.388c-1.1.443-2.45.57-3 .283-.667-.348-.667-.165 0 .548 1.128 1.207 6.5.469 6.5-.893 0-1.043-.788-1.029-3.5.062zm-48.499-2.219c-1.514 1.925-1.778 2.848-.897 3.142 1.246.415 4.896-3.296 4.896-4.979 0-1.722-1.878-.859-3.999 1.837zm-2.922-.143c.048 1.165.285 1.402.604.605.289-.722.253-1.585-.079-1.917s-.568.258-.525 1.312zm.171-5.837c-1.981.666-1.452 2.254.75 2.254 1.1 0 2 .505 2 1.122 0 .78.455.745 1.489-.113.819-.68 1.276-1.58 1.016-2.002-.643-1.039-3.72-1.777-5.255-1.261z"/><path d="m192.846074.21255338c8.409-.719 32.47.495 39.834 2.01 10.267 2.111 34.513 10.04200002 41.561 13.59500002 9.763 4.922 22.775 13.668 28.477 19.141 6.642 6.376 14.079 17.467 16.942 25.269 1.188 3.238 3.516 13.486 5.173 22.773 2.542 14.247 3.013 19.4519996 3.013 33.2929996 0 37.524-9.508 57.94-38 81.595-13.144 10.913-19.936 14.045-50.189 23.14-12.379 3.722-17.288 8.458-21.336 20.586-1.953 5.85-2.486 20.211-1.086 29.257.613 3.963 1.254 5.024 3.846 6.365l3.111 1.608-2.423 1.863c-3.108 2.389-4.636 2.386-5.396-.009-.335-1.054-1.904-2.368-3.487-2.92-3.403-1.186-19.491-11.865-24.497-16.26-5.808-5.1-10.161-13.39-12.026-22.904-1.206-6.157-1.387-9.189-.655-11 .971-2.401 1.014-2.362 1.092 1 .141 6.128 3.681 17.611 6.823 22.13 1.671 2.404 4.767 6.012 6.881 8.018 3.612 3.43 21.799 15.852 23.209 15.852.356 0 .483-3.622.282-8.048-.435-9.577 1.27-22.324 3.94-29.46 4.088-10.927 13.051-17.327 31.411-22.428 19.131-5.315 27.755-9.903 42.839-22.788 16.23-13.864 25.16-27.643 30.316-46.776 2.492-9.248 2.695-11.466 2.695-29.5.001-17.6929996-.29-21.0289996-3.139-35.9999996-5.315-27.923-12.43-39.067-34.204-53.571-14.77-9.838-21.288-12.734-43.007-19.10700002-15.072-4.422-15.97-4.562-32.541-5.065-46.652-1.419-99.382 10.23900002-142.2630004 31.45300002-24.419 12.08-43.556 24.894-44.845 30.026-.352 1.405-1.268 3.276-2.034 4.159-17.58800004 20.256-21.28200004 30.768-21.30100004 60.6049996-.01 17.231 1.366 27.692 5.536 42.084 3.06800004 10.586 5.03000004 14.511 12.95000004 25.916 10.296 14.824 18.636 21.573 35.549 28.766 22.241 9.459 31.249 11.14 59.9490004 11.194l21.5.04 13.608-3.744c7.485-2.06 15.529-4.422 17.876-5.25 4.921-1.737 6.016-1.85 6.016-.622 0 2.213-26.212 9.903-41.5 12.174-13.188 1.959-42.0280004.101-57.5000004-3.705-8.51-2.094-28.956-10.623-35.503-14.812-7.662-4.901-15.383-12.926-22.169-23.041-7.86-11.716-9.79400004-15.627-12.71500004-25.708-4.395-15.165-5.913-28.448-5.345-46.778.756-24.403 4.48-36.7119996 14.52700004-48.0139996 4.736-5.328 7.406-9.306 7.8-11.621 1.646-9.683 45.865-35.511 79.9050004-46.674 33.92-11.12300002 52.678-14.87600002 90.5-18.10700002zm-100.2620004 181.15199962c2.373-2.641 2.971-2.179 3.729 2.88.382 2.547 1.964 8.734 3.515 13.75l2.8200004 9.12-2.046 2.219c-1.1260004 1.221-2.3690004 2.02-2.7620004 1.777s-1.514-3.266-2.489-6.719l-1.774-6.277-1.749 5.323c-2.012 6.126-6.347 11.177-9.592 11.177-2.665 0-3.675-2.586-5.857-15-1.409-8.014-1.39-8.643.344-11 3.172-4.312 4.452-3.174 5.849 5.198.706 4.234 1.778 8.959 2.382 10.5 1.032 2.633 1.146 2.678 1.889.751.436-1.129 1.551-6.529 2.48-12 .928-5.472 2.396-10.736 3.261-11.699zm20.2580004 20.754c1.29-1.373 2.566-2.276 2.835-2.006.664.664-2.883 4.502-4.16 4.502-.561 0 .036-1.123 1.325-2.496zm10.202-34.476c1.266-.52 3.427-.851 4.802-.737 3.978.332 3.823 4.98-.4 11.981-1.914 3.175-3.15 5.568-2.746 5.318 1.311-.81 8.572 3.079 11.427 6.121 2.896 3.086 2.885 5.628-.031 6.746-1.016.39-2.893-.627-5.172-2.804-1.968-1.879-4.648-3.966-5.956-4.639l-2.378-1.222.692 5.54c.616 4.935.444 5.788-1.577 7.809l-2.269 2.269-1.693-8.455c-.931-4.65-2.214-9.788-2.851-11.417-.884-2.263-.875-3.489.039-5.197 2.056-3.841 3.755-3.605 5.046.701.652 2.177 1.524 3.958 1.938 3.958 1.237 0 5.116-8.811 4.723-10.727-.273-1.327-1.235-1.732-3.828-1.61-2.817.133-4.351 1.148-8.214 5.44-2.612 2.903-4.75 4.713-4.75 4.022 0-1.685 10.3-11.906 13.198-13.097zm30.339-3.656c2.63-2.63 3.986-2.953 5.065-1.206.42.679-.43 2.083-2.039 3.365-2.733 2.18-2.756 2.293-2.411 12.301.277 8.049.711 10.463 2.134 11.884 2.261 2.258 3.198 1.001 4.735-6.354.965-4.615 4.212-9.463 5.485-8.189.272.271 1.008 3.051 1.635 6.176 1.014 5.048.941 5.903-.655 7.666-2.18 2.409-3.486 2.543-3.486.358 0-1.128-1.398-.34-4.547 2.564-7.493 6.906-10.418 4.121-10.43307-9.937-.01093-10.07 1.27907-15.39 4.51707-18.628zm-9.502 25.628c1.421 0 1.203.479-1.181 2.595-2.134 1.895-2.139 1.893-.964-.345.649-1.238 1.615-2.25 2.145-2.25zm52.077-41c2.911 0 2.417 5.676-1.099 12.609-3.476 6.854-3.574 7.391-1.351 7.391 2.168 0 10.134 5.133 13.632 8.785 2.74 2.86 2.742 2.872.737 4.687-1.966 1.779-2.12 1.718-6.864-2.719-5.068-4.74-9.974-7.753-12.626-7.753-1.292 0-1.453.899-.942 5.25.529 4.514.323 5.515-1.471 7.136-2.547 2.303-2.545 2.308-4.144-10.256-.656-5.154-1.555-10.636-1.999-12.182-.866-3.019.399-5.609 3.001-6.143.818-.168 3.681-1.768 6.362-3.555l.269319-.177577c2.613385-1.70533 5.491281-3.072423 6.494681-3.072423zm-16.931 33c.664 0 .588.574-.201 1.524-1.372 1.653-2.597 1.284-1.521-.457.362-.587 1.138-1.067 1.722-1.067zm-18.738-4.579c2.718-2.403 5.193-4.108 5.5-3.79.306.319-1.667 2.545-4.386 4.948-2.718 2.403-5.193 4.108-5.5 3.79-.306-.319 1.667-2.545 4.386-4.948zm55.867-3.421c.55 0 .185.9-.81 2s-2.26 2-2.81 2-.185-.9.81-2 2.26-2 2.81-2zm-160.6350004-31.816c1.39-1.823 2.719-3.123 2.954-2.889.234.235-1.161 3.739-3.101 7.788-5.48 11.433-4.886 12.253 3.918 5.417 3.187-2.475 6.175-4.5 6.639-4.5 1.471 0 2.915 3.736 2.915 7.541 0 6.287-8.416 21.376-10.667 19.126-.36-.36.081-1.467.98-2.461 2.199-2.43 4.687-9.706 4.687-13.709 0-5.61-1.855-5.813-8.338-.911-9.379 7.091-10.874 5.596-5.587-5.586 1.69-3.575 4.21-7.992 5.6-9.816zm167.7670004 2.217c5.632-5.396 7.908-5.656 11.313-1.292 1.014 1.3.972 2.412-.218 5.787-1.473 4.174-1.472 4.178 1.244 5.204 3.929 1.484 8.022 5.729 8.759 9.081 1.361 6.2-5.916 11.658-12.954 9.715-4.931-1.361-6.232-4.272-4.675-10.459.649-2.574 1.046-4.771.884-4.881-.162-.111-2.095-.86-4.295-1.664-3.205-1.172-4.065-2.023-4.326-4.276-.261-2.251.592-3.693 4.268-7.215zm-31.161 8.602984c-.429.002016-2.283.919016-4.119 2.039016-3.283 2.001-3.327 2.123-2.639 7.246 1.058 7.871 1.877 8.74 4.387 4.654 3.678-5.988 5.033-13.952 2.371-13.939016zm40.084 5.996016c-.889 0-1.365 1.2-1.365 3.443 0 3.976 2.823 6.557 7.17 6.557 2.596 0 2.676-.144 1.678-3.006-1.108-3.178-5.19-6.994-7.483-6.994zm-153.7220004-25.158c.957-1.057 2.089-1.51 2.571-1.028 1.017 1.017 6.767 23.736 6.7780174 26.781.0089826 2.267-3.4660174 6.065-4.3060174 4.706-.282-.456-1.024-3.748-1.649-7.315s-2.029-9.809-3.12-13.87c-1.875-6.975-1.89-7.489-.274-9.274zm175.6340004 26.158c.568 0 .216.903-.783 2.006-2.068 2.285-3.446 1.847-1.514-.482.696-.838 1.73-1.524 2.297-1.524zm-178.6220004-2.171c2.013-2.224 3.498-2.39 2.696-.301-.619 1.612-4.351 4.045-4.351 2.836 0-.389.745-1.529 1.655-2.535zm24.6940004-4.829c.55 0-.057 1.125-1.3490004 2.5-1.292 1.375-2.799 2.5-3.349 2.5s.057-1.125 1.349-2.5 2.799-2.5 3.3490004-2.5zm7.503-30.197c3.928-3.928 7.457-6.828 7.841-6.443.385.384-1.414 2.639-3.997 5.01-2.583 2.372-4.696 4.794-4.696 5.382 0 .589 1.125 5.832 2.5 11.651s2.5 11.415 2.5 12.434c0 1.767-3.602 5.934-4.387 5.074-.206-.226-1.393-5.586-2.639-11.911s-2.715-12.075-3.265-12.777c-.736-.941.884-3.16 6.143-8.42zm115.718 23.875c-.737 1.919.91 3.801 4.185 4.784 2.763.828 3.905-1.36 2.287-4.384-1.345-2.512-5.561-2.773-6.472-.4zm-98.535-1.678c1.421 0 1.203.479-1.181 2.595-2.134 1.895-2.139 1.893-.964-.345.649-1.238 1.615-2.25 2.145-2.25zm20.69-33.232c3.596-3.681 6.158-4.506 2.936-.945-2.427 2.681-1.992 9.253 1.302 19.677l2.845 9-3.102 3.252c-1.706 1.789-3.421 2.914-3.811 2.5-1.261-1.338-5.056-15.407-5.613-20.811l-.542-5.252-5.409 4.406c-2.975 2.423-5.602 4.405-5.839 4.405-1.485 0 1.544-3.191 7.119-7.5 3.558-2.75 8.11-6.679 10.114-8.732zm36.525-10.728c2.489-.036 2.75.296 2.75 3.492 0 4.296-1.872 8.968-5.992 14.957-4.295 6.243-5.272 5.647-1.853-1.13 3.115-6.176 3.68-11.102 1.374-11.986-2.176-.835-9.098 2.87-8.678 4.645.193.815 1.587 6.882 3.098 13.482l2.746 12-2.022 2.25c-1.112 1.238-2.345 2.25-2.741 2.25s-1.719-5.419-2.94-12.042c-1.221-6.624-2.807-12.63-3.524-13.347-1.689-1.689.101-5.588 3.295-7.18 1.223-.61 3.014-1.8 3.98-2.645.966-.844 3.107-2.249 4.757-3.121s4.238-1.603 5.75-1.625zm-21.76 33.97c1.575-1.644 3.086-2.767 3.358-2.496.66.66-3.923 5.486-5.209 5.486-.557 0 .276-1.345 1.851-2.99zm-42.99-2.942036c.55.007036-.558 1.345036-2.462 2.973036-1.904 1.627-3.929 2.947-4.5 2.932s.537-1.353 2.462-2.973 3.95-2.94 4.5-2.932036zm80.122-4.067964c.823 0 .294.821-1.372 2.128-1.586 1.243-1.621 1.208-.378-.378.755-.963 1.543-1.75 1.75-1.75zm13.878-37.8099996c2.627-1.483 3.032-1.459 4.468.271 1.648 1.986.038 6.672-4.935 14.3669996l-3.859 5.971 7.663-.467c6.123-.374 8.354-.103 11.103 1.35 4.337 2.291 4.637 3.315 1.966 6.71l-2.147 2.73-2.13-1.994c-3.035-2.843-7.007-4.128-12.761-4.128-4.279 0-4.934.253-4.528 1.75 1.783 6.578 1.738 7.538-.463 9.88-1.224 1.304-2.551 2.37-2.948 2.37s-1.271-3.937-1.942-8.75c-.67-4.812-1.818-10.522-2.55-12.687-1.314-3.883-1.281-3.993 2.338-7.9999996 4.046-4.481 7.67-7.647 10.725-9.373zm-168.8030004-2.408c1.925-2.127.838-2.093 11.516-.36 9.325 1.514 10.076 1.786 13.537 4.901 2.794 2.516 2.942 7.559.386 13.1769996-1.934 4.253-12.022 15.947-12.953 15.016-.304-.304 1.056-2.232 3.022-4.284 1.966-2.053 4.299-5.172 5.185-6.932 2.247-4.466 2.092-10.5539996-.324-12.7399996-2.397-2.169-8.647-4.458-12.335-4.516-3.262-.052-3.238.181 1.434 14.4219996 2.452 7.474 2.743 9.337 1.748 11.197-1.478 2.761-3.992 3.827-5.037 2.137-.98-1.586-4.548-14.732-6.397-23.5699996-1.251-5.978-1.228-6.85.218-8.448zm200.2630004-6.241c1.846-1.905 3.787-3.198 4.312-2.873 1.788 1.105 4.5 8.81 7.815 22.2099996l3.311 13.377-3.365 3.007c-2.975 2.658-3.498 2.822-4.524 1.419-.638-.872-1.987-5.208-2.998-9.634s-2.327-8.045-2.925-8.042c-.597.003-2.396 1.053-3.997 2.334-2.846 2.277-2.884 2.433-1.728 7.021.801 3.182.861 5.29.188 6.549-1.211 2.263-3.759 3.369-4.606 1.999-.404-.654-1.115-.595-2.032.166-.943.783-1.411.815-1.411.098 0-.59.649-1.436 1.442-1.88 1.244-.696 1.182-2.113-.446-10.299-1.039-5.221-2.363-11.0649996-2.942-12.9859996-.58-1.922-1.054-3.802-1.054-4.179 0-.966 2.974-3.828 3.977-3.828.459 0 1.838 3.796 3.063 8.435l2.229 8.4359996 3.365-2.6859996c3.956-3.156 4.113-4.593 1.168-10.656l-2.198-4.525zm-35.639 13.648c-3.459 1.672-4.532 5.5569996-2.97 10.7519996l1.335 4.442 3.2-6.499c1.888-3.8359996 2.933-7.1929996 2.55-8.1909996-.739-1.924-1.09-1.967-4.115-.504zm-115.9380004-26.345c2.685-2.152 5.16-3.62 5.5-3.264.339.357-1.145 2.06-3.299 3.784-2.154 1.725-5.022 4.06-6.374 5.19l-2.456 2.055 3.802 8.72 3.756-3.298c2.065-1.813 3.977-3.075 4.248-2.804s-1.382 2.187-3.675 4.257l-4.167 3.765 2.692 8.991c2.558 8.5479996 2.606 9.0849996.963 10.8999996-.95 1.05-2.171 1.761-2.713 1.58s-2.021-4.124-3.287-8.7619996c-1.266-4.639-2.771-8.591-3.344-8.782s-.766-.793-.429-1.338c.337-.546-.162-3.02-1.108-5.499l-1.722-4.507 3.365-3.538c1.851-1.946 5.562-5.298 8.248-7.45zm8.613 26.66c1.2900004-1.373 2.5660004-2.276 2.8350004-2.006.664.664-2.8830004 4.502-4.1600004 4.502-.561 0 .036-1.123 1.325-2.496zm17.2890004-31.666c9.765-7.059 13.774-8.955 7.406-3.501l-3.81 3.262 2.474 4.951c1.361 2.722 3.639 8.988 5.064 13.923l2.59 8.972-4.772 4.772-3.257-9.858c-1.791-5.423-4.09-11.52-5.109-13.551-1.037-2.067-1.558-4.461-1.183-5.437.519-1.353-.102-1.169-2.759.816-1.886 1.409-4.554 3.124-5.929 3.81-4.194 2.093-.932-.773 9.285-8.159zm24.587 27.912c1.307-1.666 2.128-2.195 2.128-1.372 0 .207-.787.995-1.75 1.75-1.586 1.243-1.621 1.208-.378-.378zm16.128-37.104c1.925-.86 3.95-1.434 4.5-1.276 1.997.573 1.559 4.579-1.066 9.761l-2.684 5.296 3.802-3.339c7.455-6.545 13.448-7.291 13.448-1.673 0 2.917-11.989 23.658-14.458 25.011-1.077.591-2.575 1.641-3.33 2.333-1.858 1.704-2.926.842-3.742-3.02-1.767-8.368-6.854-25.31-7.778-25.904-1.951-1.254 2.008-5.706 5.038-5.664 1.523.021 4.345-.665 6.27-1.525zm7 10.421c-1.925 1.149-4.647 3.445-6.049 5.103l-2.55 3.014 1.796 7.071c.987 3.889 1.99 7.265 2.227 7.502.479.479 3.617-4.306 8.499-12.963 3.371-5.976 3.844-11.05 1.077-11.546-.825-.148-3.075.671-5 1.819zm33.844-22.911c1.854-1.854 6.156-2.026 6.156-.246 0 .372 2.589 3.357 5.753 6.633 3.164 3.277 7.978 9.233 10.697 13.237l4.944 7.28-2.578 2.579-2.579 2.578-4.598-7.108c-2.529-3.91-4.984-7.109-5.454-7.109-.471 0-2.955 2.069-5.52 4.599-3.885 3.829-4.665 5.218-4.665 8.3 0 3.472-1.379 6.101-3.2 6.101-1.232 0-.915-10.414.654-21.493 1.254-8.85 1.243-10.185-.1-11.669-1.364-1.506-1.314-1.878.49-3.682zm-14.824 30.32c.696-.838 1.471-1.318 1.723-1.067.693.694-.716 2.591-1.924 2.591-.664 0-.588-.574.201-1.524zm-28.27-14.258c-3.074 1.06-3.392 3.086-1.365 8.691l1.232 3.409 2.192-5.095c3.209-7.46 2.845-8.696-2.059-7.005zm47.564-8.543-.646 3.913c-.355 2.151-.651 5.625-.657 7.718l-.011 3.807 3.982-3.307c2.19-1.818 3.99-3.65 4.000049-4.071.009951-.42-1.486049-2.406-3.325049-4.412zm29.277 7.325c.19 0 .087.675-.229 1.5-.317.825-1.033 1.5-1.591 1.5-.586 0-.489-.635.229-1.5.685-.825 1.401-1.5 1.591-1.5z"/></g></svg>