<svg height="436" viewBox="0 0 834 436" width="834" xmlns="http://www.w3.org/2000/svg"><path d="m211.818 3.5c-.693 1.521-1.968 2.5-3.256 2.5-1.164 0-3.138.715-4.386 1.59-1.907 1.335-5.022 1.54-19.473 1.28-16.627-.298-17.213-.241-17.497 1.716-.162 1.113.672 2.9 1.852 3.969 1.875 1.7 3.959 1.986 16.544 2.269 7.919.178 14.398-.059 14.398-.527 0-1.104 7.841-.364 8.565.809.304.492 1.416.894 2.47.894s3.39.898 5.191 1.996c4.742 2.892 10.059 2.629 13.348-.661 3.09-3.09 1.534-2.87 29.926-4.225 12.1-.578 24.813-1.291 28.25-1.584 4.613-.394 6.264-.206 6.302.72.029.69.255 5.079.502 9.754 2.241 42.43 2.19 154.105-.098 212-.293 7.425-.734 22.05-.979 32.5-.246 10.45-.631 22.312-.857 26.361l-.41 7.361 4.145-.69c8.809-1.467 11.567-1.657 24.645-1.695 7.425-.021 14.049.006 14.72.062.761.063.291 1.47-1.25 3.741-1.359 2.001-2.47 3.966-2.47 4.365 0 1.482 4.195 5.995 5.573 5.995 1.625 0 1.938 2.566.427 3.5-.55.34-1 2.126-1 3.97 0 2.459.761 3.992 2.855 5.754l2.855 2.402-2.35 2.937c-2.689 3.361-3.182 9.51-.914 11.392 1.034.859 1.195 1.858.565 3.515-.484 1.274-.632 3.264-.329 4.423s.161 2.125-.315 2.148c-.477.023-4.917.184-9.867.358s-11.7.624-15 .998c-3.3.375-7.942.843-10.315 1.04-2.372.197-4.572.617-4.888.932-.858.859-1.154 6.477-1.92 36.442l-.698 27.311-3.966-.671c-2.792-.471-3.763-.341-3.281.44.643 1.04-1.163 1.224-15.144 1.547-2.8.064-3.811-1.234-6.315-8.116-1.374-3.776-3.323-4.746-6.295-3.134-1.198.65-3.251 1.211-4.563 1.247s-2.885.965-3.497 2.065-2.151 3.465-3.421 5.256c-1.903 2.685-2.637 3.079-4.186 2.25-1.034-.553-3.608-1.006-5.721-1.006h-3.841l.298-10.75c.163-5.913.737-16.552 1.275-23.643 1.474-19.43 1.308-27.543-.579-28.267-.857-.329-1.321-1.215-1.032-1.969.383-.997-.487-1.407-3.192-1.504-2.046-.073-5.519-.258-7.719-.411-9.935-.689-59.339-2.64-72.5-2.863-3.172-.054-5.429.331-5.332.91.176 1.055-6.034 1.053-54.168-.025-14.85-.332-38.475-.753-52.5-.936-14.025-.182-26.956-.379-28.735-.437l-3.236-.105 2.058-5.25c1.132-2.887 3.444-7.725 5.138-10.75 7.734-13.813 16.96-32.529 20.263-41.106 6.442-16.726 21.557-48.824 28.439-60.394 8.342-14.022 13.792-24.867 22.457-44.682 4.646-10.625 13.911-30.568 20.589-44.318 6.677-13.75 12.788-26.35 13.578-28 1.521-3.174 10.126-23.234 13.941-32.5 3.252-7.9 9.875-21.38 14.493-29.5 2.19-3.85 5.853-11.275 8.141-16.5 2.287-5.225 5.705-11.85 7.595-14.722 3.735-5.677 3.946-8.608.652-9.08-2.815-.404-6.151 3.696-10.441 12.83-1.888 4.018-6.092 12.518-9.343 18.889-11.264 22.072-14.467 28.82-22.019 46.387-8.226 19.137-11.529 26.275-28.314 61.196-6.08 12.65-14.049 29.975-17.709 38.5-3.659 8.525-7.729 17.075-9.044 19s-3.295 5.627-4.401 8.227-3.665 7.313-5.687 10.473c-4.085 6.386-14.788 27.404-15.939 31.3-.406 1.375-2.283 5.583-4.17 9.351-1.888 3.768-4.709 10.068-6.268 14-5.441 13.716-6.576 16.231-12.927 28.649-15.387 30.083-20.059 39.973-19.531 41.348 1.304 3.398 6.314 4.046 33.86 4.383 14.883.182 38.31.572 52.06.868s37.825.64 53.5.766c59.355.477 82.85 1.077 82.674 2.113-.104.61 1.6.881 4.229.671l4.403-.351-.658 9.851c-.361 5.418-1.093 19.076-1.626 30.351l-.968 20.5 2.291 2.295c1.643 1.647 3.749 2.404 7.454 2.679 2.84.212 5.687.708 6.326 1.103 2.046 1.265 7.014.608 8.999-1.189 1.474-1.335 2.198-1.466 3.1-.564 1.642 1.642 3.798 1.466 5.958-.488 1.722-1.559 1.982-1.535 4.078.375 2.96 2.695 6.043 4.23 7.809 3.888 6.157-1.194 9.388-1.607 15.931-2.037 4.125-.27 8.48-.507 9.679-.527 4.842-.078 5.312-1.882 5.439-20.856.065-9.724.403-23.754.75-31.179l.632-13.5 6.5-.735c3.575-.404 12.447-.898 19.714-1.098 8.606-.237 13.74-.799 14.72-1.612.854-.709 1.49-2.831 1.47-4.902-.02-2.009.273-5.382.65-7.494.444-2.486.223-4.707-.625-6.292-1.109-2.071-1.068-2.868.264-5.158 3.076-5.288 3.155-8.641.285-12.052-2.455-2.919-2.521-3.257-1.049-5.359 2.804-4.004 1.807-9.378-2.011-10.829-2.18-.829-2.229-1.041-.871-3.762 2.344-4.699 2.807-8.668 1.169-10.028-1.035-.859-7.539-1.212-22.497-1.223-11.572-.009-21.643.11-22.38.264-1.487.311-1.564-11.363-.324-48.72.365-11 .892-53.75 1.171-95 .535-79.043-.672-135.622-2.994-140.444-1.368-2.84 2.004-2.616-33.192-2.205-12.405.145-28.144-.547-33.732-1.482-2.914-.488-3.87-.268-4.357 1.003-.344.895-1.814 1.68-3.268 1.744-1.6.07-1.972.293-.943.564 1.423.374 1.517.848.577 2.91-1.56 3.425-3.217 2.477-3.596-2.057-.646-7.736-6.785-11.691-9.363-6.033m496.682 2.622c-3.3.484-11.625 1.737-18.5 2.784-6.92 1.054-17.716 1.901-24.184 1.899-6.426-.003-12.209.32-12.851.717-.686.424-.933 1.889-.598 3.561.312 1.561.132 3.108-.4 3.437-1.515.937-1.132 6.098.556 7.499 1.736 1.441 1.185 4.094-1.653 7.962-2.326 3.168-1.294 8.362 1.75 8.813 1.502.222 2.009 1.107 2.081 3.629.052 1.834.858 4.501 1.792 5.926 1.693 2.584 1.729 2.59 12.249 2.027l10.55-.564-.512 17.863c-.487 16.99-.647 18.131-3.268 23.344-1.516 3.015-4.726 7.803-7.134 10.64-6.672 7.863-5.507 11.895 2.725 9.428 6.42-1.923 28.793-25.083 33.898-35.089 2.451-4.804 5.118-12.863 9.1-27.498 2.868-10.539 3.295-13.732 3.507-26.224.132-7.824.515-15.089.85-16.145.574-1.808-1.706-5.29-3.279-5.01-.374.066-3.379.517-6.679 1.001m-328.25 1.964c-1.238.467-2.25 1.569-2.25 2.449 0 1.115-.574 1.418-1.895.998-3.759-1.193-4.853 1.642-5.035 13.05-.154 9.647.035 10.9 1.955 12.944 1.368 1.456 1.742 2.499 1.05 2.927-1.149.71-1.478 4.81-.466 5.822.335.335.689 2.631.788 5.102.148 3.736-.188 4.661-1.989 5.482-2.047.933-2.165 1.636-2.123 12.651.043 11.596.059 11.669 2.629 12.689 6.472 2.567 55.159 2.012 62.251-.71 1.407-.54 1.551.74 1.263 11.2-.179 6.496-.555 13.61-.835 15.81s-.773 10.75-1.095 19c-.729 18.652-1.167 189.125-.533 207.405l.465 13.405-2.965.291c-1.631.16-12.64 1.005-24.465 1.879-16.873 1.246-21.982 1.33-23.741.39-2.658-1.421-7.259.18-7.259 2.525 0 .791-.562 1.625-1.25 1.853-.916.304-1.388 5.466-1.768 19.334-.285 10.405-.877 19.656-1.315 20.558-.553 1.138-.029 2.407 1.711 4.147l2.507 2.507-2.035 1.842c-3.767 3.409-4.141 5.162-1.639 7.689 5.149 5.2 5.202 5.41 1.809 7.165-3.537 1.829-3.442 4.207.334 8.329 2.388 2.607-1.495 2.603 38.146.039 25.01-1.617 70.615-1.383 125.937.648 28.141 1.033 39.3 1.127 40.25.339 1.795-1.49 1.65-4.321-.306-5.944-1.381-1.146-1.53-2.894-1.009-11.872.335-5.791.898-13.403 1.249-16.916.532-5.315.364-6.542-.997-7.304-1.268-.709-1.403-1.353-.601-2.852 1.563-2.921.661-13.544-1.337-15.752-2.222-2.455-2.127-3.205.408-3.205 1.17 0 2.3-.789 2.561-1.789.258-.985 1.453-2.222 2.657-2.75 2.876-1.263 3.567-6.187 1.005-7.168-.999-.383-2.516-1.557-3.369-2.609-1.445-1.782-2.17-1.84-10.5-.841-12.369 1.484-29.862 2.99-42.98 3.7l-11.033.597.773-7.82c.425-4.301 1.216-41.345 1.758-82.32.693-52.48 1.455-79.82 2.575-92.5.875-9.9 1.909-33.626 2.299-52.724.501-24.56 1.055-35.071 1.892-35.908.907-.907 3.115-.913 9.475-.024 15.916 2.224 46.931 1.014 53.49-2.087 1.208-.571 2.441-1.674 2.739-2.451.807-2.104-2.475-12.971-4.61-15.262-2.801-3.006-4.001-6.848-2.826-9.044.55-1.028 1-3.425 1-5.327 0-2.152.567-3.676 1.5-4.035 1.756-.673 1.983-3.755.394-5.344-.608-.608-1.227-2.611-1.376-4.45-.656-8.132-1.818-15.488-2.715-17.187-.535-1.014-.709-2.894-.387-4.178.363-1.447-.005-2.925-.967-3.887-1.319-1.32-3.39-1.443-13.751-.823-14.484.868-170.974.922-178.198.062-2.75-.327-6.012-.213-7.25.255m-1.427 14.849c.208 6.086.83 10.159 1.75 11.473.785 1.12 1.427 2.758 1.427 3.64s1.125 2.66 2.5 3.952c3.122 2.933 3.127 4.032.029 7.374-1.931 2.084-2.338 3.332-1.862 5.713.447 2.234.036 3.824-1.54 5.955-1.834 2.481-2.055 3.723-1.499 8.449.559 4.757.991 5.626 3.052 6.144 4.267 1.07 46.512-.293 52.105-1.682 7.882-1.958 8.167-1.424 8.315 15.572.068 7.686-.412 46.825-1.065 86.975-.654 40.15-1.027 96.4-.829 125 .197 28.6.119 53.575-.174 55.5-.444 2.925-.943 3.5-3.032 3.5-1.802 0-2.586-.605-2.808-2.165-.424-2.976-1.75-3.239-8.692-1.726-3.3.719-14.887 1.846-25.75 2.505l-19.75 1.198v16.344c0 14.895-.155 16.345-1.75 16.355-1.277.008-.863.71 1.533 2.599 2.815 2.218 3.27 3.18 3.183 6.739-.055 2.283.217 6.176.605 8.651s.706 5.779.706 7.343c.001 2.703.179 2.816 3.612 2.284 10.463-1.62 47.023-3.103 72.111-2.924 28.157.2 96.983 2.003 104.25 2.731l3.75.376.06-8.655c.032-4.76.42-10.849.86-13.531.603-3.671.42-5.641-.744-7.972-1.68-3.368-2.025-8.159-.783-10.855.58-1.257-.284-2.75-3.304-5.71-2.249-2.204-4.089-4.652-4.089-5.439 0-.788 2.074-3.738 4.608-6.557l4.608-5.125-7.358.575c-4.047.316-11.183.98-15.858 1.476-4.675.495-15.062 1.187-23.083 1.537-19.271.842-19.016 1.077-16.854-15.554.536-4.125 1.408-41.25 1.938-82.5.703-54.817 1.401-79.709 2.59-92.5.895-9.625 1.797-28.075 2.003-41s.651-28.992.988-35.704c.595-11.832.706-12.301 3.62-15.35 3.92-4.101 7.384-4.998 15.034-3.892 8.644 1.25 36.595 1.176 42.606-.113 4.38-.94 4.877-1.308 4.39-3.25-.302-1.205-1.603-3.463-2.891-5.018-1.287-1.554-2.341-3.449-2.341-4.211 0-.761-.956-2.274-2.124-3.363-1.48-1.379-1.945-2.687-1.535-4.32.419-1.672.025-2.694-1.377-3.569-3.839-2.398-2.236-7.02 3.811-10.982 2.416-1.583 2.475-1.892 1.907-9.945-.323-4.572-1.179-9.543-1.903-11.047l-1.317-2.736-12.481.5c-30.726 1.231-118.022.262-166.481-1.847l-15-.653zm326.177-9.309c-14.386 2.033-19.616 2.794-20.25 2.945-.413.098-5.627.235-11.588.304l-10.838.125-.13 3.461c-.072 1.903.305 3.73.838 4.059 1.723 1.065 1.03 4.925-1.574 8.757l-2.542 3.741 2.542 2.355c1.657 1.536 2.542 3.423 2.542 5.42v3.063l7.75-.412c4.263-.227 9.061-.532 10.664-.678 2.478-.226 3.041.183 3.763 2.734.467 1.65.677 11.744.467 22.432-.32 16.238-.167 19.136.932 17.633.724-.99 2.755-3.381 4.515-5.315 4.064-4.466 8.857-14.489 11.835-24.75 1.277-4.4 2.995-10.025 3.817-12.5 2.128-6.4 3.051-34.054 1.131-33.864-.756.075-2.499.295-3.874.49m-474.516 67.624c-.885 1.237-3.755 5.175-6.377 8.75-4.823 6.574-15.646 22.569-19.622 29-4.415 7.139-5.327 8.775-11.982 21.5-3.739 7.15-7.547 14.125-8.462 15.5s-3.386 5.834-5.491 9.909c-2.104 4.075-4.777 8.895-5.938 10.71-4.417 6.903-7.704 12.453-18.289 30.881-17.716 30.841-21.323 37.23-21.323 37.764 0 .96-13.276 24.249-17.634 30.933-2.401 3.683-4.366 7.16-4.366 7.727 0 1.5 4.73 4.361 5.956 3.603.574-.355 1.044-.195 1.044.355s-.457 1.283-1.016 1.628c-3.959 2.447 5.203 2.538 38.016.379 17.632-1.16 47.943-1.434 62.186-.562 6.049.371 8.967.174 9.612-.647 1.527-1.946 2.52-6.797 2.798-13.68.563-13.901 1.58-48.388 1.961-66.5.724-34.393 1.263-49.476 1.904-53.268.955-5.656 2.353-36.073 2.607-56.732.087-7.15.557-13.755 1.042-14.678 2.343-4.453-3.624-6.769-6.626-2.572m-4.019 17.202c-8.804 12.377-20.28 31.035-28.937 47.048-14.74 27.265-21.323 39.089-25.052 45-1.735 2.75-4.516 7.475-6.18 10.5s-5.41 9.55-8.325 14.5c-6.963 11.823-12.729 22.132-21.254 38-3.842 7.15-9.175 16.519-11.851 20.821-2.676 4.301-4.866 8.395-4.866 9.097 0 1.269 4.421 1.333 13 .189 12.23-1.632 66.425-2.61 82.75-1.494 5.091.348 6.264.146 6.328-1.093.86-16.875 1.689-43.241 2.372-75.52.668-31.578 1.339-49.248 1.946-51.254 1.309-4.328 2.472-55.711 1.288-56.896-.14-.14-.689.356-1.219 1.102m562.825 99.548c-.544 2.08-3.713 2.742-4.79 1-1.246-2.016-4.467-.964-5.974 1.95-1.75 3.385-1.961 7.776-.551 11.485.537 1.411.59 2.565.12 2.565-.471 0-5.298-1.632-10.726-3.626-9.421-3.462-10.482-3.632-23.369-3.75l-13.5-.124-8.574 4.103c-14.664 7.016-25.43 19.941-31.383 37.674-4.385 13.063-3.212 30.827 2.94 44.514 4.924 10.958 15.576 18.743 36.287 26.523 12.023 4.516 13.677 5.685 16.925 11.954 2.278 4.397 2.714 6.509 2.73 13.232.015 6.644-.433 8.932-2.644 13.5-1.464 3.025-3.251 6.194-3.972 7.042-1.966 2.315-8.298 5.958-10.356 5.958-.996 0-3.319.545-5.161 1.212-2.887 1.043-3.848.943-6.939-.721-7.369-3.969-10.694-11.672-10.489-24.296.108-6.617-.12-7.528-2.42-9.659-4.836-4.482-8.857-5.715-16.261-4.985-3.723.366-9.603.746-13.066.843-4.783.134-6.528.588-7.257 1.891-.528.943-1.851 1.715-2.941 1.715s-2.227.638-2.526 1.418-.058 8.092.536 16.25 1.046 23.157 1.004 33.332c-.157 38.16-.25 37.236 3.862 38.565 1.967.636 5.392.766 8.5.323 2.863-.408 7.763-.775 10.89-.815 6.797-.087 10.84-1.452 11.473-3.874.256-.978 1.45-2.21 2.654-2.738 1.877-.824 2.206-1.814 2.317-6.961.071-3.3.183-6.429.25-6.953.066-.524 1.809.638 3.871 2.582 2.063 1.944 6 5.13 8.75 7.08 5.892 4.178 23.702 13.326 28 14.383 1.65.405 4.204 1.623 5.675 2.705 4.05 2.98 16.603 2.066 24.161-1.759 5.276-2.669 7.495-4.688 23.123-21.038 12.045-12.602 18.869-31.45 18.826-52-.016-7.863-.429-9.987-3.27-16.81-5.583-13.409-10.721-18.491-32.149-31.793-7.02-4.359-11.632-8.188-17-14.115-4.051-4.474-7.857-8.627-8.458-9.229-2.374-2.379-3.408-5.66-3.408-10.813 0-4.4.442-5.807 2.403-7.649 2.138-2.009 7.735-4.001 11.425-4.067 3.72-.067 13.094 13.178 13.15 18.58.034 3.267 4.249 7.091 8.619 7.819 2.441.407 5.776.079 8.903-.875 2.794-.853 8.767-1.531 13.538-1.537 6.851-.009 9.42-.456 13-2.261l4.462-2.25.657-30c.361-16.5 1.098-33.582 1.638-37.961 1.05-8.523.855-10.076-1.372-10.93-.783-.301-1.423-1.699-1.423-3.109 0-2.916-2.454-4.322-4.889-2.801-1.918 1.197-24.333-.178-27.908-1.713-3.857-1.656-7.332-1.21-7.913 1.014m3.348 7.5c-.38.99-1.946 1.5-4.607 1.5-2.217 0-4.026.113-4.019.25.006.137.632 2.58 1.39 5.427 1.416 5.319 1.229 15.092-.319 16.64-1.53 1.53-4.572.239-4.903-2.079-.402-2.822-2.288-3.846-14.68-7.979-8.6-2.869-11.54-3.365-21-3.547-10.84-.209-11.114-.158-18.854 3.538-10.026 4.787-17.718 12.441-22.887 22.772-6.59 13.171-7.963 22.164-5.419 35.478 3.505 18.337 12.894 27.7 35.02 34.923 14.56 4.752 18.311 7.816 22.752 18.577 1.814 4.399 2.268 7.402 2.266 15-.004 15.428-5.337 26.059-16.049 31.993-5.01 2.776-6.883 3.247-13.329 3.357-5.56.095-8.405-.351-11-1.723-4.805-2.541-9.81-7.419-12.031-11.725-2.561-4.968-4.969-15.916-4.969-22.593v-5.567l-6.25.835c-3.437.459-9.761.854-14.053.879l-7.803.044.563 4c2.772 19.681 2.753 70.116-.028 74.615-.524.848 1.089.952 6.181.398 3.789-.413 9.667-.811 13.06-.885 3.394-.074 6.508-.472 6.92-.885.681-.68.875-3.4 1.28-17.922.179-6.452 3.455-9.706 6.341-6.299 3.523 4.16 12.96 12.851 17.349 15.978 2.717 1.936 9.665 5.876 15.44 8.756 10.287 5.13 10.705 5.242 20.619 5.577 12.097.408 15.082-.755 23.059-8.989 2.847-2.939 8.022-8.288 11.5-11.885 8.67-8.971 12.399-16.382 15.46-30.724 3.017-14.137 2.617-21.501-1.682-30.99-3.868-8.535-11.018-15.261-25.217-23.724-12.804-7.632-14.871-9.339-25.233-20.837-9.407-10.438-10.413-12.535-10.464-21.796-.039-7.025.196-7.913 3.038-11.5 4.599-5.805 8.965-7.642 18.577-7.814 3.209-.057 5.034.627 8 2.998 4.825 3.857 9.962 11.353 11.495 16.774 1.964 6.943 2.593 7.238 11.327 5.319 4.168-.916 11.165-1.665 15.549-1.665h7.972l.048-24.25c.027-13.933.613-28.717 1.377-34.75 1.758-13.883 1.542-14.126-13.075-14.682-5.736-.219-11.565-.829-12.954-1.358-3.538-1.345-5.09-1.199-5.758.54" fill-rule="evenodd"/></svg>