<svg height="576" viewBox="0 0 344 576" width="344" xmlns="http://www.w3.org/2000/svg"><path d="m267 1.677c-5.176 1.129-7.362 1.179-10.734.245-3.612-1.001-4.613-.925-6.809.514-2.007 1.315-2.506 2.369-2.266 4.777.439 4.394 4.355 6.948 11.778 7.683l6.1.604-15.785 13.166c-8.681 7.241-28.857 24.116-44.836 37.5s-32.854 27.514-37.5 31.401c-14.2 11.878-49.606 40.282-65.359 52.433-32.768 25.274-44.876 35.981-73.336 64.848-15.535 15.759-28.25000325 29.37-28.25000325 30.247s.92000325 2.43 2.04700325 3.45c1.998 1.809 2.144 1.806 5.75-.095 2.035-1.072 14.95-13.242 28.7-27.043 26.755-26.855 35.627-34.786 67.573-60.414 24.116-19.345 61.216-50.199 86.509-71.946 9.946-8.551 23.426-20.047 29.957-25.547s15.493-13.166 19.917-17.035 12.319-10.586 17.544-14.928c14.869-12.356 13.442-11.319 12.668-9.202-.369 1.009-.958 4.279-1.309 7.267-.52 4.424-.306 5.8 1.156 7.415 2.46 2.717 7.052 2.58 8.898-.267 1.451-2.236 3.845-14.627 5.105-26.412 1.092-10.229-2.406-11.959-17.518-8.661m3.5 13.323c.34.55.816 1 1.059 1s.441-.45.441-1-.477-1-1.059-1-.781.45-.441 1m30.233 21.75c-3.686 4.09-2.872 11.25 1.279 11.25 2.016 0 4.276-2.816 5.474-6.822.471-1.573.132-2.943-1.051-4.25-2.162-2.389-3.667-2.436-5.702-.178m-13.596 24.5c-6.295 12.837-10.572 24.363-11.732 31.622-.648 4.046-.556 4.284 1.53 3.966 1.852-.282 2.758-2.002 5.478-10.405 1.793-5.536 6.034-15.411 9.424-21.943 6.86-13.221 7.408-15.49 3.735-15.49-2.111 0-3.211 1.597-8.435 12.25m33.056 22.446c-2.846.565-4.979 4.652-3.412 6.54.844 1.017-2.391 2.766-15.103 8.167-18.995 8.068-22.489 9.186-23.998 7.677-1.945-1.945-5.562-1.189-7.347 1.535-1.536 2.344-1.561 2.888-.239 5.243 1.97 3.51 4.386 3.801 7.139.86 1.247-1.332 4.067-3.003 6.267-3.712 6.026-1.942 25.328-9.902 31-12.784 2.75-1.398 6.575-2.582 8.5-2.632 3.201-.082 3.581-.417 4.445-3.918 1.488-6.024-.828-8.252-7.252-6.976m-79.087 17.37c-2.387 3.925-1.762 5.934 1.846 5.934 5.86 0 8.474-8.163 2.822-8.814-2.162-.249-3.127.346-4.668 2.88m-11.278 13.746c-4.208 3.226-9.941 7.335-12.739 9.131-4.745 3.045-6.208 5.248-4.277 6.441 2.046 1.265 27.688-16.729 27.688-19.429 0-2.994-3.287-1.806-10.672 3.857m-26.078.248c-1.956 1.162-2.421 6.869-.699 8.591.578.578 1.705 9.106 2.503 18.95.799 9.845 1.648 18.739 1.886 19.766.239 1.027-2.543 7.84-6.181 15.141l-6.616 13.274-5.821.937c-7 1.127-7.013 1.086-3.335-10.431 2.876-9.005 3.117-12.119 1-12.931-2.787-1.07-4.258 1.641-7.014 12.928-1.506 6.168-3.016 11.512-3.356 11.874-.834.891-22.117 2.563-22.117 1.738 0-.359.7-2.328 1.556-4.376 1.83-4.381 1.579-10.021-.447-10.021-1.788 0-2.162.727-7.555 14.663-5.701 14.735-8.899 26.325-8.121 29.428.398 1.582.176 2.409-.644 2.409-2.404 0-34.789 10.442-34.789 11.217 0 1.336 2.029.909 14.966-3.145 6.894-2.161 19.059-5.796 27.034-8.079s14.92-4.558 15.433-5.055c1.993-1.931-.323-1.755-7.973.606-4.378 1.35-8.333 2.456-8.789 2.456-1.763 0 5.452-23.823 7.636-25.211.656-.417 3.893-.769 7.193-.782 7.635-.029 41.987-4.342 52.25-6.559 2.211-.478 3.066-2.826 1.404-3.853-.466-.288-3.166-.156-6 .292-2.835.448-5.154.646-5.154.441s3.825-8.081 8.5-17.502 8.5-17.525 8.5-18.009c0-1.529-3.192-2.178-5.04-1.024-1.645 1.027-1.82.329-2.398-9.593-.905-15.51-1.502-19.24-3.186-19.886-1.214-.466-1.071-1.01.786-2.987 1.779-1.893 2.04-2.786 1.202-4.122-1.288-2.056-4.225-2.565-6.614-1.145m65.463 9.183c-2.182 2.629-14.083 28.045-15.771 33.68l-1.725 5.759-5.109.909c-4.138.736-5.108 1.289-5.108 2.909 0 2.801 5.961 3.086 15.184.726 6.45-1.65 7.267-1.679 8-.282 1.609 3.068 17.195 17.249 18.244 16.6 2.163-1.336.913-3.547-6.403-11.324l-7.474-7.945 3.224-.921c2.151-.614 3.328-1.63 3.533-3.051.465-3.215-2.434-3.556-10.715-1.261-4.042 1.119-7.55 1.834-7.797 1.587-.807-.807 5.439-14.536 11.213-24.644 3.11-5.445 5.5-10.701 5.311-11.681-.427-2.215-3.132-2.838-4.607-1.061m-48.564 17.17c-2.108 3.218-2.074 3.893.311 6.051 2.727 2.468 6.801 1.335 7.672-2.134 1.407-5.604-4.862-8.68-7.983-3.917m60.525 7.901c-2.939 3.129-2.825 7.214.259 9.234 2.006 1.315 2.839 1.378 4.75.36 1.274-.679 2.819-1.916 3.433-2.749.978-1.326 1.461-1.243 3.885.663 3.224 2.536 6.499 2.854 6.499.63 0-1.771-4.55-6.079-7.453-7.058-1.075-.362-2.569-1.273-3.322-2.026-2.063-2.064-5.615-1.646-8.051.946m-94.936 4.848c-1.631 1.631-1.567 4.005.172 6.384 1.392 1.903 1.436 1.903 3.547-.007 2.712-2.455 2.427-6.912-.469-7.327-1.106-.159-2.569.269-3.25.95m144.962 3.038c-1.87 1.87-1.502 7.47.541 8.254 1.973.757 5.259-2.595 5.259-5.365 0-1.918-1.858-4.089-3.5-4.089-.605 0-1.64.54-2.3 1.2m-27.95.531c-1.553.541-1.616 2.503-.128 3.991 1.522 1.522 3.878.476 3.878-1.722 0-1.924-1.734-2.973-3.75-2.269m-147.309 7.328c-4.925 4.925.901 13.109 6.029 8.468 2.418-2.188 2.652-6.762.459-8.956-2.12-2.12-4.023-1.977-6.488.488m161.541 5.078c-2.74 2.275-8.02 6.57-11.732 9.543-6.173 4.943-8.46 8.32-5.634 8.32.614 0 3.314-1.613 6-3.585 3.457-2.538 4.884-3.142 4.884-2.068 0 .834 1.462 2.537 3.25 3.784s5.95 4.65 9.25 7.563c3.3 2.914 6.536 5.299 7.191 5.302016 1.716.005984 2.531-1.720016 1.84-3.898016-.68-2.143-14.258-13.691-17.513-14.896-1.973-.729-1.66-1.213 3.919-6.066 9.207-8.008 7.853-11.729-1.455-3.999m-98.232 13.852c-4.22 2.573-4.112 4.632.352 6.761 3.545 1.69 3.631 1.681 5.5-.627 2.309-2.853 2.391-4.487.327-6.552-1.993-1.992-2.256-1.974-6.179.418m68.995 2.166c-.685.685-1.245 2.74-1.245 4.566 0 2.571.564 3.579 2.496 4.459 3.659 1.667 6.709-1.298 6.303-6.129-.264-3.135-.651-3.586-3.304-3.846-1.653-.162-3.565.265-4.25.95m47.352 15.01c-2.397 3.422-2.033 7.503.836 9.383 4.646 3.044 9.074-2.339 6.942-8.438-1.244-3.56-5.578-4.086-7.778-.945m-226.969 2.363c-.836 2.178-.854 2.103.941 3.899 2.157 2.156 5.677.313 5.242-2.745-.392-2.75-5.224-3.653-6.183-1.154m185.957 3.378c-2.571 2.841-1.798 8.493 1.22 8.921 3.272.464 5.237-1.572 5.024-5.205-.327-5.573-3.08-7.212-6.244-3.716m-94.835 3.174c-2.138 1.246-2.29 5.227-.263 6.909.853.708 2.559.965 4 .604 1.973-.495 2.513-1.265 2.513-3.577 0-1.889-.694-3.317-1.934-3.981-2.302-1.232-2.12-1.234-4.316.045m59.408 1.23c-.667.803-.785 2.445-.305 4.25 1.046 3.933 4.363 4.455 5.966.939 1.475-3.238 1.49-3.047-.39-4.928-1.915-1.914-3.821-2.009-5.271-.261m-86.509 4.161c-.31.809.156 2.191 1.036 3.071 1.42 1.42 1.769 1.432 3.095.107.821-.822 1.221-2.204.888-3.071-.763-1.99-4.267-2.064-5.019-.107m102.645 11.558c-7.876 7.736-13.997 12.971-15.168 12.971-3.677 0-5.126 1.156-5.126 4.088 0 2.235.558 3.014 2.513 3.505 2.812.705 5.461-.953 5.536-3.465.026-.896 2.542-3.653 5.591-6.128 3.048-2.475 9.101-8.384 13.451-13.131 7.193-7.851 9.22-10.919 7.159-10.84-.413.016-6.693 5.866-13.956 13m-172.972-10.779c-5.291 8.307-10.468 18.926-9.922 20.351.807 2.101 2.536 1.685 3.54-.851.489-1.238 2.953-5.839 5.475-10.226 2.522-4.386 4.585-8.549 4.585-9.25 0-1.639-2.639-1.656-3.678-.024m147.309 5c-1.742 1.787-5.906 6.32-9.251 10.072l-6.084 6.822-9.398-1.176c-12.734-1.594-13.341-1.614-13.787-.468-.7 1.8 4.191 3.314 16.389 5.071 6.6.951 13.081 1.774 14.402 1.829 3.422.142 3.775-2.192.518-3.43l-2.742-1.043 3.397-3.713c1.868-2.043 5.819-6.257 8.781-9.365 5.118-5.371 5.903-7.849 2.485-7.849-.848 0-2.967 1.463-4.71 3.25m-58.933 6.943c-6.257 8.306-19.698 32.298-19.698 35.16 0 1.05-2.225 1.596-8.719 2.137-11.079.923-13.52 1.81-13.1 4.762.363 2.555.757 2.592 15.444 1.479l9.126-.691.626 3.919c.971 6.068 14.004 34.023 16.184 34.712.516.163 1.614-.131 2.439-.653 1.329-.841 1.319-1.453-.089-5.38l-1.588-4.43 14.088-7.251c19.364-9.966 29.654-15.962 30.305-17.66.302-.787.061-1.92-.535-2.516-.78-.78-3.808.541-10.768 4.694-11.596 6.919-33.657 18.525-35.215 18.525-1.237 0-9.723-16.938-10.647-21.25-.572-2.672-.465-2.75 3.808-2.75 4.68 0 7.291-1.864 6.284-4.487-.421-1.098-2.097-1.513-6.112-1.513-3.042 0-5.531-.3-5.531-.667 0-1.438 7.558-14.349 14.161-24.191 7.235-10.782 8.239-14.371 4.183-14.949-1.481-.211-2.933.726-4.646 3m122.859.03c-.856 1.222-1.557 2.922-1.557 3.777 0 2.724 3.015 6 5.522 6 4.416 0 5.925-6.07 2.439-9.811-2.591-2.782-4.439-2.772-6.404.034m-12.557 11.362c-3.907 2.776-34.958 20.578-39.25 22.503-2.648 1.187-3.843 3.912-1.717 3.912 2.24 0 38.505-20.002 44.717-24.663 6.04-4.532 2.494-6.189-3.75-1.752m-216.8 2.615c-1.543 1.543-1.543 5.057 0 6.6 3.884 3.884 9.986-1.727 6.304-5.796-2.05-2.264-4.528-2.58-6.304-.804m21.706 7.858c-.659.407-.957 1.348-.663 2.091.719 1.819 20.408 10.199 22.277 9.482 1.827-.702 1.896-2.041.177-3.468-2.546-2.112-20.614-8.832-21.791-8.105m-36.935 8.733c-3.592 3.14-8.515 7.401-10.941 9.468-3.008 2.563-4.086 4.085-3.388 4.783.697.697 4.577-2.032 12.19-8.575 6.143-5.279 11.168-10.018 11.168-10.532 0-2.085-2.834-.561-9.029 4.856m172.279 1.617c-2.842 2.999-2.94 7.152-.203 8.617 2.816 1.507 9.327-1.642 9.766-4.723.849-5.967-5.245-8.449-9.563-3.894m-103.886 5.085c-.346.903-.15 2.121.436 2.707 1.524 1.524 4.41.131 4.012-1.935-.443-2.302-3.647-2.858-4.448-.772m60.24.662c-2.131 3.042-.408 6.073 3.213 5.655 3.337-.386 4.339-4.492 1.587-6.504-2.421-1.77-3.043-1.66-4.8.849m127.993 1.01c-2.877 4.107-1.496 8.835 2.58 8.835 2.448 0 5.036-4.282 4.646-7.685-.436-3.8-4.876-4.506-7.226-1.15m-30.397 2.035c-1.658 1.658-1.504 5.303.287 6.789 3.777 3.135 9.637-2.725 6.502-6.502-1.486-1.791-5.131-1.945-6.789-.287m-255.493 7.816c-3.388 2.665-3.617 7.059-.518 9.945 4.375 4.076 11.144 1.128 11.144-4.853 0-5.909-5.958-8.764-10.626-5.092m86.293 10.942c-9.729 9.249-12.237 12.153-11.312 13.1.926.95 3.013-.397 9.5-6.128 13.035-11.519 17.812-16.251 17.812-17.642 0-3.275-4.461-.3-16 10.67m-61.859-9.628c-1.699 2.048-.305 4.836 2.236 4.473 1.514-.216 2.123-1.017 2.123-2.789 0-2.853-2.566-3.844-4.359-1.684m40.721-.859c-.259.259-7.409.672-15.889.919-8.554.248-15.561.875-15.739 1.409-.512 1.535 5.342 1.986 18.766 1.444 12.298-.497 16.628-1.419 15.469-3.293-.63-1.02-1.843-1.243-2.607-.479m206.286 11.584c-5.694 6.015-10.756 10.687-11.25 10.382s-.898.372-.898 1.504.394 2.059.876 2.059c1.56 0 23.124-21.883 23.124-23.466 0-.844-.337-1.507-.75-1.475-.413.033-5.408 4.981-11.102 10.996m-79.539-6.479c-.707 1.843 14.978 18.924 17.377 18.924 3.693 0 1.764-3.808-6.059-11.956-8.294-8.639-10.221-9.826-11.318-6.968m50.909 6.388c-8.343 9.497-19.082 19.325-21.94 20.079-2.744.723-4.369 5.299-2.628 7.397 2.061 2.483 6.896 1.992 8.182-.831.65-1.427.739-3.017.221-3.944-.667-1.19 2.227-4.725 12.414-15.163 11.555-11.839 14.273-15.525 11.424-15.495181-.38.004181-3.833 3.585181-7.673 7.957181m-226.508 5.524c-1.632 1.967-.702 2.231 9.99 2.837 4.675.265 13.808 1.495 20.295 2.733 8.918 1.702 12.077 1.97 12.95 1.097 2.19-2.19-.981-3.46-14.465-5.796-15.759-2.73-26.946-3.068-28.77-.871m223.99 2.617c0 1.22 22.883 23.895 24.114 23.895 4.046 0-2.584-8.712-13.889-18.25-7.784-6.567-10.225-7.915-10.225-5.645m-236.506.904c-1.092 1.767.57 4.991 2.573 4.991 2.191 0 2.633-2.9.733-4.8-1.465-1.465-2.482-1.524-3.306-.191m61.464.541c-1.062 1.281-.997 1.84.378 3.214 1.552 1.553 1.776 1.553 3.328 0 1.375-1.374 1.44-1.933.378-3.214-.708-.852-1.627-1.55-2.042-1.55s-1.334.698-2.042 1.55m46.711 6.496c-3.034 2.386-3.329 3.487-1.16 4.319 2.741 1.052 6.662-1.146 6.31-3.538-.442-3.007-2.017-3.246-5.15-.781m-144.469.154c-2.21 2.21-1.342 5.565 2.05 7.926 1.788 1.244 12.925 11.738 24.75 23.32s30.275 29.134 41 39.005 30.3 28.59 43.5 41.598c23.961 23.612 51.642 49.985 65.139 62.063 13.075 11.7 45.558 42.182 62.816 58.946 9.375 9.107 18.836 17.995 21.025 19.752l3.98 3.194-4.383-.172c-3.482-.137-4.763.297-6.23 2.109-2.316 2.86-2.341 5.227-.085 8.014 1.414 1.745 3.742 2.457 11.75 3.591 14.444 2.046 23.704 1.91 26.546-.392 3.595-2.911 3.41-4.491-3.705-31.779-1.087-4.168-1.897-5.358-4.339-6.369-2.543-1.053-3.394-.987-5.562.433-3.596 2.357-3.906 3.813-2.493 11.72.685 3.833 1.087 7.128.893 7.32-.193.193-17.902-16.981-39.352-38.164s-43.5-42.608-49-47.611c-13.528-12.305-44.718-41.255-61.923-57.476-7.742-7.3-24.877-22.791-38.077-34.426-23.894-21.059-33.557-29.796-59.767-54.038-13.91-12.865-22.905-19.764-25.77-19.764-.859 0-2.103.54-2.763 1.2m47.8.939c0 1.394 28.93 31.232 30.72 31.684 3.578.904-.113-3.738-13.982-17.585-8.394-8.381-15.594-15.238-16-15.238s-.738.512-.738 1.139m67.423 18.707c-23.021 12.217-22.643 11.988-21.883 13.219.749 1.212 44.062-20.586 44.818-22.555 1.125-2.933-2.913-1.289-22.935 9.336m114.762-8.162c-2.078.831-3.339 5.16-2.15 7.381 1.823 3.407 8.965 2.251 8.965-1.449 0-4.422-3.334-7.325-6.815-5.932m-39.135 5.756c-1.893 2.28-.927 7.06 1.426 7.06 2.638 0 4.397-4.743 2.574-6.94-1.606-1.935-2.472-1.961-4-.12m113.173 4.117c-4.741 3.32-.909 10.768 4.557 8.857 3.364-1.176 4.226-5.645 1.64-8.502-2.098-2.319-3.296-2.387-6.197-.355m-94.115 12.693c-14.321 13.386-30.108 31.083-30.108 33.752 0 1.483-.46 2.035-1.397 1.676-.768-.295-5.156-1.275-9.75-2.179-11.678-2.297-21.121-4.434-21.568-4.881-.479-.479-8.114-23.049-7.887-23.318.092-.109 3.225.734 6.961 1.874 5.028 1.535 7.085 1.782 7.917.95s.822-1.426-.037-2.285c-1.432-1.432-12.903-5.2-24.233-7.961-4.672-1.138-9.32-2.511-10.328-3.05-1.009-.54-2.587-.689-3.506-.331-2.993 1.166 2.084 4.118 11.246 6.539 7.34 1.939 8.3 2.442 7.402 3.881-1.106 1.77.843 9.28 5.794 22.333 2.152 5.671 2.933 6.75 4.893 6.75 2.424 0 3.52.24 30.236 6.621 12.566 3.001 16.244 4.24 16.25 5.474.009 1.997 2.77 4.443 5.867 5.199 3.25.794 7.387-3.348 6.955-6.962-.442-3.694-2.998-5.079-6.754-3.661-2.563.967-3.068.881-3.541-.607-.356-1.122-2.22-2.057-5.285-2.649l-4.735-.915 20.801-20.8c16.591-16.591 20.677-21.195 20.183-22.75-1.302-4.103-5.111-2.294-15.376 7.3m-127.744 1.243c-.346.903-.195 2.076.336 2.607 1.399 1.399 4.453-.068 4.088-1.964-.424-2.201-3.646-2.669-4.424-.643m73.953 6.124c-1.587 4.135 3.14 9.845 6.433 7.771 2.737-1.724 2.657-4.282-.217-6.945-3.051-2.827-5.332-3.13-6.216-.826m62.883 8.583c-1.995 1.995-1.433 3.138 4.344 8.834 3.049 3.006 7.187 7.848 9.196 10.76 2.688 3.895 4.195 5.216 5.706 5 1.525-.218 2.054-1.031 2.054-3.156 0-2.471.604-3.086 4.423-4.5 7.637-2.828 4.461-5.555-3.326-2.856l-3.903 1.352-7.985-8.317c-4.392-4.574-8.283-8.317-8.647-8.317s-1.202.54-1.862 1.2m35.668 10.191c-.935 2.051-.838 3.006.513 5.068 2.087 3.184 4.967 3.267 6.372.184 1.4-3.073-.463-7.022-3.518-7.461-1.574-.226-2.549.414-3.367 2.209m37.911-.837c-.304.305-5.892.667-12.416.806-10.995.234-11.863.395-11.863 2.196 0 3.182 5.818 3.964 20.609 2.771 13.116-1.058 15.657-1.889 14.555-4.76-.432-1.126-1.972-1.567-5.466-1.567-2.676 0-5.114.249-5.419.554m18.792 1.017c-2.299 2.3-1.921 5.153.929 7.021 2.316 1.517 2.684 1.517 5 0 1.375-.901 2.5-2.496 2.5-3.544 0-2.428-2.595-5.048-5-5.048-1.021 0-2.564.707-3.429 1.571m-162.498 20.064c-3.713 4.72-1.827 10.365 3.463 10.365 2.857 0 4.464-2.604 4.464-7.234 0-6.025-4.311-7.728-7.927-3.131m99.131.935c-2.742 1.92-2.821 4.813-.204 7.43 3.965 3.965 8.988 1.463 7.29-3.631-.495-1.484-1.796-3.293-2.891-4.02-1.676-1.113-2.341-1.078-4.195.221m-66.492 1.123c-.808 1.367-.723 48.587.094 52.307.577 2.629 1.353 3.584 3.118 3.837 3.279.471 4.043-1.285 4.062-9.337l.016-7 12.944-.254c7.12-.14 14.111-.697 15.535-1.239 2.055-.781 2.715-.659 3.194.588.86 2.243 4.44 3.31 7.075 2.109 1.769-.806 2.25-1.852 2.25-4.897 0-4.612-2.823-6.372-7-4.365-1.463.704-8.054 1.308-15.885 1.456-7.362.14-14.449.659-15.75 1.153l-2.365.899-.1-15.225c-.118-18.068-.526-20.113-4.095-20.532-1.439-.169-2.831.056-3.093.5m121.817 10.662c-2.259 1.652-1.41 4.645 1.317 4.645 2.48 0 4.358-2.305 3.564-4.373-.76-1.982-2.416-2.074-4.881-.272m-12.63 12.463c-3.519 2.649-9.211 6.716-12.649 9.037-5.653 3.817-8.043 7.145-5.131 7.145 1.104 0 12.942-8.012 22.074-14.94 4.634-3.515 6.085-6.06 3.456-6.06-.743 0-4.23 2.168-7.75 4.818m-4.328 8.753c-.864.865-1.572 2.102-1.572 2.75-.002 1.371 17.377 18.569 21.48 21.257 2.732 1.79 2.81 1.783 4.6-.427 1.001-1.237 1.599-2.827 1.328-3.533-.685-1.786-22.023-21.618-23.259-21.618-.553 0-1.712.707-2.577 1.571m-26.595 9.453c-1.087 1.087-1.976 2.426-1.976 2.976s.889 1.889 1.976 2.976c2.977 2.977 6.524 1.358 6.524-2.976s-3.547-5.953-6.524-2.976m-47.479 1.98c-1.15 1.862.398 6.064 5.894 15.996 2.891 5.225 5.551 10.298 5.91 11.273.823 2.231 3.509 3.317 4.86 1.966 1.177-1.177-.266-4.529-8.472-19.688-5.353-9.891-6.88-11.67-8.192-9.547m32.503 7.149c-16.808 9.502-19.17 11.077-18.148 12.099.73.73 4.762-1.07 13.29-5.931 11.348-6.467 14.977-9.353 11.691-9.299-.733.012-3.808 1.421-6.833 3.131m-53.113 7.96-2.067 2.067 2.228 2.371c1.697 1.806 2.651 2.145 4.003 1.422 2.253-1.206 2.909-3.024 1.842-5.105-1.371-2.673-3.784-2.977-6.006-.755m124.565.32c-2.79 4.258 1.842 9.085 6.385 6.654 2.587-1.385 3.254-4.513 1.496-7.022-1.982-2.829-5.906-2.646-7.881.368m-42.252 10.767c-1.951 1.951-1.483 7.578.728 8.761 2.541 1.36 4.543.496 5.937-2.563 1.488-3.267 1.437-3.953-.436-5.827-1.872-1.871-4.568-2.032-6.229-.371m-16.7 6.213c-3.85 1.238-9.728 3.64-13.061 5.338l-6.062 3.087-1.131-2.996c-.875-2.32-1.651-2.922-3.438-2.669-1.928.273-2.358 1.012-2.611 4.493-.255 3.498.033 4.272 1.798 4.832 1.155.367 2.714.158 3.464-.464.937-.778 1.565-.804 2.011-.083 1.057 1.71 3.925 1.221 10.668-1.821 3.499-1.578 8.508-3.643 11.13-4.589 6.042-2.18 8.245-4.218 6.644-6.147-1.395-1.681-.818-1.744-9.412 1.019m17.865 8.079c-.315.82.429 3.182 1.653 5.25 1.224 2.067 3.43 6.908 4.903 10.758 2.308 6.034 3.016 7 5.128 7 2.074 0 2.439-.461 2.372-3-.043-1.65-.41-4.159-.815-5.576-.722-2.53-.576-2.616 8.127-4.75 10.67-2.617 10.191-2.598 9.609-.372-.696 2.661 8.279 21.198 10.263 21.198 2.223 0 1.373-2.938-4.056-14.009-4.199-8.564-4.305-8.992-2.229-9.006 3.148-.022 4.93-1.444 4.519-3.605-.564-2.971-8.181-2.945-19.23.065-5.159 1.405-9.596 2.555-9.861 2.555s-1.673-1.8-3.129-4c-2.734-4.131-6.175-5.321-7.254-2.508m48.385.08c-3.882 2.106-3.598 5.476.785 9.324 4.08 3.583 4.276 3.625 7.242 1.547 1.632-1.143 2.223-2.564 2.223-5.345 0-6.339-4.389-8.706-10.25-5.526m-35.083 28.095c-1.13 1.129-.737 7.863.533 9.133.66.66 2.145 1.2 3.3 1.2 2.955 0 4.5-1.888 4.5-5.5 0-1.705-.54-3.64-1.2-4.3-1.283-1.283-6.028-1.638-7.133-.533m34.908 10.251c-3.319 3.666.184 10.187 3.841 7.152 1.868-1.551 2.093-6.161.384-7.87-1.621-1.621-2.198-1.523-4.225.718m-30.539 9.539c-1.046 1.26-.537 3.245 2.939 11.485 4.788 11.346 6.3 13.212 8.733 10.779 1.476-1.477 1.471-1.958-.069-5.914-2.808-7.215-8.074-17.22-9.239-17.556-.605-.175-1.669.368-2.364 1.206m16.164 27.743c-2.803 2.803-.076 7.53 3.66 6.345 2.52-.8 3.408-3.175 2.101-5.617-1.163-2.175-3.961-2.528-5.761-.728" fill-rule="evenodd"/></svg>