<svg height="1225" viewBox="0 0 1000 1225" width="1000" xmlns="http://www.w3.org/2000/svg"><path d="m254.191 2.025c-9.688 2.538-16.021 6.117-24.167 13.659-15.244 14.113-22.241 39.384-22.24 80.316.001 27.824 2.837 44.53 10.318 60.784 1.7 3.694 3.915 10.541 4.922 15.216 3.179 14.758 8.88 34.591 14.945 51.993 3.225 9.254 7.29 21.929 9.033 28.166 1.744 6.238 6.484 19.666 10.534 29.841s9.443 25.7 11.983 34.5c2.541 8.8 9.476 28.15 15.411 43s11.543 29.592 12.461 32.76c.919 3.168 4.4 11.718 7.736 19s8.428 19.54 11.316 27.24c2.887 7.7 9.185 21.796 13.995 31.326 4.81 9.529 11.182 23.882 14.161 31.897 2.98 8.014 8.068 19.68 11.309 25.924 3.24 6.244 5.548 11.353 5.129 11.353s-6.147-1.097-12.728-2.437c-17.772-3.62-31.644-5.358-56.481-7.078-12.281-.85-29.978-2.64-39.328-3.977-19.554-2.797-95.436-11.922-112.5-13.528-15.168-1.428-52.433-1.428-78.008 0-14.73.823-24.422.851-34.401.099-7.641-.576-14.078-1.232-14.303-1.458-.954-.954 14.891-12.073 42.212-29.621 41.443-26.62 43.969-28.41 63.5-44.983 22.279-18.906 22.802-19.273 72.5-50.927 7.15-4.554 16.6-10.688 21-13.63 11.457-7.663 45.83-36.221 46.916-38.979 1.356-3.444-1.569-7.481-5.418-7.481-2.37 0-6.484 3.029-20.727 15.258-23.338 20.038-24.487 20.882-61.628 45.299-31.235 20.534-38.465 25.905-64.326 47.789-13.136 11.115-20.713 16.392-61.028 42.504-24.946 16.158-41.022 27.723-44.266 31.848-3.652 4.643-2.115 8.796 4.135 11.172 9.006 3.424 39.807 5.143 70.312 3.924 17.186-.687 31.107-.667 44.654.066 18.738 1.013 79.139 7.871 124.376 14.122 26.5 3.662 27.69 3.79 47 5.025 20.748 1.327 37.534 3.473 55.406 7.083 7.923 1.601 15.649 2.91 17.168 2.91 3.289 0 3.606.84 12.807 34 6.958 25.077 9.543 32.411 22.479 63.796 5.281 12.812 11.869 30.362 14.64 38.998l5.038 15.703-2.706 2.002c-9.952 7.362-68.907 48.179-88.332 61.155-30.666 20.485-45.442 32.386-75 60.41-17.093 16.206-54.552 48.017-80.239 68.141-10.035 7.862-23.199 18.525-29.254 23.696-15.41 13.161-39.706 31.305-60.464 45.152-19.477 12.993-21.629 15.337-18.254 19.877 4.785 6.435 17.175 3.011 50.738-14.021 40.985-20.798 65.685-35.032 106.473-61.354 12.925-8.342 34.075-21.399 47-29.017 12.925-7.617 47.8-28.546 77.5-46.509 78.931-47.738 98.856-59.104 100.545-57.356.44.455 3.5 7.611 6.802 15.903s9.223 22.017 13.159 30.5 8.975 19.699 11.199 24.924c2.223 5.225 7.077 15.575 10.786 23 3.71 7.425 7.514 16.2 8.453 19.5 2.049 7.198 4.668 12.003 16.138 29.604 5.526 8.479 15.055 26.059 25.964 47.896 19.329 38.692 21.976 43 26.425 43 5.831 0 5.712-2.514-.861-18.246-9.431-22.568-30.423-64.744-41.189-82.754-8.318-13.913-10.109-17.676-11.427-24-.86-4.125-3.844-12.675-6.631-19s-7.898-18.475-11.357-27c-3.458-8.525-8.629-20.675-11.49-27-6.224-13.759-18.112-44.486-25.64-66.273-2.997-8.675-8.133-21.676-11.413-28.89-3.94-8.666-5.963-14.407-5.963-16.92 0-2.534-.608-4.24-1.821-5.11-1.083-.778-4.081-7.992-7.399-17.807-3.068-9.075-9.506-25.725-14.306-37-13.496-31.7-17.18-41.82-23.616-64.872-7.57-27.112-8.964-30.743-19.787-51.52-4.901-9.409-11.212-22.889-14.024-29.956-2.811-7.066-9.733-21.916-15.38-33-5.648-11.083-11.99-24.849-14.093-30.59-2.104-5.741-6.854-16.991-10.556-25s-7.531-17.037-8.509-20.062-6.032-15.625-11.232-28c-10.585-25.191-12.27-29.746-19.424-52.5-2.766-8.8-7.073-20.725-9.57-26.5-2.498-5.775-7.811-19.95-11.808-31.5-3.996-11.55-10.252-29.589-13.902-40.086-3.65-10.498-6.393-19.723-6.095-20.5.398-1.04 1.975-1.324 5.963-1.075 5.333.333 5.462.275 7.853-3.5 1.337-2.112 9.984-11.206 19.215-20.209 17.9-17.457 20.599-19.267 33.555-22.495 8.316-2.072 20.057-2.141 23.925-.141 2.256 1.167 4.257 1.308 9.127.642 8.729-1.194 10.202-3.162 9.707-12.971-.344-6.82-.613-7.588-3.575-10.234-6.224-5.562-22.656-8.177-34.994-5.571-9.844 2.079-22.743 7.482-31.049 13.004-3.784 2.515-10.352 8.3-14.597 12.855-4.244 4.554-8.029 8.61-8.412 9.011-4.834 5.075-19.208 18.037-19.203 17.318.004-.524-1.38-2.384-3.075-4.133-3.531-3.643-7.097-14.548-8.99-27.493-1.587-10.856-.631-51.845 1.55-66.422 1.969-13.156 6.399-27.007 10.584-33.09 4.481-6.513 12.201-11.857 20.935-14.493 6.936-2.092 8.223-2.181 17.202-1.185 11.491 1.276 17.061 3.612 27.914 11.708 7.238 5.4 19.172 18.844 24.018 27.058 1.097 1.859 3.291 8.323 4.877 14.365 1.585 6.041 5.831 18.672 9.437 28.068 3.605 9.396 6.555 17.33 6.555 17.631 0 1.427 12.433 31.344 15.871 38.191 7.114 14.167 19.895 48.324 31.711 84.747 6.423 19.8 13.422 40.95 15.554 47s9.518 27.425 16.414 47.5c42.299 123.136 41.027 119.576 48.952 136.954 2.896 6.35 7.394 18.296 9.996 26.546s8.453 24.225 13.002 35.5c4.55 11.275 9.388 24.1 10.752 28.5 3.381 10.909 13.239 36.054 20.779 53 3.426 7.7 7.094 16.475 8.151 19.5 2.483 7.103 8.755 30.902 10.015 38 3.108 17.515 5.688 27.667 11.816 46.5 3.758 11.55 8.009 25.489 9.447 30.977 1.437 5.487 4.347 14.297 6.465 19.577s4.81 13.298 5.982 17.818c3.389 13.076 6.782 22.233 16.349 44.128 14.618 33.455 24.343 57.063 30.633 74.357 3.256 8.953 8.459 22.687 11.562 30.52 3.104 7.833 6.951 17.788 8.549 22.122 6.226 16.888 11.436 24.001 17.577 24.001 2.09 0 4.202-.779 5.423-2 2.697-2.697 2.642-8.11-.108-10.595-2.609-2.357-5.977-8.915-9.815-19.11-1.614-4.287-4.785-12.295-7.046-17.795s-8.206-21.25-13.211-35-14.03-37.15-20.057-52-12.927-32.625-15.334-39.5c-5.554-15.863-12.429-42.008-12.429-47.269 0-7.205-7.055-35.699-14.658-59.196-4.383-13.548-8.645-29.115-10.395-37.966-5.313-26.881-6.633-30.206-12.215-30.763-2.797-.28-3.249-.863-5.269-6.806-1.215-3.575-4.332-11.225-6.926-17-5.72-12.733-15.06-36.886-19.529-50.5-1.805-5.5-6.566-18.162-10.581-28.138-4.014-9.976-9.406-24.826-11.982-33s-7.829-22.737-11.673-32.362-12.964-34.6-20.265-55.5c-7.302-20.9-14.724-41.6-16.493-46-1.77-4.4-8.292-22.85-14.493-41-6.202-18.15-12.62-36.6-14.263-41s-8.294-24.2-14.779-44c-12.527-38.242-26.673-75.174-34.475-90-7.557-14.362-24.51-59.295-30.028-79.588-3.9-14.345-5.387-17.109-16.815-31.26-9.426-11.673-15.04-16.78-26.459-24.072-7.781-4.969-12.281-6.449-24.702-8.125-13.431-1.811-15.939-1.754-24.809.57m424.336 32.57c-8.249 3.02-67.788 33.628-87.797 45.135-4.274 2.458-8.324 4.181-9 3.83-.677-.351-2.304-1.256-3.618-2.01-6.443-3.701-25.079 7.576-54.689 33.095-18.97 16.349-48.452 39.466-71.219 55.843-8.962 6.447-17.036 12.851-17.94 14.232-1.467 2.239-1.486 2.796-.173 5.145 1.029 1.843 2.442 2.729 4.7 2.949 2.757.268 5.383-1.268 17.95-10.5 8.096-5.948 21.162-15.888 29.034-22.09 13.688-10.782 14.409-11.208 16.492-9.75 1.198.839 2.933 1.526 3.855 1.526s5.66-3.159 10.528-7.021c32.54-25.814 64.484-46.369 106.82-68.735 21.342-11.275 21.565-11.353 17.21-5.995-1.9 2.338-7.171 9.876-11.712 16.751-7.168 10.85-11.386 15.668-31.959 36.5-24.342 24.649-33.483 35.793-59.476 72.5-19.272 27.217-46.212 59.587-73.953 88.858-4.584 4.838-8.627 9.714-8.983 10.837-1.753 5.522 4.333 10.729 9.493 8.122 2.991-1.511 14.686-13.795 36.972-38.833 20.013-22.485 32.379-37.82 54.422-67.484 27.766-37.367 31.293-41.53 55.503-65.5 16.034-15.875 24.291-24.855 28.042-30.5 11.202-16.854 15.81-22.248 27.126-31.753 16.664-13.997 25.845-23.787 25.845-27.559 0-4.392-.889-6.079-4.072-7.725-3.399-1.758-4.271-1.746-9.401.132m-197.661 277.942c-5.787 3.088-4.069 10.497 2.88 12.418 22.051 6.094 36.099 9.519 49.637 12.101 43.677 8.329 53.089 11.03 83.617 23.987 10.175 4.319 27.05 10.997 37.5 14.839s25.243 9.527 32.874 12.632c7.63 3.104 17.305 6.491 21.5 7.526 10.229 2.523 30.144 4.6 62.126 6.478 43.654 2.564 92.478 7.524 133.06 13.518 11.242 1.66 27.19 3.939 35.44 5.064 8.25 1.124 18.118 2.697 21.928 3.496 6.92 1.45 23.315 6.798 24.464 7.981 1.197 1.231-14.994 15.317-26.583 23.126-15.862 10.688-26.821 17.211-59.089 35.171-15.003 8.352-35.478 20.193-45.5 26.314-10.021 6.121-30.145 18.322-44.72 27.115-14.575 8.792-34.6 21.241-44.5 27.664-29.823 19.348-62.538 39.554-70.5 43.544-11.865 5.946-23.919 12.903-46.5 26.838-35.05 21.628-61.93 38.83-63.25 40.475-3.025 3.77.352 9.868 4.974 8.984 1.262-.241 12.415-6.766 24.785-14.498 45.127-28.211 62.855-38.851 80.509-48.32 20.604-11.052 40.326-23.027 72.482-44.011 12.375-8.075 36-22.929 52.5-33.008s36.75-22.449 45-27.49c8.25-5.04 25.575-15.016 38.5-22.169 58.173-32.191 86.917-52.827 93.121-66.853 1.712-3.87 1.804-4.843.68-7.186-1.67-3.479-7.043-6.486-18.301-10.24-12.814-4.274-18.085-5.188-75-13.007-70.895-9.739-87.953-11.682-128-14.576-39.884-2.883-60.221-5.446-70.125-8.84-3.781-1.296-13.11-4.918-20.73-8.05s-21.12-8.34-30-11.572c-8.88-3.233-24.709-9.448-35.176-13.812-26.955-11.238-36.916-14.197-72.502-21.543-17.307-3.572-37.767-8.263-45.467-10.423-18.95-5.318-18.65-5.267-21.634-3.673m71.134 254.751c-1.702.856-2.596 2.235-2.801 4.32-.472 4.799 1.454 5.643 12.544 5.501 8.577-.11 34.889 2.19 35.832 3.132.192.193-4.967 3.821-11.466 8.064-6.498 4.242-12.61 8.591-13.581 9.664-2.31 2.553-1.306 6.719 1.98 8.217 2.199 1.002 3.462.444 12.222-5.403 12.994-8.671 26.874-16.573 31.62-18.001 2.118-.637 4.532-2.199 5.365-3.47 1.362-2.078 1.349-2.565-.123-4.812-.901-1.375-2.085-2.5-2.632-2.5s-11.853-1.35-25.124-3c-25.802-3.208-39.779-3.754-43.836-1.712m-136 154.07c-33.262 23.416-64.673 45.233-81.514 56.615-11.008 7.44-22.708 15.61-26 18.156-10.551 8.159-34.614 29.127-47.17 41.102-12.757 12.167-54.813 47.62-83.816 70.656-9.35 7.426-21.602 17.449-27.228 22.272-5.625 4.823-14.512 11.991-19.75 15.927-5.237 3.937-9.522 7.332-9.522 7.545 0 .646 19.765-9.468 32-16.375 19.434-10.97 37.476-21.96 62-37.768 12.925-8.331 32.95-20.68 44.5-27.441 11.55-6.762 43.725-25.902 71.5-42.533 52.717-31.566 77.552-46.019 99.629-57.98l13.129-7.113-4.24-12.03c-4.331-12.29-14.616-36.371-15.518-36.334043-.275.011043-3.875 2.397043-8 5.301043m200.751 260.068c-2.062.735-6.562 3.144-10 5.353-3.438 2.208-11.387 7.074-17.664 10.813-13.486 8.032-19.087 12.949-19.087 16.753 0 2.518 3.017 6.655 4.853 6.655.469 0 .642 2.199.384 4.887-.425 4.418-.171 5.201 2.647 8.149 1.714 1.793 3.116 3.803 3.116 4.465 0 2.1 12.003 33.745 15.172 39.999 5.655 11.162 18.683 27.06 32.127 39.206 18.675 16.872 48.783 54.544 63.373 79.294 12.627 21.42 14.243 23.732 17.757 25.399 3.793 1.8 7.836.933 10.208-2.188 1.526-2.009 1.696-8.06.384-13.734-2.094-9.063-9.011-54.84-10.044-66.477-.611-6.875-2.16-18.35-3.442-25.5s-2.62-15.475-2.972-18.5c-3.2-27.482-15.436-70.761-25.051-88.607-2.402-4.459-4.681-9.779-5.065-11.822-1.415-7.543-8.372-12.704-19.576-14.522-9.21-1.495-32.54-1.258-37.12.377m6.749 16.499c-5.469 2.829-20.639 14.354-27.969 21.249-4.852 4.565-5.787 5.924-4.781 6.95.688.702 1.25 2.76 1.25 4.573 0 4.151 14.168 36.704 19.416 44.61 4.834 7.284 21.283 24.583 30.694 32.283 7.529 6.159 25.321 25.796 34.802 38.41 3.1 4.125 9.629 13.472 14.508 20.771 4.879 7.3 9.022 13.121 9.207 12.936.184-.185-.572-5.02-1.682-10.745s-2.677-16.979-3.482-25.009c-1.478-14.737-8.701-52.661-14.943-78.453-5.39-22.273-11.765-39.696-17.928-49-2.915-4.4-6.49-9.902-7.944-12.226-3.998-6.389-6.19-7.391-17.364-7.939-8.52-.417-10.301-.212-13.784 1.59m14.753 15.226c-5.17 3.624-5.939 6.223-4.436 14.989 2.517 14.677 10.093 27.717 18.362 31.604 2.438 1.146 5.026 2.798 5.75 3.67 1.775 2.14 6.38 2.007 8.416-.243 1.298-1.434 1.655-3.9 1.655-11.438 0-11.887-3.379-23.603-8.614-29.869-1.862-2.229-3.386-4.426-3.386-4.882 0-.455-1.385-2.213-3.077-3.905-4.073-4.073-8.789-4.05-14.67.074" fill-rule="evenodd" transform="translate(.5 .5)"/></svg>