<svg width="390" height="119" viewBox="0 0 390 119" fill="none" xmlns="http://www.w3.org/2000/svg">
<path d="M15.1936 104.635C17.1629 104.635 18.4589 103.459 18.4589 101.562C18.4589 99.4019 17.1629 98.4659 15.1216 98.4659H9.79225V104.635H15.1936ZM20.3549 113.182H18.2909C18.0989 112.726 17.9789 112.15 17.9789 111.382V109.102C17.9789 107.493 17.1376 106.605 15.2416 106.605H9.79225V113.182H7.75092V96.5206H15.1216C18.5309 96.5206 20.5229 98.5859 20.5229 101.562C20.5229 103.339 19.6589 104.779 18.2429 105.597C19.3709 106.269 19.9949 107.421 19.9949 109.102V111.165C19.9949 111.79 20.1629 112.702 20.3549 113.182" fill="#8996A0"/>
<path d="M32.4983 105.716C31.9943 103.699 30.3129 102.355 28.5129 102.355C26.8076 102.355 25.0076 103.603 24.4796 105.716H32.4983ZM34.4663 109.341C33.6023 111.981 31.4903 113.469 28.6329 113.469C25.0796 113.469 22.2956 110.637 22.2956 107.013C22.2956 103.435 25.0796 100.507 28.5129 100.507C31.7063 100.507 34.7783 103.147 34.7543 107.54H24.3596C24.6236 110.109 26.5916 111.623 28.6329 111.623C30.3849 111.623 31.6343 110.781 32.3049 109.341H34.4663Z" fill="#8996A0"/>
<path d="M41.5685 113.495C38.5685 113.495 36.3832 111.885 36.0472 109.269H38.1112C38.3752 110.709 39.7925 111.597 41.5685 111.597C43.4885 111.597 44.6658 110.661 44.6658 109.58C44.6658 108.717 44.3298 108.069 41.3045 107.66C38.3032 107.229 36.4792 106.508 36.4792 104.18C36.4792 102.404 38.0152 100.507 41.3285 100.507C44.1858 100.507 46.1058 101.947 46.3698 104.371H44.3058C44.0178 103.051 42.8418 102.379 41.3285 102.379C39.6965 102.379 38.5192 103.147 38.5192 104.108C38.5192 104.996 39.2165 105.307 41.6405 105.692C44.3778 106.124 46.6338 106.652 46.6338 109.461C46.6338 111.933 44.5218 113.495 41.5685 113.495Z" fill="#8996A0"/>
<path d="M58.3459 105.716C57.8419 103.699 56.1605 102.355 54.3605 102.355C52.6552 102.355 50.8552 103.603 50.3272 105.716H58.3459ZM60.3139 109.341C59.4499 111.981 57.3379 113.469 54.4805 113.469C50.9272 113.469 48.1432 110.637 48.1432 107.013C48.1432 103.435 50.9272 100.507 54.3605 100.507C57.5539 100.507 60.6259 103.147 60.6019 107.54H50.2072C50.4712 110.109 52.4392 111.623 54.4805 111.623C56.2325 111.623 57.4819 110.781 58.1525 109.341H60.3139Z" fill="#8996A0"/>
<path d="M71.0646 106.532C70.2486 107.252 68.7846 107.42 67.3193 107.516C64.6313 107.684 64.0313 108.62 64.0313 109.654C64.0313 110.998 65.3273 111.574 66.9113 111.574C69.0246 111.574 71.0166 110.662 71.0646 108.428V106.532ZM71.0886 111.766C70.2006 112.846 68.7593 113.47 66.8393 113.47C64.2953 113.47 62.014 112.318 62.014 109.654C62.014 107.108 63.8633 105.955 67.0553 105.787C70.0806 105.644 71.0646 105.092 71.0646 104.108C71.0646 103.123 70.1286 102.379 68.0393 102.379C66.7433 102.379 65.0393 102.787 64.8233 104.587H62.71C62.854 102.115 64.8953 100.506 68.0646 100.506C71.3766 100.506 73.058 102.043 73.058 104.347V111.166C73.058 111.79 73.226 112.702 73.418 113.182H71.4006C71.2326 112.822 71.1126 112.342 71.0886 111.766" fill="#8996A0"/>
<path d="M82.3199 102.547C80.1825 102.427 78.3585 103.556 78.3585 106.028V113.183H76.3185V100.819H78.2879V102.211C79.2239 100.891 80.9039 100.361 82.3199 100.529V102.547Z" fill="#8996A0"/>
<path d="M89.3276 113.47C85.9183 113.47 83.1329 110.59 83.1329 107.013C83.1329 103.435 85.9183 100.506 89.3276 100.506C92.0876 100.506 94.2489 102.139 95.0889 104.635H92.9049C92.2089 103.291 90.9369 102.379 89.3276 102.379C87.0476 102.379 85.1743 104.467 85.1743 107.013C85.1743 109.557 87.0476 111.598 89.3276 111.598C90.9609 111.598 92.2329 110.685 92.9049 109.341H95.0889C94.2729 111.838 92.0876 113.47 89.3276 113.47Z" fill="#8996A0"/>
<path d="M107.665 113.182H105.648V105.667C105.648 103.747 104.617 102.378 102.624 102.378C100.75 102.378 99.3823 103.77 99.3823 105.619V113.182H97.3423V95.3208H99.3823V102.066C100.222 101.106 101.448 100.506 102.912 100.506C105.937 100.506 107.665 102.666 107.665 105.739V113.182Z" fill="#8996A0"/>
<path d="M112.774 113.181H110.372V110.709H112.774V113.181Z" fill="#8996A0"/>
<path d="M124.75 113.181H122.71V96.5201H124.75V113.181Z" fill="#8996A0"/>
<path d="M138.673 113.182H136.655V105.667C136.655 103.77 135.599 102.378 133.631 102.378C131.758 102.378 130.39 103.77 130.39 105.619V113.182H128.35V100.819H130.318V102.162C131.158 101.13 132.43 100.506 133.919 100.506C136.945 100.506 138.673 102.666 138.673 105.739V113.182Z" fill="#8996A0"/>
<path d="M152.256 113.182H150.239V105.667C150.239 103.77 149.183 102.378 147.215 102.378C145.341 102.378 143.973 103.77 143.973 105.619V113.182H141.933V100.819H143.901V102.162C144.741 101.13 146.013 100.506 147.503 100.506C150.528 100.506 152.256 102.666 152.256 105.739V113.182Z" fill="#8996A0"/>
<path d="M164.999 107.036C164.999 104.467 163.127 102.379 160.822 102.379C158.541 102.379 156.669 104.467 156.669 107.036C156.669 109.558 158.541 111.598 160.822 111.598C163.127 111.598 164.999 109.558 164.999 107.036ZM167.039 107.036C167.039 110.59 164.351 113.47 160.822 113.47C157.317 113.47 154.603 110.59 154.603 107.036C154.603 103.435 157.317 100.507 160.822 100.507C164.351 100.507 167.039 103.435 167.039 107.036Z" fill="#8996A0"/>
<path d="M174.502 113.182H172.317L167.827 100.819H169.989L173.421 110.661L176.83 100.819H178.991L174.502 113.182Z" fill="#8996A0"/>
<path d="M188.832 106.532C188.016 107.252 186.55 107.42 185.085 107.516C182.397 107.684 181.797 108.62 181.797 109.654C181.797 110.998 183.093 111.574 184.678 111.574C186.792 111.574 188.784 110.662 188.832 108.428V106.532ZM188.856 111.766C187.968 112.846 186.526 113.47 184.606 113.47C182.061 113.47 179.781 112.318 179.781 109.654C179.781 107.108 181.629 105.955 184.822 105.787C187.848 105.644 188.832 105.092 188.832 104.108C188.832 103.123 187.896 102.379 185.806 102.379C184.51 102.379 182.805 102.787 182.589 104.587H180.476C180.621 102.115 182.661 100.506 185.83 100.506C189.142 100.506 190.824 102.043 190.824 104.347V111.166C190.824 111.79 190.992 112.702 191.185 113.182H189.168C189 112.822 188.88 112.342 188.856 111.766" fill="#8996A0"/>
<path d="M199.294 113.182C196.412 113.518 194.42 111.814 194.42 108.669V102.764H192.739V100.82H194.42V98.1783H196.436V100.82H199.246V102.764H196.436V108.669C196.436 110.854 197.78 111.406 199.294 111.31V113.182Z" fill="#8996A0"/>
<path d="M203.47 113.181H201.428V100.819H203.47V113.181ZM203.47 98.9467H201.428V96.5214H203.47V98.9467Z" fill="#8996A0"/>
<path d="M216.287 107.036C216.287 104.467 214.415 102.379 212.11 102.379C209.829 102.379 207.957 104.467 207.957 107.036C207.957 109.558 209.829 111.598 212.11 111.598C214.415 111.598 216.287 109.558 216.287 107.036ZM218.327 107.036C218.327 110.59 215.639 113.47 212.11 113.47C208.605 113.47 205.891 110.59 205.891 107.036C205.891 103.435 208.605 100.507 212.11 100.507C215.639 100.507 218.327 103.435 218.327 107.036Z" fill="#8996A0"/>
<path d="M231.07 113.182H229.053V105.667C229.053 103.77 227.997 102.378 226.029 102.378C224.155 102.378 222.787 103.77 222.787 105.619V113.182H220.747V100.819H222.715V102.162C223.555 101.13 224.827 100.506 226.317 100.506C229.342 100.506 231.07 102.666 231.07 105.739V113.182Z" fill="#8996A0"/>
<path d="M236.18 113.181H233.779V110.709H236.18V113.181Z" fill="#8996A0"/>
<path d="M251.229 113.47C247.387 113.47 244.867 111.238 244.867 107.901H246.979C246.979 110.133 248.707 111.526 251.229 111.526C254.086 111.526 255.479 110.326 255.479 108.453C255.479 107.059 254.854 106.101 251.182 105.477C247.483 104.829 245.371 103.675 245.371 100.819C245.371 97.962 247.651 96.1126 251.182 96.1126C254.83 96.1126 257.087 98.082 257.087 101.298H255.023C255.023 99.354 253.701 98.0566 251.205 98.0566C248.637 98.0566 247.435 99.186 247.435 100.746C247.435 102.187 248.203 102.907 251.613 103.531C255.262 104.227 257.519 105.261 257.519 108.453C257.519 111.718 254.95 113.47 251.229 113.47Z" fill="#8996A0"/>
<path d="M270.141 113.182H268.172V111.838C267.333 112.846 266.084 113.47 264.572 113.47C261.548 113.47 259.819 111.31 259.819 108.261V100.82H261.836V108.357C261.836 110.325 262.916 111.622 264.884 111.622C266.709 111.622 268.101 110.254 268.101 108.405V100.82H270.141V113.182Z" fill="#8996A0"/>
<path d="M277.964 113.495C274.963 113.495 272.779 111.885 272.443 109.269H274.507C274.771 110.709 276.188 111.597 277.964 111.597C279.884 111.597 281.062 110.661 281.062 109.58C281.062 108.717 280.726 108.069 277.7 107.66C274.7 107.229 272.875 106.508 272.875 104.18C272.875 102.404 274.411 100.507 277.724 100.507C280.582 100.507 282.502 101.947 282.767 104.371H280.702C280.414 103.051 279.236 102.379 277.724 102.379C276.092 102.379 274.916 103.147 274.916 104.108C274.916 104.996 275.611 105.307 278.036 105.692C280.772 106.124 283.031 106.652 283.031 109.461C283.031 111.933 280.918 113.495 277.964 113.495Z" fill="#8996A0"/>
<path d="M290.54 113.182C287.659 113.518 285.667 111.814 285.667 108.669V102.764H283.985V100.82H285.667V98.1783H287.683V100.82H290.492V102.764H287.683V108.669C287.683 110.854 289.027 111.406 290.54 111.31V113.182Z" fill="#8996A0"/>
<path d="M300.813 106.532C299.997 107.252 298.532 107.42 297.067 107.516C294.379 107.684 293.779 108.62 293.779 109.654C293.779 110.998 295.075 111.574 296.66 111.574C298.773 111.574 300.765 110.662 300.813 108.428V106.532ZM300.837 111.766C299.949 112.846 298.508 113.47 296.588 113.47C294.043 113.47 291.763 112.318 291.763 109.654C291.763 107.108 293.611 105.955 296.804 105.787C299.829 105.644 300.813 105.092 300.813 104.108C300.813 103.123 299.877 102.379 297.788 102.379C296.492 102.379 294.787 102.787 294.571 104.587H292.457C292.603 102.115 294.643 100.506 297.812 100.506C301.124 100.506 302.805 102.043 302.805 104.347V111.166C302.805 111.79 302.973 112.702 303.167 113.182H301.149C300.981 112.822 300.861 112.342 300.837 111.766" fill="#8996A0"/>
<path d="M308.131 113.181H306.09V100.819H308.131V113.181ZM308.131 98.9467H306.09V96.5214H308.131V98.9467Z" fill="#8996A0"/>
<path d="M321.789 113.182H319.771V105.667C319.771 103.77 318.715 102.378 316.747 102.378C314.874 102.378 313.506 103.77 313.506 105.619V113.182H311.466V100.819H313.434V102.162C314.274 101.13 315.546 100.506 317.035 100.506C320.061 100.506 321.789 102.666 321.789 105.739V113.182Z" fill="#8996A0"/>
<path d="M333.212 106.532C332.396 107.252 330.93 107.42 329.465 107.516C326.777 107.684 326.177 108.62 326.177 109.654C326.177 110.998 327.473 111.574 329.058 111.574C331.172 111.574 333.164 110.662 333.212 108.428V106.532ZM333.236 111.766C332.348 112.846 330.906 113.47 328.986 113.47C326.441 113.47 324.161 112.318 324.161 109.654C324.161 107.108 326.009 105.955 329.202 105.787C332.228 105.644 333.212 105.092 333.212 104.108C333.212 103.123 332.276 102.379 330.186 102.379C328.89 102.379 327.185 102.787 326.969 104.587H324.856C325.001 102.115 327.041 100.506 330.21 100.506C333.522 100.506 335.204 102.043 335.204 104.347V111.166C335.204 111.79 335.372 112.702 335.565 113.182H333.548C333.38 112.822 333.26 112.342 333.236 111.766" fill="#8996A0"/>
<path d="M344.708 102.403C342.427 102.403 340.507 104.467 340.507 107.037C340.507 109.557 342.427 111.622 344.708 111.622C347.013 111.622 348.837 109.557 348.837 107.037C348.837 104.467 347.013 102.403 344.708 102.403ZM344.708 113.494C342.883 113.494 341.299 112.462 340.435 111.19V113.182H338.465V95.3208H340.507V102.691C341.395 101.49 342.931 100.506 344.708 100.506C348.26 100.506 350.877 103.434 350.877 107.013C350.877 110.59 348.26 113.494 344.708 113.494Z" fill="#8996A0"/>
<path d="M355.362 113.181H353.32V100.819H355.362V113.181ZM355.362 98.9467H353.32V96.5214H355.362V98.9467Z" fill="#8996A0"/>
<path d="M360.784 113.181H358.744V95.3201H360.784V113.181Z" fill="#8996A0"/>
<path d="M365.97 113.181H363.928V100.819H365.97V113.181ZM365.97 98.9467H363.928V96.5214H365.97V98.9467Z" fill="#8996A0"/>
<path d="M374.514 113.182C371.633 113.518 369.641 111.814 369.641 108.669V102.764H367.959V100.82H369.641V98.1783H371.657V100.82H374.466V102.764H371.657V108.669C371.657 110.854 373.001 111.406 374.514 111.31V113.182Z" fill="#8996A0"/>
<path d="M381.449 115.558C380.586 117.864 379.217 118.8 376.745 118.536V116.662C378.353 116.784 379.025 116.278 379.553 114.838L380.201 113.11L375.471 100.818H377.681L381.281 110.661L384.81 100.818H386.994L381.449 115.558Z" fill="#8996A0"/>
<path d="M388.96 113.181H386.559V110.709H388.96V113.181Z" fill="#8996A0"/>
<path d="M80.3759 77.6509H71.8186V71.7909C68.1759 76.1895 62.7386 78.8882 56.1679 78.8882C43.0106 78.8882 35.5012 69.5149 35.5012 56.2469V23.8975H44.2599V56.6789C44.2599 65.2269 48.9599 70.8562 57.5146 70.8562C65.4492 70.8562 71.5092 64.9055 71.5092 56.8829V23.8975H80.3759V77.6509Z" fill="#8996A0"/>
<path d="M167.848 77.6509H159.301V71.7909C155.637 76.1895 150.211 78.8882 143.637 78.8882C130.493 78.8882 122.973 69.5149 122.973 56.2469V23.8975H131.743V56.6789C131.743 65.2269 136.441 70.8562 144.999 70.8562C152.921 70.8562 158.981 64.9055 158.981 56.8829V23.8975H167.848V77.6509Z" fill="#8996A0"/>
<path d="M389.052 77.6509H380.285V44.9842C380.285 36.6389 375.796 30.6909 367.13 30.6909C358.994 30.6909 353.046 36.7322 353.046 44.7735V77.6509H344.177V0.000211309H353.046V29.3229C356.7 25.1535 362.016 22.5469 368.386 22.5469C381.533 22.5469 389.052 31.9402 389.052 45.2962V77.6509Z" fill="#8996A0"/>
<path d="M204.349 49.8047C204.322 49.5207 204.294 49.2087 204.277 48.9247C204.294 49.2087 204.322 49.5207 204.349 49.8047Z" fill="#8996A0"/>
<path d="M204.277 48.9243C204.249 48.3803 204.241 47.851 204.241 47.3176C204.241 47.851 204.249 48.3723 204.277 48.9243Z" fill="#8996A0"/>
<path d="M204.405 50.5285V50.5645C204.378 50.3098 204.369 50.0525 204.349 49.8045C204.359 50.0525 204.378 50.2991 204.405 50.5285Z" fill="#8996A0"/>
<path d="M204.24 47.3174C204.24 46.9107 204.259 46.508 204.267 46.124C204.248 46.5254 204.24 46.9294 204.24 47.3174Z" fill="#8996A0"/>
<path d="M204.285 49.1898C204.294 49.5018 204.33 49.8045 204.349 50.1245C204.378 50.3565 204.386 50.5751 204.405 50.7965C204.405 50.8045 204.405 50.8045 204.413 50.8231C204.762 54.3125 205.671 57.6271 207.03 60.7005C210.381 68.2471 216.523 74.2605 224.114 77.5125C223.078 75.4271 222.443 73.1325 222.307 70.6898V70.6165C222.279 70.3231 222.269 70.0471 222.269 69.7445C222.269 69.2205 222.307 68.6978 222.369 68.1458C222.369 68.1018 222.389 68.0471 222.389 68.0071C222.443 67.5418 222.518 67.0725 222.59 66.6511C220.353 64.9818 218.395 62.9418 216.854 60.5991C215.65 58.7578 214.678 56.7551 214.017 54.6245C214.237 54.6405 214.458 54.6511 214.678 54.6511C214.961 54.6511 215.237 54.6245 215.541 54.5885C216.053 54.5418 216.515 54.4871 216.945 54.3871C222.362 53.4845 227.291 51.2631 231.441 48.0885C233.682 46.3805 235.682 44.3805 237.409 42.1485C240.641 37.9631 242.889 32.9765 243.779 27.4951C243.854 27.0365 243.925 26.5965 243.981 26.1458C243.991 26.1191 243.991 26.0725 243.991 26.0445C244.027 25.7885 244.045 25.5405 244.045 25.2925C244.045 25.0978 244.037 24.9151 244.019 24.7244C243.735 19.4005 239.346 15.1311 233.955 15.0565C233.91 15.0565 233.323 15.0751 233.075 15.1018C232.966 15.1125 232.863 15.1125 232.754 15.1311C232.385 15.1845 232.011 15.2498 231.681 15.3031C231.258 15.3778 230.845 15.4698 230.43 15.5525C230.33 15.5791 230.238 15.5978 230.155 15.6071C228.623 15.9365 227.135 16.3511 225.695 16.8911C225.641 16.9018 225.594 16.9205 225.546 16.9471C219.241 19.2698 213.879 23.4578 210.114 28.8818C209.894 29.2031 209.674 29.5165 209.473 29.8378C209.315 30.0658 209.17 30.3031 209.033 30.5338C208.655 31.1418 208.298 31.7725 207.966 32.4071C207.921 32.5071 207.875 32.5925 207.819 32.6831C207.451 33.4165 207.111 34.1618 206.802 34.9045C206.783 34.9605 206.765 34.9978 206.746 35.0498C205.146 38.8978 204.241 43.0938 204.241 47.5178C204.241 48.0698 204.258 48.6191 204.285 49.1898ZM213.163 44.4165C213.182 44.2685 213.201 44.1111 213.227 43.9765V43.9658C213.238 43.9218 213.246 43.8831 213.246 43.8378C213.263 43.7738 213.271 43.7005 213.282 43.6165C213.383 42.9845 213.522 42.3698 213.667 41.7445C214.073 40.1351 214.633 38.5951 215.338 37.1338C215.457 36.8885 215.569 36.6205 215.706 36.3738C215.845 36.1165 216.001 35.8698 216.139 35.6205C216.367 35.2178 216.605 34.8218 216.863 34.4351C216.974 34.2511 217.093 34.0871 217.211 33.9125C217.559 33.4165 217.927 32.9205 218.313 32.4551C218.35 32.3991 218.395 32.3245 218.45 32.2685C222.279 27.6605 227.813 24.5018 234.093 23.7858C234.757 23.9151 235.278 24.4485 235.342 25.1351C235.306 25.4298 235.259 25.7325 235.203 26.0645C233.551 36.2365 225.594 44.1658 215.423 45.8298C215.311 45.8378 215.201 45.8671 215.09 45.8925C215.09 45.8925 215.009 45.9031 214.678 45.9378L214.539 45.9498C213.797 45.8925 213.207 45.2885 213.145 44.5538C213.153 44.4991 213.163 44.4605 213.163 44.4165Z" fill="#8996A0"/>
<path d="M269.385 45.8306C269.366 45.508 269.329 45.188 269.302 44.8826C269.293 44.656 269.273 44.4346 269.265 44.216C269.254 44.1946 269.254 44.1946 269.246 44.1853C268.897 40.6973 267.998 37.3853 266.63 34.308C263.278 26.7613 257.156 20.748 249.556 17.5066C250.581 19.572 251.226 21.8773 251.364 24.312V24.3933C251.382 24.688 251.398 24.972 251.398 25.2666C251.398 25.788 251.364 26.3106 251.29 26.8626C251.29 26.9173 251.29 26.9546 251.28 27.0106C251.226 27.4693 251.152 27.936 251.078 28.36C253.318 30.0386 255.273 32.0666 256.816 34.4093C258.009 36.2546 258.982 38.2453 259.653 40.3853C259.433 40.3666 259.213 40.3573 258.993 40.3573C258.698 40.3573 258.422 40.3853 258.121 40.4213C257.606 40.4693 257.156 40.5306 256.714 40.6146C251.308 41.524 246.378 43.7453 242.229 46.912C239.988 48.6373 237.986 50.6333 236.26 52.8613C233.02 57.0493 230.77 62.0306 229.89 67.5133C229.808 67.9706 229.742 68.4133 229.689 68.8613C229.678 68.8906 229.67 68.9293 229.67 68.9733C229.633 69.2213 229.614 69.4693 229.614 69.716C229.614 69.9093 229.633 70.0853 229.641 70.2866C229.936 75.612 234.316 79.88 239.712 79.9453C239.749 79.9453 240.346 79.9373 240.594 79.9066C240.704 79.9066 240.804 79.88 240.906 79.88C241.282 79.8253 241.65 79.76 241.98 79.7053C242.404 79.6306 242.814 79.5413 243.24 79.44C243.329 79.44 243.421 79.412 243.516 79.3853C245.037 79.0653 246.524 78.64 247.974 78.1173C248.021 78.1093 248.068 78.0906 248.124 78.0626C254.429 75.74 259.792 71.536 263.546 66.1173C263.766 65.804 263.986 65.4946 264.197 65.1746C264.345 64.9426 264.501 64.7053 264.638 64.4666C265.005 63.8586 265.362 63.2453 265.693 62.5933C265.749 62.5213 265.794 62.4186 265.84 62.3173C266.216 61.5906 266.548 60.8666 266.868 60.104C266.878 60.052 266.906 60.0026 266.924 59.9506C268.53 56.1093 269.43 51.9093 269.43 47.492C269.43 46.94 269.412 46.3906 269.385 45.8306ZM260.508 50.5826C260.488 50.74 260.462 50.8986 260.433 51.024V51.044C260.433 51.0813 260.425 51.128 260.413 51.172C260.406 51.2373 260.396 51.3173 260.377 51.3933C260.276 52.016 260.149 52.6426 259.993 53.2653C259.597 54.872 259.026 56.416 258.33 57.8746C258.202 58.1226 258.09 58.388 257.953 58.628C257.816 58.8933 257.67 59.14 257.524 59.388C257.293 59.8026 257.065 60.1906 256.808 60.5733C256.689 60.7546 256.578 60.924 256.458 61.096C256.11 61.5906 255.752 62.088 255.365 62.5573C255.309 62.6306 255.273 62.6853 255.22 62.74C251.39 67.3493 245.846 70.508 239.574 71.224C238.913 71.096 238.392 70.5626 238.317 69.8826V69.864C238.362 69.5786 238.4 69.276 238.464 68.9453C240.118 58.7733 248.068 50.8413 258.248 49.1906C258.358 49.172 258.468 49.1453 258.569 49.1146C258.58 49.1146 258.661 49.096 258.993 49.0786L259.132 49.0626C259.865 49.1333 260.462 49.7213 260.516 50.4586C260.516 50.5133 260.508 50.5466 260.508 50.5826" fill="#8996A0"/>
<path d="M204.901 22.6482C198.741 21.9135 191.425 24.2175 187.365 29.9562V23.8975H178.799V77.6509H187.678V46.5549C187.678 37.9709 192.737 33.1229 199.502 31.7722C200.889 28.4869 202.723 25.4295 204.901 22.6589V22.6482Z" fill="#8996A0"/>
<path d="M302.223 22.6482C296.063 21.9135 288.755 24.2175 284.689 29.9562V23.8975H276.131V77.6509H285.001V46.5549C285.001 37.9709 290.058 33.1229 296.825 31.7722C298.211 28.4869 300.046 25.4295 302.223 22.6589V22.6482Z" fill="#8996A0"/>
<path d="M115.373 69.5519C115.373 69.5333 115.373 69.5333 115.363 69.5333C109.221 69.6453 103.979 67.0359 103.979 58.0239V32.3533H111.499C112.719 29.3413 114.289 26.5039 116.161 23.8973H103.979V12.4319H95.2119V23.8973H87.9039V32.3533H95.2119V58.0239C95.2119 71.6999 103.871 79.1093 116.4 77.6506V72.3413V69.5159C116.052 69.5333 115.712 69.5333 115.373 69.5519Z" fill="#8996A0"/>
<path d="M334.473 69.5519V69.5333C328.323 69.6453 323.071 67.0359 323.071 58.0239V32.3533H330.592C331.812 29.3413 333.381 26.5039 335.253 23.8973H323.071V12.4319H314.313V23.8973H306.997V32.3533H314.313V58.0239C314.313 71.6999 322.971 79.1093 335.492 77.6506V72.3413V69.5159C335.145 69.5333 334.805 69.5333 334.473 69.5519Z" fill="#8996A0"/>
<path d="M28.2853 24.1098H16.0773V22.0258C16.0773 18.3605 16.7 13.4605 19.4187 10.9511C21.5027 8.97112 24.4227 8.24446 28.4867 8.55646V0.532458C22.2267 -0.220875 17.2227 1.15646 13.468 4.60846C9.392 8.24446 7.308 14.1938 7.308 22.0258V24.1098H0V32.5631H7.308V77.6511H16.0773V32.5631H23.696C24.8893 29.5618 26.432 26.7245 28.2853 24.1365V24.1098Z" fill="#8996A0"/>
</svg>
