<svg width="120" height="120" viewBox="0 0 120 120" fill="none" xmlns="http://www.w3.org/2000/svg">
<path d="M0.196784 63.7268C0.153079 63.1862 0.105573 62.6323 0.0742188 62.0945C0.105573 62.6446 0.153079 63.1862 0.196784 63.7268Z" fill="#8996A0"/>
<path d="M0.0742924 62.0947C0.0286867 61.1218 0.000183105 60.147 0.000183105 59.1636C0.000183105 60.1261 0.0239361 61.1038 0.0742924 62.0947Z" fill="#8996A0"/>
<path d="M0.29185 65.0721C0.295651 65.0863 0.295651 65.0968 0.295651 65.1091C0.252895 64.6531 0.230093 64.1866 0.196838 63.7267C0.230093 64.1752 0.252895 64.6198 0.29185 65.0721Z" fill="#8996A0"/>
<path d="M0 59.1636C0 58.4301 0.0285036 57.6985 0.0579573 56.9707C0.023753 57.7146 0 58.4481 0 59.1636Z" fill="#8996A0"/>
<path d="M16.3614 53.8432C16.3975 53.5733 16.4431 53.3035 16.4839 53.0308L16.4887 53.0156C16.5039 52.9425 16.5172 52.8684 16.5267 52.7923C16.5514 52.6574 16.5675 52.5254 16.5865 52.3876C16.7804 51.2256 17.015 50.075 17.2915 48.9444C18.0241 45.9885 19.0711 43.1743 20.3528 40.4997C20.5789 40.0332 20.788 39.5543 21.0265 39.1002C21.2773 38.6223 21.5585 38.1653 21.8255 37.7044C22.2521 36.9653 22.6816 36.2356 23.1452 35.5334C23.3504 35.2104 23.5709 34.8987 23.7808 34.5861C24.425 33.6636 25.092 32.7619 25.7999 31.8916C25.8854 31.789 25.9661 31.6759 26.0535 31.5733C33.0873 23.1002 43.2488 17.3348 54.7452 16.0123C55.9652 16.2365 56.9267 17.2275 57.0502 18.4797C57.0455 18.4873 57.0455 18.494 57.0455 18.5016C56.978 19.0298 56.8916 19.5705 56.7871 20.1804C53.7552 38.8398 39.1747 53.4061 20.501 56.4227C20.3053 56.456 20.1039 56.495 19.9082 56.5463C19.8949 56.5463 19.7552 56.5795 19.1452 56.627L18.8944 56.6565C17.5367 56.5387 16.4507 55.4498 16.3357 54.095C16.3452 54.0113 16.3547 53.9315 16.3614 53.8432V53.8432ZM0.0820141 62.5767C0.110518 63.1638 0.168475 63.7339 0.21028 64.3163C0.246385 64.7258 0.265387 65.1315 0.306242 65.5401C0.306242 65.5572 0.310043 65.5686 0.315744 65.5857C0.965626 71.9743 2.62454 78.0674 5.1262 83.7083C11.2716 97.5363 22.5143 108.594 36.4488 114.526C34.56 110.721 33.379 106.505 33.1348 102.025L33.1262 101.895C33.0892 101.364 33.0635 100.842 33.0635 100.3C33.0635 99.3425 33.1262 98.3829 33.2497 97.3691C33.2649 97.2769 33.2735 97.1867 33.283 97.1021C33.3885 96.2442 33.5205 95.3976 33.6516 94.6138C29.5414 91.5449 25.9614 87.8128 23.1348 83.5145C20.9267 80.1482 19.1471 76.4769 17.9253 72.5586C18.33 72.5881 18.7367 72.6175 19.1471 72.6175C19.6687 72.6175 20.1761 72.5672 20.7329 72.4959C21.6773 72.4199 22.5086 72.2993 23.3077 72.1216C33.2307 70.476 42.2759 66.4057 49.8863 60.5767C53.9899 57.4327 57.665 53.7738 60.8222 49.6835C66.7576 42.0037 70.8849 32.855 72.5153 22.8075C72.656 21.9828 72.788 21.1581 72.8849 20.3401C72.8973 20.2773 72.902 20.2089 72.9068 20.1462C72.9742 19.6873 73.0123 19.2265 73.0123 18.76C73.0123 18.4132 72.9742 18.075 72.9609 17.7386C72.4241 7.94479 64.3852 0.135758 54.5058 -0.000109613C54.4146 -0.000109613 53.3438 0.0217433 52.8811 0.0787505C52.6863 0.091102 52.4935 0.112006 52.3015 0.14146C51.6127 0.239323 50.9429 0.351433 50.3357 0.452145C49.5566 0.577561 48.8013 0.767589 48.0317 0.920558C47.8635 0.951912 47.6925 0.98707 47.5196 1.02032C44.7224 1.60845 41.987 2.38565 39.3467 3.35477C39.2554 3.38327 39.1652 3.42127 39.0797 3.45453C27.5091 7.72722 17.6792 15.4194 10.7747 25.3567C10.3728 25.9372 9.97561 26.5187 9.59271 27.1116C9.32003 27.5372 9.04259 27.9534 8.77846 28.3847C8.09627 29.5049 7.44639 30.6498 6.83927 31.8194C6.7471 31.9895 6.66159 32.1643 6.57038 32.3363C5.892 33.6607 5.27917 35.0242 4.6958 36.4009C4.66254 36.4873 4.62454 36.5757 4.59128 36.6612C1.65446 43.7149 0.000305176 51.427 0.000305176 59.5239C0.000305176 60.533 0.0288074 61.5515 0.0820141 62.5767Z" fill="#8996A0"/>
<path d="M103.188 65.1668C103.154 65.4366 103.112 65.7064 103.065 65.9801L103.064 65.9943C103.05 66.0713 103.035 66.1454 103.024 66.2233C103.004 66.3573 102.981 66.4884 102.963 66.6271C102.772 67.7872 102.536 68.9359 102.259 70.0675V70.0703C101.531 73.0233 100.48 75.8356 99.1939 78.5169C98.9697 78.9767 98.7645 79.4585 98.5203 79.9136C98.2714 80.3905 97.9939 80.8475 97.7269 81.3112C97.3013 82.0485 96.8709 82.7772 96.4063 83.4822C96.1963 83.8024 95.9816 84.1159 95.7706 84.4295C95.1274 85.3473 94.4604 86.2509 93.7535 87.1193C93.6661 87.2247 93.5854 87.3359 93.4989 87.4366C86.4642 95.9098 76.3036 101.678 64.8072 103.002C63.5863 102.778 62.6257 101.786 62.5022 100.535C62.505 100.528 62.505 100.516 62.505 100.516C62.5735 99.9772 62.6599 99.4404 62.7644 98.8323C65.7972 80.1739 80.3778 65.6067 99.0476 62.5891C99.2481 62.5587 99.4476 62.5178 99.6452 62.4694C99.6576 62.4646 99.7963 62.4342 100.404 62.3867L100.657 62.3525C102.017 62.4741 103.1 63.5611 103.217 64.9188C103.207 64.9995 103.197 65.0803 103.188 65.1668ZM119.471 56.4352C119.442 55.8527 119.385 55.2732 119.336 54.6945C119.306 54.2879 119.283 53.8841 119.245 53.4708C119.245 53.4527 119.238 53.4413 119.238 53.4233C118.583 47.0366 116.926 40.9463 114.422 35.3064C108.277 21.4746 97.0371 10.4228 83.0998 4.48737C84.9906 8.29259 86.1725 12.5121 86.4177 16.9862L86.4262 17.1173C86.4614 17.6475 86.4861 18.1757 86.4861 18.7097C86.4861 19.6712 86.4262 20.628 86.297 21.6389C86.2884 21.7387 86.278 21.828 86.2675 21.9145C86.164 22.7696 86.03 23.6161 85.8998 24.4028C90.0101 27.4708 93.5892 31.2 96.4167 35.4955C98.621 38.8655 100.404 42.5311 101.626 46.4513C101.222 46.4294 100.817 46.3981 100.404 46.3981C99.8828 46.3981 99.3763 46.4408 98.8167 46.5178C97.8685 46.5919 97.0419 46.7154 96.2419 46.8874C86.315 48.5349 77.2709 52.6052 69.6651 58.4323C65.5625 61.5763 61.8894 65.2361 58.7293 69.3254C52.7939 77.0128 48.6647 86.1634 47.0361 96.2005C46.8955 97.0252 46.7644 97.8528 46.6637 98.6718C46.658 98.7373 46.6485 98.8048 46.639 98.8684C46.5772 99.3245 46.5411 99.7834 46.5411 100.256C46.5411 100.597 46.5772 100.937 46.5962 101.279C47.1274 111.065 55.1663 118.875 65.0457 119.011C65.1359 119.011 66.2096 118.988 66.6694 118.935C66.8632 118.923 67.059 118.899 67.2499 118.871C67.935 118.77 68.6077 118.661 69.2148 118.562C69.9948 118.433 70.7502 118.248 71.5207 118.09C71.6889 118.063 71.8599 118.026 72.0309 117.993C74.8291 117.404 77.5654 116.624 80.2067 115.658C80.2951 115.627 80.3863 115.593 80.4728 115.559C92.0452 111.283 101.869 103.588 108.779 93.658C109.18 93.0784 109.574 92.495 109.96 91.8993C110.234 91.4794 110.512 91.0594 110.777 90.629C111.455 89.505 112.106 88.363 112.713 87.1962C112.804 87.0262 112.89 86.8542 112.978 86.6775C113.656 85.3549 114.272 83.9915 114.856 82.6138C114.889 82.5235 114.926 82.438 114.962 82.3478C117.896 75.2998 119.552 67.5867 119.552 59.486C119.552 58.4808 119.52 57.4632 119.471 56.4352" fill="#8996A0"/>
</svg>
